<svg width="610" height="145" viewBox="0 0 610 145" fill="none" xmlns="http://www.w3.org/2000/svg">
<path d="M273.807 84.5739H293.86L283.994 54.6182L273.807 84.5739ZM274.825 37.2129H293.485L321.474 113.342H303.565L298.471 97.6924H269.356L263.887 113.342H246.622L274.825 37.2129Z" fill="#D594DC"/>
<path d="M355.415 101.256C358.99 101.256 362.01 99.965 364.477 97.3826C366.943 94.7657 368.177 90.6167 368.177 84.9354C368.177 79.5985 366.997 75.5355 364.638 72.7466C362.314 69.9576 359.186 68.5631 355.254 68.5631C349.892 68.5631 346.193 70.9905 344.155 75.8454C343.083 78.4278 342.547 81.6128 342.547 85.4003C342.547 88.6713 343.119 91.5808 344.262 94.1287C346.336 98.8803 350.053 101.256 355.415 101.256ZM351.608 55.7028C354.539 55.7028 357.095 56.1332 359.276 56.994C362.993 58.4746 365.996 61.1947 368.284 65.1543V57.0456H383.136V110.449C383.136 117.715 381.867 123.189 379.329 126.873C374.968 133.209 366.604 136.377 354.236 136.377C346.765 136.377 340.67 134.965 335.951 132.142C331.233 129.318 328.623 125.1 328.123 119.488H344.745C345.174 121.209 345.871 122.449 346.836 123.206C348.48 124.549 351.251 125.221 355.147 125.221C360.652 125.221 364.334 123.447 366.193 119.901C367.408 117.629 368.016 113.807 368.016 108.435V104.82C366.55 107.23 364.977 109.038 363.297 110.243C360.259 112.481 356.309 113.6 351.447 113.6C343.941 113.6 337.935 111.069 333.431 106.008C328.963 100.912 326.729 94.0255 326.729 85.3486C326.729 76.9817 328.892 69.9576 333.217 64.2763C337.542 58.5606 343.673 55.7028 351.608 55.7028Z" fill="#D594DC"/>
<path d="M422.547 101.256C426.121 101.256 429.142 99.965 431.608 97.3826C434.075 94.7657 435.308 90.6167 435.308 84.9354C435.308 79.5985 434.128 75.5355 431.769 72.7466C429.446 69.9576 426.318 68.5631 422.386 68.5631C417.024 68.5631 413.324 70.9905 411.287 75.8454C410.214 78.4278 409.678 81.6128 409.678 85.4003C409.678 88.6713 410.25 91.5808 411.394 94.1287C413.467 98.8803 417.185 101.256 422.547 101.256ZM418.74 55.7028C421.671 55.7028 424.227 56.1332 426.407 56.994C430.125 58.4746 433.128 61.1947 435.415 65.1543V57.0456H450.268V110.449C450.268 117.715 448.999 123.189 446.461 126.873C442.1 133.209 433.735 136.377 421.367 136.377C413.896 136.377 407.801 134.965 403.083 132.142C398.364 129.318 395.755 125.1 395.254 119.488H411.876C412.305 121.209 413.002 122.449 413.968 123.206C415.612 124.549 418.382 125.221 422.279 125.221C427.783 125.221 431.465 123.447 433.324 119.901C434.54 117.629 435.147 113.807 435.147 108.435V104.82C433.682 107.23 432.109 109.038 430.429 110.243C427.39 112.481 423.44 113.6 418.579 113.6C411.072 113.6 405.067 111.069 400.563 106.008C396.094 100.912 393.86 94.0255 393.86 85.3486C393.86 76.9817 396.023 69.9576 400.348 64.2763C404.674 58.5606 410.804 55.7028 418.74 55.7028Z" fill="#D594DC"/>
<path d="M474.665 50.3314H459.169V36.748H474.665V50.3314ZM459.169 57.0456H474.665V113.342H459.169V57.0456Z" fill="#D594DC"/>
<path d="M512.037 67.6851C508.498 67.6851 505.746 68.7525 503.78 70.8872C501.85 73.022 500.634 75.9143 500.134 79.5641H523.887C523.637 75.6733 522.404 72.7294 520.187 70.7323C518.007 68.7008 515.29 67.6851 512.037 67.6851ZM512.037 55.5478C516.899 55.5478 521.278 56.4259 525.174 58.1819C529.07 59.9379 532.288 62.7097 534.826 66.4972C537.113 69.8371 538.597 73.7107 539.276 78.1179C539.669 80.7003 539.83 84.419 539.759 89.2739H499.758C499.973 94.9207 501.814 98.8804 505.281 101.153C507.39 102.565 509.928 103.27 512.895 103.27C516.041 103.27 518.597 102.41 520.563 100.688C521.635 99.7584 522.582 98.4672 523.405 96.8144H539.008C538.615 100.154 536.809 103.546 533.592 106.989C528.588 112.464 521.582 115.201 512.574 115.201C505.138 115.201 498.579 112.894 492.895 108.28C487.212 103.666 484.37 96.1602 484.37 85.7618C484.37 76.0176 486.926 68.5459 492.037 63.3467C497.185 58.1475 503.851 55.5478 512.037 55.5478Z" fill="#D594DC"/>
<path d="M559.062 113.342H539.866L565.281 74.5542L541.099 37.2129H560.831L574.933 61.9522L589.41 37.2129H608.499L584.316 73.9345L610 113.342H589.946L574.933 87.4145L559.062 113.342Z" fill="#D594DC"/>
<circle cx="43.2813" cy="98.812" r="35.5233" stroke="#D594DC" stroke-width="15.5159"/>
<circle cx="101.466" cy="63.4928" r="54.3058" stroke="#D594DC" stroke-width="18.3741"/>
<circle cx="175.371" cy="86.3586" r="48.9977" stroke="#D594DC" stroke-width="18.3741"/>
</svg>
