<svg width="301" height="180" viewBox="0 0 301 180" fill="none" xmlns="http://www.w3.org/2000/svg">
<path d="M84.7321 65.3C84.7321 69 85.1321 72 85.8321 74.2C86.6321 76.4 87.6321 78.8 89.0321 81.4C89.5321 82.2 89.7321 83 89.7321 83.7C89.7321 84.7 89.1321 85.7 87.8321 86.7L81.5321 90.9C80.6321 91.5 79.7321 91.8 78.9321 91.8C77.9321 91.8 76.9321 91.3 75.9321 90.4C74.5321 88.9 73.3321 87.3 72.3321 85.7C71.3321 84 70.3321 82.1 69.2321 79.8C61.4321 89 51.6321 93.6 39.8321 93.6C31.4321 93.6 24.7321 91.2 19.8321 86.4C14.9321 81.6 12.4321 75.2 12.4321 67.2C12.4321 58.7 15.4321 51.8 21.5321 46.6C27.6321 41.4 35.7321 38.8 46.0321 38.8C49.4321 38.8 52.9321 39.1 56.6321 39.6C60.3321 40.1 64.1321 40.9 68.1321 41.8V34.5C68.1321 26.9 66.5321 21.6 63.4321 18.5C60.2321 15.4 54.8321 13.9 47.1321 13.9C43.6321 13.9 40.0321 14.3 36.3321 15.2C32.6321 16.1 29.0321 17.2 25.5321 18.6C23.9321 19.3 22.7321 19.7 22.0321 19.9C21.3321 20.1 20.8321 20.2 20.4321 20.2C19.0321 20.2 18.3321 19.2 18.3321 17.1V12.2C18.3321 10.6 18.5321 9.4 19.0321 8.7C19.5321 8 20.4321 7.3 21.8321 6.6C25.3321 4.8 29.5321 3.3 34.4321 2.1C39.3321 0.8 44.5321 0.2 50.0321 0.2C61.9321 0.2 70.6321 2.9 76.2321 8.3C81.7321 13.7 84.5321 21.9 84.5321 32.9V65.3H84.7321ZM44.1321 80.5C47.4321 80.5 50.8321 79.9 54.4321 78.7C58.0321 77.5 61.2321 75.3 63.9321 72.3C65.5321 70.4 66.7321 68.3 67.3321 65.9C67.9321 63.5 68.3321 60.6 68.3321 57.2V53C65.4321 52.3 62.3321 51.7 59.1321 51.3C55.9321 50.9 52.8321 50.7 49.7321 50.7C43.0321 50.7 38.1321 52 34.8321 54.7C31.5321 57.4 29.9321 61.2 29.9321 66.2C29.9321 70.9 31.1321 74.4 33.6321 76.8C36.0321 79.3 39.5321 80.5 44.1321 80.5ZM124.432 91.3C122.632 91.3 121.432 91 120.632 90.3C119.832 89.7 119.132 88.3 118.532 86.4L95.0321 9.1C94.4321 7.1 94.1321 5.8 94.1321 5.1C94.1321 3.5 94.9321 2.6 96.5321 2.6H106.332C108.232 2.6 109.532 2.9 110.232 3.6C111.032 4.2 111.632 5.6 112.232 7.5L129.032 73.7L144.632 7.5C145.132 5.5 145.732 4.2 146.532 3.6C147.332 3 148.732 2.6 150.532 2.6H158.532C160.432 2.6 161.732 2.9 162.532 3.6C163.332 4.2 164.032 5.6 164.432 7.5L180.232 74.5L197.532 7.5C198.132 5.5 198.832 4.2 199.532 3.6C200.332 3 201.632 2.6 203.432 2.6H212.732C214.332 2.6 215.232 3.4 215.232 5.1C215.232 5.6 215.132 6.1 215.032 6.7C214.932 7.3 214.732 8.1 214.332 9.2L190.232 86.5C189.632 88.5 188.932 89.8 188.132 90.4C187.332 91 186.032 91.4 184.332 91.4H175.732C173.832 91.4 172.532 91.1 171.732 90.4C170.932 89.7 170.232 88.4 169.832 86.4L154.332 21.9L138.932 86.3C138.432 88.3 137.832 89.6 137.032 90.3C136.232 91 134.832 91.3 133.032 91.3H124.432ZM252.932 94C247.732 94 242.532 93.4 237.532 92.2C232.532 91 228.632 89.7 226.032 88.2C224.432 87.3 223.332 86.3 222.932 85.4C222.532 84.5 222.332 83.5 222.332 82.6V77.5C222.332 75.4 223.132 74.4 224.632 74.4C225.232 74.4 225.832 74.5 226.432 74.7C227.032 74.9 227.932 75.3 228.932 75.7C232.332 77.2 236.032 78.4 239.932 79.2C243.932 80 247.832 80.4 251.832 80.4C258.132 80.4 263.032 79.3 266.432 77.1C269.832 74.9 271.632 71.7 271.632 67.6C271.632 64.8 270.732 62.5 268.932 60.6C267.132 58.7 263.732 57 258.832 55.4L244.332 50.9C237.032 48.6 231.632 45.2 228.332 40.7C225.032 36.3 223.332 31.4 223.332 26.2C223.332 22 224.232 18.3 226.032 15.1C227.832 11.9 230.232 9.1 233.232 6.9C236.232 4.6 239.632 2.9 243.632 1.7C247.632 0.5 251.832 0 256.232 0C258.432 0 260.732 0.1 262.932 0.4C265.232 0.7 267.332 1.1 269.432 1.5C271.432 2 273.332 2.5 275.132 3.1C276.932 3.7 278.332 4.3 279.332 4.9C280.732 5.7 281.732 6.5 282.332 7.4C282.932 8.2 283.232 9.3 283.232 10.7V15.4C283.232 17.5 282.432 18.6 280.932 18.6C280.132 18.6 278.832 18.2 277.132 17.4C271.432 14.8 265.032 13.5 257.932 13.5C252.232 13.5 247.732 14.4 244.632 16.3C241.532 18.2 239.932 21.1 239.932 25.2C239.932 28 240.932 30.4 242.932 32.3C244.932 34.2 248.632 36.1 253.932 37.8L268.132 42.3C275.332 44.6 280.532 47.8 283.632 51.9C286.732 56 288.232 60.7 288.232 65.9C288.232 70.2 287.332 74.1 285.632 77.5C283.832 80.9 281.432 83.9 278.332 86.3C275.232 88.8 271.532 90.6 267.232 91.9C262.732 93.3 258.032 94 252.932 94Z" fill="#D594DC"/>
<path fill-rule="evenodd" clip-rule="evenodd" d="M271.832 142.6C238.932 166.9 191.132 179.8 150.032 179.8C92.432 179.8 40.532 158.5 1.33202 123.1C-1.76798 120.3 1.03202 116.5 4.73202 118.7C47.132 143.3 99.432 158.2 153.532 158.2C190.032 158.2 230.132 150.6 267.032 135C272.532 132.5 277.232 138.6 271.832 142.6Z" fill="#D594DC"/>
<path fill-rule="evenodd" clip-rule="evenodd" d="M285.532 127C281.332 121.6 257.732 124.4 247.032 125.7C243.832 126.1 243.332 123.3 246.232 121.2C265.032 108 295.932 111.8 299.532 116.2C303.132 120.7 298.532 151.6 280.932 166.4C278.232 168.7 275.632 167.5 276.832 164.5C280.832 154.6 289.732 132.3 285.532 127Z" fill="#D594DC"/>
</svg>
