<svg width="384" height="234" viewBox="0 0 384 234" fill="none" xmlns="http://www.w3.org/2000/svg">
<path d="M29.6094 49.8044C37.1665 49.8044 43.6571 51.236 48.9424 54.2576L49.4502 54.5554L49.4688 54.5662L49.4863 54.5779C55.7418 58.4784 58.9648 64.2221 58.9648 71.5427V82.1287C73.9035 82.1422 86.2826 87.3424 95.8896 97.7664L96.3398 98.2546C105.724 108.562 110.332 121.869 110.332 137.949C110.332 157.579 104.639 172.782 92.8779 183.091C82.2098 192.45 67.8253 196.992 50.0195 196.992C32.4645 196.992 19.0123 193.608 10.1562 186.369L10.1465 186.361C5.0683 182.166 2.5 176.636 2.5 169.98V57.1189L3.74023 56.3953C7.09722 54.437 11.0566 52.864 15.582 51.6482L15.5908 51.6453C20.2225 50.4192 24.8971 49.8044 29.6094 49.8044ZM55.9375 135.996C55.9375 139.503 55.7083 143.96 55.2578 149.349C55.3075 149.213 55.3575 149.05 55.4072 148.859C55.8405 147.119 56.1133 143.261 56.1133 136.972V127.011C56.1133 126.23 56.0614 125.642 55.9834 125.219C55.9687 125.139 55.9521 125.069 55.9375 125.008V135.996Z" fill="white" stroke="#D594DC" stroke-width="5"/>
<path d="M357.766 73.4373C364.358 73.4373 369.769 74.5351 373.672 77.0593L374.132 77.3679C378.806 80.6331 380.871 86.0716 380.871 92.9294C380.871 96.689 380.474 99.9112 379.577 102.487L379.578 102.488C378.902 104.578 377.944 106.711 376.726 108.886C378.276 113.334 379.016 118.615 379.016 124.668C379.016 136.867 374.63 146.587 365.746 153.497L365.743 153.498C363.271 155.417 360.566 157.051 357.638 158.409L357.904 158.478C365.308 160.398 371.168 164.545 375.388 170.85L375.791 171.468L375.793 171.47C379.272 176.938 380.969 183.31 380.969 190.488C380.969 203.39 375.421 213.543 364.508 220.703C353.767 227.749 340.066 231.172 323.586 231.172C307.26 231.172 294.274 228.272 284.916 222.173V222.172C276.206 216.591 271.574 209.093 271.574 199.765C271.574 196.167 272.422 192.718 274.094 189.448C275.709 186.224 277.72 183.7 280.264 182.259L281.147 181.757C279.542 180.372 278.163 178.844 277.03 177.163C274.542 173.467 273.332 169.184 273.332 164.414C273.332 160.689 274.085 157.199 275.617 153.981C276.632 151.808 277.979 149.959 279.654 148.462C276.936 146.162 274.584 143.212 272.581 139.668L272.574 139.655L272.568 139.643C269.841 134.692 268.547 128.717 268.547 121.836C268.547 108.611 273.555 97.9952 283.583 90.2654C293.5 82.6211 306.255 78.906 321.633 78.906C327.951 78.906 334.086 79.7955 340.031 81.5701V76.4744L341.623 75.8542C345.865 74.2005 351.288 73.4373 357.766 73.4373ZM325.117 120.61C325.112 120.683 325.109 120.765 325.109 120.859V128.029C325.158 127.52 325.188 126.892 325.188 126.133V121.445C325.188 121.074 325.156 120.802 325.117 120.61Z" fill="white" stroke="#D594DC" stroke-width="5"/>
<path fill-rule="evenodd" clip-rule="evenodd" d="M194.424 2.03644C198.243 -0.0310795 202.269 -0.345541 205.456 0.301093C206.815 0.576856 207.791 1.45404 208.457 2.29133C209.135 3.14289 209.692 4.20155 210.172 5.30891C211.133 7.52573 211.997 10.4571 212.861 13.6136C214.625 20.0499 213.799 26.8139 212.783 33.8968C212.155 38.278 210.429 43.3188 207.936 49.68C206.741 52.7278 205.307 56.0855 203.926 59.2298H204.84C209.129 59.2298 213.083 59.8134 216.674 61.0042C217.499 58.3997 218.62 55.5339 220.056 52.428C222.156 47.8858 225.629 44.0206 228.129 41.2943C230.81 38.3698 233.023 36.624 235.943 34.7298C238.818 32.8649 242.395 30.8521 246.539 29.1409C254.952 25.6669 261.702 24.6528 265.337 24.9691C269.155 25.3014 271.57 27.5252 273.099 29.1683C275.581 31.8377 276.657 35.7995 277.312 39.1165C278.141 43.3235 276.733 47.2975 274.79 50.845C272.092 55.7723 266.82 59.8814 260.911 63.9671C257.324 66.4477 252.626 68.737 247.423 70.9896C242.559 73.0951 237.169 75.0194 233.293 76.2728C234.419 79.3105 234.977 82.6752 234.977 86.3392V125.734H243.646L244.272 127.31C246.688 133.384 247.867 140.25 247.867 147.863C247.867 153.301 246.713 158.193 244.326 162.461L244.322 162.47L244.317 162.478C242.145 166.296 238.959 168.905 234.879 170.267V184.589L233.844 185.337C226.064 190.964 216.71 193.722 205.914 193.722C195.231 193.722 186.265 191.182 179.219 185.898L178.219 185.148V171.261H164.508C153.013 171.261 143.876 167.642 137.503 160.123V160.122C131.746 153.432 129 144.532 129 133.702C129 128.167 129.466 123.254 130.429 118.992L130.611 118.184L131.239 117.645C140.743 109.489 149.582 100.201 157.755 89.7767C162.195 84.0665 168.795 74.418 177.579 60.7728C177.472 60.2593 177.359 59.714 177.237 59.1361C176.423 55.2638 175.533 49.2519 174.978 44.7279C174.035 37.0516 174.617 31.6704 175.891 26.8568C177.428 21.0478 180.878 15.3122 184.22 10.4886C187.178 6.21819 191.04 3.86842 194.424 2.03644ZM188.308 91.4642C187.428 107.103 180.917 118.503 167.761 126.872L159.305 131.617C170.481 129.54 181.016 127.706 186.047 140.062L188.802 150.464C189.872 135.634 196.613 122.5 209.849 115.057L218.305 110.311V110.306C208.439 112.552 195.497 114.268 191.377 102.546L188.308 91.4642Z" fill="url(#paint0_radial_457_387)"/>
<defs>
<radialGradient id="paint0_radial_457_387" cx="0" cy="0" r="1" gradientUnits="userSpaceOnUse" gradientTransform="translate(203.277 96.861) rotate(90) scale(96.861 74.2772)">
<stop stop-color="#F5DCC6"/>
<stop offset="0.581731" stop-color="#D594DC"/>
<stop offset="1" stop-color="#699DE6"/>
</radialGradient>
</defs>
</svg>
