<svg width="1083" height="235" viewBox="0 0 1083 235" fill="none" xmlns="http://www.w3.org/2000/svg">
<mask id="path-1-outside-1_358_205" maskUnits="userSpaceOnUse" x="0" y="39.9983" width="464" height="159" fill="black">
<rect fill="white" y="39.9983" width="464" height="159"/>
<path d="M52.5586 150.858C53.2096 151.509 53.9909 151.834 54.9023 151.834C56.3346 151.834 57.3112 150.825 57.832 148.807C58.3529 146.724 58.6133 142.557 58.6133 136.307V126.346C58.6133 124.588 58.3854 123.351 57.9297 122.635C57.474 121.919 56.7253 121.561 55.6836 121.561C54.6419 121.561 53.8932 121.789 53.4375 122.244V135.33C53.4375 139.237 53.1445 144.412 52.5586 150.858ZM56.4648 70.8772V79.5686C50.9961 79.8941 45.9831 80.7405 41.4258 82.1077C36.8685 83.4097 34.5898 84.9397 34.5898 86.6975C34.5898 87.7392 35.1107 88.5855 36.1523 89.2366C43.3138 85.7209 50.8984 83.9631 58.9062 83.9631C73.2292 83.9631 84.9479 88.9111 94.0625 98.8069C103.242 108.638 107.832 121.463 107.832 137.283C107.832 156.424 102.298 170.845 91.2305 180.545C81.1393 189.399 67.4023 193.826 50.0195 193.826C32.7018 193.826 19.9414 190.474 11.7383 183.768C7.24609 180.057 5 175.239 5 169.315V57.8889C8.125 56.066 11.8685 54.5686 16.2305 53.3967C20.6576 52.2249 25.1172 51.6389 29.6094 51.6389C37.0964 51.6389 43.2812 53.1038 48.1641 56.0334C53.6979 59.484 56.4648 64.4319 56.4648 70.8772Z"/>
<path d="M166.23 148.221C167.012 148.221 167.858 147.895 168.77 147.244C168.118 145.096 167.793 141.743 167.793 137.186V88.9436C174.694 84.7769 182.995 82.6936 192.695 82.6936C198.164 82.6936 202.949 83.4423 207.051 84.9397C211.217 86.372 214.408 88.2926 216.621 90.7014V141.58C216.621 151.281 218.965 157.596 223.652 160.526C223.717 160.851 223.75 161.47 223.75 162.381V164.139C223.75 173.644 221.243 180.838 216.23 185.721C211.673 190.278 205.391 192.557 197.383 192.557C192.37 192.557 187.812 191.418 183.711 189.139C179.674 186.86 176.647 183.54 174.629 179.178C172.415 179.178 171.309 180.252 171.309 182.401C171.309 183.898 172.057 185.395 173.555 186.893C171.471 188.586 168.965 189.953 166.035 190.994C163.105 192.036 158.776 192.557 153.047 192.557C147.383 192.557 141.849 191.385 136.445 189.041C129.74 186.177 124.596 181.782 121.016 175.858C116.654 168.826 114.473 159.907 114.473 149.1V124.588C111.152 118.794 109.492 112.414 109.492 105.448C109.492 101.867 109.948 98.1558 110.859 94.3147C111.771 90.4736 113.236 87.0556 115.254 84.0608H136.738C144.811 84.0608 151.126 85.9814 155.684 89.8225C160.306 93.5986 162.617 99.3603 162.617 107.108V138.748C162.617 145.063 163.822 148.221 166.23 148.221Z"/>
<path d="M278.34 102.908V141.58C278.34 151.281 280.684 157.596 285.371 160.526C285.436 160.851 285.469 161.47 285.469 162.381V164.139C285.469 173.709 282.865 180.903 277.656 185.721C272.839 190.278 266.393 192.557 258.32 192.557C250.312 192.557 243.704 190.278 238.496 185.721C231.921 179.927 228.633 171.463 228.633 160.33V96.8538C229.805 96.0074 231.074 95.3238 232.441 94.803C233.809 94.2821 235.241 93.6311 236.738 92.8499C233.939 91.4176 231.4 88.9436 229.121 85.428C226.842 81.8472 225.703 77.6806 225.703 72.928C225.703 64.7249 228.405 58.0191 233.809 52.8108C239.212 47.6025 245.82 44.9983 253.633 44.9983C261.51 44.9983 268.086 47.6676 273.359 53.0061C278.698 58.2795 281.367 64.9202 281.367 72.928C281.367 79.3733 279.349 85.0374 275.312 89.9202C271.276 94.7379 266.361 97.7652 260.566 99.0022C260.566 101.476 261.51 102.713 263.398 102.713C266.719 102.713 270.104 101.411 273.555 98.8069C276.159 100.825 277.754 102.192 278.34 102.908Z"/>
<path d="M339.668 72.928V141.58C339.668 151.281 342.012 157.596 346.699 160.526C346.764 160.851 346.797 161.47 346.797 162.381V164.139C346.797 173.449 344.421 180.513 339.668 185.33C334.98 190.148 328.307 192.557 319.648 192.557C310.99 192.557 304.121 190.148 299.043 185.33C292.988 179.601 289.961 170.942 289.961 159.354V57.8889C296.797 53.7222 304.609 51.6389 313.398 51.6389C322.253 51.6389 328.828 53.5269 333.125 57.303C337.487 61.0139 339.668 66.2222 339.668 72.928Z"/>
<path d="M404.902 121.561C404.251 120.91 403.47 120.584 402.559 120.584C401.126 120.584 400.15 121.626 399.629 123.709C399.108 125.727 398.848 129.862 398.848 136.112V146.073C398.848 147.83 399.076 149.067 399.531 149.783C399.987 150.5 400.736 150.858 401.777 150.858C402.819 150.858 403.568 150.63 404.023 150.174V137.088C404.023 130.708 404.316 125.532 404.902 121.561ZM397.871 63.8459C401.322 59.8095 405.13 56.7821 409.297 54.7639C413.464 52.6806 418.77 51.6389 425.215 51.6389C433.027 51.6389 439.375 53.8199 444.258 58.1819C449.271 62.8694 451.777 69.1845 451.777 77.1272V141.58C451.777 151.281 454.121 157.596 458.809 160.526C458.874 160.851 458.906 161.47 458.906 162.381V164.139C458.906 173.384 456.107 180.578 450.508 185.721C445.56 190.278 439.44 192.557 432.148 192.557C427.07 192.557 422.676 191.483 418.965 189.334C414.603 186.86 411.543 183.475 409.785 179.178C407.572 179.178 406.465 180.252 406.465 182.401C406.465 183.377 406.823 184.517 407.539 185.819C408.32 187.056 409.362 188.162 410.664 189.139C406.823 191.418 401.842 192.557 395.723 192.557C387.454 192.557 379.707 190.669 372.48 186.893C365.319 183.052 359.622 177.29 355.391 169.608C350.508 160.819 348.066 150.174 348.066 137.674C348.066 121.007 352.721 107.921 362.031 98.4163C371.406 88.9111 383.353 84.1584 397.871 84.1584C406.465 84.1584 413.952 85.7861 420.332 89.0413C421.048 88.3251 421.406 87.5764 421.406 86.7952C421.406 84.842 419.095 83.1819 414.473 81.8147C409.85 80.4475 405.195 79.7639 400.508 79.7639C400.508 73.1233 399.629 67.8173 397.871 63.8459Z"/>
</mask>
<path d="M52.5586 150.858C53.2096 151.509 53.9909 151.834 54.9023 151.834C56.3346 151.834 57.3112 150.825 57.832 148.807C58.3529 146.724 58.6133 142.557 58.6133 136.307V126.346C58.6133 124.588 58.3854 123.351 57.9297 122.635C57.474 121.919 56.7253 121.561 55.6836 121.561C54.6419 121.561 53.8932 121.789 53.4375 122.244V135.33C53.4375 139.237 53.1445 144.412 52.5586 150.858ZM56.4648 70.8772V79.5686C50.9961 79.8941 45.9831 80.7405 41.4258 82.1077C36.8685 83.4097 34.5898 84.9397 34.5898 86.6975C34.5898 87.7392 35.1107 88.5855 36.1523 89.2366C43.3138 85.7209 50.8984 83.9631 58.9062 83.9631C73.2292 83.9631 84.9479 88.9111 94.0625 98.8069C103.242 108.638 107.832 121.463 107.832 137.283C107.832 156.424 102.298 170.845 91.2305 180.545C81.1393 189.399 67.4023 193.826 50.0195 193.826C32.7018 193.826 19.9414 190.474 11.7383 183.768C7.24609 180.057 5 175.239 5 169.315V57.8889C8.125 56.066 11.8685 54.5686 16.2305 53.3967C20.6576 52.2249 25.1172 51.6389 29.6094 51.6389C37.0964 51.6389 43.2812 53.1038 48.1641 56.0334C53.6979 59.484 56.4648 64.4319 56.4648 70.8772Z" fill="white"/>
<path d="M166.23 148.221C167.012 148.221 167.858 147.895 168.77 147.244C168.118 145.096 167.793 141.743 167.793 137.186V88.9436C174.694 84.7769 182.995 82.6936 192.695 82.6936C198.164 82.6936 202.949 83.4423 207.051 84.9397C211.217 86.372 214.408 88.2926 216.621 90.7014V141.58C216.621 151.281 218.965 157.596 223.652 160.526C223.717 160.851 223.75 161.47 223.75 162.381V164.139C223.75 173.644 221.243 180.838 216.23 185.721C211.673 190.278 205.391 192.557 197.383 192.557C192.37 192.557 187.812 191.418 183.711 189.139C179.674 186.86 176.647 183.54 174.629 179.178C172.415 179.178 171.309 180.252 171.309 182.401C171.309 183.898 172.057 185.395 173.555 186.893C171.471 188.586 168.965 189.953 166.035 190.994C163.105 192.036 158.776 192.557 153.047 192.557C147.383 192.557 141.849 191.385 136.445 189.041C129.74 186.177 124.596 181.782 121.016 175.858C116.654 168.826 114.473 159.907 114.473 149.1V124.588C111.152 118.794 109.492 112.414 109.492 105.448C109.492 101.867 109.948 98.1558 110.859 94.3147C111.771 90.4736 113.236 87.0556 115.254 84.0608H136.738C144.811 84.0608 151.126 85.9814 155.684 89.8225C160.306 93.5986 162.617 99.3603 162.617 107.108V138.748C162.617 145.063 163.822 148.221 166.23 148.221Z" fill="white"/>
<path d="M278.34 102.908V141.58C278.34 151.281 280.684 157.596 285.371 160.526C285.436 160.851 285.469 161.47 285.469 162.381V164.139C285.469 173.709 282.865 180.903 277.656 185.721C272.839 190.278 266.393 192.557 258.32 192.557C250.312 192.557 243.704 190.278 238.496 185.721C231.921 179.927 228.633 171.463 228.633 160.33V96.8538C229.805 96.0074 231.074 95.3238 232.441 94.803C233.809 94.2821 235.241 93.6311 236.738 92.8499C233.939 91.4176 231.4 88.9436 229.121 85.428C226.842 81.8472 225.703 77.6806 225.703 72.928C225.703 64.7249 228.405 58.0191 233.809 52.8108C239.212 47.6025 245.82 44.9983 253.633 44.9983C261.51 44.9983 268.086 47.6676 273.359 53.0061C278.698 58.2795 281.367 64.9202 281.367 72.928C281.367 79.3733 279.349 85.0374 275.312 89.9202C271.276 94.7379 266.361 97.7652 260.566 99.0022C260.566 101.476 261.51 102.713 263.398 102.713C266.719 102.713 270.104 101.411 273.555 98.8069C276.159 100.825 277.754 102.192 278.34 102.908Z" fill="white"/>
<path d="M339.668 72.928V141.58C339.668 151.281 342.012 157.596 346.699 160.526C346.764 160.851 346.797 161.47 346.797 162.381V164.139C346.797 173.449 344.421 180.513 339.668 185.33C334.98 190.148 328.307 192.557 319.648 192.557C310.99 192.557 304.121 190.148 299.043 185.33C292.988 179.601 289.961 170.942 289.961 159.354V57.8889C296.797 53.7222 304.609 51.6389 313.398 51.6389C322.253 51.6389 328.828 53.5269 333.125 57.303C337.487 61.0139 339.668 66.2222 339.668 72.928Z" fill="white"/>
<path d="M404.902 121.561C404.251 120.91 403.47 120.584 402.559 120.584C401.126 120.584 400.15 121.626 399.629 123.709C399.108 125.727 398.848 129.862 398.848 136.112V146.073C398.848 147.83 399.076 149.067 399.531 149.783C399.987 150.5 400.736 150.858 401.777 150.858C402.819 150.858 403.568 150.63 404.023 150.174V137.088C404.023 130.708 404.316 125.532 404.902 121.561ZM397.871 63.8459C401.322 59.8095 405.13 56.7821 409.297 54.7639C413.464 52.6806 418.77 51.6389 425.215 51.6389C433.027 51.6389 439.375 53.8199 444.258 58.1819C449.271 62.8694 451.777 69.1845 451.777 77.1272V141.58C451.777 151.281 454.121 157.596 458.809 160.526C458.874 160.851 458.906 161.47 458.906 162.381V164.139C458.906 173.384 456.107 180.578 450.508 185.721C445.56 190.278 439.44 192.557 432.148 192.557C427.07 192.557 422.676 191.483 418.965 189.334C414.603 186.86 411.543 183.475 409.785 179.178C407.572 179.178 406.465 180.252 406.465 182.401C406.465 183.377 406.823 184.517 407.539 185.819C408.32 187.056 409.362 188.162 410.664 189.139C406.823 191.418 401.842 192.557 395.723 192.557C387.454 192.557 379.707 190.669 372.48 186.893C365.319 183.052 359.622 177.29 355.391 169.608C350.508 160.819 348.066 150.174 348.066 137.674C348.066 121.007 352.721 107.921 362.031 98.4163C371.406 88.9111 383.353 84.1584 397.871 84.1584C406.465 84.1584 413.952 85.7861 420.332 89.0413C421.048 88.3251 421.406 87.5764 421.406 86.7952C421.406 84.842 419.095 83.1819 414.473 81.8147C409.85 80.4475 405.195 79.7639 400.508 79.7639C400.508 73.1233 399.629 67.8173 397.871 63.8459Z" fill="white"/>
<path d="M52.5586 150.858C53.2096 151.509 53.9909 151.834 54.9023 151.834C56.3346 151.834 57.3112 150.825 57.832 148.807C58.3529 146.724 58.6133 142.557 58.6133 136.307V126.346C58.6133 124.588 58.3854 123.351 57.9297 122.635C57.474 121.919 56.7253 121.561 55.6836 121.561C54.6419 121.561 53.8932 121.789 53.4375 122.244V135.33C53.4375 139.237 53.1445 144.412 52.5586 150.858ZM56.4648 70.8772V79.5686C50.9961 79.8941 45.9831 80.7405 41.4258 82.1077C36.8685 83.4097 34.5898 84.9397 34.5898 86.6975C34.5898 87.7392 35.1107 88.5855 36.1523 89.2366C43.3138 85.7209 50.8984 83.9631 58.9062 83.9631C73.2292 83.9631 84.9479 88.9111 94.0625 98.8069C103.242 108.638 107.832 121.463 107.832 137.283C107.832 156.424 102.298 170.845 91.2305 180.545C81.1393 189.399 67.4023 193.826 50.0195 193.826C32.7018 193.826 19.9414 190.474 11.7383 183.768C7.24609 180.057 5 175.239 5 169.315V57.8889C8.125 56.066 11.8685 54.5686 16.2305 53.3967C20.6576 52.2249 25.1172 51.6389 29.6094 51.6389C37.0964 51.6389 43.2812 53.1038 48.1641 56.0334C53.6979 59.484 56.4648 64.4319 56.4648 70.8772Z" stroke="#D594DC" stroke-width="10" mask="url(#path-1-outside-1_358_205)"/>
<path d="M166.23 148.221C167.012 148.221 167.858 147.895 168.77 147.244C168.118 145.096 167.793 141.743 167.793 137.186V88.9436C174.694 84.7769 182.995 82.6936 192.695 82.6936C198.164 82.6936 202.949 83.4423 207.051 84.9397C211.217 86.372 214.408 88.2926 216.621 90.7014V141.58C216.621 151.281 218.965 157.596 223.652 160.526C223.717 160.851 223.75 161.47 223.75 162.381V164.139C223.75 173.644 221.243 180.838 216.23 185.721C211.673 190.278 205.391 192.557 197.383 192.557C192.37 192.557 187.812 191.418 183.711 189.139C179.674 186.86 176.647 183.54 174.629 179.178C172.415 179.178 171.309 180.252 171.309 182.401C171.309 183.898 172.057 185.395 173.555 186.893C171.471 188.586 168.965 189.953 166.035 190.994C163.105 192.036 158.776 192.557 153.047 192.557C147.383 192.557 141.849 191.385 136.445 189.041C129.74 186.177 124.596 181.782 121.016 175.858C116.654 168.826 114.473 159.907 114.473 149.1V124.588C111.152 118.794 109.492 112.414 109.492 105.448C109.492 101.867 109.948 98.1558 110.859 94.3147C111.771 90.4736 113.236 87.0556 115.254 84.0608H136.738C144.811 84.0608 151.126 85.9814 155.684 89.8225C160.306 93.5986 162.617 99.3603 162.617 107.108V138.748C162.617 145.063 163.822 148.221 166.23 148.221Z" stroke="#D594DC" stroke-width="10" mask="url(#path-1-outside-1_358_205)"/>
<path d="M278.34 102.908V141.58C278.34 151.281 280.684 157.596 285.371 160.526C285.436 160.851 285.469 161.47 285.469 162.381V164.139C285.469 173.709 282.865 180.903 277.656 185.721C272.839 190.278 266.393 192.557 258.32 192.557C250.312 192.557 243.704 190.278 238.496 185.721C231.921 179.927 228.633 171.463 228.633 160.33V96.8538C229.805 96.0074 231.074 95.3238 232.441 94.803C233.809 94.2821 235.241 93.6311 236.738 92.8499C233.939 91.4176 231.4 88.9436 229.121 85.428C226.842 81.8472 225.703 77.6806 225.703 72.928C225.703 64.7249 228.405 58.0191 233.809 52.8108C239.212 47.6025 245.82 44.9983 253.633 44.9983C261.51 44.9983 268.086 47.6676 273.359 53.0061C278.698 58.2795 281.367 64.9202 281.367 72.928C281.367 79.3733 279.349 85.0374 275.312 89.9202C271.276 94.7379 266.361 97.7652 260.566 99.0022C260.566 101.476 261.51 102.713 263.398 102.713C266.719 102.713 270.104 101.411 273.555 98.8069C276.159 100.825 277.754 102.192 278.34 102.908Z" stroke="#D594DC" stroke-width="10" mask="url(#path-1-outside-1_358_205)"/>
<path d="M339.668 72.928V141.58C339.668 151.281 342.012 157.596 346.699 160.526C346.764 160.851 346.797 161.47 346.797 162.381V164.139C346.797 173.449 344.421 180.513 339.668 185.33C334.98 190.148 328.307 192.557 319.648 192.557C310.99 192.557 304.121 190.148 299.043 185.33C292.988 179.601 289.961 170.942 289.961 159.354V57.8889C296.797 53.7222 304.609 51.6389 313.398 51.6389C322.253 51.6389 328.828 53.5269 333.125 57.303C337.487 61.0139 339.668 66.2222 339.668 72.928Z" stroke="#D594DC" stroke-width="10" mask="url(#path-1-outside-1_358_205)"/>
<path d="M404.902 121.561C404.251 120.91 403.47 120.584 402.559 120.584C401.126 120.584 400.15 121.626 399.629 123.709C399.108 125.727 398.848 129.862 398.848 136.112V146.073C398.848 147.83 399.076 149.067 399.531 149.783C399.987 150.5 400.736 150.858 401.777 150.858C402.819 150.858 403.568 150.63 404.023 150.174V137.088C404.023 130.708 404.316 125.532 404.902 121.561ZM397.871 63.8459C401.322 59.8095 405.13 56.7821 409.297 54.7639C413.464 52.6806 418.77 51.6389 425.215 51.6389C433.027 51.6389 439.375 53.8199 444.258 58.1819C449.271 62.8694 451.777 69.1845 451.777 77.1272V141.58C451.777 151.281 454.121 157.596 458.809 160.526C458.874 160.851 458.906 161.47 458.906 162.381V164.139C458.906 173.384 456.107 180.578 450.508 185.721C445.56 190.278 439.44 192.557 432.148 192.557C427.07 192.557 422.676 191.483 418.965 189.334C414.603 186.86 411.543 183.475 409.785 179.178C407.572 179.178 406.465 180.252 406.465 182.401C406.465 183.377 406.823 184.517 407.539 185.819C408.32 187.056 409.362 188.162 410.664 189.139C406.823 191.418 401.842 192.557 395.723 192.557C387.454 192.557 379.707 190.669 372.48 186.893C365.319 183.052 359.622 177.29 355.391 169.608C350.508 160.819 348.066 150.174 348.066 137.674C348.066 121.007 352.721 107.921 362.031 98.4163C371.406 88.9111 383.353 84.1584 397.871 84.1584C406.465 84.1584 413.952 85.7861 420.332 89.0413C421.048 88.3251 421.406 87.5764 421.406 86.7952C421.406 84.842 419.095 83.1819 414.473 81.8147C409.85 80.4475 405.195 79.7639 400.508 79.7639C400.508 73.1233 399.629 67.8173 397.871 63.8459Z" stroke="#D594DC" stroke-width="10" mask="url(#path-1-outside-1_358_205)"/>
<mask id="path-2-outside-2_358_205" maskUnits="userSpaceOnUse" x="626" y="47.9993" width="457" height="187" fill="black">
<rect fill="white" x="626" y="47.9993" width="457" height="187"/>
<path d="M687.641 122.14C687.641 119.796 686.762 118.624 685.004 118.624C683.376 118.624 682.562 119.601 682.562 121.554V131.613C683.083 132.068 683.865 132.296 684.906 132.296C685.948 132.296 686.664 131.906 687.055 131.124C687.445 130.343 687.641 128.911 687.641 126.827V122.14ZM691.254 161.691C687.087 161.691 683.539 161.398 680.609 160.812C680.414 161.398 680.316 161.951 680.316 162.472C680.316 163.904 681.326 164.881 683.344 165.402C685.427 165.857 688.064 166.085 691.254 166.085C701.41 166.085 710.069 164.588 717.23 161.593C724.262 163.416 729.73 167.387 733.637 173.507C736.827 178.52 738.422 184.412 738.422 191.183C738.422 203.227 733.311 212.602 723.09 219.308C712.868 226.014 699.685 229.366 683.539 229.366C667.458 229.366 655.023 226.502 646.234 220.773C638.096 215.564 634.027 208.794 634.027 200.46C634.027 197.27 634.776 194.21 636.273 191.281C637.771 188.286 639.496 186.235 641.449 185.128C644.704 187.863 649.49 190.076 655.805 191.769C662.185 193.462 668.728 194.308 675.434 194.308C682.139 194.308 686.436 194.047 688.324 193.527C690.277 193.006 691.254 192.094 691.254 190.792C691.254 190.141 691.059 189.49 690.668 188.839C687.413 189.555 683.344 189.913 678.461 189.913C665.896 189.913 656.033 188.123 648.871 184.542C640.147 180.245 635.785 173.767 635.785 165.109C635.785 161.723 636.469 158.598 637.836 155.734C639.203 152.804 641.221 150.623 643.891 149.191C640.31 146.977 637.25 143.624 634.711 139.132C632.237 134.64 631 129.106 631 122.531C631 110.031 635.688 100.167 645.062 92.9407C654.438 85.7141 666.612 82.1008 681.586 82.1008C688.812 82.1008 695.779 83.3053 702.484 85.7141V78.8782C706.326 77.3808 711.404 76.6321 717.719 76.6321C724.099 76.6321 728.949 77.7063 732.27 79.8547C736.306 82.4589 738.324 87.0487 738.324 93.6243C738.324 97.2701 737.934 100.2 737.152 102.413C736.436 104.627 735.362 106.938 733.93 109.347C735.622 113.644 736.469 118.982 736.469 125.363C736.469 136.886 732.367 145.838 724.164 152.218C716.026 158.533 705.056 161.691 691.254 161.691Z"/>
<path d="M792.621 137.765V154.855C793.077 155.31 793.826 155.538 794.867 155.538C795.909 155.538 796.658 155.18 797.113 154.464C797.569 153.748 797.797 152.511 797.797 150.753V136.788C797.797 130.538 797.536 126.404 797.016 124.386C796.495 122.303 795.518 121.261 794.086 121.261C793.174 121.261 792.393 121.587 791.742 122.238C792.328 128.683 792.621 133.859 792.621 137.765ZM756.098 181.027C745.421 170.74 740.082 156.808 740.082 139.23C740.082 121.587 745.095 107.687 755.121 97.5305C765.212 87.3092 778.428 82.1985 794.77 82.1985C811.111 82.1985 824.327 87.5045 834.418 98.1165C844.444 108.728 849.457 122.563 849.457 139.62C849.457 156.613 844.607 170.122 834.906 180.148C825.271 190.174 812.152 195.187 795.551 195.187C778.949 195.187 765.798 190.467 756.098 181.027Z"/>
<path d="M905.902 137.765V154.855C906.358 155.31 907.107 155.538 908.148 155.538C909.19 155.538 909.939 155.18 910.395 154.464C910.85 153.748 911.078 152.511 911.078 150.753V136.788C911.078 130.538 910.818 126.404 910.297 124.386C909.776 122.303 908.799 121.261 907.367 121.261C906.456 121.261 905.674 121.587 905.023 122.238C905.609 128.683 905.902 133.859 905.902 137.765ZM869.379 181.027C858.702 170.74 853.363 156.808 853.363 139.23C853.363 121.587 858.376 107.687 868.402 97.5305C878.493 87.3092 891.71 82.1985 908.051 82.1985C924.392 82.1985 937.608 87.5045 947.699 98.1165C957.725 108.728 962.738 122.563 962.738 139.62C962.738 156.613 957.888 170.122 948.188 180.148C938.552 190.174 925.434 195.187 908.832 195.187C892.23 195.187 879.079 190.467 869.379 181.027Z"/>
<path d="M1023.48 122.921C1022.83 122.27 1022.05 121.945 1021.14 121.945C1019.7 121.945 1018.73 122.986 1018.21 125.07C1017.69 127.088 1017.43 131.222 1017.43 137.472V147.433C1017.43 149.191 1017.65 150.428 1018.11 151.144C1018.57 151.86 1019.31 152.218 1020.36 152.218C1021.4 152.218 1022.15 151.99 1022.6 151.534V138.448C1022.6 132.068 1022.89 126.892 1023.48 122.921ZM1016.45 65.2063C1019.9 61.1698 1023.71 58.1425 1027.88 56.1243C1032.04 54.0409 1037.35 52.9993 1043.79 52.9993C1051.61 52.9993 1057.95 55.1803 1062.84 59.5422C1067.85 64.2297 1070.36 70.5448 1070.36 78.4875V142.941C1070.36 152.641 1072.7 158.956 1077.39 161.886C1077.45 162.212 1077.48 162.83 1077.48 163.741V165.499C1077.48 174.744 1074.68 181.938 1069.09 187.081C1064.14 191.639 1058.02 193.917 1050.73 193.917C1045.65 193.917 1041.25 192.843 1037.54 190.695C1033.18 188.221 1030.12 184.835 1028.36 180.538C1026.15 180.538 1025.04 181.613 1025.04 183.761C1025.04 184.738 1025.4 185.877 1026.12 187.179C1026.9 188.416 1027.94 189.523 1029.24 190.499C1025.4 192.778 1020.42 193.917 1014.3 193.917C1006.03 193.917 998.285 192.029 991.059 188.253C983.897 184.412 978.201 178.65 973.969 170.968C969.086 162.179 966.645 151.534 966.645 139.034C966.645 122.368 971.299 109.282 980.609 99.7766C989.984 90.2714 1001.93 85.5188 1016.45 85.5188C1025.04 85.5188 1032.53 87.1464 1038.91 90.4016C1039.63 89.6855 1039.98 88.9368 1039.98 88.1555C1039.98 86.2024 1037.67 84.5422 1033.05 83.175C1028.43 81.8079 1023.77 81.1243 1019.09 81.1243C1019.09 74.4836 1018.21 69.1777 1016.45 65.2063Z"/>
</mask>
<path d="M687.641 122.14C687.641 119.796 686.762 118.624 685.004 118.624C683.376 118.624 682.562 119.601 682.562 121.554V131.613C683.083 132.068 683.865 132.296 684.906 132.296C685.948 132.296 686.664 131.906 687.055 131.124C687.445 130.343 687.641 128.911 687.641 126.827V122.14ZM691.254 161.691C687.087 161.691 683.539 161.398 680.609 160.812C680.414 161.398 680.316 161.951 680.316 162.472C680.316 163.904 681.326 164.881 683.344 165.402C685.427 165.857 688.064 166.085 691.254 166.085C701.41 166.085 710.069 164.588 717.23 161.593C724.262 163.416 729.73 167.387 733.637 173.507C736.827 178.52 738.422 184.412 738.422 191.183C738.422 203.227 733.311 212.602 723.09 219.308C712.868 226.014 699.685 229.366 683.539 229.366C667.458 229.366 655.023 226.502 646.234 220.773C638.096 215.564 634.027 208.794 634.027 200.46C634.027 197.27 634.776 194.21 636.273 191.281C637.771 188.286 639.496 186.235 641.449 185.128C644.704 187.863 649.49 190.076 655.805 191.769C662.185 193.462 668.728 194.308 675.434 194.308C682.139 194.308 686.436 194.047 688.324 193.527C690.277 193.006 691.254 192.094 691.254 190.792C691.254 190.141 691.059 189.49 690.668 188.839C687.413 189.555 683.344 189.913 678.461 189.913C665.896 189.913 656.033 188.123 648.871 184.542C640.147 180.245 635.785 173.767 635.785 165.109C635.785 161.723 636.469 158.598 637.836 155.734C639.203 152.804 641.221 150.623 643.891 149.191C640.31 146.977 637.25 143.624 634.711 139.132C632.237 134.64 631 129.106 631 122.531C631 110.031 635.688 100.167 645.062 92.9407C654.438 85.7141 666.612 82.1008 681.586 82.1008C688.812 82.1008 695.779 83.3053 702.484 85.7141V78.8782C706.326 77.3808 711.404 76.6321 717.719 76.6321C724.099 76.6321 728.949 77.7063 732.27 79.8547C736.306 82.4589 738.324 87.0487 738.324 93.6243C738.324 97.2701 737.934 100.2 737.152 102.413C736.436 104.627 735.362 106.938 733.93 109.347C735.622 113.644 736.469 118.982 736.469 125.363C736.469 136.886 732.367 145.838 724.164 152.218C716.026 158.533 705.056 161.691 691.254 161.691Z" fill="white"/>
<path d="M792.621 137.765V154.855C793.077 155.31 793.826 155.538 794.867 155.538C795.909 155.538 796.658 155.18 797.113 154.464C797.569 153.748 797.797 152.511 797.797 150.753V136.788C797.797 130.538 797.536 126.404 797.016 124.386C796.495 122.303 795.518 121.261 794.086 121.261C793.174 121.261 792.393 121.587 791.742 122.238C792.328 128.683 792.621 133.859 792.621 137.765ZM756.098 181.027C745.421 170.74 740.082 156.808 740.082 139.23C740.082 121.587 745.095 107.687 755.121 97.5305C765.212 87.3092 778.428 82.1985 794.77 82.1985C811.111 82.1985 824.327 87.5045 834.418 98.1165C844.444 108.728 849.457 122.563 849.457 139.62C849.457 156.613 844.607 170.122 834.906 180.148C825.271 190.174 812.152 195.187 795.551 195.187C778.949 195.187 765.798 190.467 756.098 181.027Z" fill="white"/>
<path d="M905.902 137.765V154.855C906.358 155.31 907.107 155.538 908.148 155.538C909.19 155.538 909.939 155.18 910.395 154.464C910.85 153.748 911.078 152.511 911.078 150.753V136.788C911.078 130.538 910.818 126.404 910.297 124.386C909.776 122.303 908.799 121.261 907.367 121.261C906.456 121.261 905.674 121.587 905.023 122.238C905.609 128.683 905.902 133.859 905.902 137.765ZM869.379 181.027C858.702 170.74 853.363 156.808 853.363 139.23C853.363 121.587 858.376 107.687 868.402 97.5305C878.493 87.3092 891.71 82.1985 908.051 82.1985C924.392 82.1985 937.608 87.5045 947.699 98.1165C957.725 108.728 962.738 122.563 962.738 139.62C962.738 156.613 957.888 170.122 948.188 180.148C938.552 190.174 925.434 195.187 908.832 195.187C892.23 195.187 879.079 190.467 869.379 181.027Z" fill="white"/>
<path d="M1023.48 122.921C1022.83 122.27 1022.05 121.945 1021.14 121.945C1019.7 121.945 1018.73 122.986 1018.21 125.07C1017.69 127.088 1017.43 131.222 1017.43 137.472V147.433C1017.43 149.191 1017.65 150.428 1018.11 151.144C1018.57 151.86 1019.31 152.218 1020.36 152.218C1021.4 152.218 1022.15 151.99 1022.6 151.534V138.448C1022.6 132.068 1022.89 126.892 1023.48 122.921ZM1016.45 65.2063C1019.9 61.1698 1023.71 58.1425 1027.88 56.1243C1032.04 54.0409 1037.35 52.9993 1043.79 52.9993C1051.61 52.9993 1057.95 55.1803 1062.84 59.5422C1067.85 64.2297 1070.36 70.5448 1070.36 78.4875V142.941C1070.36 152.641 1072.7 158.956 1077.39 161.886C1077.45 162.212 1077.48 162.83 1077.48 163.741V165.499C1077.48 174.744 1074.68 181.938 1069.09 187.081C1064.14 191.639 1058.02 193.917 1050.73 193.917C1045.65 193.917 1041.25 192.843 1037.54 190.695C1033.18 188.221 1030.12 184.835 1028.36 180.538C1026.15 180.538 1025.04 181.613 1025.04 183.761C1025.04 184.738 1025.4 185.877 1026.12 187.179C1026.9 188.416 1027.94 189.523 1029.24 190.499C1025.4 192.778 1020.42 193.917 1014.3 193.917C1006.03 193.917 998.285 192.029 991.059 188.253C983.897 184.412 978.201 178.65 973.969 170.968C969.086 162.179 966.645 151.534 966.645 139.034C966.645 122.368 971.299 109.282 980.609 99.7766C989.984 90.2714 1001.93 85.5188 1016.45 85.5188C1025.04 85.5188 1032.53 87.1464 1038.91 90.4016C1039.63 89.6855 1039.98 88.9368 1039.98 88.1555C1039.98 86.2024 1037.67 84.5422 1033.05 83.175C1028.43 81.8079 1023.77 81.1243 1019.09 81.1243C1019.09 74.4836 1018.21 69.1777 1016.45 65.2063Z" fill="white"/>
<path d="M687.641 122.14C687.641 119.796 686.762 118.624 685.004 118.624C683.376 118.624 682.562 119.601 682.562 121.554V131.613C683.083 132.068 683.865 132.296 684.906 132.296C685.948 132.296 686.664 131.906 687.055 131.124C687.445 130.343 687.641 128.911 687.641 126.827V122.14ZM691.254 161.691C687.087 161.691 683.539 161.398 680.609 160.812C680.414 161.398 680.316 161.951 680.316 162.472C680.316 163.904 681.326 164.881 683.344 165.402C685.427 165.857 688.064 166.085 691.254 166.085C701.41 166.085 710.069 164.588 717.23 161.593C724.262 163.416 729.73 167.387 733.637 173.507C736.827 178.52 738.422 184.412 738.422 191.183C738.422 203.227 733.311 212.602 723.09 219.308C712.868 226.014 699.685 229.366 683.539 229.366C667.458 229.366 655.023 226.502 646.234 220.773C638.096 215.564 634.027 208.794 634.027 200.46C634.027 197.27 634.776 194.21 636.273 191.281C637.771 188.286 639.496 186.235 641.449 185.128C644.704 187.863 649.49 190.076 655.805 191.769C662.185 193.462 668.728 194.308 675.434 194.308C682.139 194.308 686.436 194.047 688.324 193.527C690.277 193.006 691.254 192.094 691.254 190.792C691.254 190.141 691.059 189.49 690.668 188.839C687.413 189.555 683.344 189.913 678.461 189.913C665.896 189.913 656.033 188.123 648.871 184.542C640.147 180.245 635.785 173.767 635.785 165.109C635.785 161.723 636.469 158.598 637.836 155.734C639.203 152.804 641.221 150.623 643.891 149.191C640.31 146.977 637.25 143.624 634.711 139.132C632.237 134.64 631 129.106 631 122.531C631 110.031 635.688 100.167 645.062 92.9407C654.438 85.7141 666.612 82.1008 681.586 82.1008C688.812 82.1008 695.779 83.3053 702.484 85.7141V78.8782C706.326 77.3808 711.404 76.6321 717.719 76.6321C724.099 76.6321 728.949 77.7063 732.27 79.8547C736.306 82.4589 738.324 87.0487 738.324 93.6243C738.324 97.2701 737.934 100.2 737.152 102.413C736.436 104.627 735.362 106.938 733.93 109.347C735.622 113.644 736.469 118.982 736.469 125.363C736.469 136.886 732.367 145.838 724.164 152.218C716.026 158.533 705.056 161.691 691.254 161.691Z" stroke="#D594DC" stroke-width="10" mask="url(#path-2-outside-2_358_205)"/>
<path d="M792.621 137.765V154.855C793.077 155.31 793.826 155.538 794.867 155.538C795.909 155.538 796.658 155.18 797.113 154.464C797.569 153.748 797.797 152.511 797.797 150.753V136.788C797.797 130.538 797.536 126.404 797.016 124.386C796.495 122.303 795.518 121.261 794.086 121.261C793.174 121.261 792.393 121.587 791.742 122.238C792.328 128.683 792.621 133.859 792.621 137.765ZM756.098 181.027C745.421 170.74 740.082 156.808 740.082 139.23C740.082 121.587 745.095 107.687 755.121 97.5305C765.212 87.3092 778.428 82.1985 794.77 82.1985C811.111 82.1985 824.327 87.5045 834.418 98.1165C844.444 108.728 849.457 122.563 849.457 139.62C849.457 156.613 844.607 170.122 834.906 180.148C825.271 190.174 812.152 195.187 795.551 195.187C778.949 195.187 765.798 190.467 756.098 181.027Z" stroke="#D594DC" stroke-width="10" mask="url(#path-2-outside-2_358_205)"/>
<path d="M905.902 137.765V154.855C906.358 155.31 907.107 155.538 908.148 155.538C909.19 155.538 909.939 155.18 910.395 154.464C910.85 153.748 911.078 152.511 911.078 150.753V136.788C911.078 130.538 910.818 126.404 910.297 124.386C909.776 122.303 908.799 121.261 907.367 121.261C906.456 121.261 905.674 121.587 905.023 122.238C905.609 128.683 905.902 133.859 905.902 137.765ZM869.379 181.027C858.702 170.74 853.363 156.808 853.363 139.23C853.363 121.587 858.376 107.687 868.402 97.5305C878.493 87.3092 891.71 82.1985 908.051 82.1985C924.392 82.1985 937.608 87.5045 947.699 98.1165C957.725 108.728 962.738 122.563 962.738 139.62C962.738 156.613 957.888 170.122 948.188 180.148C938.552 190.174 925.434 195.187 908.832 195.187C892.23 195.187 879.079 190.467 869.379 181.027Z" stroke="#D594DC" stroke-width="10" mask="url(#path-2-outside-2_358_205)"/>
<path d="M1023.48 122.921C1022.83 122.27 1022.05 121.945 1021.14 121.945C1019.7 121.945 1018.73 122.986 1018.21 125.07C1017.69 127.088 1017.43 131.222 1017.43 137.472V147.433C1017.43 149.191 1017.65 150.428 1018.11 151.144C1018.57 151.86 1019.31 152.218 1020.36 152.218C1021.4 152.218 1022.15 151.99 1022.6 151.534V138.448C1022.6 132.068 1022.89 126.892 1023.48 122.921ZM1016.45 65.2063C1019.9 61.1698 1023.71 58.1425 1027.88 56.1243C1032.04 54.0409 1037.35 52.9993 1043.79 52.9993C1051.61 52.9993 1057.95 55.1803 1062.84 59.5422C1067.85 64.2297 1070.36 70.5448 1070.36 78.4875V142.941C1070.36 152.641 1072.7 158.956 1077.39 161.886C1077.45 162.212 1077.48 162.83 1077.48 163.741V165.499C1077.48 174.744 1074.68 181.938 1069.09 187.081C1064.14 191.639 1058.02 193.917 1050.73 193.917C1045.65 193.917 1041.25 192.843 1037.54 190.695C1033.18 188.221 1030.12 184.835 1028.36 180.538C1026.15 180.538 1025.04 181.613 1025.04 183.761C1025.04 184.738 1025.4 185.877 1026.12 187.179C1026.9 188.416 1027.94 189.523 1029.24 190.499C1025.4 192.778 1020.42 193.917 1014.3 193.917C1006.03 193.917 998.285 192.029 991.059 188.253C983.897 184.412 978.201 178.65 973.969 170.968C969.086 162.179 966.645 151.534 966.645 139.034C966.645 122.368 971.299 109.282 980.609 99.7766C989.984 90.2714 1001.93 85.5188 1016.45 85.5188C1025.04 85.5188 1032.53 87.1464 1038.91 90.4016C1039.63 89.6855 1039.98 88.9368 1039.98 88.1555C1039.98 86.2024 1037.67 84.5422 1033.05 83.175C1028.43 81.8079 1023.77 81.1243 1019.09 81.1243C1019.09 74.4836 1018.21 69.1777 1016.45 65.2063Z" stroke="#D594DC" stroke-width="10" mask="url(#path-2-outside-2_358_205)"/>
<path fill-rule="evenodd" clip-rule="evenodd" d="M547.424 2.03648C551.243 -0.0311574 555.269 -0.345539 558.456 0.30113C559.815 0.576938 560.791 1.454 561.457 2.29136C562.135 3.143 562.692 4.20152 563.172 5.30894C564.133 7.52583 564.997 10.4571 565.861 13.6136C567.625 20.05 566.799 26.8139 565.783 33.8968C565.155 38.2781 563.429 43.3187 560.936 49.68C559.741 52.7279 558.307 56.0855 556.926 59.2298H557.84C562.13 59.2298 566.083 59.8134 569.674 61.0043C570.499 58.3997 571.62 55.534 573.056 52.4281C575.156 47.8858 578.629 44.0207 581.129 41.2943C583.81 38.3697 586.023 36.624 588.943 34.7298C591.818 32.8649 595.395 30.8522 599.539 29.141C607.952 25.6669 614.702 24.6528 618.337 24.9691C622.156 25.3014 624.57 27.5252 626.099 29.1683C628.581 31.8378 629.657 35.7995 630.312 39.1166C631.141 43.3236 629.733 47.2975 627.79 50.8451C625.092 55.7723 619.82 59.8815 613.911 63.9671C610.324 66.4477 605.626 68.7371 600.423 70.9896C595.559 73.0951 590.169 75.0194 586.293 76.2728C587.419 79.3106 587.977 82.6752 587.977 86.3392V125.734H596.646L597.272 127.31C599.688 133.384 600.867 140.25 600.867 147.863C600.867 153.301 599.713 158.193 597.326 162.461L597.322 162.47L597.317 162.478C595.145 166.296 591.959 168.905 587.879 170.267V184.589L586.844 185.337C579.064 190.964 569.71 193.722 558.914 193.722C548.231 193.722 539.265 191.182 532.219 185.898L531.219 185.148V171.261H517.508C506.013 171.261 496.876 167.642 490.503 160.123V160.122C484.746 153.432 482 144.532 482 133.702C482 128.167 482.466 123.254 483.429 118.992L483.611 118.184L484.239 117.645C493.743 109.489 502.582 100.201 510.755 89.7767C515.195 84.0666 521.795 74.4181 530.579 60.7728C530.472 60.2593 530.359 59.7141 530.237 59.1361C529.423 55.2639 528.533 49.252 527.978 44.7279C527.035 37.0516 527.617 31.6705 528.891 26.8568C530.428 21.0478 533.878 15.3123 537.22 10.4886C540.178 6.21808 544.04 3.8685 547.424 2.03648ZM541.308 91.4632C540.427 107.102 533.917 118.501 520.761 126.87L512.305 131.616C523.481 129.538 534.016 127.704 539.047 140.06L541.802 150.463C542.872 135.633 549.613 122.498 562.849 115.055L571.305 110.31V110.305C561.439 112.551 548.497 114.267 544.377 102.545L541.308 91.4632Z" fill="url(#paint0_radial_358_205)"/>
<defs>
<radialGradient id="paint0_radial_358_205" cx="0" cy="0" r="1" gradientUnits="userSpaceOnUse" gradientTransform="translate(556.277 96.861) rotate(90) scale(96.861 74.2772)">
<stop stop-color="#F5DCC6"/>
<stop offset="0.581731" stop-color="#D594DC"/>
<stop offset="1" stop-color="#699DE6"/>
</radialGradient>
</defs>
</svg>
