<svg width="471" height="321" viewBox="0 0 471 321" fill="none" xmlns="http://www.w3.org/2000/svg">
<path d="M76.8532 223.211C77.7089 223.887 78.6728 224.162 79.7449 224.036C81.4297 223.839 82.4391 222.517 82.7732 220.071C83.0984 217.549 82.8297 212.611 81.9671 205.26L80.5925 193.543C80.3499 191.475 79.9111 190.052 79.2762 189.272C78.6413 188.493 77.7112 188.175 76.4859 188.319C75.2607 188.462 74.4114 188.834 73.9383 189.433L75.7442 204.825C76.2833 209.42 76.653 215.549 76.8532 223.211ZM70.4103 128.593L71.6097 138.816C65.2219 139.954 59.442 141.641 54.27 143.878C49.0891 146.039 46.6199 148.153 46.8625 150.221C47.0062 151.446 47.7357 152.37 49.0508 152.992C56.9895 147.868 65.6686 144.754 75.088 143.648C91.9357 141.672 106.403 145.875 118.49 156.257C130.645 166.554 137.814 181.007 139.997 199.616C142.638 222.131 138.119 239.857 126.439 252.795C115.791 264.603 100.244 271.706 79.7965 274.105C59.4261 276.495 43.9536 274.312 33.379 267.556C27.5828 263.811 24.2759 258.454 23.4582 251.485L8.0808 120.417C11.5051 117.842 15.7018 115.564 20.671 113.583C25.7168 111.594 30.8817 110.289 36.1657 109.669C44.9725 108.636 52.4498 109.506 58.5977 112.278C65.5832 115.573 69.5208 121.011 70.4103 128.593Z" fill="white"/>
<path d="M396.33 149.861C396.006 147.105 394.811 145.847 392.743 146.09C390.829 146.315 390.006 147.576 390.276 149.873L391.664 161.705C392.339 162.169 393.29 162.329 394.515 162.185C395.74 162.042 396.529 161.483 396.881 160.51C397.232 159.538 397.264 157.826 396.977 155.375L396.33 149.861ZM406.038 195.886C401.137 196.461 396.923 196.606 393.396 196.321C393.247 197.037 393.209 197.701 393.281 198.314C393.478 199.999 394.8 201.008 397.246 201.342C399.759 201.591 402.892 201.495 406.645 201.055C418.591 199.653 428.57 196.697 436.581 192.186C445.103 193.36 452.084 197.276 457.523 203.936C461.967 209.392 464.657 216.103 465.591 224.067C467.253 238.234 462.536 249.967 451.438 259.266C440.34 268.564 425.295 274.328 406.303 276.556C387.388 278.775 372.366 277.122 361.236 271.595C350.945 266.592 345.224 259.189 344.074 249.387C343.634 245.634 344.093 241.932 345.45 238.279C346.798 234.55 348.544 231.899 350.689 230.328C354.895 233.095 360.829 235.038 368.491 236.158C376.23 237.269 384.043 237.361 391.931 236.436C399.818 235.51 404.837 234.611 406.986 233.738C409.211 232.856 410.234 231.649 410.055 230.117C409.965 229.351 409.645 228.612 409.096 227.901C405.366 229.192 400.629 230.175 394.885 230.849C380.105 232.583 368.256 231.838 359.338 228.614C348.483 224.764 342.458 217.746 341.263 207.561C340.796 203.579 341.169 199.809 342.382 196.25C343.586 192.616 345.659 189.772 348.601 187.718C344.083 185.609 340.021 182.087 336.415 177.154C332.885 172.211 330.666 165.872 329.759 158.138C328.034 143.434 332.186 131.185 342.216 121.391C352.247 111.597 366.069 105.666 383.682 103.6C392.183 102.603 400.543 103.058 408.763 104.966L407.82 96.9251C412.131 94.6336 418.001 93.0521 425.43 92.1806C432.935 91.3001 438.788 91.8943 442.99 93.9632C448.098 96.4694 451.105 101.59 452.013 109.324C452.516 113.613 452.461 117.113 451.847 119.825C451.31 122.527 450.366 125.394 449.013 128.425C451.597 133.246 453.33 139.409 454.21 146.914C455.8 160.468 452.211 171.564 443.443 180.201C434.741 188.753 422.273 193.981 406.038 195.886Z" fill="white"/>
<path fill-rule="evenodd" clip-rule="evenodd" d="M223.098 27.7947C227.305 24.8356 231.998 23.9097 235.836 24.2305C237.472 24.3674 238.741 25.2657 239.64 26.1588C240.555 27.067 241.357 28.2346 242.074 29.471C243.51 31.9461 244.931 35.2749 246.384 38.8687C249.346 46.1964 249.309 54.2666 249.091 62.7383C248.956 67.9787 247.621 74.1464 245.566 81.9734C244.582 85.7234 243.359 89.8701 242.168 93.7592L243.243 93.6332C248.289 93.0411 253.021 93.1826 257.409 94.0881C258.02 90.9105 258.943 87.3851 260.203 83.5334C262.047 77.9003 265.599 72.8736 268.163 69.3216C270.913 65.5114 273.275 63.1537 276.449 60.5227C279.573 57.9322 283.503 55.0711 288.141 52.4864C297.558 47.2386 305.357 45.1129 309.677 44.9834C314.215 44.8473 317.362 47.1301 319.386 48.852C322.675 51.6494 324.487 56.1611 325.715 59.9726C327.271 64.8067 326.163 69.6765 324.367 74.1175C321.873 80.2855 316.239 85.846 309.853 91.4671C305.975 94.88 300.765 98.2216 294.956 101.589C289.526 104.737 283.45 107.744 279.064 109.754C280.807 113.172 281.928 117.052 282.433 121.362L287.87 167.701L298.068 166.505L299.022 168.272C302.702 175.083 305.037 182.996 306.088 191.952C306.838 198.349 306.157 204.264 303.938 209.613L303.933 209.623L303.929 209.633C301.901 214.425 298.514 217.934 293.902 220.099L295.878 236.945L294.764 237.968C286.389 245.66 275.766 250.195 263.067 251.685C250.502 253.159 239.604 251.409 230.587 246.166L229.307 245.421L227.39 229.087L211.263 230.979C197.742 232.565 186.494 229.57 177.96 221.605L177.96 221.604C170.265 214.529 165.807 204.438 164.312 191.7C163.548 185.188 163.419 179.345 163.963 174.198L164.066 173.224L164.73 172.503C174.782 161.601 183.895 149.459 192.068 136.073C196.503 128.745 202.937 116.481 211.39 99.211C211.192 98.6217 210.985 97.996 210.762 97.3328C209.27 92.8904 207.393 85.9416 206.115 80.6965C203.947 71.7969 203.889 65.3867 204.724 59.5486C205.731 52.5034 208.997 45.2806 212.262 39.1455C215.152 33.714 219.371 30.4167 223.098 27.7947ZM228.245 133.83C229.368 152.347 223.282 166.655 208.962 178.316L199.671 185.065C212.531 181.079 224.671 177.467 232.293 191.307L236.969 203.163C236.181 185.571 242.297 169.19 256.839 158.609L266.131 151.86L266.13 151.854C254.835 155.858 239.849 159.662 233.385 146.442L228.245 133.83Z" fill="url(#paint0_radial_303_251)"/>
<defs>
<radialGradient id="paint0_radial_303_251" cx="0" cy="0" r="1" gradientUnits="userSpaceOnUse" gradientTransform="translate(246.598 138.113) rotate(83.3084) scale(114.717 87.97)">
<stop stop-color="#F5DCC6"/>
<stop offset="0.581731" stop-color="#D594DC"/>
<stop offset="1" stop-color="#699DE6"/>
</radialGradient>
</defs>
</svg>
