<svg width="137" height="165" viewBox="0 0 137 165" fill="none" xmlns="http://www.w3.org/2000/svg">
<path fill-rule="evenodd" clip-rule="evenodd" d="M1.9375 36.3262V82.8107L69.4512 107.438L136.689 82.8107V36.3262L69.4512 60.9517L1.9375 36.3262Z" fill="#D594DC"/>
<path fill-rule="evenodd" clip-rule="evenodd" d="M1.93762 92.9305V139.415L69.4513 164.041L136.689 139.415V92.9305L69.4513 117.557L1.93762 92.9305ZM60.459 6.91773H66.6144L70.9731 24.0726L75.3993 6.91773H81.4872L75.1928 31.5433H66.8219L60.459 6.91773ZM95.3226 6.91773H83.6323V31.5442H89.9266V16.8789C89.9266 13.627 92.0013 13.5585 95.3226 13.5585V6.91773ZM127.696 13.5585C129.77 13.5585 130.462 14.2504 130.462 16.602V31.5433H136.689V13.5585C136.689 10.93 135.305 6.64079 130.185 6.91773H118.495V31.5442H124.722V13.5585H127.696ZM105.975 6.91773C95.8292 6.91773 96.8434 13.0741 96.8434 18.885C96.8434 25.3869 96.0145 31.5442 106.114 31.5442C116.212 31.5442 115.105 25.3878 115.105 18.7471C115.106 12.2443 116.352 6.91773 105.975 6.91773ZM105.975 25.1794C103.139 25.1794 103.001 23.0343 103.001 19.023C103.001 15.1497 103.345 13.2121 105.975 13.2121C108.604 13.2121 108.816 15.0117 108.881 18.8841C108.949 23.1048 108.881 25.1794 105.975 25.1794ZM48.4222 21.6525H59.521C59.5114 20.8979 59.4892 20.3595 59.4892 19.6464C59.4892 13.1436 60.458 6.91869 50.9117 6.91869C40.7653 6.91869 41.7804 13.8355 41.7804 19.6464C41.7804 24.9034 41.6424 31.5442 51.7416 31.5442H59.4882V25.4573H51.3257C49.8059 25.465 48.5611 24.0041 48.4222 21.6525ZM48.4222 14.9423C48.4222 12.0368 52.8494 12.1748 52.8494 14.5273V16.2565H48.4222V14.9423ZM20.5448 0V31.5433H26.7706V16.187C26.9096 12.7287 32.789 12.7287 32.789 16.0491V31.5442H39.0149V14.1809C39.0149 10.1686 36.3864 7.26415 31.6822 7.26415C28.9147 7.26415 27.1855 7.6096 26.7706 8.16348V0.00096442L20.5448 0ZM17.5708 0H10.5151C1.52173 0 0 7.47161 0 15.9101C0 24.3486 1.52173 31.5433 9.13133 31.5433H17.5708V24.9025H11.4829C7.05572 24.9025 7.33266 18.8156 7.33266 15.7711C7.33266 12.7277 6.5028 7.05475 12.5897 6.91773H17.5708V0Z" fill="#D594DC"/>
</svg>
