<svg width="2120" height="1589" viewBox="0 0 2120 1589" fill="none" xmlns="http://www.w3.org/2000/svg">
<path d="M926.53 640.766C888.664 644.176 853.31 638.433 815.534 649.47C761.068 665.353 701.487 753.83 681.298 754.548C556.753 759.034 597.67 720.09 545.537 654.316C467.113 555.341 309.278 557.674 225.919 650.009C203.486 674.865 195.769 720.718 171.363 738.934C144.982 758.675 102.271 755.894 67.1865 778.327C-42.7326 848.588 -11.2376 1048.6 114.115 1081.27L2021.23 1089.7C2092.75 1085.39 2131.24 1010.02 2100.11 945.23C2075.43 893.903 1985.88 901.53 1981.31 896.774C1976.73 892.019 1981.13 807.131 1961.03 765.495C1937.79 717.398 1862.59 655.842 1809.47 645.971C1773.22 639.241 1732.93 649.022 1704.67 642.561C1688.52 638.882 1653.34 518.281 1541.09 499.616C1501.43 493.066 1455.85 506.616 1417.62 495.489C1389.27 487.233 1369.53 444.969 1341.44 428.099C1167.81 323.65 946.54 444.79 926.53 640.766Z" fill="white"/>
<path d="M1184.47 1337.63C1222.34 1334.22 1261.03 1364.97 1318.5 1347.7C1375.97 1330.43 1394.31 1271.92 1414.5 1271.2C1539.04 1266.71 1559 1335.84 1628.5 1365.7C1698 1395.56 1801.72 1420.73 1885.08 1328.39C1907.52 1303.54 1915.23 1257.68 1939.64 1239.47C1966.02 1219.72 2008.73 1222.51 2043.81 1200.07C2153.73 1129.81 2117.5 965.2 2099 945.2C2080.5 925.2 89.7655 888.7 89.7655 888.7C18.2507 893.007 -3.49824 983.7 39.5012 1030.7C82.5007 1077.7 103.501 1077.7 118.501 1083.7C133.501 1089.7 129.875 1171.27 149.974 1212.91C173.214 1261 248.408 1322.56 301.528 1332.43C337.779 1339.16 378.068 1329.38 406.333 1335.84C422.484 1339.52 457.658 1460.12 569.911 1478.78C609.571 1485.33 655.154 1471.78 693.379 1482.91C721.734 1491.17 741.474 1533.43 769.56 1550.3C943.187 1654.75 1164.46 1533.61 1184.47 1337.63Z" fill="white"/>
<g filter="url(#filter0_n_389_958)">
<path d="M1354.93 607.038C1328.45 630.663 1341.7 681.075 1353.88 709.148C1331.08 684.404 1292.28 642.175 1255.66 664.052C1233.52 677.284 1234.79 708.42 1251.57 725.374C1270.91 744.914 1295.02 745.04 1318.15 752.034C1322.3 753.293 1323.17 750.398 1322.36 757.825C1283.38 758.427 1219.23 788.71 1245.87 835.695C1270.66 879.448 1336.51 826.742 1353.88 797.942C1345.65 824.588 1335.36 846.409 1340.86 875.42C1348.54 915.844 1398.1 924.642 1414.26 885.421C1426.14 856.578 1413.44 828.841 1405.57 800.809C1426.44 824.714 1464.67 865.209 1499.36 847.206C1527.11 832.799 1523.19 798.781 1501.69 780.849C1480.44 763.126 1464.53 764.945 1441.29 757.923C1437.15 756.664 1436.28 759.56 1437.09 752.132C1462.48 750.733 1500.71 739.249 1513.31 715.051C1524.97 692.656 1518.3 667.926 1493.24 660.275C1457.05 649.211 1427.34 685.607 1405.57 709.148C1413.95 679.228 1428.56 648.455 1411.86 618.326C1400.95 598.617 1372.03 591.763 1354.91 607.038H1354.93Z" fill="white"/>
<path d="M1354.93 607.038C1328.45 630.663 1341.7 681.075 1353.88 709.148C1331.08 684.404 1292.28 642.175 1255.66 664.052C1233.52 677.284 1234.79 708.42 1251.57 725.374C1270.91 744.914 1295.02 745.04 1318.15 752.034C1322.3 753.293 1323.17 750.398 1322.36 757.825C1283.38 758.427 1219.23 788.71 1245.87 835.695C1270.66 879.448 1336.51 826.742 1353.88 797.942C1345.65 824.588 1335.36 846.409 1340.86 875.42C1348.54 915.844 1398.1 924.642 1414.26 885.421C1426.14 856.578 1413.44 828.841 1405.57 800.809C1426.44 824.714 1464.67 865.209 1499.36 847.206C1527.11 832.799 1523.19 798.781 1501.69 780.849C1480.44 763.126 1464.53 764.945 1441.29 757.923C1437.15 756.664 1436.28 759.56 1437.09 752.132C1462.48 750.733 1500.71 739.249 1513.31 715.051C1524.97 692.656 1518.3 667.926 1493.24 660.275C1457.05 649.211 1427.34 685.607 1405.57 709.148C1413.95 679.228 1428.56 648.455 1411.86 618.326C1400.95 598.617 1372.03 591.763 1354.91 607.038H1354.93Z" fill="url(#paint0_radial_389_958)"/>
</g>
<path d="M1420.64 175.718C1420.96 176.109 1422.99 176.89 1424.84 177.56C1426.09 178.011 1428.01 178.148 1429.78 178.503C1431.21 178.79 1433.89 178.779 1435.98 178.974C1437.82 179.146 1440.17 179.405 1442.38 179.602C1444.65 179.805 1448.48 180.58 1452.37 181.169C1456.01 181.722 1459.33 182.075 1461.8 182.387C1465.94 182.911 1471.07 183.95 1474.79 184.86C1476.67 185.319 1478.56 185.763 1480.37 186.311C1481.82 186.752 1483.35 187.331 1487.85 188.976C1489.28 189.497 1490.34 190.157 1493.38 191.948C1499.87 195.773 1504.07 198.949 1504.74 199.34C1506.92 200.62 1509.48 203.804 1511.33 206.045C1513.81 209.048 1515.53 210.793 1516.59 212.249C1518.79 215.25 1523.37 220.748 1524.8 222.806C1525.72 224.138 1526.6 225.161 1527.46 226.494C1528.93 228.761 1530.13 230.106 1531.47 231.83C1532.49 233.153 1533.97 234.655 1535.16 236.188C1536.36 237.75 1537.82 238.973 1539.23 240.191C1541.53 242.167 1544.79 245.938 1548.06 249.211C1551.48 252.633 1553.51 254.354 1555.99 256.553C1557.79 258.156 1559.09 258.833 1560.23 259.58C1560.74 260.01 1561.29 260.405 1561.92 260.719C1562.23 260.876 1562.55 261.032 1563.34 261.192" stroke="#D594DC" stroke-width="3.39999" stroke-linecap="round"/>
<path d="M1508.63 189.175C1508.63 189.179 1508.62 189.183 1508.62 189.187C1508.55 189.257 1508.48 189.327 1508.41 189.397C1508.4 189.401 1508.4 189.405 1508.4 189.409C1508.4 189.405 1508.4 189.401 1508.41 189.397C1508.48 189.327 1508.55 189.257 1508.62 189.187C1508.62 189.183 1508.63 189.179 1508.63 189.175Z" fill="#D594DC"/>
<circle cx="1447.13" cy="526.539" r="21.25" fill="url(#paint1_radial_389_958)" stroke="#D594DC" stroke-width="3.39999"/>
<path d="M1464.57 517.624C1468.05 508.534 1468.9 503.379 1473.33 495.011C1473.66 494.4 1473.98 493.972 1474.17 493.453C1474.37 492.933 1474.63 492.421 1474.95 491.902C1476.44 489.831 1478.06 487.819 1479.8 485.375C1481.22 483.372 1482.5 480.098 1485.75 479.759C1488.21 479.503 1490.14 479.25 1495.52 479.179C1500.39 479.115 1509.35 479.01 1514.16 479.181C1519.6 479.375 1521.26 479.754 1523.75 479.827C1525.94 479.891 1529.73 480.462 1547.74 480.077C1563.33 479.743 1591.22 478.848 1606.02 478.268C1620.82 477.689 1622.48 477.36 1625.1 477.305C1631.16 477.177 1636.49 476.588 1638.37 478.476C1639.27 479.379 1640.06 480.368 1640.57 481.977C1642.25 487.28 1643.41 493.238 1644.05 497.289C1644.7 501.354 1645.64 511.219 1646.31 517.706C1646.51 519.576 1646.97 526.014 1646.57 534.334C1646.38 538.314 1646.5 545.939 1646.05 557.566C1645.85 562.674 1645.47 566.256 1644.55 570.815C1643.63 575.375 1642.29 580.768 1641.13 584.622C1639.26 590.798 1638.4 595.483 1637 599C1635.38 603.072 1633.78 606.813 1632.09 609.136C1629.82 612.246 1628.89 615.567 1621.29 623.491C1618.45 626.451 1616.04 628.312 1611.53 629.355C1607.32 630.328 1598.67 633.685 1590.92 629.537C1588.99 628.506 1586.2 624.799 1581.92 617.264C1579.51 613.029 1576.71 607.963 1574.56 603.111C1570.5 593.961 1568.68 588.923 1568.12 587.136C1566.5 581.974 1564.83 574.704 1563.92 567.628C1563.79 566.597 1563.55 565.923 1562.02 565.829C1557.82 565.574 1546.23 564.316 1544.79 568.689C1544.54 569.474 1544.5 570.645 1544.28 571.465C1543.63 573.855 1543.35 576.41 1539.04 584.916C1536.24 590.433 1533.15 596.25 1529.86 600.673C1527.59 603.724 1525.18 607.685 1523.6 609.912C1521.39 613.021 1518.09 617.031 1513.89 619.93C1508.18 623.884 1500.2 627.524 1496.84 628.06C1494 628.514 1490.39 628.635 1486.76 628.446L1486.57 628.436C1482.83 628.242 1477.6 627.969 1475 624.949C1473.06 622.683 1469.83 620.502 1466.07 613.608C1462.98 607.93 1460.66 603.048 1459.36 597.36C1458.44 593.364 1457.16 587.223 1456.39 581.582C1455.62 575.941 1455.25 570.951 1455.3 568.061C1455.37 564.403 1455.15 560.829 1456.22 552.618C1456.95 547.057 1458.35 538.868 1459.85 532.599C1461.34 526.33 1462.85 522.099 1464.57 517.624Z" fill="url(#paint2_linear_389_958)" stroke="#D594DC" stroke-width="3.39999" stroke-linecap="round"/>
<path d="M1636.78 384.646C1636.27 378.318 1634.83 368.807 1633.67 362.029C1633.55 360.973 1633.96 358.836 1633.45 357.903C1631.2 357.109 1628.31 356.562 1625.42 355.953C1622.67 355.373 1619.83 354.578 1613.47 353.345C1606.03 351.902 1602.59 351.363 1595.69 350.891C1591.43 350.6 1587.67 350.07 1577.73 349.952C1571.7 349.88 1561.24 349.699 1554.99 350.028C1546.73 350.462 1538.26 347.946 1532.41 352.74C1529.97 354.731 1530.06 358.602 1529.9 360.973C1529.54 366.099 1529.51 369.603 1527.55 379.904C1526.01 388.081 1523 403.258 1519.95 415.421C1516.89 427.583 1514.06 436.529 1511.65 442.448C1507.97 451.443 1505.81 456.417 1502.75 463.49C1498.12 474.188 1495.16 481.696 1495.92 482.441C1496.28 482.801 1496.87 482.923 1497.51 483.237C1500.19 484.536 1504.11 486.124 1507.49 486.923C1511.5 487.869 1522.31 490.651 1529.12 492.783C1531.43 493.505 1536.33 495.287 1542.29 496.109C1546.48 496.686 1549.35 497.361 1554.4 497.334C1568.75 497.258 1573.37 496.919 1578.37 496.61C1581.91 496.391 1585.07 495.962 1587.76 495.742C1590.44 495.523 1592.85 495.748 1598.69 494.29C1605.96 492.477 1613.55 491.856 1622.11 489.648C1633.6 486.684 1641.79 484.639 1642.43 483.072C1642.79 482.193 1642.88 480.893 1642.71 479.892C1642.2 476.856 1642.06 474.233 1641.48 471.361C1640.9 468.465 1640.49 465.593 1640.25 462.757L1640.25 462.723C1640.03 460.027 1639.58 454.568 1639.39 450.165C1639.17 445.321 1638.7 439.542 1638.52 434.321C1638.3 428.112 1637.84 417.092 1637.65 408.129L1637.64 407.614C1637.43 397.77 1637.27 390.674 1636.78 384.646Z" fill="url(#paint3_linear_389_958)"/>
<path d="M1636.78 384.646C1636.27 378.318 1634.83 368.807 1633.67 362.029C1633.55 360.973 1633.96 358.836 1633.45 357.903C1631.2 357.109 1628.31 356.562 1625.42 355.953C1622.67 355.373 1619.83 354.578 1613.47 353.345C1606.03 351.902 1602.59 351.363 1595.69 350.891C1591.43 350.6 1587.67 350.07 1577.73 349.952C1571.7 349.88 1561.24 349.699 1554.99 350.028C1546.73 350.462 1538.26 347.946 1532.41 352.74C1529.97 354.731 1530.06 358.602 1529.9 360.973C1529.54 366.099 1529.51 369.603 1527.55 379.904C1526.01 388.081 1523 403.258 1519.95 415.421C1516.89 427.583 1514.06 436.529 1511.65 442.448C1507.97 451.443 1505.81 456.417 1502.75 463.49C1498.12 474.188 1495.16 481.696 1495.92 482.441C1496.28 482.801 1496.87 482.923 1497.51 483.237C1500.19 484.536 1504.11 486.124 1507.49 486.923C1511.5 487.869 1522.31 490.651 1529.12 492.783C1531.43 493.505 1536.33 495.287 1542.29 496.109C1546.48 496.686 1549.35 497.361 1554.4 497.334C1568.75 497.258 1573.37 496.919 1578.37 496.61C1581.91 496.391 1585.07 495.962 1587.76 495.742C1590.44 495.523 1592.85 495.748 1598.69 494.29C1605.96 492.477 1613.55 491.856 1622.11 489.648C1633.6 486.684 1641.79 484.639 1642.43 483.072C1642.79 482.193 1642.88 480.893 1642.71 479.892C1642.2 476.856 1642.06 474.233 1641.48 471.361C1640.9 468.465 1640.49 465.593 1640.25 462.757L1640.25 462.723C1640.03 460.027 1639.58 454.568 1639.39 450.165C1639.17 445.321 1638.7 439.542 1638.52 434.321C1638.3 428.112 1637.84 417.092 1637.65 408.129L1637.64 407.614C1637.43 397.77 1637.27 390.674 1636.78 384.646Z" fill="white" fill-opacity="0.5"/>
<path d="M1636.78 384.646C1636.27 378.318 1634.83 368.807 1633.67 362.029C1633.55 360.973 1633.96 358.836 1633.45 357.903C1631.2 357.109 1628.31 356.562 1625.42 355.953C1622.67 355.373 1619.83 354.578 1613.47 353.345C1606.03 351.902 1602.59 351.363 1595.69 350.891C1591.43 350.6 1587.67 350.07 1577.73 349.952C1571.7 349.88 1561.24 349.699 1554.99 350.028C1546.73 350.462 1538.26 347.946 1532.41 352.74C1529.97 354.731 1530.06 358.602 1529.9 360.973C1529.54 366.099 1529.51 369.603 1527.55 379.904C1526.01 388.081 1523 403.258 1519.95 415.421C1516.89 427.583 1514.06 436.529 1511.65 442.448C1507.97 451.443 1505.81 456.417 1502.75 463.49C1498.12 474.188 1495.16 481.696 1495.92 482.441C1496.28 482.801 1496.87 482.923 1497.51 483.237C1500.19 484.536 1504.11 486.124 1507.49 486.923C1511.5 487.869 1522.31 490.651 1529.12 492.783C1531.43 493.505 1536.33 495.287 1542.29 496.109C1546.48 496.686 1549.35 497.361 1554.4 497.334C1568.75 497.258 1573.37 496.919 1578.37 496.61C1581.91 496.391 1585.07 495.962 1587.76 495.742C1590.44 495.523 1592.85 495.748 1598.69 494.29C1605.96 492.477 1613.55 491.856 1622.11 489.648C1633.6 486.684 1641.79 484.639 1642.43 483.072C1642.79 482.193 1642.88 480.893 1642.71 479.892C1642.2 476.856 1642.06 474.233 1641.48 471.361C1640.9 468.465 1640.49 465.593 1640.25 462.757L1640.25 462.723C1640.03 460.027 1639.58 454.568 1639.39 450.165C1639.17 445.321 1638.7 439.542 1638.52 434.321C1638.3 428.112 1637.84 417.092 1637.65 408.129L1637.64 407.614C1637.43 397.77 1637.27 390.674 1636.78 384.646Z" stroke="#D594DC" stroke-width="3.39999" stroke-linecap="round"/>
<path d="M1472.75 264.298C1475.3 265.087 1478.04 266.262 1478.92 266.554C1480.21 266.654 1480.89 266.751 1481.28 266.85C1482.86 267.243 1484.42 267.438 1486.05 267.93C1487.87 268.127 1489.43 268.541 1491.01 268.912C1492.68 269.305 1494.66 269.611 1496.41 270.141C1499.17 270.979 1502.49 271.814 1505.98 272.348C1509.9 272.946 1517.38 274.05 1521.71 275.004C1527.93 276.375 1530.49 276.91 1538.01 278.539C1539.82 278.932 1540.89 279.224 1550.94 281.423C1560.99 283.622 1579.46 287.608 1590.1 289.751C1600.74 291.894 1603.47 292.126 1605.12 292.431C1611.25 293.567 1619.67 294.516 1622.3 294.984C1626.42 295.717 1630.43 296.084 1634.23 297.489C1637.42 298.669 1640.65 299.828 1642.47 301.417C1644.39 303.094 1647.34 305.881 1649.69 309.234C1652.33 313.009 1653.38 315.489 1653.85 317.768C1654.3 319.891 1655.49 322.894 1654.54 329.265C1654.09 332.263 1653.22 335.069 1652.03 336.674C1649.26 340.423 1644.21 345.413 1639.03 347.581C1628.76 351.888 1626.37 352.772 1624.44 353.506C1622.76 354.144 1619.02 355.298 1616.43 356.158C1614.52 356.795 1612.8 357.617 1607.69 358.522C1604.6 359.069 1599.35 359.944 1593.77 360.332C1588.19 360.719 1582.44 360.791 1578.54 360.373C1572.58 359.735 1569.09 359.33 1566.19 358.604C1562.86 357.77 1557.32 355.736 1551.56 353.545C1549.51 352.765 1549.13 352.668 1539.42 347.562C1529.71 342.455 1511.24 332.637 1501.65 327.477C1492.07 322.318 1491.39 321.832 1487.09 319.485C1482.79 317.139 1475.11 313.064 1470.72 310.714C1465.26 307.789 1462.24 307.252 1457.35 302.282C1454.27 299.14 1451.99 296.64 1451.57 294.237C1450.94 290.568 1450.5 283.7 1453.35 279.056C1455.86 274.985 1456.45 271.929 1461.12 268.747C1466.07 265.37 1468.42 262.962 1472.75 264.298Z" fill="url(#paint4_linear_389_958)" stroke="#D594DC" stroke-width="3.39999" stroke-linecap="round"/>
<path d="M1476.67 223.073C1479.1 218.054 1481.53 213.022 1483.68 209.096C1484.39 207.829 1486.77 205.721 1488.13 203.61C1489.21 201.97 1489.92 200.485 1491.08 199.256C1492.68 197.564 1494.5 195.28 1498.44 193.355L1498.49 193.328C1500.79 192.204 1504.24 190.522 1510.48 189.659C1512.16 189.427 1514.43 188.851 1524.43 188.914C1532.67 188.966 1546.95 189.337 1554.81 189.618C1562.66 189.899 1564.05 190.118 1565.04 190.177L1565.12 190.182C1566.64 190.274 1568.61 190.391 1575.19 191.838C1580.62 193.029 1589.89 195.162 1594.86 196.276C1599.83 197.39 1600.48 197.483 1602.57 198.007C1604.67 198.531 1608.1 199.458 1613.78 201.403C1619.46 203.347 1627.15 206.222 1631.19 207.802C1635.23 209.383 1635.59 209.687 1636.17 209.943C1639.37 211.355 1646.46 214.962 1649.29 218.57C1653.8 224.32 1657.18 229.991 1657.9 232.102C1658.93 235.144 1660.88 239.52 1659.9 247.446C1659.2 253.15 1657.82 258.938 1656.81 263.159C1656.3 265.3 1655.81 266.387 1655.45 267.455C1655.18 268.286 1653.28 272.567 1650.02 279.898L1649.91 280.145C1646.92 286.869 1645.07 291.147 1643.74 293.176C1641.31 296.867 1637.23 301.429 1634 304.593C1631.93 306.617 1627.56 312.076 1623.41 314.943C1620.98 316.632 1619.49 318.879 1612.31 322.017C1608.12 323.848 1603.09 325.484 1598.26 326.507C1595.41 327.113 1592.79 327.267 1590.82 327.441C1588.19 327.675 1585.93 328.488 1579.29 327.908C1575.53 327.579 1571.59 327.523 1568.34 327.017C1565.34 326.551 1562.4 325.989 1560.15 325.472C1558.31 325.05 1551.89 323.667 1548.3 322.381C1546.32 321.673 1543.74 320.873 1541.93 319.756C1540.34 318.773 1538.48 317.995 1536.16 316.897C1531.79 314.828 1528.59 312.857 1524.48 310.559C1518.86 307.424 1514.9 305.369 1514.02 304.816C1511 302.93 1503.49 299.047 1498.98 296.338C1496.88 295.074 1495.62 293.85 1486.31 286.574C1481.6 282.887 1479.23 280.884 1478.57 280.181C1477.87 279.434 1473.84 274.524 1469.8 266.524C1467.75 262.473 1466.98 260.034 1466.91 256.738C1466.82 252.155 1466.99 247.18 1468.33 243.02C1469.54 239.238 1470.7 236.765 1471.18 235.408C1471.5 234.475 1473.47 229.648 1476.67 223.073Z" fill="url(#paint5_linear_389_958)"/>
<path d="M1476.67 223.073C1479.1 218.054 1481.53 213.022 1483.68 209.096C1484.39 207.829 1486.77 205.721 1488.13 203.61C1489.21 201.97 1489.92 200.485 1491.08 199.256C1492.68 197.564 1494.5 195.28 1498.44 193.355L1498.49 193.328C1500.79 192.204 1504.24 190.522 1510.48 189.659C1512.16 189.427 1514.43 188.851 1524.43 188.914C1532.67 188.966 1546.95 189.337 1554.81 189.618C1562.66 189.899 1564.05 190.118 1565.04 190.177L1565.12 190.182C1566.64 190.274 1568.61 190.391 1575.19 191.838C1580.62 193.029 1589.89 195.162 1594.86 196.276C1599.83 197.39 1600.48 197.483 1602.57 198.007C1604.67 198.531 1608.1 199.458 1613.78 201.403C1619.46 203.347 1627.15 206.222 1631.19 207.802C1635.23 209.383 1635.59 209.687 1636.17 209.943C1639.37 211.355 1646.46 214.962 1649.29 218.57C1653.8 224.32 1657.18 229.991 1657.9 232.102C1658.93 235.144 1660.88 239.52 1659.9 247.446C1659.2 253.15 1657.82 258.938 1656.81 263.159C1656.3 265.3 1655.81 266.387 1655.45 267.455C1655.18 268.286 1653.28 272.567 1650.02 279.898L1649.91 280.145C1646.92 286.869 1645.07 291.147 1643.74 293.176C1641.31 296.867 1637.23 301.429 1634 304.593C1631.93 306.617 1627.56 312.076 1623.41 314.943C1620.98 316.632 1619.49 318.879 1612.31 322.017C1608.12 323.848 1603.09 325.484 1598.26 326.507C1595.41 327.113 1592.79 327.267 1590.82 327.441C1588.19 327.675 1585.93 328.488 1579.29 327.908C1575.53 327.579 1571.59 327.523 1568.34 327.017C1565.34 326.551 1562.4 325.989 1560.15 325.472C1558.31 325.05 1551.89 323.667 1548.3 322.381C1546.32 321.673 1543.74 320.873 1541.93 319.756C1540.34 318.773 1538.48 317.995 1536.16 316.897C1531.79 314.828 1528.59 312.857 1524.48 310.559C1518.86 307.424 1514.9 305.369 1514.02 304.816C1511 302.93 1503.49 299.047 1498.98 296.338C1496.88 295.074 1495.62 293.85 1486.31 286.574C1481.6 282.887 1479.23 280.884 1478.57 280.181C1477.87 279.434 1473.84 274.524 1469.8 266.524C1467.75 262.473 1466.98 260.034 1466.91 256.738C1466.82 252.155 1466.99 247.18 1468.33 243.02C1469.54 239.238 1470.7 236.765 1471.18 235.408C1471.5 234.475 1473.47 229.648 1476.67 223.073Z" fill="white" fill-opacity="0.5"/>
<path d="M1483.68 209.096C1481.53 213.022 1479.1 218.054 1476.67 223.073C1473.47 229.648 1471.5 234.475 1471.18 235.408C1470.7 236.765 1469.54 239.238 1468.33 243.02C1466.99 247.18 1466.82 252.155 1466.91 256.738C1466.98 260.034 1467.75 262.473 1469.8 266.524C1473.84 274.524 1477.87 279.434 1478.57 280.181C1479.23 280.884 1481.6 282.887 1486.31 286.574C1495.62 293.85 1496.88 295.074 1498.98 296.338C1503.49 299.047 1511 302.93 1514.02 304.816C1514.9 305.369 1518.86 307.424 1524.48 310.559C1528.59 312.857 1531.79 314.828 1536.16 316.897C1538.48 317.995 1540.34 318.773 1541.93 319.756C1543.74 320.873 1546.32 321.673 1548.3 322.381C1551.89 323.667 1558.31 325.05 1560.15 325.472C1562.4 325.989 1565.34 326.551 1568.34 327.017C1571.59 327.523 1575.53 327.579 1579.29 327.908C1585.93 328.488 1588.19 327.675 1590.82 327.441C1592.79 327.267 1595.41 327.113 1598.26 326.507C1603.09 325.484 1608.12 323.848 1612.31 322.017C1619.49 318.879 1620.98 316.632 1623.41 314.943C1627.56 312.076 1631.93 306.617 1634 304.593C1637.23 301.429 1641.31 296.867 1643.74 293.176C1645.07 291.147 1646.92 286.869 1649.91 280.145C1653.23 272.664 1655.17 268.295 1655.45 267.455C1655.81 266.387 1656.3 265.3 1656.81 263.159C1657.82 258.938 1659.2 253.15 1659.9 247.446C1660.88 239.52 1658.93 235.144 1657.9 232.102C1657.18 229.991 1653.8 224.32 1649.29 218.57C1646.46 214.962 1639.37 211.355 1636.17 209.943C1635.59 209.687 1635.23 209.383 1631.19 207.802C1627.15 206.222 1619.46 203.347 1613.78 201.403C1608.1 199.458 1604.67 198.531 1602.57 198.007C1600.48 197.483 1599.83 197.39 1594.86 196.276C1589.89 195.162 1580.62 193.029 1575.19 191.838C1568.49 190.366 1566.58 190.27 1565.04 190.177C1564.05 190.118 1562.66 189.899 1554.81 189.618C1546.95 189.337 1532.67 188.966 1524.43 188.914C1514.43 188.851 1512.16 189.427 1510.48 189.659C1504.19 190.529 1500.74 192.231 1498.44 193.355C1494.5 195.28 1492.68 197.564 1491.08 199.256C1489.92 200.485 1489.21 201.97 1488.13 203.61C1486.77 205.721 1484.39 207.829 1483.68 209.096ZM1483.68 209.096C1483.81 209.425 1483.1 208.714 1483.68 209.096Z" stroke="#D594DC" stroke-width="3.39999" stroke-linecap="round"/>
<path d="M1511.7 273.015C1511.54 270.047 1511.34 266.528 1511.34 266.465L1511.14 265.674C1511.01 265.15 1510.81 264.363 1510.71 263.115C1510.48 261.801 1510.32 258.775 1510.52 256.654C1510.62 255.57 1510.31 253.939 1511.41 253.309C1512.72 252.555 1514.03 252.19 1515.12 252.065C1516.53 251.902 1518.12 251.921 1519.58 251.672C1520.92 251.441 1522.12 251.32 1523.31 251.081C1524.47 250.851 1526.07 250.714 1530.62 249.566C1534.65 248.55 1538.82 247.738 1541.76 247.077C1543.36 246.718 1544.21 246.52 1545.03 246.357C1548.18 245.73 1553.04 245.12 1555.79 244.421C1557.33 244.03 1558.74 243.607 1565.96 242.349C1568.81 241.853 1572.44 241.222 1574.47 240.977C1576.88 240.684 1578.6 240.435 1580.79 240.158C1582.85 239.897 1584.03 239.827 1585.95 239.566C1588.83 239.173 1591.12 238.968 1595.68 238.411C1599.79 237.909 1607.32 236.892 1611.29 236.448C1615.65 235.961 1617.74 235.581 1619.78 235.403C1621.69 235.237 1624.16 234.785 1628.32 234.017L1628.56 233.972C1631.3 233.466 1635.9 232.615 1638.4 232.25C1641.3 231.828 1642.34 231.567 1644.77 231.101C1652.26 229.66 1654.33 229.058 1656.62 228.644C1659.68 228.089 1663.65 227.713 1664.39 228.945C1664.98 229.931 1665.72 230.784 1666.39 231.832C1667.01 232.816 1668.11 234.637 1668.81 236.393C1669.44 237.937 1670.04 239.856 1670.29 241.476C1670.49 242.79 1670.75 244.109 1670.98 246.036C1671.14 247.45 1671.73 249.161 1671.3 258.219C1671.2 260.301 1671.23 260.841 1671.11 261.386C1670.81 262.734 1670.35 264.281 1669.56 266.541C1668.71 268.964 1668.01 271.628 1667.2 273.424C1666.34 275.337 1665.33 277.55 1663.95 279.131C1662.87 280.379 1660.7 283.484 1655.64 285.565C1650.07 287.853 1647.08 288.761 1644.7 288.901C1641.38 289.097 1636.12 289.265 1633.86 288.733C1629.54 287.715 1627.91 287.223 1626.69 286.634C1623.88 285.279 1620.84 283.937 1618.35 281.442L1618.28 281.372C1615.5 278.582 1614.69 277.781 1613.9 276.53C1612.75 274.711 1611.46 272.27 1610.79 269.867C1610.19 267.772 1610.41 265.963 1609.24 265.447C1608.87 265.284 1608.22 265.238 1607.43 265.351C1604.22 265.812 1601.57 266.254 1598.58 267.156C1596.94 267.65 1594.83 267.902 1594.19 269.092C1593.4 270.547 1593.11 272.484 1593.04 273.754C1592.94 275.785 1593.03 276.902 1592.55 278.376C1592.16 279.592 1591.76 281.621 1590.02 285.243L1589.91 285.475C1588.24 288.925 1587.34 290.804 1585.95 292.157C1583.23 294.812 1581.59 296.031 1580.61 296.841C1579.49 297.76 1578.11 298.664 1576.14 299.565C1573.78 300.645 1572.64 301.289 1570.5 301.825C1567.59 302.554 1563.27 303.504 1560.03 304.056C1558.5 304.317 1554.9 304.63 1550.45 304.414C1547.08 304.251 1543.93 304.038 1541.51 303.824C1539.67 303.66 1536.86 303.699 1535.08 303.2C1533.44 302.739 1532.25 302.512 1530.91 302.084C1528.64 301.358 1525.61 300.078 1524.13 299.164C1522.67 298.272 1520.47 296.426 1519.4 295.227C1518.62 294.34 1517.77 293.326 1516.38 290.79C1514.55 287.44 1513.24 283.378 1512.52 280.332C1512.06 278.395 1511.91 276.822 1511.7 273.015Z" fill="url(#paint6_radial_389_958)" stroke="#D594DC" stroke-width="3.39999" stroke-linecap="round"/>
<path d="M1413.47 166.517C1412.01 164.872 1409.58 162.626 1408.88 161.123C1408.17 159.62 1407.61 158.123 1407.28 155.664C1407.43 149.011 1407.51 146.426 1408.27 144.939C1409.4 142.735 1410.28 140.657 1412.36 138.372C1414.28 136.262 1415.59 134.568 1417.8 132.697C1420.57 130.347 1425.66 126.442 1431.07 122.867C1433.89 121.004 1439 117.568 1442.55 115.419C1446.11 113.27 1448.07 112.448 1449.23 111.921C1450.77 111.221 1455.93 109.053 1463.55 106.71C1467.19 105.593 1468.36 105.066 1469.54 104.794C1473.39 103.904 1476.14 102.659 1485.96 102.216C1490.09 102.03 1495.66 102.03 1502.03 102.413C1508.41 102.796 1515.39 103.444 1519.05 103.958C1524.04 104.659 1525.84 105.26 1533.75 107.393C1537.26 108.34 1542.21 109.463 1545.12 110.342C1548.99 111.508 1550.81 111.972 1556.72 114.072C1561.83 115.887 1570.93 119.231 1575.67 120.998C1580.41 122.765 1580.78 122.95 1581.16 123.092C1583.05 123.801 1585.39 125.045 1592.86 126.953C1596.76 127.949 1602.92 129.222 1606.91 130.374C1615.31 132.801 1618.29 133.804 1620.61 134.443C1622.82 135.052 1625.63 135.814 1627.93 136.365C1631.09 137.124 1635.1 138.028 1636.88 138.947C1639.91 140.506 1644.71 142.464 1646.92 143.683C1648.8 144.722 1653.04 147.41 1659.79 153.364C1662.97 156.17 1667.33 160.912 1670.9 166.639C1672.43 169.107 1673.12 170.081 1674.18 172.225C1677.5 178.96 1678.58 180.975 1679.14 182.852C1680.32 186.789 1681.91 192.769 1682.52 194.86C1683.13 196.976 1684.06 199.022 1683.83 202.195C1683.2 210.71 1681.78 216.79 1679.88 219.017C1676.9 222.513 1672.74 226.734 1671.25 228.111C1670.64 228.673 1666.05 232.398 1657.5 237.615C1653.5 240.056 1650 241.88 1648.02 242.751C1645.69 243.774 1642 245.047 1636.76 247.444C1633.49 248.938 1631.48 249.701 1629.64 250.487C1625.8 252.124 1623.5 252.948 1620.5 254.236C1619.52 254.657 1615.18 256.432 1607.94 258.702C1604.65 259.733 1602.06 260.438 1599.31 260.948C1590.24 262.632 1587.82 263.172 1582.49 263.239C1578.77 263.285 1572.08 263.364 1568.55 263.237C1564.64 263.096 1563.79 263.062 1562.76 262.956C1560.51 262.722 1558.01 262.644 1555.39 261.968C1551.03 260.842 1548.54 260.312 1542.29 258.537C1540.11 257.921 1537.7 257.085 1527.5 252.744C1517.3 248.403 1499.86 240.735 1490.58 236.789C1480.3 232.419 1478.83 231.699 1477.48 231.055C1475.42 230.072 1473.78 229.137 1472.75 228.714C1470.35 227.725 1466.21 225.503 1463.65 223.834C1460.4 221.708 1456.91 219.214 1455.26 217.97C1453.38 216.563 1451.33 215.241 1448.55 212.245C1446.82 210.372 1444.75 208.892 1441.69 205.947C1435.84 200.331 1434.58 198.791 1433.21 197.283C1429.91 193.644 1426.13 188.836 1424.91 187.153C1423.46 185.134 1422.08 183.387 1421.12 181.101C1420.08 178.656 1419.39 176.113 1418.06 173.592C1416.24 170.123 1414.98 168.211 1413.47 166.517Z" fill="url(#paint7_radial_389_958)" stroke="#D594DC" stroke-width="3.39999" stroke-linecap="round"/>
<path d="M1613.38 117.601C1615.03 118.98 1617.22 120.386 1617.85 120.619C1618.47 120.852 1613.38 124.49 1613.38 124.49L1608.63 128.74L1602.68 133.84L1594.18 136.39L1583.13 131.29L1572.08 124.49L1558.99 117.601L1540.66 106.64L1524.48 98.1404L1512.58 89.6405L1503.65 85.3905L1497.76 82.9441C1497.84 82.5438 1497.92 82.1553 1498.11 81.841C1498.62 81.2935 1499.41 80.5871 1500.35 79.4475C1501.29 78.4656 1502.33 77.3964 1503.65 76.8197C1504.91 76.271 1506.23 75.5026 1508.44 75.0148C1509.85 74.7028 1511.19 73.7359 1516.39 73.6809C1523.51 73.6056 1525.38 73.8806 1527.63 73.9576C1528.77 73.9964 1533.43 74.3491 1540.66 75.733C1543.96 76.3652 1546.53 77.0646 1549.45 78.0147C1552.37 78.9648 1555.56 80.1303 1558.99 81.4737C1562.43 82.817 1566 84.2934 1571.03 86.7528C1576.06 89.2122 1582.46 92.3823 1586.3 94.8646C1591.8 98.419 1594.28 100.317 1596.03 101.787C1598.48 103.839 1600.84 105.841 1604.08 108.933C1606.56 111.299 1611.09 115.703 1613.38 117.601Z" fill="url(#paint8_radial_389_958)" stroke="#D594DC" stroke-width="3.39999" stroke-linecap="round"/>
<path d="M1534.35 70.5209C1536.84 72.9792 1538.25 74.6939 1538.55 75.3919L1552.53 79.4402L1566.98 84.5402L1578.03 89.8575L1587.38 95.5901L1598.52 103.24L1611.17 114.979C1610.86 114.426 1610.78 114.117 1610.7 113.803L1610.7 113.803C1610.62 113.489 1610.54 113.18 1610.5 112.826C1610.39 111.301 1609.69 109.159 1609.37 106.852C1609.14 105.131 1608.78 103.427 1608.4 101.189L1608.39 101.16C1608.19 100.014 1607.72 97.281 1605.72 89.8575C1604.25 84.4336 1601.89 75.9199 1600.58 71.4801C1599.14 66.643 1598.52 64.6883 1598.52 64.6883C1598.52 64.6883 1595.54 58.9487 1592.55 54.5316C1590.64 51.7149 1587.36 46.8931 1585.54 44.4066C1583.53 41.6589 1582.46 40.3658 1578.88 36.0219C1576.41 33.0412 1572.09 27.5613 1569.13 24.2478C1564.93 19.5513 1563.45 17.8519 1562.75 17.2159C1561.82 16.3586 1560.85 15.1123 1558.95 13.5336C1553.62 9.09709 1551.6 7.22772 1548.5 5.70059C1546.04 4.48722 1542.86 2.17222 1534.97 1.79931C1530.88 1.60606 1528.56 1.74511 1527.77 1.80165C1526.13 1.91994 1522.51 2.40601 1520.28 2.81709C1518.79 3.09115 1516.58 3.21778 1514.26 4.6957C1512 6.14097 1510 7.4161 1509.35 9.2634C1508.8 10.8305 1507.29 14.6454 1506.69 18.3309C1505.99 22.6268 1506.1 25.4298 1506.27 27.2636C1506.46 29.4104 1507.17 34.129 1508.26 37.9591C1508.49 38.7754 1509.01 40.5702 1512.13 45.0777C1514.43 48.4027 1518.29 53.5818 1520.74 56.689C1523.19 59.7962 1524.18 60.8147 1525.06 61.6619C1527.63 64.1531 1531.62 67.8343 1534.35 70.5209Z" fill="url(#paint9_linear_389_958)"/>
<path d="M1534.35 70.5209C1536.84 72.9792 1538.25 74.6939 1538.55 75.3919L1552.53 79.4402L1566.98 84.5402L1578.03 89.8575L1587.38 95.5901L1598.52 103.24L1611.17 114.979C1610.86 114.426 1610.78 114.117 1610.7 113.803L1610.7 113.803C1610.62 113.489 1610.54 113.18 1610.5 112.826C1610.39 111.301 1609.69 109.159 1609.37 106.852C1609.14 105.131 1608.78 103.427 1608.4 101.189L1608.39 101.16C1608.19 100.014 1607.72 97.281 1605.72 89.8575C1604.25 84.4336 1601.89 75.9199 1600.58 71.4801C1599.14 66.643 1598.52 64.6883 1598.52 64.6883C1598.52 64.6883 1595.54 58.9487 1592.55 54.5316C1590.64 51.7149 1587.36 46.8931 1585.54 44.4066C1583.53 41.6589 1582.46 40.3658 1578.88 36.0219C1576.41 33.0412 1572.09 27.5613 1569.13 24.2478C1564.93 19.5513 1563.45 17.8519 1562.75 17.2159C1561.82 16.3586 1560.85 15.1123 1558.95 13.5336C1553.62 9.09709 1551.6 7.22772 1548.5 5.70059C1546.04 4.48722 1542.86 2.17222 1534.97 1.79931C1530.88 1.60606 1528.56 1.74511 1527.77 1.80165C1526.13 1.91994 1522.51 2.40601 1520.28 2.81709C1518.79 3.09115 1516.58 3.21778 1514.26 4.6957C1512 6.14097 1510 7.4161 1509.35 9.2634C1508.8 10.8305 1507.29 14.6454 1506.69 18.3309C1505.99 22.6268 1506.1 25.4298 1506.27 27.2636C1506.46 29.4104 1507.17 34.129 1508.26 37.9591C1508.49 38.7754 1509.01 40.5702 1512.13 45.0777C1514.43 48.4027 1518.29 53.5818 1520.74 56.689C1523.19 59.7962 1524.18 60.8147 1525.06 61.6619C1527.63 64.1531 1531.62 67.8343 1534.35 70.5209Z" fill="white" fill-opacity="0.5"/>
<path d="M1534.35 70.5209C1536.84 72.9792 1538.25 74.6939 1538.55 75.3919L1552.53 79.4402L1566.98 84.5402L1578.03 89.8575L1587.38 95.5901L1598.52 103.24L1611.17 114.979C1610.86 114.426 1610.78 114.117 1610.7 113.803L1610.7 113.803C1610.62 113.489 1610.54 113.18 1610.5 112.826C1610.39 111.301 1609.69 109.159 1609.37 106.852C1609.14 105.131 1608.78 103.427 1608.4 101.189L1608.39 101.16C1608.19 100.014 1607.72 97.281 1605.72 89.8575C1604.25 84.4336 1601.89 75.9199 1600.58 71.4801C1599.14 66.643 1598.52 64.6883 1598.52 64.6883C1598.52 64.6883 1595.54 58.9487 1592.55 54.5316C1590.64 51.7149 1587.36 46.8931 1585.54 44.4066C1583.53 41.6589 1582.46 40.3658 1578.88 36.0219C1576.41 33.0412 1572.09 27.5613 1569.13 24.2478C1564.93 19.5513 1563.45 17.8519 1562.75 17.2159C1561.82 16.3586 1560.85 15.1123 1558.95 13.5336C1553.62 9.09709 1551.6 7.22772 1548.5 5.70059C1546.04 4.48722 1542.86 2.17222 1534.97 1.79931C1530.88 1.60606 1528.56 1.74511 1527.77 1.80165C1526.13 1.91994 1522.51 2.40601 1520.28 2.81709C1518.79 3.09115 1516.58 3.21778 1514.26 4.6957C1512 6.14097 1510 7.4161 1509.35 9.2634C1508.8 10.8305 1507.29 14.6454 1506.69 18.3309C1505.99 22.6268 1506.1 25.4298 1506.27 27.2636C1506.46 29.4104 1507.17 34.129 1508.26 37.9591C1508.49 38.7754 1509.01 40.5702 1512.13 45.0777C1514.43 48.4027 1518.29 53.5818 1520.74 56.689C1523.19 59.7962 1524.18 60.8147 1525.06 61.6619C1527.63 64.1531 1531.62 67.8343 1534.35 70.5209Z" stroke="#D594DC" stroke-width="3.39999" stroke-linecap="round"/>
<path d="M1463.13 118.258C1461.96 120.372 1461.52 122.797 1461.22 125.176C1461.12 126.006 1461.06 126.839 1461.02 127.677C1461.02 127.682 1461.02 127.686 1461.02 127.691C1460.98 130.737 1461.77 133.709 1462.38 136.675C1462.38 136.679 1462.38 136.683 1462.38 136.687C1462.96 139.408 1463.78 142.076 1464.83 144.652C1464.83 144.653 1464.83 144.653 1464.83 144.654C1466.53 148.848 1469.01 152.663 1471.58 156.365C1471.58 156.368 1471.58 156.371 1471.58 156.373C1474.12 160.116 1475.51 164.485 1476.74 168.801C1476.74 168.808 1476.74 168.814 1476.75 168.821C1477.8 173.236 1477.62 177.816 1478.16 182.308C1478.16 182.313 1478.16 182.318 1478.16 182.323C1478.43 185.31 1478.46 188.698 1476.42 191.091C1476.42 191.095 1476.41 191.099 1476.41 191.103C1473.46 192.902 1469.79 191.826 1466.48 191.965C1466.45 191.965 1466.43 191.964 1466.4 191.964C1463.24 191.947 1460.05 192.267 1456.93 191.62C1456.91 191.613 1456.88 191.607 1456.85 191.6C1454.29 191.168 1452.49 188.92 1451.86 186.498C1451.86 186.483 1451.85 186.467 1451.85 186.451C1450.55 181.91 1450.46 177.149 1450.25 172.458C1450.25 172.447 1450.25 172.436 1450.25 172.425C1450.05 166.229 1450.03 160.027 1450.02 153.825C1450.01 151.417 1450.01 149.009 1450.01 146.601C1450.01 149.009 1450.01 151.417 1450.02 153.825C1450.03 160.027 1450.05 166.229 1450.25 172.425C1450.25 172.436 1450.25 172.447 1450.25 172.458C1450.46 177.149 1450.55 181.91 1451.85 186.451C1451.85 186.467 1451.86 186.483 1451.86 186.498C1452.49 188.92 1454.29 191.168 1456.85 191.6C1456.88 191.607 1456.91 191.613 1456.93 191.62C1460.05 192.267 1463.24 191.947 1466.4 191.964C1466.43 191.964 1466.45 191.965 1466.48 191.965C1469.79 191.826 1473.46 192.902 1476.41 191.103C1476.41 191.099 1476.42 191.095 1476.42 191.091C1478.46 188.698 1478.43 185.31 1478.16 182.323C1478.16 182.318 1478.16 182.313 1478.16 182.308C1477.62 177.816 1477.8 173.236 1476.75 168.821C1476.74 168.814 1476.74 168.808 1476.74 168.801C1475.51 164.485 1474.12 160.116 1471.58 156.373C1471.58 156.371 1471.58 156.368 1471.58 156.365C1469.01 152.663 1466.53 148.848 1464.83 144.654C1464.83 144.653 1464.83 144.653 1464.83 144.652C1463.78 142.076 1462.96 139.408 1462.38 136.687C1462.38 136.683 1462.38 136.679 1462.38 136.675C1461.77 133.709 1460.98 130.737 1461.02 127.691C1461.02 127.686 1461.02 127.682 1461.02 127.677C1461.06 126.839 1461.12 126.006 1461.22 125.176C1461.52 122.797 1461.96 120.372 1463.13 118.258Z" fill="#D594DC"/>
<path d="M1530.99 182.857C1528.43 182.07 1527.36 181.877 1525.31 180.662C1524.87 180.401 1524.52 180.189 1524.21 179.952C1523.66 179.483 1522.8 178.934 1521.54 178.069C1520.28 177.126 1519.21 175.972 1517.97 175.086C1516.75 174.22 1514.93 172.767 1512.79 170.886C1511.49 169.746 1510.09 168.835 1505.91 165.309C1504.66 164.255 1501.6 161.981 1497.35 158.789C1494.06 156.325 1492.96 154.964 1487.59 151.395C1481.16 147.122 1476.75 144.18 1475.62 143.493C1474.52 142.828 1471.16 140.826 1466.89 137.358C1461.72 133.155 1458.99 130.4 1458.28 128.618C1457.65 127.047 1456.53 123.861 1457.85 122.537C1458.36 122.029 1459 121.647 1459.74 121.282C1461.9 120.218 1464.7 119.163 1466.81 117.116C1469.67 114.327 1471.77 112.582 1473.16 109.975C1474.06 108.289 1474.74 107.09 1476.53 99.6408C1477.6 95.2446 1478.45 91.6037 1480.89 89.2944C1482.38 87.884 1487.46 84.9297 1491.42 84.04C1494.55 83.3348 1499.19 82.2527 1502.09 83.4961C1504.84 84.6816 1507.4 86.2497 1512.49 89.1131C1515.35 90.7237 1518.39 92.5271 1522.01 95.0527C1523.72 96.2477 1526.52 98.1903 1532.56 101.844C1538.6 105.497 1547.67 110.613 1552.24 113.426C1557.81 116.856 1559.43 117.713 1564.07 120.503C1567.67 122.662 1574.28 126.703 1577.78 128.883C1581.28 131.064 1581.64 131.414 1582.26 131.77C1585.13 133.418 1587.79 134.685 1589.99 135.455C1591.56 136.004 1595.68 136.843 1598.94 135.606C1601.85 134.506 1604.36 132.953 1606 131.25C1607.02 130.188 1609.68 126.107 1613.26 123.791C1615.51 122.337 1618.86 120.913 1619.89 121.957C1620.13 122.196 1620.31 122.576 1620.4 122.939C1620.75 124.395 1621.17 127.568 1621.7 130.361C1622.17 132.872 1622.59 134.766 1623.11 136.324C1623.82 138.443 1624.46 140.691 1625.82 144.332C1627.12 147.81 1628.56 152.223 1629.23 153.749C1630.34 156.268 1633.27 159.569 1634.49 165.802L1634.52 165.923C1635.06 168.684 1635.67 171.802 1633.97 173.528C1632.2 175.331 1629.91 176.746 1627.64 177.528C1625.37 178.312 1622.61 179.497 1616.79 182.59C1612.28 184.981 1604.75 188.811 1600.85 191.125C1595.47 194.324 1593.56 195.753 1591.7 196.994C1589.35 198.562 1587.5 200.921 1582.4 202.683C1580.48 203.347 1578.96 203.897 1577.07 204.131C1575.14 204.369 1570.43 205.761 1566.23 203.97C1563.84 202.947 1562.21 201.734 1561.02 200.909C1558.96 199.485 1556.6 197.646 1554.5 195.884C1553.01 194.625 1551.15 193.191 1547.24 190.82C1545.24 189.605 1543.62 188.465 1540.99 187.286C1535.65 184.891 1533.25 183.55 1530.99 182.857Z" fill="url(#paint10_radial_389_958)" stroke="#D594DC" stroke-width="3.39999" stroke-linecap="round"/>
<path d="M1528.13 118.028C1528.29 119.279 1528.76 121.626 1529.04 124.373C1529.48 128.834 1528.45 130.579 1527.74 132.422C1526.28 136.262 1523.66 138.509 1522.13 139.648C1520.92 140.631 1517.95 142.347 1512.18 143.965C1510.8 144.165 1509.71 144.165 1509.3 143.694" stroke="#D594DC" stroke-width="3.39999" stroke-linecap="round"/>
<path d="M1387.9 142.915C1401.44 148.95 1402.93 151.689 1402.93 151.689C1402.93 151.689 1404.93 153.54 1407.18 155.089C1409.29 156.778 1410.51 158.773 1412.1 161.098C1413.93 163.779 1415.63 166.849 1417.38 169.539C1420.12 173.748 1421.91 175.697 1425.39 177.752C1428.14 179.373 1435.2 180.184 1438.6 181.056C1441.06 181.688 1443.85 182.112 1447.6 182.319C1451.46 182.532 1455.39 183.169 1460.24 183.584C1464.42 183.94 1471.5 184.729 1475.21 185.764C1477.75 186.47 1482.91 187.912 1486.81 189.632C1489.83 190.965 1492.98 191.971 1496.93 193.851C1501.22 195.89 1502.74 197.854 1504.93 199.289C1507.18 200.765 1507.77 202.537 1510.03 204.792C1512.92 207.68 1515.72 210.206 1517.9 212.803C1520.08 215.405 1521.91 217.284 1523.1 219.694C1524.86 223.282 1529.28 228.407 1531.78 227.435C1532.69 227.081 1534.04 225.885 1536 223.352C1537.9 220.887 1539.36 218.392 1540.36 215.97C1541.69 212.732 1543.69 209.745 1542.32 204.792C1540.96 199.913 1538 193.866 1536.48 191.163C1534.93 188.418 1533.7 186.063 1530.26 181.14C1521.02 167.899 1519.45 165.288 1516.71 161.627C1511.32 154.406 1509.6 151.67 1500.73 141.343C1494.22 133.761 1482.43 119.96 1475.55 112.732C1467.46 104.227 1465.58 102.434 1462.58 100.128C1456.19 95.2116 1449.66 90.4014 1441.08 85.9116C1435.1 82.7807 1425.91 78.1887 1419.6 75.2475C1413.29 72.3064 1409.95 71.054 1405.41 69.7827L1405.3 69.7505C1400.78 68.4851 1395.29 66.9451 1389.59 66.6328C1378.16 66.0066 1371.29 66.0272 1368 66.5716C1361.18 67.7017 1355.04 68.8917 1349.39 73.3268C1346.16 75.8568 1341.84 79.7508 1341.39 85.4878C1340.83 92.5213 1340.52 103.626 1343.02 106.93C1348.46 114.128 1354.29 121.437 1357.63 124.488C1360.1 126.736 1362.3 128.476 1365.15 130.459C1367.69 132.218 1370.41 134.341 1372.96 135.587C1375.84 136.999 1380.22 139.495 1387.9 142.915Z" fill="url(#paint11_linear_389_958)"/>
<path d="M1387.9 142.915C1401.44 148.95 1402.93 151.689 1402.93 151.689C1402.93 151.689 1404.93 153.54 1407.18 155.089C1409.29 156.778 1410.51 158.773 1412.1 161.098C1413.93 163.779 1415.63 166.849 1417.38 169.539C1420.12 173.748 1421.91 175.697 1425.39 177.752C1428.14 179.373 1435.2 180.184 1438.6 181.056C1441.06 181.688 1443.85 182.112 1447.6 182.319C1451.46 182.532 1455.39 183.169 1460.24 183.584C1464.42 183.94 1471.5 184.729 1475.21 185.764C1477.75 186.47 1482.91 187.912 1486.81 189.632C1489.83 190.965 1492.98 191.971 1496.93 193.851C1501.22 195.89 1502.74 197.854 1504.93 199.289C1507.18 200.765 1507.77 202.537 1510.03 204.792C1512.92 207.68 1515.72 210.206 1517.9 212.803C1520.08 215.405 1521.91 217.284 1523.1 219.694C1524.86 223.282 1529.28 228.407 1531.78 227.435C1532.69 227.081 1534.04 225.885 1536 223.352C1537.9 220.887 1539.36 218.392 1540.36 215.97C1541.69 212.732 1543.69 209.745 1542.32 204.792C1540.96 199.913 1538 193.866 1536.48 191.163C1534.93 188.418 1533.7 186.063 1530.26 181.14C1521.02 167.899 1519.45 165.288 1516.71 161.627C1511.32 154.406 1509.6 151.67 1500.73 141.343C1494.22 133.761 1482.43 119.96 1475.55 112.732C1467.46 104.227 1465.58 102.434 1462.58 100.128C1456.19 95.2116 1449.66 90.4014 1441.08 85.9116C1435.1 82.7807 1425.91 78.1887 1419.6 75.2475C1413.29 72.3064 1409.95 71.054 1405.41 69.7827L1405.3 69.7505C1400.78 68.4851 1395.29 66.9451 1389.59 66.6328C1378.16 66.0066 1371.29 66.0272 1368 66.5716C1361.18 67.7017 1355.04 68.8917 1349.39 73.3268C1346.16 75.8568 1341.84 79.7508 1341.39 85.4878C1340.83 92.5213 1340.52 103.626 1343.02 106.93C1348.46 114.128 1354.29 121.437 1357.63 124.488C1360.1 126.736 1362.3 128.476 1365.15 130.459C1367.69 132.218 1370.41 134.341 1372.96 135.587C1375.84 136.999 1380.22 139.495 1387.9 142.915Z" fill="white" fill-opacity="0.5"/>
<path d="M1387.9 142.915C1401.44 148.95 1402.93 151.689 1402.93 151.689C1402.93 151.689 1404.93 153.54 1407.18 155.089C1409.29 156.778 1410.51 158.773 1412.1 161.098C1413.93 163.779 1415.63 166.849 1417.38 169.539C1420.12 173.748 1421.91 175.697 1425.39 177.752C1428.14 179.373 1435.2 180.184 1438.6 181.056C1441.06 181.688 1443.85 182.112 1447.6 182.319C1451.46 182.532 1455.39 183.169 1460.24 183.584C1464.42 183.94 1471.5 184.729 1475.21 185.764C1477.75 186.47 1482.91 187.912 1486.81 189.632C1489.83 190.965 1492.98 191.971 1496.93 193.851C1501.22 195.89 1502.74 197.854 1504.93 199.289C1507.18 200.765 1507.77 202.537 1510.03 204.792C1512.92 207.68 1515.72 210.206 1517.9 212.803C1520.08 215.405 1521.91 217.284 1523.1 219.694C1524.86 223.282 1529.28 228.407 1531.78 227.435C1532.69 227.081 1534.04 225.885 1536 223.352C1537.9 220.887 1539.36 218.392 1540.36 215.97C1541.69 212.732 1543.69 209.745 1542.32 204.792C1540.96 199.913 1538 193.866 1536.48 191.163C1534.93 188.418 1533.7 186.063 1530.26 181.14C1521.02 167.899 1519.45 165.288 1516.71 161.627C1511.32 154.406 1509.6 151.67 1500.73 141.343C1494.22 133.761 1482.43 119.96 1475.55 112.732C1467.46 104.227 1465.58 102.434 1462.58 100.128C1456.19 95.2116 1449.66 90.4014 1441.08 85.9116C1435.1 82.7807 1425.91 78.1887 1419.6 75.2475C1413.29 72.3064 1409.95 71.054 1405.41 69.7827L1405.3 69.7505C1400.78 68.4851 1395.29 66.9451 1389.59 66.6328C1378.16 66.0066 1371.29 66.0272 1368 66.5716C1361.18 67.7017 1355.04 68.8917 1349.39 73.3268C1346.16 75.8568 1341.84 79.7508 1341.39 85.4878C1340.83 92.5213 1340.52 103.626 1343.02 106.93C1348.46 114.128 1354.29 121.437 1357.63 124.488C1360.1 126.736 1362.3 128.476 1365.15 130.459C1367.69 132.218 1370.41 134.341 1372.96 135.587C1375.84 136.999 1380.22 139.495 1387.9 142.915Z" stroke="#D594DC" stroke-width="3.39999" stroke-linecap="round"/>
<path d="M1666.75 268.555C1668.82 274.215 1673.83 284.438 1673.83 284.438C1673.83 284.438 1674.7 287.497 1674.92 288.373C1675.13 289.249 1675.13 290.111 1675.02 290.987C1673.81 294.922 1671.81 299.353 1669.9 302.752C1667.93 306.243 1665.49 309.861 1662.48 313.321C1658.78 317.576 1655.17 320.844 1653.23 324.975C1651.59 328.465 1648.35 332.414 1649.1 339.361L1649.14 339.768C1649.67 344.666 1650.21 349.706 1651.5 354.829C1652.7 359.63 1653.79 365.232 1656.41 368.878C1659.46 373.133 1661.99 377.928 1666.33 379.875C1671.67 382.271 1677.28 384.242 1681.47 382.144C1687.36 379.199 1692.15 377.638 1697.27 373.424C1704.61 367.382 1713.3 357.863 1717.41 351.525C1720.25 347.159 1724.28 341.269 1726.12 335.4C1728.53 327.72 1732.75 318.154 1731.89 310.671C1731.34 305.981 1730.86 301.653 1730.03 298.151C1729.16 294.438 1728.28 290.383 1726.65 286.382C1724.79 281.797 1722.53 276.621 1720.99 272.66C1719.12 267.836 1716.83 260.448 1712.59 254.244C1709.54 249.77 1706.88 245.041 1701.48 240.191C1697.12 236.28 1693.73 234.356 1690.15 232.796C1686.66 231.273 1678.76 229.167 1673.81 231.498C1670.54 233.038 1667.94 236.515 1666.52 240.005C1665.11 243.496 1661.95 247.092 1663.48 256.467C1664.24 261.143 1665.29 264.55 1666.75 268.555Z" fill="url(#paint12_linear_389_958)"/>
<path d="M1666.75 268.555C1668.82 274.215 1673.83 284.438 1673.83 284.438C1673.83 284.438 1674.7 287.497 1674.92 288.373C1675.13 289.249 1675.13 290.111 1675.02 290.987C1673.81 294.922 1671.81 299.353 1669.9 302.752C1667.93 306.243 1665.49 309.861 1662.48 313.321C1658.78 317.576 1655.17 320.844 1653.23 324.975C1651.59 328.465 1648.35 332.414 1649.1 339.361L1649.14 339.768C1649.67 344.666 1650.21 349.706 1651.5 354.829C1652.7 359.63 1653.79 365.232 1656.41 368.878C1659.46 373.133 1661.99 377.928 1666.33 379.875C1671.67 382.271 1677.28 384.242 1681.47 382.144C1687.36 379.199 1692.15 377.638 1697.27 373.424C1704.61 367.382 1713.3 357.863 1717.41 351.525C1720.25 347.159 1724.28 341.269 1726.12 335.4C1728.53 327.72 1732.75 318.154 1731.89 310.671C1731.34 305.981 1730.86 301.653 1730.03 298.151C1729.16 294.438 1728.28 290.383 1726.65 286.382C1724.79 281.797 1722.53 276.621 1720.99 272.66C1719.12 267.836 1716.83 260.448 1712.59 254.244C1709.54 249.77 1706.88 245.041 1701.48 240.191C1697.12 236.28 1693.73 234.356 1690.15 232.796C1686.66 231.273 1678.76 229.167 1673.81 231.498C1670.54 233.038 1667.94 236.515 1666.52 240.005C1665.11 243.496 1661.95 247.092 1663.48 256.467C1664.24 261.143 1665.29 264.55 1666.75 268.555Z" fill="white" fill-opacity="0.5"/>
<path d="M1666.75 268.555C1668.82 274.215 1673.83 284.438 1673.83 284.438C1673.83 284.438 1674.7 287.497 1674.92 288.373C1675.13 289.249 1675.13 290.111 1675.02 290.987C1673.81 294.922 1671.81 299.353 1669.9 302.752C1667.93 306.243 1665.49 309.861 1662.48 313.321C1658.78 317.576 1655.17 320.844 1653.23 324.975C1651.59 328.465 1648.35 332.414 1649.1 339.361L1649.14 339.768C1649.67 344.666 1650.21 349.706 1651.5 354.829C1652.7 359.63 1653.79 365.232 1656.41 368.878C1659.46 373.133 1661.99 377.928 1666.33 379.875C1671.67 382.271 1677.28 384.242 1681.47 382.144C1687.36 379.199 1692.15 377.638 1697.27 373.424C1704.61 367.382 1713.3 357.863 1717.41 351.525C1720.25 347.159 1724.28 341.269 1726.12 335.4C1728.53 327.72 1732.75 318.154 1731.89 310.671C1731.34 305.981 1730.86 301.653 1730.03 298.151C1729.16 294.438 1728.28 290.383 1726.65 286.382C1724.79 281.797 1722.53 276.621 1720.99 272.66C1719.12 267.836 1716.83 260.448 1712.59 254.244C1709.54 249.77 1706.88 245.041 1701.48 240.191C1697.12 236.28 1693.73 234.356 1690.15 232.796C1686.66 231.273 1678.76 229.167 1673.81 231.498C1670.54 233.038 1667.94 236.515 1666.52 240.005C1665.11 243.496 1661.95 247.092 1663.48 256.467C1664.24 261.143 1665.29 264.55 1666.75 268.555Z" stroke="#D594DC" stroke-width="3.39999" stroke-linecap="round"/>
<path d="M1616.35 366.194C1615.37 362.435 1614.95 356.149 1614.58 355.69C1612.33 356.555 1611.39 356.878 1609.39 357.251C1607.21 357.656 1605.35 357.809 1603.45 358.087C1603.31 359.105 1604.38 365.89 1604.38 367.59C1604.38 369.455 1604.45 370.85 1604.09 372.539C1603.76 374.073 1603.58 376.49 1603.35 378.765C1603.11 381.046 1602.66 383.094 1602.42 384.616C1602.09 386.62 1602.03 388.673 1601.63 390.841C1601.25 392.846 1601.08 395.824 1600.74 399.343C1600.51 401.764 1600.35 404.357 1600.19 406.355C1599.95 409.205 1599.87 412.909 1599.63 416.3C1599.4 419.505 1599.2 421.725 1599.07 423.401C1598.84 426.489 1598.5 431.098 1598.33 433.853C1598.19 436.131 1598.26 438.025 1597.16 443.735C1595.98 449.854 1595.33 453.968 1595.09 455.451L1595.08 455.551C1594.38 459.914 1593.93 463.432 1593.59 466.132C1593.26 468.754 1592.37 474.255 1590.33 475.419C1589.36 475.975 1588.43 476.368 1587.64 476.531C1585.83 476.903 1583.99 477.406 1578.2 477.552C1574.56 477.644 1568.31 477.722 1564.99 477.597C1561.31 477.458 1560.36 477.473 1559.26 477.318C1556.27 476.897 1551.76 476.66 1547.02 475.501C1540.2 473.832 1537.35 473.36 1533.52 472.114C1531.39 471.418 1529.47 471.461 1527.07 470.674C1524.22 469.741 1517.51 468.571 1516.58 465.701C1516.44 465.282 1516.52 464.911 1516.63 464.54C1517.38 461.915 1518.58 458.069 1520.02 453.619C1521.1 450.305 1523.44 443.848 1525.19 437.729C1526.14 434.42 1527.72 428.42 1528.86 424.837C1530.38 420.037 1531.54 416.826 1533.18 410.396C1534.32 405.95 1536.24 397.735 1537.59 393.056C1539.3 387.152 1539.75 385.357 1540.47 383.139C1541.9 378.683 1542.94 375.049 1543.53 373.214C1545.34 367.519 1546.45 359.656 1548.73 357.386C1549.42 356.692 1550.47 356.248 1551.61 356.463C1553.33 356.789 1555 356.968 1556.53 357.253C1558.54 357.625 1560.92 358.17 1562.62 358.321C1564.2 358.461 1566.8 358.813 1573.99 358.878C1579.05 358.924 1588.25 359.056 1593.09 358.877C1599.31 358.645 1600.98 358.446 1603.45 358.087C1605.35 357.809 1607.21 357.656 1609.39 357.251C1611.39 356.878 1612.33 356.555 1614.58 355.69C1618.23 354.286 1624.72 352.513 1627.24 351.018C1631.92 348.234 1634.74 346.942 1637.68 344.984C1639.63 343.685 1641.25 342.965 1646.32 339.547C1648.74 337.922 1651.29 335.251 1652.63 336.261L1652.69 336.306C1653.42 336.853 1654.26 337.487 1654.81 338.307C1656.26 340.458 1657.98 344.42 1659.5 347.087C1660.44 348.713 1661.65 350.308 1663.27 352.712C1665.27 355.68 1666.64 356.99 1669.46 361.611C1675.21 371.008 1676.95 373.753 1678.22 375.929C1679.2 377.607 1680.76 379.73 1682.68 382.155C1684.31 384.206 1686.55 385.78 1690.26 392.805C1692.39 396.836 1692.73 400.365 1692.52 402.683C1692.38 404.266 1692.03 406.123 1690.62 410.871C1689.12 415.899 1687.61 420.51 1686.9 422.892C1686.06 425.731 1685.11 427.881 1684.44 430.42C1683.65 433.434 1682.6 435.356 1678.44 446.458C1677.33 449.411 1676.91 450.414 1676.02 452.738C1673.98 458.078 1672.7 461.985 1672.17 463.544C1670.27 469.211 1668.22 473.047 1666.23 473.465C1665.35 473.651 1663.27 473.656 1660.74 473.79C1656.38 474.021 1650.44 473.842 1647.23 474.395C1644.53 474.857 1642.6 474.357 1636 475.468C1630.21 476.443 1626.2 477.353 1625.78 476.665C1625.41 476.061 1625.19 472.712 1625.08 469.179C1625.04 467.603 1624.69 463.266 1623.87 456.318C1623.45 452.769 1622.94 449.187 1622.57 444.878C1621.78 435.699 1621.27 430.071 1621.18 428.632C1620.95 424.939 1620.45 419.766 1620.3 413.379C1620.2 409.411 1620.11 402.421 1619.83 396.795C1619.55 391.168 1619.04 387.034 1618.86 384.629C1618.63 381.584 1618.31 379.722 1618.16 377.678C1618.07 376.384 1617.84 371.944 1616.35 366.194Z" fill="url(#paint13_linear_389_958)"/>
<path d="M1614.58 355.69C1614.95 356.149 1615.37 362.435 1616.35 366.194C1617.84 371.944 1618.07 376.384 1618.16 377.678C1618.31 379.722 1618.63 381.584 1618.86 384.629C1619.04 387.034 1619.55 391.168 1619.83 396.795C1620.11 402.421 1620.2 409.411 1620.3 413.379C1620.45 419.766 1620.95 424.939 1621.18 428.632C1621.27 430.071 1621.78 435.699 1622.57 444.878C1622.94 449.187 1623.45 452.769 1623.87 456.318C1624.69 463.266 1625.04 467.603 1625.08 469.179C1625.19 472.712 1625.41 476.061 1625.78 476.665C1626.2 477.353 1630.21 476.443 1636 475.468C1642.6 474.357 1644.53 474.857 1647.23 474.395C1650.44 473.842 1656.38 474.021 1660.74 473.79C1663.27 473.656 1665.35 473.651 1666.23 473.465C1668.22 473.047 1670.27 469.211 1672.17 463.544C1672.7 461.985 1673.98 458.078 1676.02 452.738C1676.91 450.414 1677.33 449.411 1678.44 446.458C1682.6 435.356 1683.65 433.434 1684.44 430.42C1685.11 427.881 1686.06 425.731 1686.9 422.892C1687.61 420.51 1689.12 415.899 1690.62 410.871C1692.03 406.123 1692.38 404.266 1692.52 402.683C1692.73 400.365 1692.39 396.836 1690.26 392.805C1686.55 385.78 1684.31 384.206 1682.68 382.155C1680.76 379.73 1679.2 377.607 1678.22 375.929C1676.95 373.753 1675.21 371.008 1669.46 361.611C1666.64 356.99 1665.27 355.68 1663.27 352.712C1661.65 350.308 1660.44 348.713 1659.5 347.087C1657.98 344.42 1656.26 340.458 1654.81 338.307C1654.25 337.464 1653.37 336.819 1652.63 336.261C1651.29 335.251 1648.74 337.922 1646.32 339.547C1641.25 342.965 1639.63 343.685 1637.68 344.984C1634.74 346.942 1631.92 348.234 1627.24 351.018C1624.72 352.513 1618.23 354.286 1614.58 355.69ZM1614.58 355.69C1612.33 356.555 1611.39 356.878 1609.39 357.251C1607.21 357.656 1605.35 357.809 1603.45 358.087M1603.45 358.087C1600.98 358.446 1599.31 358.645 1593.09 358.877C1588.25 359.056 1579.05 358.924 1573.99 358.878C1566.8 358.813 1564.2 358.461 1562.62 358.321C1560.92 358.17 1558.54 357.625 1556.53 357.253C1555 356.968 1553.33 356.789 1551.61 356.463C1550.47 356.248 1549.42 356.692 1548.73 357.386C1546.45 359.656 1545.34 367.519 1543.53 373.214C1542.94 375.049 1541.9 378.683 1540.47 383.139C1539.75 385.357 1539.3 387.152 1537.59 393.056C1536.24 397.735 1534.32 405.95 1533.18 410.396C1531.54 416.826 1530.38 420.037 1528.86 424.837C1527.72 428.42 1526.14 434.42 1525.19 437.729C1523.44 443.848 1521.1 450.305 1520.02 453.619C1518.58 458.069 1517.38 461.915 1516.63 464.54C1516.52 464.911 1516.44 465.282 1516.58 465.701C1517.51 468.571 1524.22 469.741 1527.07 470.674C1529.47 471.461 1531.39 471.418 1533.52 472.114C1537.35 473.36 1540.2 473.832 1547.02 475.501C1551.76 476.66 1556.27 476.897 1559.26 477.318C1560.36 477.473 1561.31 477.458 1564.99 477.597C1568.31 477.722 1574.56 477.644 1578.2 477.552C1583.99 477.406 1585.83 476.903 1587.64 476.531C1588.43 476.368 1589.36 475.975 1590.33 475.419C1592.37 474.255 1593.26 468.754 1593.59 466.132C1593.93 463.432 1594.38 459.914 1595.08 455.551C1595.3 454.161 1595.95 449.999 1597.16 443.735C1598.26 438.025 1598.19 436.131 1598.33 433.853C1598.5 431.098 1598.84 426.489 1599.07 423.401C1599.2 421.725 1599.4 419.505 1599.63 416.3C1599.87 412.909 1599.95 409.205 1600.19 406.355C1600.35 404.357 1600.51 401.764 1600.74 399.343C1601.08 395.824 1601.25 392.846 1601.63 390.841C1602.03 388.673 1602.09 386.62 1602.42 384.616C1602.66 383.094 1603.11 381.046 1603.35 378.765C1603.58 376.49 1603.76 374.073 1604.09 372.539C1604.45 370.85 1604.38 369.455 1604.38 367.59C1604.38 365.89 1603.31 359.105 1603.45 358.087Z" stroke="#D594DC" stroke-width="3.39999" stroke-linecap="round"/>
<path d="M1421.23 313.424C1427.72 310.375 1434.4 306.879 1434.4 306.879L1434.4 306.879C1435.95 306.257 1437.46 305.653 1438.53 305.273C1441.73 304.28 1444.77 303.063 1447.37 301.919C1450.88 301.233 1454.17 300.183 1459.11 299.71C1462.32 299.403 1477.63 298.999 1486.88 299.483C1491.29 299.714 1494.41 298.682 1510.32 303.843C1518.74 306.577 1522.03 307.686 1527.83 311.242C1534.93 315.59 1539.7 318.374 1543.76 322.069C1547.87 325.802 1551.68 328.212 1559.63 338.485C1563.28 343.197 1568.53 350.655 1572.89 359.375C1574.7 363.008 1577.43 368.322 1580.41 377.79C1581.77 382.106 1582.76 388.903 1581.94 397.295C1581.25 404.363 1580.99 408.493 1580.41 412.082C1579.27 419.169 1578.57 425.511 1577.59 428.443C1576.53 431.645 1575.33 436.655 1573.78 440.183C1572.1 444.007 1570.58 450.593 1565.92 456.436C1561.1 462.464 1557.05 466.664 1552.23 470.251C1545.07 475.586 1536.47 481.35 1528.98 484.8C1520.24 488.826 1516.35 490.264 1511.91 491.498C1507.26 492.793 1498.14 494.237 1488.34 493.392C1483.03 492.935 1480.4 492.895 1478.3 492.477C1474.49 491.718 1471.73 491.583 1469.16 491.183C1466.71 490.803 1461.18 490.063 1454.89 488.588C1451.31 487.747 1447.37 486.751 1443.68 485.766C1439.11 484.544 1436.07 484.305 1426.05 479.351C1418.63 475.677 1411.54 472.276 1405.78 469.061C1401.26 466.536 1395.83 464.162 1392.04 460.883C1383.6 453.579 1381.47 451.647 1379.4 448.07C1374.91 440.311 1373.53 437.931 1371.86 432.682C1370.64 428.864 1369.09 424.268 1369.96 411.24C1370.19 407.831 1369.6 402.827 1370.42 396.139C1371.42 387.952 1372.08 380.19 1374.86 373.082C1378.29 364.321 1380.58 357.505 1382.02 354.665C1384.99 348.806 1387.02 344.239 1390.64 339.649C1394.61 334.614 1397.84 329.469 1408.96 321.035C1413.37 317.695 1417.29 315.27 1421.23 313.424Z" fill="url(#paint14_radial_389_958)" stroke="#D594DC" stroke-width="3.39999" stroke-linecap="round"/>
<path d="M1391.32 328.345C1396.2 327.006 1400.38 326.79 1400.38 326.79C1400.38 326.79 1398.15 330.19 1397.54 332.149C1397.05 334.108 1396.1 336.025 1396.13 338.704C1396.2 344.137 1396.04 347.158 1396.87 349.883C1397.91 353.314 1399.19 356.944 1400.42 359.6C1401.58 362.118 1404.09 366.71 1406.54 370.001C1410.78 375.712 1415.7 380.547 1418.34 383.876C1420.66 386.805 1422.03 388.392 1423.9 390.972C1427.63 396.115 1432.1 404.084 1430.73 409.986C1430.18 412.365 1429.65 415.083 1427.73 416.893C1423.44 420.926 1419.8 424.336 1412.43 425.808C1408.77 426.538 1403.95 427.072 1398.98 426.718L1398.77 426.703C1394.61 426.406 1391.4 426.178 1388.35 425.124C1383.2 423.347 1376.92 421.483 1372.21 417.535C1367.31 413.428 1360.48 406.415 1358.46 400.526C1355.84 392.887 1354.48 388.727 1355.05 379.623C1355.36 374.781 1355.32 370.368 1355.85 367.644C1356.83 362.566 1356.79 358.445 1359.34 354.25C1362.83 348.509 1364.61 344.984 1374.72 337.917C1383.86 331.526 1387.18 329.483 1391.32 328.345Z" fill="url(#paint15_linear_389_958)"/>
<path d="M1391.32 328.345C1396.2 327.006 1400.38 326.79 1400.38 326.79C1400.38 326.79 1398.15 330.19 1397.54 332.149C1397.05 334.108 1396.1 336.025 1396.13 338.704C1396.2 344.137 1396.04 347.158 1396.87 349.883C1397.91 353.314 1399.19 356.944 1400.42 359.6C1401.58 362.118 1404.09 366.71 1406.54 370.001C1410.78 375.712 1415.7 380.547 1418.34 383.876C1420.66 386.805 1422.03 388.392 1423.9 390.972C1427.63 396.115 1432.1 404.084 1430.73 409.986C1430.18 412.365 1429.65 415.083 1427.73 416.893C1423.44 420.926 1419.8 424.336 1412.43 425.808C1408.77 426.538 1403.95 427.072 1398.98 426.718L1398.77 426.703C1394.61 426.406 1391.4 426.178 1388.35 425.124C1383.2 423.347 1376.92 421.483 1372.21 417.535C1367.31 413.428 1360.48 406.415 1358.46 400.526C1355.84 392.887 1354.48 388.727 1355.05 379.623C1355.36 374.781 1355.32 370.368 1355.85 367.644C1356.83 362.566 1356.79 358.445 1359.34 354.25C1362.83 348.509 1364.61 344.984 1374.72 337.917C1383.86 331.526 1387.18 329.483 1391.32 328.345Z" fill="white" fill-opacity="0.5"/>
<path d="M1391.32 328.345C1396.2 327.006 1400.38 326.79 1400.38 326.79C1400.38 326.79 1398.15 330.19 1397.54 332.149C1397.05 334.108 1396.1 336.025 1396.13 338.704C1396.2 344.137 1396.04 347.158 1396.87 349.883C1397.91 353.314 1399.19 356.944 1400.42 359.6C1401.58 362.118 1404.09 366.71 1406.54 370.001C1410.78 375.712 1415.7 380.547 1418.34 383.876C1420.66 386.805 1422.03 388.392 1423.9 390.972C1427.63 396.115 1432.1 404.084 1430.73 409.986C1430.18 412.365 1429.65 415.083 1427.73 416.893C1423.44 420.926 1419.8 424.336 1412.43 425.808C1408.77 426.538 1403.95 427.072 1398.98 426.718L1398.77 426.703C1394.61 426.406 1391.4 426.178 1388.35 425.124C1383.2 423.347 1376.92 421.483 1372.21 417.535C1367.31 413.428 1360.48 406.415 1358.46 400.526C1355.84 392.887 1354.48 388.727 1355.05 379.623C1355.36 374.781 1355.32 370.368 1355.85 367.644C1356.83 362.566 1356.79 358.445 1359.34 354.25C1362.83 348.509 1364.61 344.984 1374.72 337.917C1383.86 331.526 1387.18 329.483 1391.32 328.345Z" stroke="#D594DC" stroke-width="3.39999" stroke-linecap="round"/>
<path d="M1370.28 450.396C1372.33 447.466 1374.36 443.905 1375.12 443.909C1375.64 443.779 1376.15 443.653 1376.66 443.46C1377.68 443.014 1378.83 442.762 1380.04 442.827C1382.14 443.404 1384 444.897 1386.29 446.529C1388.52 448.124 1390.61 450.193 1392.79 451.499C1395.02 452.844 1398.07 455.64 1410.22 461.715C1415.43 464.318 1419.2 466.289 1424.46 468.219C1433.31 471.466 1439.09 473.752 1441.32 474.388C1445.78 475.662 1449.63 476.396 1452.09 476.999C1455.46 477.827 1459.8 478.993 1466.61 479.485C1477.18 480.248 1484.01 480.875 1489.83 480.946C1495.03 481.009 1504.49 481.009 1509.62 480.944C1514.74 480.879 1515.5 480.735 1516.59 480.69C1521.24 480.496 1526.98 479.508 1531.44 480.628C1533.99 481.269 1536.54 481.587 1537.61 483.375C1538.18 484.329 1538.66 486.409 1538.37 488.991C1538.05 491.856 1538.22 494.592 1536.84 497.082C1534.85 500.676 1532.55 505.174 1529.76 508.367C1526.68 511.89 1522.94 515.54 1520.39 516.967C1517.65 518.499 1515.39 520.307 1510.33 520.341C1500.89 520.404 1493.8 520.122 1490.65 520.084C1485.37 520.021 1481.7 519.778 1479.38 519.702C1469.55 519.379 1464.24 518.794 1460.91 518.555C1458.23 518.361 1455.69 518.126 1441.32 514.85C1437.71 514.028 1435.58 513.069 1432.92 512.24C1430.06 511.347 1426.64 509.631 1419.47 507.394C1417.44 506.761 1413.2 505.816 1406.17 502.141C1397.64 497.685 1392.26 494.72 1390.79 493.558C1389.26 492.349 1382.98 489.11 1375.86 483.539C1371.79 480.359 1368.95 478 1367.53 475.327C1366.96 474.247 1366.28 468.628 1367.16 460.766C1367.6 456.775 1368.21 453.367 1370.28 450.396Z" fill="url(#paint16_linear_389_958)" stroke="#D594DC" stroke-width="3.39999" stroke-linecap="round"/>
<path d="M1588.55 156.071C1588.63 154.426 1590.77 153.844 1591.67 155.222L1602.52 171.782C1603.73 173.63 1605.99 174.489 1608.13 173.909L1627.23 168.71C1628.82 168.278 1630.03 170.131 1629 171.415L1616.6 186.848C1615.22 188.571 1615.1 190.989 1616.31 192.837L1627.16 209.397C1628.06 210.774 1626.67 212.501 1625.13 211.917L1606.62 204.896C1604.56 204.112 1602.22 204.748 1600.84 206.47L1588.44 221.903C1587.41 223.187 1585.34 222.401 1585.42 220.756L1586.38 200.983C1586.48 198.777 1585.16 196.752 1583.09 195.968L1564.58 188.946C1563.04 188.362 1563.15 186.149 1564.74 185.716L1583.84 180.518C1585.97 179.938 1587.49 178.05 1587.59 175.844L1588.55 156.071Z" fill="url(#paint17_radial_389_958)" stroke="#D594DC" stroke-width="3.39999"/>
<path opacity="0.4" d="M1528.01 334.061C1521.79 330.949 1514.58 330.437 1507.98 332.638C1501.38 334.838 1495.92 339.571 1492.81 345.795C1489.7 352.019 1489.18 359.224 1491.38 365.825C1493.59 372.427 1498.32 377.884 1504.54 380.995C1504.54 380.995 1504.54 380.995 1504.54 380.995C1502.13 379.766 1500.92 378.819 1499.99 378.094C1499.08 377.371 1498.48 376.801 1498.26 376.592C1497.67 376.026 1497.3 375.628 1497.01 375.308C1496.53 374.78 1496.35 374.552 1496.17 374.326C1495.9 373.993 1495.8 373.853 1495.74 373.784C1495.64 373.647 1495.69 373.714 1495.76 373.806C1495.89 374.003 1496.13 374.349 1496.37 374.721C1500.11 380.471 1504.36 387.556 1508.35 394.243C1508.35 394.246 1508.35 394.25 1508.36 394.254C1509.98 396.79 1511.59 401.267 1513.57 409.613L1513.39 408.645C1513.39 408.656 1513.4 408.667 1513.4 408.678C1513.95 411.095 1516.38 414.025 1518.25 415.646C1518.26 415.65 1518.27 415.655 1518.28 415.658C1518.51 415.759 1519.26 415.659 1520.44 414.922C1521.84 414.235 1524.63 410.926 1528.02 409.988C1531.28 409.18 1532.57 411.152 1533.15 412.531C1533.41 413.678 1534.09 415.454 1534.7 416.932C1535.33 418.441 1535.84 419.529 1536.46 420.494C1537.08 421.459 1537.85 422.375 1538.96 423.577C1540.05 424.747 1541.38 426.106 1542.32 426.819C1542.32 426.819 1542.32 426.819 1542.32 426.819C1543.86 427.575 1546.11 428.901 1550.09 427.191C1554.2 425.354 1557.28 420.887 1558.79 419.073C1560.07 417.445 1560.84 416.447 1561.07 415.652C1561.08 415.623 1561.08 415.595 1561.09 415.567C1562.88 409.761 1564.48 405.286 1563.85 400.373C1563.85 400.353 1563.84 400.332 1563.84 400.311L1563.66 399.343C1562.3 391.444 1560.55 379.263 1553.47 367.457C1553.46 367.443 1553.45 367.429 1553.45 367.415C1549.2 360.304 1545.21 353.583 1540.2 345.862C1539.81 345.269 1539.41 344.676 1538.9 343.934C1538.63 343.543 1538.36 343.16 1537.91 342.555C1537.7 342.268 1537.41 341.874 1536.98 341.344C1536.69 340.989 1536.43 340.663 1535.86 340.031C1535.51 339.65 1535.09 339.2 1534.45 338.592C1534.21 338.367 1533.58 337.761 1532.64 337.015C1531.67 336.267 1530.45 335.302 1528.01 334.061Z" fill="white"/>
<path opacity="0.4" d="M1558.66 283.978C1557.17 283.766 1555.67 284.152 1554.47 285.051C1553.27 285.95 1552.48 287.288 1552.26 288.771C1552.05 290.254 1552.44 291.76 1553.34 292.959C1554.24 294.157 1555.57 294.95 1557.06 295.162C1557.06 295.162 1557.06 295.162 1557.06 295.162C1557.85 295.275 1558.64 295.335 1559.42 295.35C1566.26 295.368 1571.56 292.594 1576.14 289.735L1576.41 289.545C1576.41 289.544 1576.42 289.544 1576.42 289.544C1579.67 287.143 1581.77 283.759 1584.03 280.452C1584.03 280.451 1584.03 280.451 1584.03 280.45C1585 279.02 1586 277.308 1586.61 275.468C1586.82 274.821 1586.98 274.193 1587.12 273.6C1587.24 273.022 1587.11 272.364 1586.81 271.796C1586.51 271.226 1586.07 270.792 1585.53 270.565C1584.98 270.337 1584.37 270.328 1583.75 270.514C1583.14 270.702 1582.57 271.069 1582.25 271.561C1582.25 271.561 1582.25 271.561 1582.25 271.561C1581.95 271.996 1581.66 272.384 1581.36 272.723C1580.53 273.651 1579.56 274.37 1578.41 275.21C1578.41 275.21 1578.41 275.21 1578.41 275.211C1575.7 277.154 1572.32 278.533 1569.76 280.415C1569.76 280.416 1569.76 280.416 1569.76 280.416L1570.04 280.225C1566.47 282.533 1562.59 284.137 1559.63 284.054C1559.29 284.048 1558.97 284.022 1558.66 283.978Z" fill="white"/>
<path opacity="0.4" d="M1642.92 272.8C1641.55 273.482 1640.51 274.678 1640.03 276.126C1639.55 277.573 1639.66 279.153 1640.34 280.517C1641.03 281.882 1642.22 282.92 1643.67 283.402C1645.12 283.884 1646.7 283.772 1648.06 283.09C1648.06 283.09 1648.06 283.09 1648.06 283.09C1648.39 282.928 1648.7 282.765 1649.03 282.595C1651.79 281.066 1654.61 279.62 1657.51 276.164L1657.6 276.048C1657.6 276.048 1657.6 276.048 1657.6 276.047C1658.51 274.858 1658.85 273.155 1659.34 271.874C1659.34 271.874 1659.34 271.874 1659.34 271.874C1660.1 269.952 1660.77 267.931 1661.22 265.992C1661.31 265.642 1661.38 265.293 1661.46 264.945C1661.64 263.998 1661.41 262.956 1660.9 262.071C1660.38 261.184 1659.62 260.527 1658.71 260.221C1657.79 259.915 1656.79 259.978 1655.84 260.373C1654.9 260.769 1654.09 261.465 1653.67 262.331C1653.67 262.331 1653.67 262.331 1653.67 262.331C1653.53 262.596 1653.4 262.857 1653.26 263.115C1652.5 264.564 1651.69 265.843 1650.69 267.061C1650.69 267.061 1650.69 267.061 1650.69 267.062C1649.98 267.95 1649 268.35 1648.41 269.137C1648.41 269.137 1648.41 269.138 1648.41 269.138L1648.5 269.022C1647.86 269.879 1645.78 271.33 1643.68 272.41C1643.43 272.542 1643.17 272.671 1642.92 272.8Z" fill="white"/>
<path opacity="0.4" d="M1353.17 89.0946C1353.17 90.4078 1353.69 91.6672 1354.62 92.5958C1355.55 93.5243 1356.81 94.046 1358.12 94.046C1359.44 94.046 1360.7 93.5243 1361.62 92.5958C1362.55 91.6672 1363.07 90.4078 1363.07 89.0946C1363.06 89.7203 1362.98 89.9002 1362.95 90.0321C1362.92 90.1502 1362.91 90.1714 1362.91 90.1656C1362.92 90.1478 1362.98 90.0169 1363.06 89.8691C1363.23 89.5621 1363.49 89.1699 1363.76 88.7681C1365.08 86.8929 1366.79 84.8945 1368.52 82.9825C1368.52 82.9832 1368.52 82.9838 1368.52 82.9844C1368.25 83.1338 1369.48 82.4157 1370.85 82.1453C1372.24 81.8149 1373.87 81.593 1375.54 81.4314C1378.89 81.1132 1382.44 81.0067 1386 80.9388L1385.28 80.8925C1385.3 80.8954 1385.33 80.8982 1385.35 80.9011C1393.35 81.9354 1401.53 82.9097 1409.52 85.6631C1409.53 85.6655 1409.53 85.668 1409.54 85.6704C1412.15 86.571 1414.84 87.2972 1417.52 88.0316C1418.68 88.3489 1419.84 88.6677 1420.99 89.0029C1421.12 89.0404 1421.27 89.0219 1421.4 88.9624C1421.54 88.9023 1421.64 88.8062 1421.7 88.6841C1421.75 88.562 1421.76 88.4207 1421.72 88.2802C1421.68 88.1403 1421.6 88.0126 1421.49 87.9364C1421.49 87.9364 1421.49 87.9364 1421.49 87.9364C1420.5 87.2628 1419.52 86.5731 1418.53 85.8818C1416.25 84.2816 1413.98 82.6732 1411.63 81.2391C1411.62 81.2352 1411.61 81.2313 1411.61 81.2274C1404.1 76.64 1395.69 72.5759 1386.7 71.2667C1386.67 71.2631 1386.65 71.2595 1386.63 71.2559L1385.91 71.2096C1382.21 71.2211 1378.5 71.2778 1374.63 71.612C1370.69 72.2969 1366.94 71.4196 1361.22 76.2928C1361.22 76.3002 1361.21 76.3077 1361.2 76.3151C1359.29 78.4334 1357.44 80.5504 1355.63 83.1254C1355.23 83.7028 1354.84 84.2927 1354.42 85.0259C1354.22 85.3954 1354.01 85.7903 1353.78 86.3186C1353.58 86.9029 1353.25 87.3456 1353.17 89.0946Z" fill="white"/>
<path opacity="0.4" d="M1515.14 22.6963C1514.76 23.8147 1514.85 25.0354 1515.38 26.0898C1515.9 27.1442 1516.83 27.9461 1517.95 28.3189C1519.07 28.6917 1520.29 28.6049 1521.34 28.0777C1522.4 27.5505 1523.2 26.626 1523.57 25.5076C1523.57 25.5076 1523.57 25.5076 1523.57 25.5076C1523.78 24.8892 1524.02 24.2934 1524.3 23.7233C1525.69 20.923 1528.01 18.826 1530.92 17.7781C1530.93 17.7763 1530.93 17.7745 1530.94 17.7727L1528.03 17.8163C1536.33 20.7559 1545.43 26.3414 1552.83 32.8377L1552.83 32.8467C1552.84 32.8483 1552.84 32.85 1552.84 32.8517C1553.44 33.4055 1554.13 33.8748 1554.85 34.3181C1555.61 34.7857 1556.4 35.222 1557.14 35.6883C1557.39 35.8467 1557.73 35.9011 1558.05 35.8661C1558.38 35.8295 1558.66 35.7065 1558.87 35.4974C1559.08 35.2884 1559.2 35.0027 1559.24 34.6767C1559.27 34.3522 1559.22 34.014 1559.06 33.7631C1559.06 33.7631 1559.06 33.7631 1559.06 33.7631C1558.59 33.0279 1558.19 32.2566 1557.76 31.5002C1557.36 30.7833 1556.94 30.0838 1556.43 29.4611C1556.43 29.4592 1556.43 29.4573 1556.43 29.4555L1556.44 29.4644C1549.39 21.3718 1542 13.497 1530.81 9.37124L1529.35 8.8912L1527.91 9.41483C1527.9 9.41791 1527.89 9.421 1527.88 9.42409C1522.92 11.1729 1518.62 15.0711 1516.34 19.7655C1515.87 20.7197 1515.47 21.6994 1515.14 22.6963Z" fill="white"/>
<path opacity="0.4" d="M1387.08 451.28C1386.18 450.374 1384.95 449.865 1383.67 449.865C1382.38 449.865 1381.16 450.374 1380.25 451.28C1379.34 452.186 1378.83 453.415 1378.83 454.696C1378.83 455.978 1379.34 457.206 1380.25 458.112C1380.25 458.112 1380.25 458.112 1380.25 458.112C1381.46 459.323 1382.71 460.513 1383.99 461.671C1392.42 469.357 1402.17 475.078 1411.86 480.132C1411.87 480.134 1411.87 480.137 1411.87 480.139C1422.08 485.272 1432.69 486.623 1442.95 488.275C1442.95 488.276 1442.95 488.276 1442.95 488.276C1450.48 489.464 1458.15 489.29 1465.54 489.853C1465.54 489.853 1465.54 489.853 1465.54 489.853C1466.54 489.936 1467.52 490.02 1468.51 490.11C1470.13 490.258 1471.71 490.422 1473.33 490.629C1473.88 490.698 1474.43 490.546 1474.86 490.207C1475.3 489.867 1475.58 489.369 1475.65 488.82C1475.72 488.272 1475.57 487.719 1475.23 487.283C1474.89 486.847 1474.39 486.563 1473.84 486.495C1473.84 486.495 1473.84 486.495 1473.84 486.495C1472.21 486.284 1470.53 486.11 1468.88 485.96C1467.89 485.869 1466.89 485.784 1465.89 485.7C1465.89 485.7 1465.89 485.7 1465.89 485.7C1458.49 485.136 1451.38 483.213 1444.37 481.381C1444.36 481.381 1444.36 481.381 1444.36 481.381C1434.46 478.799 1424.62 475.791 1416.33 471.568C1416.33 471.566 1416.33 471.563 1416.32 471.561C1406.93 466.666 1397.98 461.36 1390.47 454.507C1389.32 453.464 1388.19 452.389 1387.08 451.28Z" fill="white"/>
<defs>
<filter id="filter0_n_389_958" x="1239" y="598.7" width="280" height="312" filterUnits="userSpaceOnUse" color-interpolation-filters="sRGB">
<feFlood flood-opacity="0" result="BackgroundImageFix"/>
<feBlend mode="normal" in="SourceGraphic" in2="BackgroundImageFix" result="shape"/>
<feTurbulence type="fractalNoise" baseFrequency="0.5 0.5" stitchTiles="stitch" numOctaves="3" result="noise" seed="6385" />
<feColorMatrix in="noise" type="luminanceToAlpha" result="alphaNoise" />
<feComponentTransfer in="alphaNoise" result="coloredNoise1">
<feFuncA type="discrete" tableValues="1 1 1 1 1 1 1 1 1 1 1 1 1 1 1 1 1 1 1 1 1 1 1 1 1 1 1 1 1 1 1 1 1 1 1 1 1 1 1 1 1 1 1 1 1 1 1 1 1 1 1 0 0 0 0 0 0 0 0 0 0 0 0 0 0 0 0 0 0 0 0 0 0 0 0 0 0 0 0 0 0 0 0 0 0 0 0 0 0 0 0 0 0 0 0 0 0 0 0 0 "/>
</feComponentTransfer>
<feComposite operator="in" in2="shape" in="coloredNoise1" result="noise1Clipped" />
<feFlood flood-color="rgba(213, 148, 220, 0.25)" result="color1Flood" />
<feComposite operator="in" in2="noise1Clipped" in="color1Flood" result="color1" />
<feMerge result="effect1_noise_389_958">
<feMergeNode in="shape" />
<feMergeNode in="color1" />
</feMerge>
</filter>
<radialGradient id="paint0_radial_389_958" cx="0" cy="0" r="1" gradientUnits="userSpaceOnUse" gradientTransform="translate(1379 754.7) rotate(90) scale(156 140)">
<stop stop-color="#D594DC"/>
<stop offset="1" stop-color="#F5DCC6"/>
</radialGradient>
<radialGradient id="paint1_radial_389_958" cx="0" cy="0" r="1" gradientUnits="userSpaceOnUse" gradientTransform="translate(1447.13 526.539) rotate(90) scale(22.95)">
<stop stop-color="#F5DCC6"/>
<stop offset="1" stop-color="#D594DC"/>
</radialGradient>
<linearGradient id="paint2_linear_389_958" x1="1551.01" y1="477.117" x2="1551.01" y2="631.56" gradientUnits="userSpaceOnUse">
<stop stop-color="#D594DC"/>
<stop offset="1" stop-color="#699DE6"/>
</linearGradient>
<linearGradient id="paint3_linear_389_958" x1="1569.3" y1="349.748" x2="1569.3" y2="497.335" gradientUnits="userSpaceOnUse">
<stop stop-color="#D594DC"/>
<stop offset="1" stop-color="#F5DCC6"/>
</linearGradient>
<linearGradient id="paint4_linear_389_958" x1="1553" y1="263.923" x2="1553" y2="360.656" gradientUnits="userSpaceOnUse">
<stop stop-color="#D594DC"/>
<stop offset="1" stop-color="#699DE6"/>
</linearGradient>
<linearGradient id="paint5_linear_389_958" x1="1563.53" y1="188.909" x2="1563.53" y2="328.113" gradientUnits="userSpaceOnUse">
<stop stop-color="#D594DC"/>
<stop offset="1" stop-color="#F5DCC6"/>
</linearGradient>
<radialGradient id="paint6_radial_389_958" cx="0" cy="0" r="1" gradientUnits="userSpaceOnUse" gradientTransform="translate(1590.94 266.305) rotate(90) scale(38.181 80.5121)">
<stop stop-color="#D594DC"/>
<stop offset="1" stop-color="#699DE6"/>
</radialGradient>
<radialGradient id="paint7_radial_389_958" cx="0" cy="0" r="1" gradientUnits="userSpaceOnUse" gradientTransform="translate(1545.57 182.7) rotate(90) scale(80.6056 138.291)">
<stop stop-color="#D594DC"/>
<stop offset="1" stop-color="#699DE6"/>
</radialGradient>
<radialGradient id="paint8_radial_389_958" cx="0" cy="0" r="1" gradientUnits="userSpaceOnUse" gradientTransform="translate(1557.83 105.029) rotate(90) scale(31.3612 60.0703)">
<stop stop-color="#D594DC"/>
<stop offset="1" stop-color="#699DE6"/>
</radialGradient>
<linearGradient id="paint9_linear_389_958" x1="1558.66" y1="1.7002" x2="1558.66" y2="114.979" gradientUnits="userSpaceOnUse">
<stop stop-color="#D594DC"/>
<stop offset="1" stop-color="#F5DCC6"/>
</linearGradient>
<radialGradient id="paint10_radial_389_958" cx="0" cy="0" r="1" gradientUnits="userSpaceOnUse" gradientTransform="translate(1546.16 143.899) rotate(90) scale(60.9716 88.9237)">
<stop stop-color="#D594DC"/>
<stop offset="1" stop-color="#699DE6"/>
</radialGradient>
<linearGradient id="paint11_linear_389_958" x1="1441.89" y1="66.1631" x2="1441.89" y2="227.556" gradientUnits="userSpaceOnUse">
<stop stop-color="#D594DC"/>
<stop offset="1" stop-color="#F5DCC6"/>
</linearGradient>
<linearGradient id="paint12_linear_389_958" x1="1690.49" y1="230.459" x2="1690.49" y2="383.032" gradientUnits="userSpaceOnUse">
<stop stop-color="#D594DC"/>
<stop offset="1" stop-color="#F5DCC6"/>
</linearGradient>
<linearGradient id="paint13_linear_389_958" x1="1604.54" y1="336.039" x2="1604.54" y2="477.662" gradientUnits="userSpaceOnUse">
<stop stop-color="#D594DC"/>
<stop offset="1" stop-color="#699DE6"/>
</linearGradient>
<radialGradient id="paint14_radial_389_958" cx="0" cy="0" r="1" gradientUnits="userSpaceOnUse" gradientTransform="translate(1475.97 396.452) rotate(90) scale(97.1928 106.265)">
<stop stop-color="#F5DCC6"/>
<stop offset="0.581731" stop-color="#D594DC"/>
<stop offset="1" stop-color="#699DE6"/>
</radialGradient>
<linearGradient id="paint15_linear_389_958" x1="1392.95" y1="326.79" x2="1392.95" y2="426.83" gradientUnits="userSpaceOnUse">
<stop stop-color="#D594DC"/>
<stop offset="1" stop-color="#F5DCC6"/>
</linearGradient>
<linearGradient id="paint16_linear_389_958" x1="1452.6" y1="442.816" x2="1452.6" y2="520.35" gradientUnits="userSpaceOnUse">
<stop stop-color="#D594DC"/>
<stop offset="1" stop-color="#F5DCC6"/>
</linearGradient>
<radialGradient id="paint17_radial_389_958" cx="0" cy="0" r="1" gradientUnits="userSpaceOnUse" gradientTransform="translate(1599.19 189.005) rotate(74.7759) scale(45.0499)">
<stop stop-color="#F5DCC6"/>
<stop offset="1" stop-color="#D594DC"/>
</radialGradient>
</defs>
</svg>
