<svg width="2120" height="1199" viewBox="0 0 2120 1199" fill="none" xmlns="http://www.w3.org/2000/svg">
<path d="M1193.3 251.066C1231.17 254.476 1266.52 248.733 1304.3 259.77C1358.77 275.653 1418.35 364.13 1438.54 364.847C1563.08 369.334 1522.17 330.39 1574.3 264.616C1652.72 165.64 1810.56 167.973 1893.92 260.309C1916.35 285.165 1924.07 331.018 1948.47 349.234C1974.85 368.975 2017.56 366.194 2052.65 388.627C2162.57 458.888 2131.07 658.902 2005.72 691.565L98.6 700C27.0853 695.693 -11.4089 620.317 19.7274 555.53C44.4031 504.203 133.954 511.83 138.53 507.074C143.106 502.318 138.709 417.431 158.809 375.795C182.049 327.698 257.242 266.141 310.363 256.271C346.613 249.541 386.902 259.322 415.167 252.861C431.319 249.182 466.493 128.581 578.745 109.916C618.405 103.366 663.988 116.915 702.213 105.789C730.568 97.5331 750.308 55.2689 778.394 38.3991C952.021 -66.05 1173.3 55.0894 1193.3 251.066Z" fill="white"/>
<path d="M935.364 947.934C897.498 944.524 858.805 975.27 801.336 958C743.868 940.73 725.526 882.218 705.336 881.5C580.791 877.013 560.836 946.139 491.336 976C421.836 1005.86 318.111 1031.03 234.752 938.691C212.32 913.835 204.603 867.982 180.196 849.766C153.816 830.025 111.104 832.806 76.02 810.373C-33.8993 740.112 2.33638 575.5 20.8364 555.5C39.3364 535.5 2030.07 499 2030.07 499C2101.58 503.307 2123.33 594 2080.33 641C2037.33 688 2016.33 688 2001.33 694C1986.33 700 1989.96 781.569 1969.86 823.205C1946.62 871.302 1871.43 932.859 1818.31 942.729C1782.06 949.459 1741.77 939.678 1713.5 946.139C1697.35 949.818 1662.18 1070.42 1549.92 1089.08C1510.26 1095.63 1464.68 1082.08 1426.46 1093.21C1398.1 1101.47 1378.36 1143.73 1350.28 1160.6C1176.65 1265.05 955.374 1143.91 935.364 947.934Z" fill="white"/>
<g filter="url(#filter0_n_367_166)">
<path d="M764.907 217.337C791.384 240.963 778.132 291.374 765.958 319.448C788.751 294.703 827.556 252.475 864.176 274.351C886.31 287.584 885.049 318.72 868.266 335.673C848.92 355.214 824.81 355.34 801.681 362.334C797.534 363.593 796.666 360.697 797.478 368.125C836.452 368.726 900.6 399.01 873.968 445.994C849.172 489.748 783.329 437.042 765.958 408.242C774.181 434.888 784.478 456.709 778.972 485.719C771.295 526.144 721.731 534.942 705.579 495.721C693.699 466.878 706.391 439.14 714.264 411.109C693.391 435.014 655.16 475.508 620.473 457.506C592.721 443.099 596.644 409.081 618.148 391.149C639.399 373.426 655.3 375.245 678.541 368.223C682.688 366.964 683.556 369.859 682.744 362.432C657.359 361.033 619.128 349.549 606.52 325.35C594.864 302.956 601.533 278.226 626.595 270.575C662.781 259.51 692.494 295.906 714.264 319.448C705.887 289.528 691.275 258.755 707.974 228.626C718.887 208.917 747.802 202.063 764.921 217.337H764.907Z" fill="white"/>
<path d="M764.907 217.337C791.384 240.963 778.132 291.374 765.958 319.448C788.751 294.703 827.556 252.475 864.176 274.351C886.31 287.584 885.049 318.72 868.266 335.673C848.92 355.214 824.81 355.34 801.681 362.334C797.534 363.593 796.666 360.697 797.478 368.125C836.452 368.726 900.6 399.01 873.968 445.994C849.172 489.748 783.329 437.042 765.958 408.242C774.181 434.888 784.478 456.709 778.972 485.719C771.295 526.144 721.731 534.942 705.579 495.721C693.699 466.878 706.391 439.14 714.264 411.109C693.391 435.014 655.16 475.508 620.473 457.506C592.721 443.099 596.644 409.081 618.148 391.149C639.399 373.426 655.3 375.245 678.541 368.223C682.688 366.964 683.556 369.859 682.744 362.432C657.359 361.033 619.128 349.549 606.52 325.35C594.864 302.956 601.533 278.226 626.595 270.575C662.781 259.51 692.494 295.906 714.264 319.448C705.887 289.528 691.275 258.755 707.974 228.626C718.887 208.917 747.802 202.063 764.921 217.337H764.907Z" fill="url(#paint0_radial_367_166)"/>
</g>
<defs>
<filter id="filter0_n_367_166" x="600.834" y="209" width="280" height="312" filterUnits="userSpaceOnUse" color-interpolation-filters="sRGB">
<feFlood flood-opacity="0" result="BackgroundImageFix"/>
<feBlend mode="normal" in="SourceGraphic" in2="BackgroundImageFix" result="shape"/>
<feTurbulence type="fractalNoise" baseFrequency="0.5 0.5" stitchTiles="stitch" numOctaves="3" result="noise" seed="6385" />
<feColorMatrix in="noise" type="luminanceToAlpha" result="alphaNoise" />
<feComponentTransfer in="alphaNoise" result="coloredNoise1">
<feFuncA type="discrete" tableValues="1 1 1 1 1 1 1 1 1 1 1 1 1 1 1 1 1 1 1 1 1 1 1 1 1 1 1 1 1 1 1 1 1 1 1 1 1 1 1 1 1 1 1 1 1 1 1 1 1 1 1 0 0 0 0 0 0 0 0 0 0 0 0 0 0 0 0 0 0 0 0 0 0 0 0 0 0 0 0 0 0 0 0 0 0 0 0 0 0 0 0 0 0 0 0 0 0 0 0 0 "/>
</feComponentTransfer>
<feComposite operator="in" in2="shape" in="coloredNoise1" result="noise1Clipped" />
<feFlood flood-color="rgba(213, 148, 220, 0.25)" result="color1Flood" />
<feComposite operator="in" in2="noise1Clipped" in="color1Flood" result="color1" />
<feMerge result="effect1_noise_367_166">
<feMergeNode in="shape" />
<feMergeNode in="color1" />
</feMerge>
</filter>
<radialGradient id="paint0_radial_367_166" cx="0" cy="0" r="1" gradientUnits="userSpaceOnUse" gradientTransform="translate(740.834 365) rotate(90) scale(156 140)">
<stop stop-color="#D594DC"/>
<stop offset="1" stop-color="#F5DCC6"/>
</radialGradient>
</defs>
</svg>
