<svg width="395" height="634" viewBox="0 0 395 634" fill="none" xmlns="http://www.w3.org/2000/svg">
<path d="M81.3447 175.718C81.6555 176.109 83.6853 176.89 85.5384 177.56C86.786 178.011 88.7101 178.148 90.4832 178.503C91.9123 178.79 94.592 178.779 96.683 178.974C98.5248 179.146 100.874 179.405 103.076 179.602C105.352 179.805 109.184 180.58 113.067 181.169C116.714 181.722 120.032 182.075 122.499 182.387C126.644 182.911 131.767 183.95 135.495 184.86C137.375 185.319 139.26 185.763 141.068 186.311C142.522 186.752 144.049 187.331 148.553 188.976C149.98 189.497 151.036 190.157 154.077 191.948C160.567 195.773 164.775 198.949 165.44 199.34C167.619 200.62 170.181 203.804 172.031 206.045C174.51 209.048 176.228 210.793 177.294 212.249C179.489 215.25 184.069 220.748 185.496 222.806C186.419 224.138 187.3 225.161 188.164 226.494C189.634 228.761 190.832 230.106 192.166 231.83C193.189 233.153 194.675 234.655 195.855 236.188C197.059 237.75 198.522 238.973 199.935 240.191C202.228 242.167 205.487 245.938 208.76 249.211C212.181 252.633 214.213 254.354 216.689 256.553C218.494 258.156 219.794 258.833 220.932 259.58C221.442 260.01 221.993 260.405 222.62 260.719C222.935 260.876 223.246 261.032 224.037 261.192" stroke="#D594DC" stroke-width="3.39999" stroke-linecap="round"/>
<path d="M169.331 189.175C169.327 189.179 169.323 189.183 169.319 189.187C169.249 189.257 169.179 189.327 169.108 189.397C169.104 189.401 169.101 189.405 169.097 189.409C169.101 189.405 169.104 189.401 169.108 189.397C169.179 189.327 169.249 189.257 169.319 189.187C169.323 189.183 169.327 189.179 169.331 189.175Z" fill="#D594DC"/>
<circle cx="107.827" cy="526.539" r="21.25" fill="url(#paint0_radial_371_494)" stroke="#D594DC" stroke-width="3.39999"/>
<path d="M125.269 517.624C128.751 508.534 129.596 503.379 134.031 495.011C134.355 494.4 134.679 493.972 134.874 493.453C135.07 492.933 135.326 492.421 135.652 491.902C137.141 489.831 138.756 487.819 140.498 485.375C141.925 483.372 143.201 480.098 146.455 479.759C148.907 479.503 150.839 479.25 156.223 479.179C161.093 479.115 170.052 479.01 174.857 479.181C180.304 479.375 181.962 479.754 184.448 479.827C186.643 479.891 190.431 480.462 208.442 480.077C224.025 479.743 251.917 478.848 266.719 478.268C281.522 477.689 283.183 477.36 285.796 477.305C291.862 477.177 297.188 476.588 299.072 478.476C299.973 479.379 300.759 480.368 301.268 481.977C302.947 487.28 304.112 493.238 304.753 497.289C305.397 501.354 306.341 511.219 307.014 517.706C307.208 519.576 307.675 526.014 307.27 534.334C307.076 538.314 307.2 545.939 306.75 557.566C306.552 562.674 306.168 566.256 305.252 570.815C304.335 575.375 302.993 580.768 301.828 584.622C299.961 590.798 299.097 595.483 297.701 599C296.084 603.072 294.48 606.813 292.789 609.136C290.525 612.246 289.591 615.567 281.989 623.491C279.149 626.451 276.744 628.312 272.233 629.355C268.022 630.328 259.367 633.685 251.618 629.537C249.691 628.506 246.899 624.799 242.616 617.264C240.208 613.029 237.407 607.963 235.255 603.111C231.198 593.961 229.378 588.923 228.819 587.136C227.205 581.974 225.527 574.704 224.622 567.628C224.491 566.597 224.253 565.923 222.723 565.829C218.524 565.574 206.931 564.316 205.495 568.689C205.237 569.474 205.202 570.645 204.979 571.465C204.33 573.855 204.051 576.41 199.738 584.916C196.94 590.433 193.85 596.25 190.562 600.673C188.294 603.724 185.877 607.685 184.297 609.912C182.091 613.021 178.785 617.031 174.595 619.93C168.878 623.884 160.902 627.524 157.542 628.06C154.696 628.514 151.088 628.635 147.457 628.446L147.273 628.436C143.534 628.242 138.296 627.969 135.704 624.949C133.76 622.683 130.53 620.502 126.771 613.608C123.676 607.93 121.361 603.048 120.058 597.36C119.143 593.364 117.864 587.223 117.092 581.582C116.321 575.941 115.951 570.951 116.003 568.061C116.069 564.403 115.851 560.829 116.922 552.618C117.647 547.057 119.054 538.868 120.549 532.599C122.043 526.33 123.555 522.099 125.269 517.624Z" fill="url(#paint1_linear_371_494)" stroke="#D594DC" stroke-width="3.39999" stroke-linecap="round"/>
<path d="M297.483 384.646C296.968 378.318 295.528 368.807 294.374 362.029C294.253 360.973 294.66 358.836 294.15 357.903C291.9 357.109 289.009 356.562 286.119 355.953C283.37 355.373 280.526 354.578 274.167 353.345C266.726 351.902 263.294 351.363 256.386 350.891C252.129 350.6 248.373 350.07 238.433 349.952C232.404 349.88 221.945 349.699 215.693 350.028C207.429 350.462 198.964 347.946 193.106 352.74C190.672 354.731 190.765 358.602 190.598 360.973C190.238 366.099 190.206 369.603 188.255 379.904C186.706 388.081 183.699 403.258 180.647 415.421C177.594 427.583 174.763 436.529 172.346 442.448C168.673 451.443 166.507 456.417 163.449 463.49C158.824 474.188 155.859 481.696 156.617 482.441C156.984 482.801 157.566 482.923 158.212 483.237C160.889 484.536 164.81 486.124 168.191 486.923C172.196 487.869 183.009 490.651 189.821 492.783C192.13 493.505 197.028 495.287 202.99 496.109C207.177 496.686 210.045 497.361 215.098 497.334C229.454 497.258 234.071 496.919 239.067 496.61C242.609 496.391 245.77 495.962 248.463 495.742C251.14 495.523 253.553 495.748 259.395 494.29C266.665 492.477 274.251 491.856 282.81 489.648C294.3 486.684 302.489 484.639 303.128 483.072C303.486 482.193 303.579 480.893 303.412 479.892C302.904 476.856 302.756 474.233 302.182 471.361C301.602 468.465 301.185 465.593 300.954 462.757L300.951 462.723C300.731 460.027 300.285 454.568 300.086 450.165C299.867 445.321 299.402 439.542 299.218 434.321C298.999 428.112 298.545 417.092 298.35 408.129L298.339 407.614C298.126 397.77 297.972 390.674 297.483 384.646Z" fill="url(#paint2_linear_371_494)"/>
<path d="M297.483 384.646C296.968 378.318 295.528 368.807 294.374 362.029C294.253 360.973 294.66 358.836 294.15 357.903C291.9 357.109 289.009 356.562 286.119 355.953C283.37 355.373 280.526 354.578 274.167 353.345C266.726 351.902 263.294 351.363 256.386 350.891C252.129 350.6 248.373 350.07 238.433 349.952C232.404 349.88 221.945 349.699 215.693 350.028C207.429 350.462 198.964 347.946 193.106 352.74C190.672 354.731 190.765 358.602 190.598 360.973C190.238 366.099 190.206 369.603 188.255 379.904C186.706 388.081 183.699 403.258 180.647 415.421C177.594 427.583 174.763 436.529 172.346 442.448C168.673 451.443 166.507 456.417 163.449 463.49C158.824 474.188 155.859 481.696 156.617 482.441C156.984 482.801 157.566 482.923 158.212 483.237C160.889 484.536 164.81 486.124 168.191 486.923C172.196 487.869 183.009 490.651 189.821 492.783C192.13 493.505 197.028 495.287 202.99 496.109C207.177 496.686 210.045 497.361 215.098 497.334C229.454 497.258 234.071 496.919 239.067 496.61C242.609 496.391 245.77 495.962 248.463 495.742C251.14 495.523 253.553 495.748 259.395 494.29C266.665 492.477 274.251 491.856 282.81 489.648C294.3 486.684 302.489 484.639 303.128 483.072C303.486 482.193 303.579 480.893 303.412 479.892C302.904 476.856 302.756 474.233 302.182 471.361C301.602 468.465 301.185 465.593 300.954 462.757L300.951 462.723C300.731 460.027 300.285 454.568 300.086 450.165C299.867 445.321 299.402 439.542 299.218 434.321C298.999 428.112 298.545 417.092 298.35 408.129L298.339 407.614C298.126 397.77 297.972 390.674 297.483 384.646Z" fill="white" fill-opacity="0.5"/>
<path d="M297.483 384.646C296.968 378.318 295.528 368.807 294.374 362.029C294.253 360.973 294.66 358.836 294.15 357.903C291.9 357.109 289.009 356.562 286.119 355.953C283.37 355.373 280.526 354.578 274.167 353.345C266.726 351.902 263.294 351.363 256.386 350.891C252.129 350.6 248.373 350.07 238.433 349.952C232.404 349.88 221.945 349.699 215.693 350.028C207.429 350.462 198.964 347.946 193.106 352.74C190.672 354.731 190.765 358.602 190.598 360.973C190.238 366.099 190.206 369.603 188.255 379.904C186.706 388.081 183.699 403.258 180.647 415.421C177.594 427.583 174.763 436.529 172.346 442.448C168.673 451.443 166.507 456.417 163.449 463.49C158.824 474.188 155.859 481.696 156.617 482.441C156.984 482.801 157.566 482.923 158.212 483.237C160.889 484.536 164.81 486.124 168.191 486.923C172.196 487.869 183.009 490.651 189.821 492.783C192.13 493.505 197.028 495.287 202.99 496.109C207.177 496.686 210.045 497.361 215.098 497.334C229.454 497.258 234.071 496.919 239.067 496.61C242.609 496.391 245.77 495.962 248.463 495.742C251.14 495.523 253.553 495.748 259.395 494.29C266.665 492.477 274.251 491.856 282.81 489.648C294.3 486.684 302.489 484.639 303.128 483.072C303.486 482.193 303.579 480.893 303.412 479.892C302.904 476.856 302.756 474.233 302.182 471.361C301.602 468.465 301.185 465.593 300.954 462.757L300.951 462.723C300.731 460.027 300.285 454.568 300.086 450.165C299.867 445.321 299.402 439.542 299.218 434.321C298.999 428.112 298.545 417.092 298.35 408.129L298.339 407.614C298.126 397.77 297.972 390.674 297.483 384.646Z" stroke="#D594DC" stroke-width="3.39999" stroke-linecap="round"/>
<path d="M133.448 264.298C136.005 265.087 138.744 266.262 139.622 266.554C140.906 266.654 141.59 266.751 141.985 266.85C143.558 267.243 145.125 267.438 146.748 267.93C148.566 268.127 150.127 268.541 151.706 268.912C153.379 269.305 155.362 269.611 157.108 270.141C159.871 270.979 163.185 271.814 166.684 272.348C170.6 272.946 178.079 274.05 182.41 275.004C188.634 276.375 191.191 276.91 198.709 278.539C200.523 278.932 201.593 279.224 211.642 281.423C221.692 283.622 240.162 287.608 250.799 289.751C261.436 291.894 264.168 292.126 265.82 292.431C271.953 293.567 280.372 294.516 282.999 294.984C287.118 295.717 291.126 296.084 294.927 297.489C298.117 298.669 301.35 299.828 303.169 301.417C305.087 303.094 308.043 305.881 310.391 309.234C313.035 313.009 314.08 315.489 314.555 317.768C314.997 319.891 316.195 322.894 315.24 329.265C314.79 332.263 313.916 335.069 312.73 336.674C309.959 340.423 304.906 345.413 299.733 347.581C289.457 351.888 287.066 352.772 285.138 353.506C283.465 354.144 279.721 355.298 277.134 356.158C275.217 356.795 273.502 357.617 268.394 358.522C265.301 359.069 260.052 359.944 254.472 360.332C248.893 360.719 243.143 360.791 239.238 360.373C233.278 359.735 229.794 359.33 226.891 358.604C223.559 357.77 218.021 355.736 212.262 353.545C210.215 352.765 209.826 352.668 200.117 347.562C190.407 342.455 171.937 332.637 162.352 327.477C152.766 322.318 152.086 321.832 147.789 319.485C143.493 317.139 135.809 313.064 131.423 310.714C125.962 307.789 122.937 307.252 118.053 302.282C114.966 299.14 112.688 296.64 112.272 294.237C111.637 290.568 111.196 283.7 114.053 279.056C116.557 274.985 117.155 271.929 121.821 268.747C126.773 265.37 129.123 262.962 133.448 264.298Z" fill="url(#paint3_linear_371_494)" stroke="#D594DC" stroke-width="3.39999" stroke-linecap="round"/>
<path d="M137.365 223.073C139.803 218.054 142.228 213.022 144.378 209.096C145.086 207.829 147.471 205.721 148.831 203.61C149.907 201.97 150.62 200.485 151.782 199.256C153.381 197.564 155.201 195.28 159.139 193.355L159.194 193.328C161.494 192.204 164.935 190.522 171.18 189.659C172.856 189.427 175.133 188.851 185.134 188.914C193.371 188.966 207.651 189.337 215.508 189.618C223.364 189.899 224.753 190.118 225.737 190.177L225.818 190.182C227.344 190.274 229.307 190.391 235.894 191.838C241.32 193.029 250.592 195.162 255.563 196.276C260.534 197.39 261.183 197.483 263.275 198.007C265.367 198.531 268.798 199.458 274.478 201.403C280.158 203.347 287.855 206.222 291.894 207.802C295.933 209.383 296.292 209.687 296.872 209.943C300.069 211.355 307.157 214.962 309.988 218.57C314.501 224.32 317.882 229.991 318.597 232.102C319.626 235.144 321.577 239.52 320.601 247.446C319.899 253.15 318.519 258.938 317.51 263.159C316.999 265.3 316.51 266.387 316.155 267.455C315.878 268.286 313.976 272.567 310.718 279.898L310.608 280.145C307.62 286.869 305.775 291.147 304.439 293.176C302.008 296.867 297.93 301.429 294.701 304.593C292.634 306.617 288.256 312.076 284.115 314.943C281.676 316.632 280.192 318.879 273.008 322.017C268.817 323.848 263.785 325.484 258.962 326.507C256.105 327.113 253.487 327.267 251.52 327.441C248.895 327.675 246.628 328.488 239.992 327.908C236.234 327.579 232.289 327.523 229.037 327.017C226.039 326.551 223.098 325.989 220.848 325.472C219.015 325.05 212.593 323.667 209 322.381C207.022 321.673 204.438 320.873 202.63 319.756C201.037 318.773 199.18 317.995 196.863 316.897C192.495 314.828 189.291 312.857 185.176 310.559C179.561 307.424 175.605 305.369 174.718 304.816C171.696 302.93 164.186 299.047 159.682 296.338C157.579 295.074 156.316 293.85 147.01 286.574C142.295 282.887 139.927 280.884 139.268 280.181C138.567 279.434 134.537 274.524 130.497 266.524C128.451 262.473 127.677 260.034 127.611 256.738C127.518 252.155 127.689 247.18 129.026 243.02C130.241 239.238 131.402 236.765 131.876 235.408C132.202 234.475 134.172 229.648 137.365 223.073Z" fill="url(#paint4_linear_371_494)"/>
<path d="M137.365 223.073C139.803 218.054 142.228 213.022 144.378 209.096C145.086 207.829 147.471 205.721 148.831 203.61C149.907 201.97 150.62 200.485 151.782 199.256C153.381 197.564 155.201 195.28 159.139 193.355L159.194 193.328C161.494 192.204 164.935 190.522 171.18 189.659C172.856 189.427 175.133 188.851 185.134 188.914C193.371 188.966 207.651 189.337 215.508 189.618C223.364 189.899 224.753 190.118 225.737 190.177L225.818 190.182C227.344 190.274 229.307 190.391 235.894 191.838C241.32 193.029 250.592 195.162 255.563 196.276C260.534 197.39 261.183 197.483 263.275 198.007C265.367 198.531 268.798 199.458 274.478 201.403C280.158 203.347 287.855 206.222 291.894 207.802C295.933 209.383 296.292 209.687 296.872 209.943C300.069 211.355 307.157 214.962 309.988 218.57C314.501 224.32 317.882 229.991 318.597 232.102C319.626 235.144 321.577 239.52 320.601 247.446C319.899 253.15 318.519 258.938 317.51 263.159C316.999 265.3 316.51 266.387 316.155 267.455C315.878 268.286 313.976 272.567 310.718 279.898L310.608 280.145C307.62 286.869 305.775 291.147 304.439 293.176C302.008 296.867 297.93 301.429 294.701 304.593C292.634 306.617 288.256 312.076 284.115 314.943C281.676 316.632 280.192 318.879 273.008 322.017C268.817 323.848 263.785 325.484 258.962 326.507C256.105 327.113 253.487 327.267 251.52 327.441C248.895 327.675 246.628 328.488 239.992 327.908C236.234 327.579 232.289 327.523 229.037 327.017C226.039 326.551 223.098 325.989 220.848 325.472C219.015 325.05 212.593 323.667 209 322.381C207.022 321.673 204.438 320.873 202.63 319.756C201.037 318.773 199.18 317.995 196.863 316.897C192.495 314.828 189.291 312.857 185.176 310.559C179.561 307.424 175.605 305.369 174.718 304.816C171.696 302.93 164.186 299.047 159.682 296.338C157.579 295.074 156.316 293.85 147.01 286.574C142.295 282.887 139.927 280.884 139.268 280.181C138.567 279.434 134.537 274.524 130.497 266.524C128.451 262.473 127.677 260.034 127.611 256.738C127.518 252.155 127.689 247.18 129.026 243.02C130.241 239.238 131.402 236.765 131.876 235.408C132.202 234.475 134.172 229.648 137.365 223.073Z" fill="white" fill-opacity="0.5"/>
<path d="M144.378 209.096C142.228 213.022 139.803 218.054 137.365 223.073C134.172 229.648 132.202 234.475 131.876 235.408C131.402 236.765 130.241 239.238 129.026 243.02C127.689 247.18 127.518 252.155 127.611 256.738C127.677 260.034 128.451 262.473 130.497 266.524C134.537 274.524 138.567 279.434 139.268 280.181C139.927 280.884 142.295 282.887 147.01 286.574C156.316 293.85 157.579 295.074 159.682 296.338C164.186 299.047 171.696 302.93 174.718 304.816C175.605 305.369 179.561 307.424 185.176 310.559C189.291 312.857 192.495 314.828 196.863 316.897C199.18 317.995 201.037 318.773 202.63 319.756C204.438 320.873 207.022 321.673 209 322.381C212.593 323.667 219.015 325.05 220.848 325.472C223.098 325.989 226.039 326.551 229.038 327.017C232.289 327.523 236.234 327.579 239.992 327.908C246.628 328.488 248.895 327.675 251.52 327.441C253.487 327.267 256.105 327.113 258.962 326.507C263.785 325.484 268.817 323.848 273.008 322.017C280.192 318.879 281.676 316.632 284.115 314.943C288.256 312.076 292.634 306.617 294.701 304.593C297.93 301.429 302.008 296.867 304.439 293.176C305.775 291.147 307.62 286.869 310.608 280.145C313.933 272.664 315.875 268.295 316.155 267.455C316.51 266.387 316.999 265.3 317.51 263.159C318.519 258.938 319.899 253.15 320.601 247.446C321.577 239.52 319.626 235.144 318.597 232.102C317.882 229.991 314.501 224.32 309.988 218.57C307.157 214.962 300.069 211.355 296.872 209.943C296.292 209.687 295.933 209.383 291.894 207.802C287.855 206.222 280.158 203.347 274.478 201.403C268.798 199.458 265.367 198.531 263.275 198.007C261.183 197.483 260.534 197.39 255.563 196.276C250.592 195.162 241.32 193.029 235.894 191.838C229.19 190.366 227.276 190.27 225.737 190.177C224.753 190.118 223.364 189.899 215.508 189.618C207.651 189.337 193.371 188.966 185.134 188.914C175.133 188.851 172.856 189.427 171.18 189.659C164.886 190.529 161.439 192.231 159.139 193.355C155.201 195.28 153.381 197.564 151.782 199.256C150.62 200.485 149.907 201.97 148.831 203.61C147.471 205.721 145.086 207.829 144.378 209.096ZM144.378 209.096C144.512 209.425 143.804 208.714 144.378 209.096Z" stroke="#D594DC" stroke-width="3.39999" stroke-linecap="round"/>
<path d="M172.399 273.015C172.236 270.047 172.039 266.528 172.039 266.465L171.841 265.674C171.71 265.15 171.513 264.363 171.415 263.115C171.185 261.801 171.024 258.775 171.219 256.654C171.318 255.57 171.008 253.939 172.109 253.309C173.424 252.555 174.734 252.19 175.815 252.065C177.23 251.902 178.817 251.921 180.277 251.672C181.623 251.441 182.819 251.32 184.015 251.081C185.165 250.851 186.767 250.714 191.321 249.566C195.35 248.55 199.518 247.738 202.458 247.077C204.056 246.718 204.912 246.52 205.731 246.357C208.876 245.73 213.74 245.12 216.49 244.421C218.031 244.03 219.442 243.607 226.664 242.349C229.512 241.853 233.143 241.222 235.168 240.977C237.577 240.684 239.298 240.435 241.487 240.158C243.548 239.897 244.734 239.827 246.645 239.566C249.531 239.173 251.824 238.968 256.38 238.411C260.488 237.909 268.017 236.892 271.989 236.448C276.347 235.961 278.437 235.581 280.481 235.403C282.392 235.237 284.864 234.785 289.021 234.017L289.261 233.972C292 233.466 296.598 232.615 299.1 232.25C301.995 231.828 303.044 231.567 305.466 231.101C312.959 229.66 315.035 229.058 317.319 228.644C320.382 228.089 324.348 227.713 325.086 228.945C325.676 229.931 326.421 230.784 327.086 231.832C327.711 232.816 328.807 234.637 329.514 236.393C330.136 237.937 330.743 239.856 330.988 241.476C331.187 242.79 331.454 244.109 331.677 246.036C331.84 247.45 332.432 249.161 332.003 258.219C331.905 260.301 331.927 260.841 331.807 261.386C331.509 262.734 331.054 264.281 330.262 266.541C329.412 268.964 328.709 271.628 327.902 273.424C327.042 275.337 326.03 277.55 324.653 279.131C323.567 280.379 321.397 283.484 316.335 285.565C310.771 287.853 307.784 288.761 305.398 288.901C302.076 289.097 296.823 289.265 294.562 288.733C290.241 287.715 288.607 287.223 287.389 286.634C284.585 285.279 281.542 283.937 279.051 281.442L278.981 281.372C276.195 278.582 275.395 277.781 274.601 276.53C273.446 274.711 272.163 272.27 271.486 269.867C270.895 267.772 271.108 265.963 269.94 265.447C269.573 265.284 268.918 265.238 268.13 265.351C264.916 265.812 262.274 266.254 259.279 267.156C257.639 267.65 255.528 267.902 254.887 269.092C254.104 270.547 253.805 272.484 253.743 273.754C253.644 275.785 253.728 276.902 253.25 278.376C252.856 279.592 252.464 281.621 250.718 285.243L250.606 285.475C248.943 288.925 248.038 290.804 246.649 292.157C243.926 294.812 242.293 296.031 241.308 296.841C240.19 297.76 238.809 298.664 236.842 299.565C234.483 300.645 233.34 301.289 231.203 301.825C228.292 302.554 223.974 303.504 220.735 304.056C219.198 304.317 215.601 304.63 211.15 304.414C207.778 304.251 204.629 304.038 202.208 303.824C200.366 303.66 197.557 303.699 195.78 303.2C194.139 302.739 192.953 302.512 191.613 302.084C189.341 301.358 186.314 300.078 184.827 299.164C183.374 298.272 181.169 296.426 180.105 295.227C179.316 294.34 178.472 293.326 177.083 290.79C175.247 287.44 173.939 283.378 173.218 280.332C172.759 278.395 172.608 276.822 172.399 273.015Z" fill="url(#paint5_radial_371_494)" stroke="#D594DC" stroke-width="3.39999" stroke-linecap="round"/>
<path d="M74.1705 166.517C72.7099 164.872 70.2812 162.626 69.5762 161.123C68.8713 159.62 68.3113 158.123 67.9834 155.664C68.1283 149.011 68.2126 146.426 68.9726 144.939C70.0983 142.735 70.9759 140.657 73.0574 138.372C74.9781 136.262 76.2942 134.568 78.5001 132.697C81.2707 130.347 86.3648 126.442 91.7706 122.867C94.5876 121.004 99.6954 117.568 103.254 115.419C106.813 113.27 108.769 112.448 109.929 111.921C111.467 111.221 116.634 109.053 124.254 106.71C127.888 105.593 129.062 105.066 130.238 104.794C134.088 103.904 136.836 102.659 146.663 102.216C150.788 102.03 156.36 102.03 162.734 102.413C169.108 102.796 176.085 103.444 179.747 103.958C184.738 104.659 186.542 105.26 194.449 107.393C197.96 108.34 202.906 109.463 205.821 110.342C209.689 111.508 211.513 111.972 217.421 114.072C222.528 115.887 231.629 119.231 236.371 120.998C241.113 122.765 241.485 122.95 241.861 123.092C243.747 123.801 246.089 125.045 253.557 126.953C257.458 127.949 263.62 129.222 267.609 130.374C276.015 132.801 278.994 133.804 281.31 134.443C283.517 135.052 286.326 135.814 288.627 136.365C291.791 137.124 295.8 138.028 297.584 138.947C300.611 140.506 305.411 142.464 307.621 143.683C309.504 144.722 313.742 147.41 320.491 153.364C323.671 156.17 328.035 160.912 331.597 166.639C333.132 169.107 333.823 170.081 334.88 172.225C338.198 178.96 339.276 180.975 339.84 182.852C341.023 186.789 342.615 192.769 343.217 194.86C343.826 196.976 344.761 199.022 344.528 202.195C343.905 210.71 342.481 216.79 340.581 219.017C337.601 222.513 333.444 226.734 331.953 228.111C331.345 228.673 326.753 232.398 318.204 237.615C314.204 240.056 310.701 241.88 308.719 242.751C306.391 243.774 302.697 245.047 297.456 247.444C294.189 248.938 292.181 249.701 290.338 250.487C286.501 252.124 284.202 252.948 281.2 254.236C280.219 254.657 275.879 256.432 268.639 258.702C265.349 259.733 262.759 260.438 260.013 260.948C250.94 262.632 248.516 263.172 243.193 263.239C239.469 263.285 232.781 263.364 229.248 263.237C225.342 263.096 224.488 263.062 223.461 262.956C221.211 262.722 218.711 262.644 216.09 261.968C211.727 260.842 209.243 260.312 202.986 258.537C200.813 257.921 198.399 257.085 188.197 252.744C177.995 248.403 160.559 240.735 151.28 236.789C141.003 232.419 139.533 231.699 138.184 231.055C136.123 230.072 134.479 229.137 133.453 228.714C131.054 227.725 126.91 225.503 124.354 223.834C121.098 221.708 117.615 219.214 115.959 217.97C114.085 216.563 112.027 215.241 109.251 212.245C107.516 210.372 105.454 208.892 102.387 205.947C96.5407 200.331 95.2836 198.791 93.9136 197.283C90.6083 193.644 86.8281 188.836 85.6145 187.153C84.1581 185.134 82.7848 183.387 81.8167 181.101C80.7811 178.656 80.0934 176.113 78.7647 173.592C76.9368 170.123 75.6753 168.211 74.1705 166.517Z" fill="url(#paint6_radial_371_494)" stroke="#D594DC" stroke-width="3.39999" stroke-linecap="round"/>
<path d="M274.077 117.601C275.734 118.98 277.922 120.386 278.546 120.619C279.17 120.852 274.077 124.49 274.077 124.49L269.326 128.74L263.376 133.84L254.876 136.39L243.826 131.29L232.776 124.49L219.692 117.601L201.359 106.64L185.176 98.1404L173.276 89.6405L164.349 85.3905L158.458 82.9441C158.538 82.5438 158.616 82.1553 158.815 81.841C159.325 81.2935 160.109 80.5871 161.052 79.4475C161.995 78.4656 163.027 77.3964 164.349 76.8197C165.607 76.271 166.93 75.5026 169.139 75.0148C170.552 74.7028 171.89 73.7359 177.09 73.6809C184.213 73.6056 186.083 73.8806 188.332 73.9576C189.467 73.9964 194.13 74.3491 201.359 75.733C204.661 76.3652 207.225 77.0646 210.149 78.0147C213.072 78.9648 216.258 80.1303 219.692 81.4737C223.126 82.817 226.701 84.2934 231.73 86.7528C236.76 89.2122 243.159 92.3823 247.001 94.8646C252.503 98.419 254.983 100.317 256.733 101.787C259.176 103.839 261.539 105.841 264.78 108.933C267.262 111.299 271.794 115.703 274.077 117.601Z" fill="url(#paint7_radial_371_494)" stroke="#D594DC" stroke-width="3.39999" stroke-linecap="round"/>
<path d="M195.048 70.5209C197.545 72.9792 198.945 74.6939 199.255 75.3919L213.228 79.4402L227.678 84.5402L238.728 89.8575L248.078 95.5901L259.218 103.24L271.869 114.979C271.555 114.426 271.478 114.117 271.4 113.803L271.4 113.803C271.321 113.489 271.244 113.18 271.205 112.826C271.087 111.301 270.39 109.159 270.073 106.852C269.836 105.131 269.481 103.427 269.096 101.189L269.091 101.16C268.894 100.014 268.423 97.281 266.416 89.8575C264.95 84.4336 262.59 75.9199 261.276 71.4801C259.843 66.643 259.218 64.6883 259.218 64.6883C259.218 64.6883 256.239 58.9487 253.251 54.5316C251.345 51.7149 248.062 46.8931 246.24 44.4066C244.226 41.6589 243.165 40.3658 239.576 36.0219C237.113 33.0412 232.786 27.5613 229.827 24.2478C225.632 19.5513 224.147 17.8519 223.453 17.2159C222.517 16.3586 221.549 15.1123 219.651 13.5336C214.316 9.09709 212.302 7.22772 209.2 5.70059C206.736 4.48722 203.558 2.17222 195.671 1.79931C191.583 1.60606 189.259 1.74511 188.474 1.80165C186.83 1.91994 183.214 2.40601 180.979 2.81709C179.489 3.09115 177.28 3.21778 174.963 4.6957C172.696 6.14097 170.698 7.4161 170.051 9.2634C169.501 10.8305 167.994 14.6454 167.394 18.3309C166.695 22.6268 166.803 25.4298 166.969 27.2636C167.164 29.4104 167.868 34.129 168.961 37.9591C169.194 38.7754 169.709 40.5702 172.828 45.0777C175.128 48.4027 178.993 53.5818 181.443 56.689C183.893 59.7962 184.885 60.8147 185.759 61.6619C188.33 64.1531 192.319 67.8343 195.048 70.5209Z" fill="url(#paint8_linear_371_494)"/>
<path d="M195.048 70.5209C197.545 72.9792 198.945 74.6939 199.255 75.3919L213.228 79.4402L227.678 84.5402L238.728 89.8575L248.078 95.5901L259.218 103.24L271.869 114.979C271.555 114.426 271.478 114.117 271.4 113.803L271.4 113.803C271.321 113.489 271.244 113.18 271.205 112.826C271.087 111.301 270.39 109.159 270.073 106.852C269.836 105.131 269.481 103.427 269.096 101.189L269.091 101.16C268.894 100.014 268.423 97.281 266.416 89.8575C264.95 84.4336 262.59 75.9199 261.276 71.4801C259.843 66.643 259.218 64.6883 259.218 64.6883C259.218 64.6883 256.239 58.9487 253.251 54.5316C251.345 51.7149 248.062 46.8931 246.24 44.4066C244.226 41.6589 243.165 40.3658 239.576 36.0219C237.113 33.0412 232.786 27.5613 229.827 24.2478C225.632 19.5513 224.147 17.8519 223.453 17.2159C222.517 16.3586 221.549 15.1123 219.651 13.5336C214.316 9.09709 212.302 7.22772 209.2 5.70059C206.736 4.48722 203.558 2.17222 195.671 1.79931C191.583 1.60606 189.259 1.74511 188.474 1.80165C186.83 1.91994 183.214 2.40601 180.979 2.81709C179.489 3.09115 177.28 3.21778 174.963 4.6957C172.696 6.14097 170.698 7.4161 170.051 9.2634C169.501 10.8305 167.994 14.6454 167.394 18.3309C166.695 22.6268 166.803 25.4298 166.969 27.2636C167.164 29.4104 167.868 34.129 168.961 37.9591C169.194 38.7754 169.709 40.5702 172.828 45.0777C175.128 48.4027 178.993 53.5818 181.443 56.689C183.893 59.7962 184.885 60.8147 185.759 61.6619C188.33 64.1531 192.319 67.8343 195.048 70.5209Z" fill="white" fill-opacity="0.5"/>
<path d="M195.048 70.5209C197.545 72.9792 198.945 74.6939 199.255 75.3919L213.228 79.4402L227.678 84.5402L238.728 89.8575L248.078 95.5901L259.218 103.24L271.869 114.979C271.555 114.426 271.478 114.117 271.4 113.803L271.4 113.803C271.321 113.489 271.244 113.18 271.205 112.826C271.087 111.301 270.39 109.159 270.073 106.852C269.836 105.131 269.481 103.427 269.096 101.189L269.091 101.16C268.894 100.014 268.423 97.281 266.416 89.8575C264.95 84.4336 262.59 75.9199 261.276 71.4801C259.843 66.643 259.218 64.6883 259.218 64.6883C259.218 64.6883 256.239 58.9487 253.251 54.5316C251.345 51.7149 248.062 46.8931 246.24 44.4066C244.226 41.6589 243.165 40.3658 239.576 36.0219C237.113 33.0412 232.786 27.5613 229.827 24.2478C225.632 19.5513 224.147 17.8519 223.453 17.2159C222.517 16.3586 221.549 15.1123 219.651 13.5336C214.316 9.09709 212.302 7.22772 209.2 5.70059C206.736 4.48722 203.558 2.17222 195.671 1.79931C191.583 1.60606 189.259 1.74511 188.474 1.80165C186.83 1.91994 183.214 2.40601 180.979 2.81709C179.489 3.09115 177.28 3.21778 174.963 4.6957C172.696 6.14097 170.698 7.4161 170.051 9.2634C169.501 10.8305 167.994 14.6454 167.394 18.3309C166.695 22.6268 166.803 25.4298 166.969 27.2636C167.164 29.4104 167.868 34.129 168.961 37.9591C169.194 38.7754 169.709 40.5702 172.828 45.0777C175.128 48.4027 178.993 53.5818 181.443 56.689C183.893 59.7962 184.885 60.8147 185.759 61.6619C188.33 64.1531 192.319 67.8343 195.048 70.5209Z" stroke="#D594DC" stroke-width="3.39999" stroke-linecap="round"/>
<path d="M123.83 118.258C122.664 120.372 122.219 122.797 121.918 125.176C121.821 126.006 121.757 126.839 121.72 127.677C121.72 127.682 121.719 127.686 121.719 127.691C121.682 130.737 122.473 133.709 123.08 136.675C123.08 136.679 123.081 136.683 123.082 136.687C123.661 139.408 124.484 142.076 125.534 144.652C125.535 144.653 125.535 144.653 125.535 144.654C127.229 148.848 129.705 152.663 132.278 156.365C132.28 156.368 132.282 156.371 132.284 156.373C134.824 160.116 136.208 164.485 137.441 168.801C137.443 168.808 137.445 168.814 137.447 168.821C138.504 173.236 138.323 177.816 138.855 182.308C138.856 182.313 138.856 182.318 138.857 182.323C139.129 185.31 139.163 188.698 137.121 191.091C137.117 191.095 137.113 191.099 137.109 191.103C134.165 192.902 130.492 191.826 127.177 191.965C127.152 191.965 127.127 191.964 127.102 191.964C123.943 191.947 120.748 192.267 117.634 191.62C117.606 191.613 117.578 191.607 117.551 191.6C114.995 191.168 113.186 188.92 112.563 186.498C112.559 186.483 112.554 186.467 112.549 186.451C111.254 181.91 111.161 177.149 110.952 172.458C110.951 172.447 110.951 172.436 110.951 172.425C110.746 166.229 110.732 160.027 110.717 153.825C110.713 151.417 110.713 149.009 110.713 146.601C110.713 149.009 110.713 151.417 110.717 153.825C110.732 160.027 110.746 166.229 110.951 172.425C110.951 172.436 110.951 172.447 110.952 172.458C111.161 177.149 111.254 181.91 112.549 186.451C112.554 186.467 112.559 186.483 112.563 186.498C113.186 188.92 114.995 191.168 117.551 191.6C117.578 191.607 117.606 191.613 117.634 191.62C120.748 192.267 123.943 191.947 127.102 191.964C127.127 191.964 127.152 191.965 127.177 191.965C130.492 191.826 134.165 192.902 137.109 191.103C137.113 191.099 137.117 191.095 137.121 191.091C139.163 188.698 139.129 185.31 138.857 182.323C138.856 182.318 138.856 182.313 138.855 182.308C138.323 177.816 138.504 173.236 137.447 168.821C137.445 168.814 137.443 168.808 137.441 168.801C136.208 164.485 134.824 160.116 132.284 156.373C132.282 156.371 132.28 156.368 132.278 156.365C129.705 152.663 127.229 148.848 125.535 144.654C125.535 144.653 125.535 144.653 125.534 144.652C124.484 142.076 123.661 139.408 123.082 136.687C123.081 136.683 123.08 136.679 123.08 136.675C122.473 133.709 121.682 130.737 121.719 127.691C121.719 127.686 121.72 127.682 121.72 127.677C121.757 126.839 121.821 126.006 121.918 125.176C122.219 122.797 122.664 120.372 123.83 118.258Z" fill="#D594DC"/>
<path d="M191.692 182.857C189.133 182.07 188.056 181.877 186.011 180.662C185.57 180.401 185.222 180.189 184.907 179.952C184.36 179.483 183.496 178.934 182.238 178.069C180.981 177.126 179.913 175.972 178.668 175.086C177.449 174.22 175.627 172.767 173.486 170.886C172.189 169.746 170.79 168.835 166.613 165.309C165.365 164.255 162.304 161.981 158.049 158.789C154.764 156.325 153.663 154.964 148.291 151.395C141.861 147.122 137.451 144.18 136.319 143.493C135.223 142.828 131.86 140.826 127.59 137.358C122.416 133.155 119.688 130.4 118.978 128.618C118.352 127.047 117.227 123.861 118.553 122.537C119.063 122.029 119.699 121.647 120.44 121.282C122.604 120.218 125.403 119.163 127.508 117.116C130.375 114.327 132.469 112.582 133.86 109.975C134.759 108.289 135.438 107.09 137.235 99.6408C138.296 95.2446 139.148 91.6037 141.592 89.2944C143.085 87.884 148.155 84.9297 152.115 84.04C155.254 83.3348 159.895 82.2527 162.787 83.4961C165.544 84.6816 168.101 86.2497 173.192 89.1131C176.055 90.7237 179.085 92.5271 182.706 95.0527C184.419 96.2477 187.216 98.1903 193.258 101.844C199.3 105.497 208.368 110.613 212.941 113.426C218.514 116.856 220.126 117.713 224.774 120.503C228.371 122.662 234.976 126.703 238.478 128.883C241.981 131.064 242.345 131.414 242.964 131.77C245.833 133.418 248.489 134.685 250.692 135.455C252.261 136.004 256.378 136.843 259.644 135.606C262.546 134.506 265.064 132.953 266.701 131.25C267.722 130.188 270.383 126.107 273.964 123.791C276.213 122.337 279.564 120.913 280.593 121.957C280.828 122.196 281.013 122.576 281.101 122.939C281.454 124.395 281.872 127.568 282.396 130.361C282.867 132.872 283.292 134.766 283.81 136.324C284.515 138.443 285.156 140.691 286.519 144.332C287.821 147.81 289.263 152.223 289.932 153.749C291.038 156.268 293.975 159.569 295.193 165.802L295.216 165.923C295.756 168.684 296.366 171.802 294.672 173.528C292.903 175.331 290.613 176.746 288.344 177.528C286.07 178.312 283.309 179.497 277.486 182.59C272.982 184.981 265.447 188.811 261.553 191.125C256.17 194.324 254.262 195.753 252.403 196.994C250.053 198.562 248.196 200.921 243.101 202.683C241.18 203.347 239.659 203.897 237.766 204.131C235.845 204.369 231.126 205.761 226.932 203.97C224.538 202.947 222.909 201.734 221.718 200.909C219.663 199.485 217.298 197.646 215.203 195.884C213.706 194.625 211.846 193.191 207.938 190.82C205.936 189.605 204.317 188.465 201.689 187.286C196.352 184.891 193.949 183.55 191.692 182.857Z" fill="url(#paint9_radial_371_494)" stroke="#D594DC" stroke-width="3.39999" stroke-linecap="round"/>
<path d="M188.833 118.028C188.989 119.279 189.46 121.626 189.735 124.373C190.183 128.834 189.149 130.579 188.445 132.422C186.979 136.262 184.364 138.509 182.835 139.648C181.616 140.631 178.652 142.347 172.883 143.965C171.498 144.165 170.411 144.165 169.996 143.694" stroke="#D594DC" stroke-width="3.39999" stroke-linecap="round"/>
<path d="M48.5975 142.915C62.1395 148.95 63.6279 151.689 63.6279 151.689C63.6279 151.689 65.6261 153.54 67.8779 155.089C69.9862 156.778 71.215 158.773 72.8027 161.098C74.6349 163.779 76.3267 166.849 78.0779 169.539C80.8166 173.748 82.6093 175.697 86.0896 177.752C88.8368 179.373 95.8966 180.184 99.2952 181.056C101.76 181.688 104.553 182.112 108.298 182.319C112.158 182.532 116.09 183.169 120.944 183.584C125.121 183.94 132.197 184.729 135.911 185.764C138.445 186.47 143.609 187.912 147.509 189.632C150.53 190.965 153.676 191.971 157.634 193.851C161.924 195.89 163.438 197.854 165.628 199.289C167.879 200.765 168.473 202.537 170.728 204.792C173.616 207.68 176.424 210.206 178.598 212.803C180.776 215.405 182.612 217.284 183.795 219.694C185.558 223.282 189.984 228.407 192.483 227.435C193.394 227.081 194.745 225.885 196.699 223.352C198.601 220.887 200.059 218.392 201.055 215.97C202.388 212.732 204.39 209.745 203.016 204.792C201.662 199.913 198.7 193.866 197.178 191.163C195.633 188.418 194.4 186.063 190.963 181.14C181.717 167.899 180.149 165.288 177.414 161.627C172.019 154.406 170.3 151.67 161.429 141.343C154.916 133.761 143.125 119.96 136.248 112.732C128.157 104.227 126.276 102.434 123.278 100.128C116.885 95.2116 110.361 90.4014 101.781 85.9116C95.7974 82.7807 86.6134 78.1887 80.301 75.2475C73.9885 72.3064 70.6489 71.054 66.1117 69.7827L65.9969 69.7505C61.4812 68.4851 55.9856 66.9451 50.2863 66.6328C38.859 66.0066 31.9909 66.0272 28.703 66.5716C21.8783 67.7017 15.7447 68.8917 10.0862 73.3268C6.8583 75.8568 2.5428 79.7508 2.08708 85.4878C1.52837 92.5213 1.2244 103.626 3.72106 106.93C9.16063 114.128 14.9879 121.437 18.3341 124.488C20.7988 126.736 22.9968 128.476 25.8546 130.459C28.3889 132.218 31.109 134.341 33.6556 135.587C36.544 136.999 40.9215 139.495 48.5975 142.915Z" fill="url(#paint10_linear_371_494)"/>
<path d="M48.5975 142.915C62.1395 148.95 63.6279 151.689 63.6279 151.689C63.6279 151.689 65.6261 153.54 67.8779 155.089C69.9862 156.778 71.215 158.773 72.8027 161.098C74.6349 163.779 76.3267 166.849 78.0779 169.539C80.8166 173.748 82.6093 175.697 86.0896 177.752C88.8368 179.373 95.8966 180.184 99.2952 181.056C101.76 181.688 104.553 182.112 108.298 182.319C112.158 182.532 116.09 183.169 120.944 183.584C125.121 183.94 132.197 184.729 135.911 185.764C138.445 186.47 143.609 187.912 147.509 189.632C150.53 190.965 153.676 191.971 157.634 193.851C161.924 195.89 163.438 197.854 165.628 199.289C167.879 200.765 168.473 202.537 170.728 204.792C173.616 207.68 176.424 210.206 178.598 212.803C180.776 215.405 182.612 217.284 183.795 219.694C185.558 223.282 189.984 228.407 192.483 227.435C193.394 227.081 194.745 225.885 196.699 223.352C198.601 220.887 200.059 218.392 201.055 215.97C202.388 212.732 204.39 209.745 203.016 204.792C201.662 199.913 198.7 193.866 197.178 191.163C195.633 188.418 194.4 186.063 190.963 181.14C181.717 167.899 180.149 165.288 177.414 161.627C172.019 154.406 170.3 151.67 161.429 141.343C154.916 133.761 143.125 119.96 136.248 112.732C128.157 104.227 126.276 102.434 123.278 100.128C116.885 95.2116 110.361 90.4014 101.781 85.9116C95.7974 82.7807 86.6134 78.1887 80.301 75.2475C73.9885 72.3064 70.6489 71.054 66.1117 69.7827L65.9969 69.7505C61.4812 68.4851 55.9856 66.9451 50.2863 66.6328C38.859 66.0066 31.9909 66.0272 28.703 66.5716C21.8783 67.7017 15.7447 68.8917 10.0862 73.3268C6.8583 75.8568 2.5428 79.7508 2.08708 85.4878C1.52837 92.5213 1.2244 103.626 3.72106 106.93C9.16063 114.128 14.9879 121.437 18.3341 124.488C20.7988 126.736 22.9968 128.476 25.8546 130.459C28.3889 132.218 31.109 134.341 33.6556 135.587C36.544 136.999 40.9215 139.495 48.5975 142.915Z" fill="white" fill-opacity="0.5"/>
<path d="M48.5975 142.915C62.1395 148.95 63.6279 151.689 63.6279 151.689C63.6279 151.689 65.6261 153.54 67.8779 155.089C69.9862 156.778 71.215 158.773 72.8027 161.098C74.6349 163.779 76.3267 166.849 78.0779 169.539C80.8166 173.748 82.6093 175.697 86.0896 177.752C88.8368 179.373 95.8966 180.184 99.2952 181.056C101.76 181.688 104.553 182.112 108.298 182.319C112.158 182.532 116.09 183.169 120.944 183.584C125.121 183.94 132.197 184.729 135.911 185.764C138.445 186.47 143.609 187.912 147.509 189.632C150.53 190.965 153.676 191.971 157.634 193.851C161.924 195.89 163.438 197.854 165.628 199.289C167.879 200.765 168.473 202.537 170.728 204.792C173.616 207.68 176.424 210.206 178.598 212.803C180.776 215.405 182.612 217.284 183.795 219.694C185.558 223.282 189.984 228.407 192.483 227.435C193.394 227.081 194.745 225.885 196.699 223.352C198.601 220.887 200.059 218.392 201.055 215.97C202.388 212.732 204.39 209.745 203.016 204.792C201.662 199.913 198.7 193.866 197.178 191.163C195.633 188.418 194.4 186.063 190.963 181.14C181.717 167.899 180.149 165.288 177.414 161.627C172.019 154.406 170.3 151.67 161.429 141.343C154.916 133.761 143.125 119.96 136.248 112.732C128.157 104.227 126.276 102.434 123.278 100.128C116.885 95.2116 110.361 90.4014 101.781 85.9116C95.7974 82.7807 86.6134 78.1887 80.301 75.2475C73.9885 72.3064 70.6489 71.054 66.1117 69.7827L65.9969 69.7505C61.4812 68.4851 55.9856 66.9451 50.2863 66.6328C38.859 66.0066 31.9909 66.0272 28.703 66.5716C21.8783 67.7017 15.7447 68.8917 10.0862 73.3268C6.8583 75.8568 2.5428 79.7508 2.08708 85.4878C1.52837 92.5213 1.2244 103.626 3.72106 106.93C9.16063 114.128 14.9879 121.437 18.3341 124.488C20.7988 126.736 22.9968 128.476 25.8546 130.459C28.3889 132.218 31.109 134.341 33.6556 135.587C36.544 136.999 40.9215 139.495 48.5975 142.915Z" stroke="#D594DC" stroke-width="3.39999" stroke-linecap="round"/>
<path d="M327.453 268.555C329.519 274.215 334.526 284.438 334.526 284.438C334.526 284.438 335.401 287.497 335.617 288.373C335.833 289.249 335.833 290.111 335.722 290.987C334.513 294.922 332.514 299.353 330.597 302.752C328.63 306.243 326.193 309.861 323.182 313.321C319.479 317.576 315.872 320.844 313.93 324.975C312.29 328.465 309.049 332.414 309.799 339.361L309.843 339.768C310.371 344.666 310.915 349.706 312.198 354.829C313.401 359.63 314.491 365.232 317.107 368.878C320.159 373.133 322.686 377.928 327.029 379.875C332.369 382.271 337.981 384.242 342.173 382.144C348.055 379.199 352.847 377.638 357.967 373.424C365.311 367.382 373.999 357.863 378.112 351.525C380.945 347.159 384.978 341.269 386.821 335.4C389.233 327.72 393.452 318.154 392.586 310.671C392.044 305.981 391.556 301.653 390.733 298.151C389.861 294.438 388.976 290.383 387.354 286.382C385.494 281.797 383.226 276.621 381.69 272.66C379.821 267.836 377.532 260.448 373.295 254.244C370.239 249.77 367.577 245.041 362.177 240.191C357.82 236.28 354.43 234.356 350.853 232.796C347.363 231.273 339.462 229.167 334.513 231.498C331.244 233.038 328.637 236.515 327.221 240.005C325.806 243.496 322.646 247.092 324.179 256.467C324.944 261.143 325.992 264.55 327.453 268.555Z" fill="url(#paint11_linear_371_494)"/>
<path d="M327.453 268.555C329.519 274.215 334.526 284.438 334.526 284.438C334.526 284.438 335.401 287.497 335.617 288.373C335.833 289.249 335.833 290.111 335.722 290.987C334.513 294.922 332.514 299.353 330.597 302.752C328.63 306.243 326.193 309.861 323.182 313.321C319.479 317.576 315.872 320.844 313.93 324.975C312.29 328.465 309.049 332.414 309.799 339.361L309.843 339.768C310.371 344.666 310.915 349.706 312.198 354.829C313.401 359.63 314.491 365.232 317.107 368.878C320.159 373.133 322.686 377.928 327.029 379.875C332.369 382.271 337.981 384.242 342.173 382.144C348.055 379.199 352.847 377.638 357.967 373.424C365.311 367.382 373.999 357.863 378.112 351.525C380.945 347.159 384.978 341.269 386.821 335.4C389.233 327.72 393.452 318.154 392.586 310.671C392.044 305.981 391.556 301.653 390.733 298.151C389.861 294.438 388.976 290.383 387.354 286.382C385.494 281.797 383.226 276.621 381.69 272.66C379.821 267.836 377.532 260.448 373.295 254.244C370.239 249.77 367.577 245.041 362.177 240.191C357.82 236.28 354.43 234.356 350.853 232.796C347.363 231.273 339.462 229.167 334.513 231.498C331.244 233.038 328.637 236.515 327.221 240.005C325.806 243.496 322.646 247.092 324.179 256.467C324.944 261.143 325.992 264.55 327.453 268.555Z" fill="white" fill-opacity="0.5"/>
<path d="M327.453 268.555C329.519 274.215 334.526 284.438 334.526 284.438C334.526 284.438 335.401 287.497 335.617 288.373C335.833 289.249 335.833 290.111 335.722 290.987C334.513 294.922 332.514 299.353 330.597 302.752C328.63 306.243 326.193 309.861 323.182 313.321C319.479 317.576 315.872 320.844 313.93 324.975C312.29 328.465 309.049 332.414 309.799 339.361L309.843 339.768C310.371 344.666 310.915 349.706 312.198 354.829C313.401 359.63 314.491 365.232 317.107 368.878C320.159 373.133 322.686 377.928 327.029 379.875C332.369 382.271 337.981 384.242 342.173 382.144C348.055 379.199 352.847 377.638 357.967 373.424C365.311 367.382 373.999 357.863 378.112 351.525C380.945 347.159 384.978 341.269 386.821 335.4C389.233 327.72 393.452 318.154 392.586 310.671C392.044 305.981 391.556 301.653 390.733 298.151C389.861 294.438 388.976 290.383 387.354 286.382C385.494 281.797 383.226 276.621 381.69 272.66C379.821 267.836 377.532 260.448 373.295 254.244C370.239 249.77 367.577 245.041 362.177 240.191C357.82 236.28 354.43 234.356 350.853 232.796C347.363 231.273 339.462 229.167 334.513 231.498C331.244 233.038 328.637 236.515 327.221 240.005C325.806 243.496 322.646 247.092 324.179 256.467C324.944 261.143 325.992 264.55 327.453 268.555Z" stroke="#D594DC" stroke-width="3.39999" stroke-linecap="round"/>
<path d="M277.046 366.194C276.072 362.435 275.648 356.149 275.277 355.69C273.026 356.555 272.092 356.878 270.091 357.251C267.912 357.656 266.05 357.809 264.147 358.087C264.008 359.105 265.077 365.89 265.077 367.59C265.077 369.455 265.147 370.85 264.788 372.539C264.462 374.073 264.28 376.49 264.045 378.765C263.81 381.046 263.363 383.094 263.116 384.616C262.79 386.62 262.728 388.673 262.326 390.841C261.954 392.846 261.78 395.824 261.444 399.343C261.212 401.764 261.048 404.357 260.886 406.355C260.655 409.205 260.574 412.909 260.329 416.3C260.098 419.505 259.897 421.725 259.772 423.401C259.54 426.489 259.199 431.098 259.029 433.853C258.888 436.131 258.96 438.025 257.86 443.735C256.681 449.854 256.027 453.968 255.791 455.451L255.775 455.551C255.081 459.914 254.631 463.432 254.291 466.132C253.961 468.754 253.072 474.255 251.033 475.419C250.059 475.975 249.134 476.368 248.34 476.531C246.526 476.903 244.689 477.406 238.897 477.552C235.261 477.644 229.005 477.722 225.691 477.597C222.007 477.458 221.061 477.473 219.958 477.318C216.968 476.897 212.459 476.66 207.724 475.501C200.905 473.832 198.055 473.36 194.225 472.114C192.087 471.418 190.174 471.461 187.77 470.674C184.919 469.741 178.215 468.571 177.281 465.701C177.144 465.282 177.223 464.911 177.329 464.54C178.08 461.915 179.277 458.069 180.722 453.619C181.798 450.305 184.145 443.848 185.892 437.729C186.837 434.42 188.419 428.42 189.557 424.837C191.081 420.037 192.244 416.826 193.885 410.396C195.019 405.95 196.937 397.735 198.291 393.056C199.999 387.152 200.449 385.357 201.165 383.139C202.605 378.683 203.641 375.049 204.227 373.214C206.044 367.519 207.153 359.656 209.428 357.386C210.124 356.692 211.174 356.248 212.31 356.463C214.031 356.789 215.698 356.968 217.233 357.253C219.237 357.625 221.62 358.17 223.317 358.321C224.9 358.461 227.496 358.813 234.694 358.878C239.754 358.924 248.953 359.056 253.785 358.877C260.014 358.645 261.679 358.446 264.147 358.087C266.05 357.809 267.912 357.656 270.091 357.251C272.092 356.878 273.026 356.555 275.277 355.69C278.927 354.286 285.424 352.513 287.938 351.018C292.62 348.234 295.44 346.942 298.379 344.984C300.329 343.685 301.945 342.965 307.023 339.547C309.436 337.922 311.988 335.251 313.332 336.261L313.392 336.306C314.12 336.853 314.963 337.487 315.514 338.307C316.961 340.458 318.678 344.42 320.205 347.087C321.135 348.713 322.353 350.308 323.971 352.712C325.968 355.68 327.342 356.99 330.165 361.611C335.906 371.008 337.652 373.753 338.923 375.929C339.902 377.607 341.458 379.73 343.384 382.155C345.013 384.206 347.254 385.78 350.962 392.805C353.09 396.836 353.431 400.365 353.225 402.683C353.084 404.266 352.725 406.123 351.316 410.871C349.823 415.899 348.306 420.51 347.602 422.892C346.763 425.731 345.806 427.881 345.14 430.42C344.35 433.434 343.301 435.356 339.141 446.458C338.035 449.411 337.612 450.414 336.722 452.738C334.68 458.078 333.4 461.985 332.875 463.544C330.968 469.211 328.919 473.047 326.929 473.465C326.049 473.651 323.975 473.656 321.443 473.79C317.083 474.021 311.145 473.842 307.927 474.395C305.234 474.857 303.304 474.357 296.703 475.468C290.906 476.443 286.898 477.353 286.477 476.665C286.107 476.061 285.886 472.712 285.783 469.179C285.737 467.603 285.393 463.266 284.569 456.318C284.148 452.769 283.639 449.187 283.269 444.878C282.482 435.699 281.973 430.071 281.881 428.632C281.646 424.939 281.148 419.766 280.998 413.379C280.904 409.411 280.812 402.421 280.53 396.795C280.247 391.168 279.739 387.034 279.557 384.629C279.327 381.584 279.007 379.722 278.862 377.678C278.77 376.384 278.536 371.944 277.046 366.194Z" fill="url(#paint12_linear_371_494)"/>
<path d="M275.277 355.69C275.648 356.149 276.072 362.435 277.046 366.194C278.536 371.944 278.77 376.384 278.862 377.678C279.007 379.722 279.327 381.584 279.557 384.629C279.739 387.034 280.247 391.168 280.53 396.795C280.812 402.421 280.904 409.411 280.998 413.379C281.148 419.766 281.646 424.939 281.881 428.632C281.973 430.071 282.482 435.699 283.269 444.878C283.639 449.187 284.148 452.769 284.569 456.318C285.393 463.266 285.737 467.603 285.783 469.179C285.886 472.712 286.107 476.061 286.477 476.665C286.898 477.353 290.906 476.443 296.703 475.468C303.304 474.357 305.234 474.857 307.927 474.395C311.145 473.842 317.083 474.021 321.443 473.79C323.975 473.656 326.049 473.651 326.929 473.465C328.919 473.047 330.968 469.211 332.875 463.544C333.4 461.985 334.68 458.078 336.722 452.738C337.612 450.414 338.035 449.411 339.141 446.458C343.301 435.356 344.35 433.434 345.14 430.42C345.806 427.881 346.763 425.731 347.602 422.892C348.306 420.51 349.823 415.899 351.316 410.871C352.725 406.123 353.084 404.266 353.225 402.683C353.431 400.365 353.09 396.836 350.962 392.805C347.254 385.78 345.013 384.206 343.384 382.155C341.458 379.73 339.902 377.607 338.923 375.929C337.652 373.753 335.906 371.008 330.165 361.611C327.342 356.99 325.968 355.68 323.971 352.712C322.353 350.308 321.135 348.713 320.205 347.087C318.678 344.42 316.961 340.458 315.514 338.307C314.948 337.464 314.074 336.819 313.332 336.261C311.988 335.251 309.436 337.922 307.023 339.547C301.945 342.965 300.329 343.685 298.379 344.984C295.44 346.942 292.62 348.234 287.938 351.018C285.424 352.513 278.927 354.286 275.277 355.69ZM275.277 355.69C273.026 356.555 272.092 356.878 270.091 357.251C267.912 357.656 266.05 357.809 264.147 358.087M264.147 358.087C261.679 358.446 260.014 358.645 253.785 358.877C248.953 359.056 239.754 358.924 234.694 358.878C227.496 358.813 224.9 358.461 223.317 358.321C221.62 358.17 219.237 357.625 217.233 357.253C215.698 356.968 214.031 356.789 212.31 356.463C211.174 356.248 210.124 356.692 209.428 357.386C207.153 359.656 206.044 367.519 204.227 373.214C203.641 375.049 202.605 378.683 201.165 383.139C200.449 385.357 199.999 387.152 198.291 393.056C196.937 397.735 195.019 405.95 193.885 410.396C192.244 416.826 191.081 420.037 189.557 424.837C188.419 428.42 186.837 434.42 185.892 437.729C184.145 443.848 181.798 450.305 180.722 453.619C179.277 458.069 178.08 461.915 177.329 464.54C177.223 464.911 177.144 465.282 177.281 465.701C178.215 468.571 184.919 469.741 187.77 470.674C190.174 471.461 192.087 471.418 194.225 472.114C198.055 473.36 200.905 473.832 207.724 475.501C212.459 476.66 216.968 476.897 219.958 477.318C221.061 477.473 222.007 477.458 225.691 477.597C229.005 477.722 235.261 477.644 238.897 477.552C244.689 477.406 246.526 476.903 248.34 476.531C249.134 476.368 250.059 475.975 251.033 475.419C253.072 474.255 253.961 468.754 254.291 466.132C254.631 463.432 255.081 459.914 255.775 455.551C255.996 454.161 256.653 449.999 257.86 443.735C258.96 438.025 258.888 436.131 259.029 433.853C259.199 431.098 259.54 426.489 259.772 423.401C259.897 421.725 260.098 419.505 260.329 416.3C260.574 412.909 260.655 409.205 260.886 406.355C261.048 404.357 261.212 401.764 261.444 399.343C261.78 395.824 261.954 392.846 262.326 390.841C262.728 388.673 262.79 386.62 263.116 384.616C263.363 383.094 263.81 381.046 264.045 378.765C264.28 376.49 264.462 374.073 264.788 372.539C265.147 370.85 265.077 369.455 265.077 367.59C265.077 365.89 264.008 359.105 264.147 358.087Z" stroke="#D594DC" stroke-width="3.39999" stroke-linecap="round"/>
<path d="M81.9278 313.424C88.4246 310.375 95.0952 306.879 95.0952 306.879L95.0953 306.879C96.6509 306.257 98.1606 305.653 99.2266 305.273C102.434 304.28 105.472 303.063 108.071 301.919C111.584 301.233 114.866 300.183 119.815 299.71C123.022 299.403 138.327 298.999 147.575 299.483C151.993 299.714 155.106 298.682 171.016 303.843C179.444 306.577 182.728 307.686 188.533 311.242C195.631 315.59 200.396 318.374 204.461 322.069C208.57 325.802 212.383 328.212 220.333 338.485C223.979 343.197 229.235 350.655 233.589 359.375C235.403 363.008 238.128 368.322 241.113 377.79C242.474 382.106 243.456 388.903 242.641 397.295C241.955 404.363 241.693 408.493 241.113 412.082C239.97 419.169 239.271 425.511 238.295 428.443C237.229 431.645 236.032 436.655 234.482 440.183C232.8 444.007 231.284 450.593 226.617 456.436C221.801 462.464 217.753 466.664 212.935 470.251C205.77 475.586 197.168 481.35 189.681 484.8C180.945 488.826 177.045 490.264 172.613 491.498C167.965 492.793 158.839 494.237 149.037 493.392C143.73 492.935 141.096 492.895 139.001 492.477C135.192 491.718 132.431 491.583 129.858 491.183C127.415 490.803 121.876 490.063 115.592 488.588C112.005 487.747 108.071 486.751 104.381 485.766C99.8077 484.544 96.7668 484.305 86.7546 479.351C79.329 475.677 72.2401 472.276 66.4841 469.061C61.9615 466.536 56.5279 464.162 52.7401 460.883C44.3012 453.579 42.1689 451.647 40.0988 448.07C35.6083 440.311 34.2344 437.931 32.5612 432.682C31.3441 428.864 29.788 424.268 30.6624 411.24C30.8912 407.831 30.3015 402.827 31.1199 396.139C32.1219 387.952 32.7832 380.19 35.5648 373.082C38.9939 364.321 41.2797 357.505 42.7204 354.665C45.692 348.806 47.7222 344.239 51.3401 339.649C55.3091 334.614 58.5359 329.469 69.6616 321.035C74.0675 317.695 77.9944 315.27 81.9278 313.424Z" fill="url(#paint13_radial_371_494)" stroke="#D594DC" stroke-width="3.39999" stroke-linecap="round"/>
<path d="M52.0241 328.345C56.9046 327.006 61.0791 326.79 61.0791 326.79C61.0791 326.79 58.8487 330.19 58.238 332.149C57.7483 334.108 56.8014 336.025 56.8331 338.704C56.8972 344.137 56.7417 347.158 57.5704 349.883C58.6139 353.314 59.8893 356.944 61.1175 359.6C62.2821 362.118 64.7924 366.71 67.2378 370.001C71.4819 375.712 76.3995 380.547 79.0364 383.876C81.3566 386.805 82.7317 388.392 84.6029 390.972C88.3334 396.115 92.7981 404.084 91.433 409.986C90.8828 412.365 90.3515 415.083 88.4269 416.893C84.137 420.926 80.505 424.336 73.1289 425.808C69.4717 426.538 64.6469 427.072 59.6832 426.718L59.4689 426.703C55.3058 426.406 52.1051 426.178 49.0529 425.124C43.9046 423.347 37.6197 421.483 32.9111 417.535C28.0141 413.428 21.185 406.415 19.1629 400.526C16.5401 392.887 15.179 388.727 15.7515 379.623C16.0559 374.781 16.0201 370.368 16.5475 367.644C17.5305 362.566 17.4908 358.445 20.0414 354.25C23.5316 348.509 25.3144 344.984 35.4183 337.917C44.5575 331.526 47.8753 329.483 52.0241 328.345Z" fill="url(#paint14_linear_371_494)"/>
<path d="M52.0241 328.345C56.9046 327.006 61.0791 326.79 61.0791 326.79C61.0791 326.79 58.8487 330.19 58.238 332.149C57.7483 334.108 56.8014 336.025 56.8331 338.704C56.8972 344.137 56.7417 347.158 57.5704 349.883C58.6139 353.314 59.8893 356.944 61.1175 359.6C62.2821 362.118 64.7924 366.71 67.2378 370.001C71.4819 375.712 76.3995 380.547 79.0364 383.876C81.3566 386.805 82.7317 388.392 84.6029 390.972C88.3334 396.115 92.7981 404.084 91.433 409.986C90.8828 412.365 90.3515 415.083 88.4269 416.893C84.137 420.926 80.505 424.336 73.1289 425.808C69.4717 426.538 64.6469 427.072 59.6832 426.718L59.4689 426.703C55.3058 426.406 52.1051 426.178 49.0529 425.124C43.9046 423.347 37.6197 421.483 32.9111 417.535C28.0141 413.428 21.185 406.415 19.1629 400.526C16.5401 392.887 15.179 388.727 15.7515 379.623C16.0559 374.781 16.0201 370.368 16.5475 367.644C17.5305 362.566 17.4908 358.445 20.0414 354.25C23.5316 348.509 25.3144 344.984 35.4183 337.917C44.5575 331.526 47.8753 329.483 52.0241 328.345Z" fill="white" fill-opacity="0.5"/>
<path d="M52.0241 328.345C56.9046 327.006 61.0791 326.79 61.0791 326.79C61.0791 326.79 58.8487 330.19 58.238 332.149C57.7483 334.108 56.8014 336.025 56.8331 338.704C56.8972 344.137 56.7417 347.158 57.5704 349.883C58.6139 353.314 59.8893 356.944 61.1175 359.6C62.2821 362.118 64.7924 366.71 67.2378 370.001C71.4819 375.712 76.3995 380.547 79.0364 383.876C81.3566 386.805 82.7317 388.392 84.6029 390.972C88.3334 396.115 92.7981 404.084 91.433 409.986C90.8828 412.365 90.3515 415.083 88.4269 416.893C84.137 420.926 80.505 424.336 73.1289 425.808C69.4717 426.538 64.6469 427.072 59.6832 426.718L59.4689 426.703C55.3058 426.406 52.1051 426.178 49.0529 425.124C43.9046 423.347 37.6197 421.483 32.9111 417.535C28.0141 413.428 21.185 406.415 19.1629 400.526C16.5401 392.887 15.179 388.727 15.7515 379.623C16.0559 374.781 16.0201 370.368 16.5475 367.644C17.5305 362.566 17.4908 358.445 20.0414 354.25C23.5316 348.509 25.3144 344.984 35.4183 337.917C44.5575 331.526 47.8753 329.483 52.0241 328.345Z" stroke="#D594DC" stroke-width="3.39999" stroke-linecap="round"/>
<path d="M30.9846 450.396C33.0289 447.466 35.0637 443.905 35.821 443.909C36.3411 443.779 36.846 443.653 37.3585 443.46C38.3759 443.014 39.531 442.762 40.7377 442.827C42.8432 443.404 44.7039 444.897 46.9854 446.529C49.2152 448.124 51.3098 450.193 53.4856 451.499C55.7249 452.844 58.7675 455.64 70.9226 461.715C76.13 464.318 79.8962 466.289 85.1583 468.219C94.0107 471.466 99.7899 473.752 102.02 474.388C106.479 475.662 110.329 476.396 112.786 476.999C116.16 477.827 120.499 478.993 127.307 479.485C137.877 480.248 144.709 480.875 150.535 480.946C155.727 481.009 165.193 481.009 170.316 480.944C175.439 480.879 176.196 480.735 177.291 480.69C181.942 480.496 187.679 479.508 192.136 480.628C194.686 481.269 197.242 481.587 198.313 483.375C198.885 484.329 199.359 486.409 199.073 488.991C198.755 491.856 198.917 494.592 197.539 497.082C195.55 500.676 193.25 505.174 190.459 508.367C187.38 511.89 183.64 515.54 181.087 516.967C178.346 518.499 176.088 520.307 171.026 520.341C161.594 520.404 154.501 520.122 151.355 520.084C146.069 520.021 142.4 519.778 140.076 519.702C130.254 519.379 124.937 518.794 121.612 518.555C118.933 518.361 116.385 518.126 102.02 514.85C98.4129 514.028 96.2851 513.069 93.6243 512.24C90.7596 511.347 87.3406 509.631 80.1708 507.394C78.1418 506.761 73.8982 505.816 66.8664 502.141C58.3411 497.685 52.9577 494.72 51.491 493.558C49.9649 492.349 43.6765 489.11 36.5572 483.539C32.4935 480.359 29.6453 478 28.2308 475.327C27.659 474.247 26.9783 468.628 27.8559 460.766C28.3015 456.775 28.911 453.367 30.9846 450.396Z" fill="url(#paint15_linear_371_494)" stroke="#D594DC" stroke-width="3.39999" stroke-linecap="round"/>
<path d="M249.254 156.071C249.334 154.426 251.472 153.844 252.374 155.222L263.221 171.782C264.431 173.63 266.695 174.489 268.827 173.909L287.928 168.71C289.517 168.278 290.731 170.131 289.699 171.415L277.301 186.848C275.918 188.571 275.801 190.989 277.011 192.837L287.858 209.397C288.761 210.774 287.373 212.501 285.833 211.917L267.324 204.896C265.258 204.112 262.922 204.748 261.538 206.47L249.141 221.903C248.11 223.187 246.038 222.401 246.118 220.756L247.076 200.983C247.183 198.777 245.857 196.752 243.791 195.968L225.282 188.946C223.743 188.362 223.85 186.149 225.439 185.716L244.541 180.518C246.673 179.938 248.188 178.05 248.295 175.844L249.254 156.071Z" fill="url(#paint16_radial_371_494)" stroke="#D594DC" stroke-width="3.39999"/>
<path opacity="0.4" d="M188.709 334.061C182.485 330.949 175.28 330.437 168.679 332.638C162.077 334.838 156.62 339.571 153.508 345.795C150.397 352.019 149.884 359.224 152.085 365.825C154.285 372.427 159.018 377.884 165.242 380.995C165.242 380.995 165.242 380.995 165.242 380.995C162.828 379.766 161.625 378.819 160.69 378.094C159.781 377.371 159.185 376.801 158.964 376.592C158.371 376.026 158.001 375.628 157.709 375.308C157.233 374.78 157.051 374.552 156.866 374.326C156.598 373.993 156.496 373.853 156.445 373.784C156.344 373.647 156.395 373.714 156.458 373.806C156.594 374.003 156.827 374.349 157.072 374.721C160.81 380.471 165.062 387.556 169.049 394.243C169.051 394.246 169.053 394.25 169.056 394.254C170.676 396.79 172.292 401.267 174.271 409.613L174.092 408.645C174.095 408.656 174.097 408.667 174.1 408.678C174.65 411.095 177.08 414.025 178.952 415.646C178.96 415.65 178.968 415.655 178.976 415.658C179.206 415.759 179.961 415.659 181.141 414.922C182.539 414.235 185.329 410.926 188.716 409.988C191.984 409.18 193.275 411.152 193.855 412.531C194.112 413.678 194.792 415.454 195.402 416.932C196.031 418.441 196.539 419.529 197.158 420.494C197.777 421.459 198.555 422.375 199.663 423.577C200.752 424.747 202.082 426.106 203.018 426.819C203.018 426.819 203.018 426.819 203.018 426.819C204.555 427.575 206.81 428.901 210.788 427.191C214.896 425.354 217.978 420.887 219.492 419.073C220.768 417.445 221.537 416.447 221.768 415.652C221.776 415.623 221.784 415.595 221.792 415.567C223.583 409.761 225.184 405.286 224.55 400.373C224.547 400.353 224.544 400.332 224.542 400.311L224.363 399.343C223.001 391.444 221.248 379.263 214.172 367.457C214.163 367.443 214.155 367.429 214.147 367.415C209.896 360.304 205.907 353.583 200.898 345.862C200.506 345.269 200.112 344.676 199.6 343.934C199.328 343.543 199.062 343.16 198.614 342.555C198.402 342.268 198.107 341.874 197.679 341.344C197.39 340.989 197.126 340.663 196.555 340.031C196.209 339.65 195.788 339.2 195.151 338.592C194.913 338.367 194.278 337.761 193.34 337.015C192.375 336.267 191.146 335.302 188.709 334.061Z" fill="white"/>
<path opacity="0.4" d="M219.355 283.978C217.872 283.766 216.366 284.152 215.167 285.051C213.969 285.95 213.177 287.288 212.965 288.771C212.753 290.254 213.139 291.76 214.038 292.959C214.937 294.157 216.275 294.95 217.758 295.162C217.758 295.162 217.758 295.162 217.758 295.162C218.55 295.275 219.339 295.335 220.115 295.35C226.96 295.368 232.264 292.594 236.836 289.735L237.115 289.545C237.115 289.544 237.115 289.544 237.116 289.544C240.371 287.143 242.468 283.759 244.731 280.452C244.732 280.451 244.732 280.451 244.732 280.45C245.7 279.02 246.702 277.308 247.307 275.468C247.523 274.821 247.684 274.193 247.817 273.6C247.938 273.022 247.806 272.364 247.509 271.796C247.209 271.226 246.769 270.792 246.226 270.565C245.684 270.337 245.066 270.328 244.449 270.514C243.836 270.702 243.275 271.069 242.948 271.561C242.948 271.561 242.948 271.561 242.948 271.561C242.651 271.996 242.357 272.384 242.056 272.723C241.234 273.651 240.26 274.37 239.109 275.21C239.109 275.21 239.109 275.21 239.108 275.211C236.404 277.154 233.025 278.533 230.46 280.415C230.46 280.416 230.46 280.416 230.459 280.416L230.738 280.225C227.175 282.533 223.289 284.137 220.326 284.054C219.989 284.048 219.665 284.022 219.355 283.978Z" fill="white"/>
<path opacity="0.4" d="M303.617 272.8C302.252 273.482 301.215 274.678 300.732 276.126C300.25 277.573 300.362 279.153 301.044 280.517C301.727 281.882 302.923 282.92 304.37 283.402C305.818 283.884 307.397 283.772 308.762 283.09C308.762 283.09 308.762 283.09 308.762 283.09C309.085 282.928 309.405 282.765 309.728 282.595C312.492 281.066 315.311 279.62 318.215 276.164L318.304 276.048C318.305 276.048 318.305 276.048 318.305 276.047C319.209 274.858 319.552 273.155 320.04 271.874C320.04 271.874 320.04 271.874 320.04 271.874C320.802 269.952 321.47 267.931 321.924 265.992C322.007 265.642 322.084 265.293 322.157 264.945C322.34 263.998 322.115 262.956 321.601 262.071C321.084 261.184 320.32 260.527 319.407 260.221C318.495 259.915 317.489 259.978 316.542 260.373C315.598 260.769 314.791 261.465 314.366 262.331C314.366 262.331 314.366 262.331 314.366 262.331C314.232 262.596 314.097 262.857 313.96 263.115C313.196 264.564 312.394 265.843 311.395 267.061C311.395 267.061 311.394 267.061 311.394 267.062C310.681 267.95 309.701 268.35 309.106 269.137C309.106 269.137 309.106 269.138 309.106 269.138L309.196 269.022C308.556 269.879 306.479 271.33 304.376 272.41C304.126 272.542 303.875 272.671 303.617 272.8Z" fill="white"/>
<path opacity="0.4" d="M13.8718 89.0946C13.8718 90.4078 14.3935 91.6672 15.3221 92.5958C16.2506 93.5243 17.51 94.046 18.8232 94.046C20.1364 94.046 21.3958 93.5243 22.3244 92.5958C23.253 91.6672 23.7746 90.4078 23.7746 89.0946C23.7632 89.7203 23.683 89.9002 23.6531 90.0321C23.6183 90.1502 23.6059 90.1714 23.6089 90.1656C23.6155 90.1478 23.6779 90.0169 23.7615 89.8691C23.9334 89.5621 24.1854 89.1699 24.4643 88.7681C25.7755 86.8929 27.4873 84.8945 29.2241 82.9825C29.2235 82.9832 29.2229 82.9838 29.2223 82.9844C28.9509 83.1338 30.1813 82.4157 31.5475 82.1453C32.9399 81.8149 34.5716 81.593 36.241 81.4314C39.5913 81.1132 43.1372 81.0067 46.7018 80.9388L45.9831 80.8925C46.005 80.8954 46.0268 80.8982 46.0486 80.9011C54.0486 81.9354 62.2337 82.9097 70.2204 85.6631C70.2275 85.6655 70.2346 85.668 70.2416 85.6704C72.8477 86.571 75.5358 87.2972 78.22 88.0316C79.3798 88.3489 80.5385 88.6677 81.69 89.0029C81.8199 89.0404 81.9702 89.0219 82.1026 88.9624C82.2353 88.9023 82.3391 88.8062 82.3966 88.6841C82.454 88.562 82.4619 88.4207 82.4237 88.2802C82.3851 88.1403 82.3036 88.0126 82.1919 87.9364C82.1919 87.9364 82.1919 87.9364 82.1919 87.9364C81.1996 87.2628 80.2155 86.5731 79.2317 85.8818C76.9549 84.2816 74.682 82.6732 72.327 81.2391C72.3206 81.2352 72.3141 81.2313 72.3077 81.2274C64.8005 76.64 56.3912 72.5759 47.3986 71.2667C47.3743 71.2631 47.35 71.2595 47.3256 71.2559L46.607 71.2096C42.9123 71.2211 39.2019 71.2778 35.3346 71.612C31.3903 72.2969 27.6356 71.4196 21.9224 76.2928C21.9156 76.3002 21.9089 76.3077 21.9021 76.3151C19.9866 78.4334 18.1364 80.5504 16.3263 83.1254C15.9277 83.7028 15.5372 84.2927 15.1239 85.0259C14.918 85.3954 14.7083 85.7903 14.4839 86.3186C14.2808 86.9029 13.9461 87.3456 13.8718 89.0946Z" fill="white"/>
<path opacity="0.4" d="M175.837 22.6963C175.464 23.8147 175.551 25.0354 176.078 26.0898C176.605 27.1442 177.53 27.9461 178.648 28.3189C179.766 28.6917 180.987 28.6049 182.042 28.0777C183.096 27.5505 183.898 26.626 184.271 25.5076C184.271 25.5076 184.271 25.5076 184.271 25.5076C184.477 24.8892 184.722 24.2934 185.005 23.7233C186.388 20.923 188.714 18.826 191.621 17.7781C191.626 17.7763 191.631 17.7745 191.636 17.7727L188.732 17.8163C197.029 20.7559 206.131 26.3414 213.526 32.8377L213.535 32.8467C213.537 32.8483 213.538 32.85 213.54 32.8517C214.142 33.4055 214.832 33.8748 215.551 34.3181C216.309 34.7857 217.101 35.222 217.837 35.6883C218.088 35.8467 218.426 35.9011 218.75 35.8661C219.076 35.8295 219.362 35.7065 219.571 35.4974C219.78 35.2884 219.903 35.0027 219.94 34.6767C219.975 34.3522 219.92 34.014 219.762 33.7631C219.762 33.7631 219.762 33.7631 219.762 33.7631C219.294 33.0279 218.89 32.2566 218.465 31.5002C218.062 30.7833 217.641 30.0838 217.131 29.4611C217.13 29.4592 217.128 29.4573 217.127 29.4555L217.135 29.4644C210.092 21.3718 202.697 13.497 191.51 9.37124L190.05 8.8912L188.606 9.41483C188.598 9.41791 188.589 9.421 188.581 9.42409C183.621 11.1729 179.321 15.0711 177.045 19.7655C176.57 20.7197 176.169 21.6994 175.837 22.6963Z" fill="white"/>
<path opacity="0.4" d="M47.7823 451.28C46.8763 450.374 45.6475 449.865 44.3662 449.865C43.0849 449.865 41.8561 450.374 40.9501 451.28C40.0441 452.186 39.5352 453.415 39.5352 454.696C39.5352 455.978 40.0441 457.206 40.9501 458.112C40.9501 458.112 40.9501 458.112 40.9501 458.112C42.1611 459.323 43.4058 460.513 44.686 461.671C53.1232 469.357 62.8738 475.078 72.5608 480.132C72.5654 480.134 72.5699 480.137 72.5745 480.139C82.7768 485.272 93.3911 486.623 103.646 488.275C103.647 488.276 103.647 488.276 103.648 488.276C111.177 489.464 118.846 489.29 126.242 489.853C126.243 489.853 126.243 489.853 126.244 489.853C127.236 489.936 128.223 490.02 129.205 490.11C130.832 490.258 132.411 490.422 134.027 490.629C134.575 490.698 135.128 490.546 135.565 490.207C136.001 489.867 136.284 489.369 136.353 488.82C136.421 488.272 136.269 487.719 135.93 487.283C135.591 486.847 135.092 486.563 134.544 486.495C134.544 486.495 134.544 486.495 134.544 486.495C132.907 486.284 131.227 486.11 129.585 485.96C128.586 485.869 127.589 485.784 126.589 485.7C126.588 485.7 126.588 485.7 126.587 485.7C119.19 485.136 112.081 483.213 105.065 481.381C105.065 481.381 105.065 481.381 105.064 481.381C95.1651 478.799 85.3188 475.791 77.0344 471.568C77.03 471.566 77.0256 471.563 77.0212 471.561C67.6318 466.666 58.6833 461.36 51.1691 454.507C50.0169 453.464 48.8907 452.389 47.7823 451.28Z" fill="white"/>
<defs>
<radialGradient id="paint0_radial_371_494" cx="0" cy="0" r="1" gradientUnits="userSpaceOnUse" gradientTransform="translate(107.827 526.539) rotate(90) scale(22.95)">
<stop stop-color="#F5DCC6"/>
<stop offset="1" stop-color="#D594DC"/>
</radialGradient>
<linearGradient id="paint1_linear_371_494" x1="211.714" y1="477.117" x2="211.714" y2="631.56" gradientUnits="userSpaceOnUse">
<stop stop-color="#D594DC"/>
<stop offset="1" stop-color="#699DE6"/>
</linearGradient>
<linearGradient id="paint2_linear_371_494" x1="229.996" y1="349.748" x2="229.996" y2="497.335" gradientUnits="userSpaceOnUse">
<stop stop-color="#D594DC"/>
<stop offset="1" stop-color="#F5DCC6"/>
</linearGradient>
<linearGradient id="paint3_linear_371_494" x1="213.701" y1="263.923" x2="213.701" y2="360.656" gradientUnits="userSpaceOnUse">
<stop stop-color="#D594DC"/>
<stop offset="1" stop-color="#699DE6"/>
</linearGradient>
<linearGradient id="paint4_linear_371_494" x1="224.228" y1="188.909" x2="224.228" y2="328.113" gradientUnits="userSpaceOnUse">
<stop stop-color="#D594DC"/>
<stop offset="1" stop-color="#F5DCC6"/>
</linearGradient>
<radialGradient id="paint5_radial_371_494" cx="0" cy="0" r="1" gradientUnits="userSpaceOnUse" gradientTransform="translate(251.644 266.305) rotate(90) scale(38.181 80.5121)">
<stop stop-color="#D594DC"/>
<stop offset="1" stop-color="#699DE6"/>
</radialGradient>
<radialGradient id="paint6_radial_371_494" cx="0" cy="0" r="1" gradientUnits="userSpaceOnUse" gradientTransform="translate(206.274 182.7) rotate(90) scale(80.6056 138.291)">
<stop stop-color="#D594DC"/>
<stop offset="1" stop-color="#699DE6"/>
</radialGradient>
<radialGradient id="paint7_radial_371_494" cx="0" cy="0" r="1" gradientUnits="userSpaceOnUse" gradientTransform="translate(218.528 105.029) rotate(90) scale(31.3612 60.0703)">
<stop stop-color="#D594DC"/>
<stop offset="1" stop-color="#699DE6"/>
</radialGradient>
<linearGradient id="paint8_linear_371_494" x1="219.357" y1="1.7002" x2="219.357" y2="114.979" gradientUnits="userSpaceOnUse">
<stop stop-color="#D594DC"/>
<stop offset="1" stop-color="#F5DCC6"/>
</linearGradient>
<radialGradient id="paint9_radial_371_494" cx="0" cy="0" r="1" gradientUnits="userSpaceOnUse" gradientTransform="translate(206.858 143.899) rotate(90) scale(60.9716 88.9237)">
<stop stop-color="#D594DC"/>
<stop offset="1" stop-color="#699DE6"/>
</radialGradient>
<linearGradient id="paint10_linear_371_494" x1="102.589" y1="66.1631" x2="102.589" y2="227.556" gradientUnits="userSpaceOnUse">
<stop stop-color="#D594DC"/>
<stop offset="1" stop-color="#F5DCC6"/>
</linearGradient>
<linearGradient id="paint11_linear_371_494" x1="351.195" y1="230.459" x2="351.195" y2="383.032" gradientUnits="userSpaceOnUse">
<stop stop-color="#D594DC"/>
<stop offset="1" stop-color="#F5DCC6"/>
</linearGradient>
<linearGradient id="paint12_linear_371_494" x1="265.242" y1="336.039" x2="265.242" y2="477.662" gradientUnits="userSpaceOnUse">
<stop stop-color="#D594DC"/>
<stop offset="1" stop-color="#699DE6"/>
</linearGradient>
<radialGradient id="paint13_radial_371_494" cx="0" cy="0" r="1" gradientUnits="userSpaceOnUse" gradientTransform="translate(136.673 396.452) rotate(90) scale(97.1928 106.265)">
<stop stop-color="#F5DCC6"/>
<stop offset="0.581731" stop-color="#D594DC"/>
<stop offset="1" stop-color="#699DE6"/>
</radialGradient>
<linearGradient id="paint14_linear_371_494" x1="53.6533" y1="326.79" x2="53.6533" y2="426.83" gradientUnits="userSpaceOnUse">
<stop stop-color="#D594DC"/>
<stop offset="1" stop-color="#F5DCC6"/>
</linearGradient>
<linearGradient id="paint15_linear_371_494" x1="113.297" y1="442.816" x2="113.297" y2="520.35" gradientUnits="userSpaceOnUse">
<stop stop-color="#D594DC"/>
<stop offset="1" stop-color="#F5DCC6"/>
</linearGradient>
<radialGradient id="paint16_radial_371_494" cx="0" cy="0" r="1" gradientUnits="userSpaceOnUse" gradientTransform="translate(259.893 189.005) rotate(74.7759) scale(45.0499)">
<stop stop-color="#F5DCC6"/>
<stop offset="1" stop-color="#D594DC"/>
</radialGradient>
</defs>
</svg>
