<svg width="249" height="138" viewBox="0 0 249 138" fill="none" xmlns="http://www.w3.org/2000/svg">
<path d="M248.452 93.1919V136.293H240.938V130.679C240.247 132.579 238.721 134.22 236.36 135.602C233.999 136.926 231.292 137.589 228.24 137.589C223.231 137.589 219.401 136.149 216.753 133.27C214.104 130.333 212.779 126.158 212.779 120.746V93.1919H220.467V119.709C220.467 123.106 221.273 125.755 222.885 127.656C224.555 129.556 226.974 130.506 230.141 130.506C233.365 130.506 235.928 129.383 237.828 127.137C239.786 124.892 240.765 121.926 240.765 118.241V93.1919H248.452Z" fill="#D594DC"/>
<path d="M183.225 137.588C179.31 137.588 175.855 136.638 172.86 134.738C169.924 132.838 167.649 130.189 166.037 126.792C164.424 123.337 163.618 119.306 163.618 114.699C163.618 110.092 164.424 106.09 166.037 102.693C167.649 99.2379 169.924 96.5891 172.86 94.7464C175.855 92.8462 179.31 91.8961 183.225 91.8961C186.047 91.8961 188.696 92.5871 191.172 93.9691C193.705 95.2935 195.375 97.021 196.182 99.1516V75.3984H203.869V136.293H196.354V130.247C195.836 131.629 194.886 132.895 193.504 134.047C192.18 135.141 190.625 136.005 188.84 136.638C187.055 137.272 185.183 137.588 183.225 137.588ZM184.175 130.592C186.767 130.592 188.984 129.959 190.826 128.692C192.727 127.367 194.166 125.525 195.145 123.164C196.182 120.803 196.7 117.981 196.7 114.699C196.7 109.747 195.577 105.889 193.331 103.125C191.085 100.303 188.033 98.8924 184.175 98.8924C180.375 98.8924 177.323 100.303 175.02 103.125C172.774 105.889 171.651 109.747 171.651 114.699C171.651 117.981 172.14 120.803 173.119 123.164C174.156 125.525 175.624 127.367 177.525 128.692C179.425 129.959 181.642 130.592 184.175 130.592Z" fill="#D594DC"/>
<path d="M117.776 136.293V75.3984H125.982V136.293H117.776ZM119.763 136.293V128.778H160.705V136.293H119.763ZM119.763 108.998V101.57H156.818V108.998H119.763ZM119.763 82.9131V75.3984H160.705V82.9131H119.763Z" fill="#D594DC"/>
<path d="M76.3848 136.293V93.1916H83.8994V99.6697C84.3601 97.9422 85.2526 96.5027 86.577 95.351C87.959 94.1993 89.5426 93.3356 91.3276 92.7597C93.1703 92.1839 95.013 91.896 96.8556 91.896C96.9708 91.896 97.086 91.896 97.2011 91.896C97.3739 91.896 97.5179 91.896 97.633 91.896V99.5834C97.5179 99.5834 97.3739 99.5834 97.2011 99.5834C97.086 99.5834 96.9708 99.5834 96.8556 99.5834C94.4947 99.5834 92.3353 100.073 90.3775 101.052C88.4773 102.031 86.9513 103.585 85.7996 105.716C84.648 107.789 84.0721 110.553 84.0721 114.008V136.293H76.3848Z" fill="#D594DC"/>
<path d="M48.5375 137.588C44.5067 137.588 40.9077 136.638 37.7406 134.738C34.6311 132.78 32.1551 130.074 30.3124 126.619C28.5273 123.164 27.6348 119.19 27.6348 114.699C27.6348 110.15 28.5273 106.177 30.3124 102.779C32.1551 99.3818 34.6311 96.733 37.7406 94.8327C40.9077 92.8749 44.5067 91.896 48.5375 91.896C52.5684 91.896 56.1385 92.8749 59.248 94.8327C62.4151 96.733 64.8912 99.3818 66.6763 102.779C68.5189 106.177 69.4403 110.15 69.4403 114.699C69.4403 119.19 68.5189 123.164 66.6763 126.619C64.8912 130.074 62.4151 132.78 59.248 134.738C56.1385 136.638 52.5684 137.588 48.5375 137.588ZM48.6239 130.592C51.1 130.592 53.2881 129.959 55.1884 128.692C57.1462 127.367 58.6722 125.525 59.7663 123.164C60.8604 120.803 61.4074 117.981 61.4074 114.699C61.4074 111.359 60.8604 108.538 59.7663 106.234C58.6722 103.873 57.1462 102.059 55.1884 100.793C53.2306 99.5258 51.0136 98.8924 48.5375 98.8924C46.119 98.8924 43.9309 99.5258 41.973 100.793C40.0152 102.059 38.4604 103.873 37.3088 106.234C36.2147 108.538 35.6676 111.359 35.6676 114.699C35.6676 117.981 36.2147 120.803 37.3088 123.164C38.4604 125.525 40.0152 127.367 41.973 128.692C43.9309 129.959 46.1478 130.592 48.6239 130.592Z" fill="#D594DC"/>
<path d="M8.46475 136.293V89.4775C8.46475 86.4832 9.04059 83.8632 10.1923 81.6174C11.3439 79.3717 12.985 77.6442 15.1156 76.4349C17.2462 75.1681 19.7799 74.5347 22.7166 74.5347C23.2925 74.5347 23.8107 74.5635 24.2714 74.621C24.7896 74.621 25.2503 74.6498 25.6534 74.7074V81.3583C25.2503 81.3583 24.9048 81.3583 24.6169 81.3583C24.3865 81.3583 24.0986 81.3583 23.7531 81.3583C21.3346 81.3583 19.4632 82.0781 18.1388 83.5177C16.8143 84.8997 16.1521 87.0015 16.1521 89.823V136.293H8.46475ZM0 100.015V93.1917H25.6534V100.015H0Z" fill="#D594DC"/>
<path d="M189.517 62.1899C186.696 62.1899 184.162 61.6429 181.916 60.5488C179.728 59.4547 177.972 57.9864 176.647 56.1437C175.38 54.2434 174.747 52.0553 174.747 49.5792C174.747 46.3545 175.784 43.7345 177.857 41.7191C179.93 39.7036 182.895 38.3216 186.753 37.5731L196.859 35.5001C198.875 35.097 200.256 34.4636 201.005 33.5998C201.754 32.7361 202.128 31.4692 202.128 29.7993L203.164 39.9052L188.653 43.0147C186.696 43.4178 185.17 44.1376 184.076 45.1741C183.039 46.2106 182.521 47.6501 182.521 49.4928C182.521 51.3931 183.241 52.919 184.68 54.0707C186.177 55.2224 188.193 55.7982 190.726 55.7982C192.799 55.7982 194.7 55.3375 196.427 54.4162C198.212 53.4949 199.594 52.228 200.573 50.6157C201.61 48.9458 202.128 47.0455 202.128 44.9149V29.7993C202.128 27.7263 201.379 26.114 199.882 24.9623C198.443 23.7531 196.456 23.1484 193.922 23.1484C190.698 23.1484 188.222 23.9546 186.494 25.5669C184.767 27.1793 183.759 29.4538 183.471 32.3906L175.87 31.3541C176.158 28.3021 177.079 25.6821 178.634 23.4939C180.189 21.2482 182.262 19.5207 184.853 18.3114C187.444 17.1022 190.525 16.4976 194.095 16.4976C199.162 16.4976 203.049 17.7932 205.756 20.3844C208.462 22.9757 209.815 26.3155 209.815 30.4039V60.8943H202.301V55.2799C201.552 57.1802 200.026 58.8213 197.723 60.2033C195.477 61.5277 192.742 62.1899 189.517 62.1899Z" fill="#D594DC"/>
<path d="M114.367 60.8943V17.7932H121.882V22.6302C122.458 20.9603 123.724 19.5207 125.682 18.3114C127.64 17.1022 129.915 16.4976 132.506 16.4976C135.04 16.4976 137.372 17.0446 139.502 18.1387C141.633 19.2328 143.015 20.8739 143.648 23.0621C144.397 21.0466 145.779 19.4631 147.794 18.3114C149.867 17.1022 152.171 16.4976 154.704 16.4976C159.081 16.4976 162.42 17.7644 164.724 20.2981C167.027 22.8317 168.179 26.5171 168.179 31.3541V60.8943H160.491V32.3906C160.491 29.5114 159.858 27.352 158.591 25.9124C157.382 24.4153 155.597 23.6667 153.236 23.6667C150.645 23.6667 148.629 24.588 147.19 26.4307C145.808 28.2158 145.117 30.8358 145.117 34.2908V60.8943H137.429V32.3906C137.429 29.5114 136.796 27.352 135.529 25.9124C134.32 24.4153 132.535 23.6667 130.174 23.6667C127.583 23.6667 125.567 24.588 124.128 26.4307C122.746 28.2158 122.055 30.8358 122.055 34.2908V60.8943H114.367Z" fill="#D594DC"/>
<path d="M85.8362 76.4418C80.481 76.4418 76.1334 75.2038 72.7936 72.7277C69.4538 70.2516 67.3232 66.7966 66.4018 62.3627L73.9165 60.7216C74.5499 63.5431 75.9031 65.7313 77.9761 67.2861C80.0491 68.8984 82.6691 69.7046 85.8362 69.7046C89.6367 69.7046 92.4871 68.7257 94.3873 66.7678C96.3452 64.8676 97.3241 62.0172 97.3241 58.2167V51.3931C96.4603 53.5236 94.848 55.2511 92.4871 56.5756C90.1838 57.9 87.5925 58.5622 84.7133 58.5622C80.9128 58.5622 77.573 57.6984 74.6938 55.9709C71.8147 54.1859 69.5689 51.7098 67.9566 48.5427C66.3443 45.3756 65.5381 41.7191 65.5381 37.5731C65.5381 33.3695 66.3443 29.6841 67.9566 26.5171C69.5689 23.35 71.7859 20.9027 74.6075 19.1752C77.4866 17.3901 80.8553 16.4976 84.7133 16.4976C87.5925 16.4976 90.2126 17.1598 92.5735 18.4842C94.992 19.751 96.6331 21.3346 97.4968 23.2348V17.7932H105.011V58.2167C105.011 62.0172 104.263 65.2706 102.766 67.9771C101.269 70.7411 99.0804 72.8429 96.2012 74.2824C93.3796 75.722 89.9246 76.4418 85.8362 76.4418ZM85.6635 51.7386C89.3488 51.7386 92.2856 50.4429 94.4737 47.8517C96.7195 45.2604 97.8423 41.8342 97.8423 37.5731C97.8423 33.2543 96.7195 29.7993 94.4737 27.2081C92.228 24.6168 89.2912 23.3212 85.6635 23.3212C81.9781 23.3212 79.0126 24.6168 76.7668 27.2081C74.5787 29.7993 73.4846 33.2543 73.4846 37.5731C73.4846 41.8342 74.6075 45.2604 76.8532 47.8517C79.099 50.4429 82.0357 51.7386 85.6635 51.7386Z" fill="#D594DC"/>
<path d="M50.8872 60.8944V17.7933H58.5745V60.8944H50.8872ZM50.8008 12.2653V0H58.6609V12.2653H50.8008Z" fill="#D594DC"/>
<path d="M4.14551 60.8944V0H12.3511V60.8944H4.14551ZM5.78663 35.241V27.8128H42.8415V35.241H5.78663ZM5.78663 7.51463V0H45.8646V7.51463H5.78663Z" fill="#D594DC"/>
</svg>
