<svg width="725" height="275" viewBox="0 0 725 275" fill="none" xmlns="http://www.w3.org/2000/svg">
<g clip-path="url(#clip0_14_391)">
<path d="M601.232 79C617.809 79 634.385 79 651.464 79C649.335 92.3747 647.204 105.748 645.019 119.113C644.732 120.921 644.469 122.731 644.214 124.544C644.486 124.305 644.758 124.066 645.038 123.82C649.105 120.398 653.55 117.784 658.196 115.228C658.669 114.966 659.142 114.704 659.629 114.434C662.813 112.837 666.202 111.913 669.622 110.958C670.099 110.824 670.577 110.69 671.069 110.552C683.868 107.137 700.202 107.403 711.969 113.979C713.075 114.702 714.123 115.446 715.161 116.263C715.799 116.743 715.799 116.743 716.449 117.232C721.108 121.178 724.558 127.753 725.092 133.877C725.266 140.077 724.805 145.838 723.533 151.909C722.885 155.104 722.45 158.324 721.999 161.551C721.247 166.92 720.389 172.272 719.53 177.624C719.371 178.619 719.212 179.614 719.054 180.609C718.899 181.577 718.744 182.546 718.59 183.514C718.52 183.945 718.451 184.377 718.38 184.823C717.839 188.194 717.276 191.561 716.714 194.93C700.138 194.93 683.561 194.93 666.482 194.93C668.242 181.447 668.242 181.447 669.298 175.651C670.2 170.549 671.052 165.443 671.823 160.319C671.911 159.741 672 159.163 672.091 158.568C672.909 153.046 673.111 148.369 670.042 143.499C666.444 140.216 662.005 139.338 657.246 139.415C652.082 139.848 647.918 141.293 644.241 145.005C638.7 151.66 638.207 161.381 637.039 169.627C636.415 174.003 635.716 178.367 635.007 182.731C634.867 183.593 634.727 184.455 634.588 185.317C634.392 186.532 634.195 187.746 633.997 188.96C633.938 189.324 633.879 189.688 633.819 190.062C633.548 191.712 633.228 193.306 632.821 194.93C616.416 194.93 600.01 194.93 583.107 194.93C584.296 183.641 584.296 183.641 585.059 179.171C585.143 178.667 585.226 178.163 585.312 177.644C585.488 176.584 585.665 175.525 585.843 174.465C586.22 172.224 586.591 169.982 586.962 167.74C587.148 166.62 587.333 165.499 587.52 164.379C588.244 160.01 588.938 155.638 589.613 151.262C590.614 144.787 591.661 138.32 592.72 131.854C593.683 125.971 594.643 120.088 595.536 114.193C596.461 108.083 597.454 101.984 598.449 95.8849C598.567 95.159 598.567 95.159 598.688 94.4184C598.917 93.0163 599.146 91.6142 599.375 90.2121C599.476 89.5941 599.476 89.5941 599.579 88.9637C600.124 85.6413 600.678 82.3208 601.232 79Z" fill="#D594DC"/>
<path d="M213.006 108.365C214.875 108.371 216.743 108.365 218.612 108.358C228.46 108.352 238.47 108.45 248.054 110.958C248.861 111.162 248.861 111.162 249.685 111.37C260.581 114.209 270.623 119.176 276.536 129.202C279.697 134.99 280.334 140.567 280.258 147.089C280.258 147.637 280.257 148.185 280.257 148.75C280.238 152.131 279.983 155.303 279.643 158.702C250.42 158.702 221.198 158.702 191.089 158.702C192.534 164.688 192.534 164.688 196.331 168.8C203.449 172.411 211.91 172.378 219.572 170.605C223.265 169.234 226.171 167.699 228.375 164.395C228.888 163.626 228.888 163.626 229.411 162.842C230.99 162.694 232.464 162.647 234.044 162.666C234.764 162.665 234.764 162.665 235.499 162.665C237.091 162.666 238.682 162.678 240.274 162.69C241.375 162.693 242.477 162.696 243.578 162.697C246.481 162.703 249.384 162.718 252.288 162.735C255.248 162.751 258.209 162.758 261.17 162.766C266.982 162.783 272.795 162.809 278.607 162.842C278.444 163.758 278.28 164.673 278.116 165.589C278.025 166.098 277.934 166.608 277.84 167.133C276.254 175.418 271.121 181.902 264.366 186.714C248.897 196.6 229.456 197.463 211.653 197.337C209.536 197.323 207.42 197.331 205.304 197.346C187.108 197.454 167.597 196.055 153.286 183.544C152.79 183.114 152.79 183.114 152.284 182.675C146.621 177.405 143.19 169.725 142.874 162.018C142.589 148.705 144.073 135.762 153.674 125.67C161.878 117.361 171.996 113.376 183.16 110.7C183.573 110.597 183.987 110.494 184.413 110.388C193.753 108.286 203.486 108.332 213.006 108.365ZM196.786 135.93C195.032 138.07 195.032 138.07 194.197 140.588C206.672 140.588 219.147 140.588 232 140.588C230.927 136.299 230.399 135.013 226.822 132.825C223.52 131.5 220.003 130.959 216.464 130.754C216.105 130.733 215.746 130.712 215.376 130.69C209.178 130.509 201.431 131.403 196.786 135.93Z" fill="#D594DC"/>
<path d="M517.317 108.413C518.102 108.411 518.887 108.41 519.672 108.408C521.31 108.405 522.949 108.404 524.588 108.404C526.24 108.404 527.892 108.401 529.545 108.393C570.18 108.222 570.18 108.222 581.651 118.867C586.814 124.255 586.732 128.07 586.732 135.93C570.668 135.93 554.604 135.93 538.054 135.93C537.541 134.734 537.028 133.539 536.5 132.307C533.175 129.501 529.604 129.626 525.463 129.622C524.839 129.613 524.839 129.613 524.202 129.603C519.264 129.542 519.264 129.542 514.891 131.472C514.096 132.337 514.096 132.337 514.006 133.86C514.071 135.434 514.071 135.434 515.12 136.249C518.789 138.469 524.023 138.208 528.196 138.404C528.773 138.435 529.349 138.465 529.943 138.497C531.773 138.593 533.602 138.685 535.432 138.776C558.783 139.953 558.783 139.953 565.759 141.979C566.234 142.112 566.708 142.246 567.197 142.384C570.992 143.511 574.182 144.994 577.411 147.316C577.977 147.689 578.543 148.063 579.126 148.448C583.728 153.261 585.147 158.439 585.179 164.912C585.025 171.529 583.54 177.663 579.482 183.026C579.183 183.453 578.884 183.88 578.576 184.32C570.469 193.323 557.14 194.943 545.821 196.482C544.884 196.614 544.884 196.614 543.927 196.748C541.719 197.021 539.542 197.087 537.319 197.1C536.696 197.106 536.696 197.106 536.061 197.113C534.696 197.125 533.33 197.134 531.965 197.142C531.491 197.144 531.017 197.147 530.529 197.15C528.009 197.164 525.49 197.174 522.97 197.181C520.92 197.188 518.869 197.202 516.818 197.224C476.951 197.629 476.951 197.629 462.984 184.682C457.722 179.009 457.268 173.639 457.268 165.947C474.015 165.947 490.763 165.947 508.018 165.947C508.531 168.253 508.531 168.253 509.054 170.605C511.455 173.057 513.212 173.769 516.571 173.816C517.733 173.827 518.896 173.835 520.058 173.84C520.638 173.851 521.218 173.861 521.816 173.872C525.517 173.89 528.427 173.783 531.321 171.252C532.099 169.503 531.786 168.288 531.321 166.465C530.148 164.575 528.203 164.398 526.143 163.877C524.99 163.744 523.832 163.648 522.674 163.586C521.681 163.529 521.681 163.529 520.668 163.471C520.321 163.453 519.974 163.435 519.616 163.416C518.517 163.359 517.419 163.296 516.32 163.231C514.809 163.142 513.297 163.055 511.785 162.969C478.544 161.069 478.544 161.069 468.683 150.708C464.668 145.691 462.91 139.699 463.482 133.342C464.4 127.083 466.766 121.836 471.768 117.816C476.387 114.634 481.27 112.541 486.721 111.282C487.19 111.172 487.66 111.062 488.143 110.949C492.395 109.996 496.647 109.448 500.99 109.121C501.907 109.05 502.824 108.972 503.741 108.889C508.269 108.498 512.776 108.415 517.317 108.413Z" fill="#D594DC"/>
<path d="M58.8719 78.7978C59.987 78.8017 61.1021 78.8047 62.2172 78.8067C65.1263 78.8146 68.0351 78.8348 70.9441 78.8579C73.9229 78.8792 76.9017 78.8885 79.8805 78.8989C85.7061 78.921 91.5316 78.9563 97.3572 79C97.0381 81.1978 96.7164 83.3953 96.3943 85.5926C96.3052 86.2063 96.2162 86.8199 96.1245 87.4521C95.3163 92.9493 94.3123 98.3962 93.2143 103.842C92.3599 103.858 92.3599 103.858 91.4883 103.873C89.3726 103.913 87.2572 103.959 85.1417 104.006C84.2266 104.026 83.3114 104.044 82.3962 104.06C81.0797 104.084 79.7636 104.114 78.4473 104.145C78.0388 104.151 77.6304 104.157 77.2096 104.163C75.0749 104.221 73.9377 104.418 71.9821 105.395C71.6404 106.932 71.2986 108.469 70.9464 110.053C79.1493 110.309 79.1493 110.309 87.5179 110.57C87.5179 115.221 87.5179 115.221 87.1376 117.019C87.0547 117.428 86.9718 117.836 86.8863 118.257C86.7957 118.688 86.705 119.119 86.6116 119.563C85.5978 124.59 84.7938 129.636 84.0522 134.711C83.9709 135.259 83.8896 135.807 83.8059 136.373C83.735 136.862 83.6641 137.351 83.5911 137.855C83.375 139.035 83.375 139.035 82.8572 140.07C77.2177 140.07 71.5782 140.07 65.7679 140.07C65.5756 141.992 65.5756 141.992 65.3795 143.952C64.7345 149.946 63.6964 155.87 62.6607 161.807C62.2286 164.287 61.7969 166.767 61.3661 169.247C61.2027 170.184 61.2027 170.184 61.0361 171.141C60.1907 176.032 59.4181 180.931 58.6959 185.841C58.5807 186.613 58.5807 186.613 58.4632 187.401C58.3984 187.845 58.3335 188.289 58.2666 188.746C57.904 190.821 57.4215 192.874 56.9643 194.93C40.7295 194.93 24.4946 194.93 7.76786 194.93C8.07625 190.307 8.3644 186.056 9.22433 181.571C9.4136 180.533 9.60168 179.495 9.78871 178.457C9.88409 177.929 9.97947 177.401 10.0777 176.857C10.5346 174.251 10.9323 171.636 11.3281 169.02C12.1603 163.546 13.0072 158.074 13.8683 152.604C14.0083 151.713 14.1479 150.823 14.2872 149.932C14.4833 148.679 14.6806 147.425 14.8783 146.172C14.937 145.795 14.9957 145.418 15.0562 145.03C15.3227 143.348 15.6397 141.725 16.0536 140.07C10.7559 140.07 5.45821 140.07 0 140.07C0 136.088 0.159235 132.814 0.938616 129.008C1.80746 124.535 2.52822 120.062 3.13205 115.546C3.18992 115.119 3.24779 114.692 3.30741 114.252C3.3566 113.877 3.40579 113.502 3.45647 113.116C3.625 112.123 3.625 112.123 4.14286 110.57C9.61143 110.57 15.08 110.57 20.7143 110.57C20.9706 108.692 21.227 106.813 21.4911 104.877C22.7579 96.8102 25.3499 89.7602 32.1071 84.693C40.6486 79.3436 49.0597 78.6968 58.8719 78.7978Z" fill="#D594DC"/>
<path d="M373.796 108.92C374.649 108.911 374.649 108.911 375.52 108.901C383.885 108.887 391.629 110.506 398.105 116.138C404.731 122.749 406.639 130.81 406.688 139.911C406.63 145.507 406.476 153.093 403.929 158.184C387.865 158.184 371.801 158.184 355.25 158.184C355.592 155.793 355.934 153.402 356.286 150.939C356.506 147.555 356.289 144.691 354.732 141.623C352.266 139.158 350.199 138.946 346.802 138.906C346.132 138.892 345.461 138.879 344.769 138.865C342.143 139.094 340.479 139.996 338.42 141.59C334.51 146.377 333.319 151.795 332.399 157.731C332.271 158.513 332.142 159.295 332.011 160.077C331.691 162.019 331.382 163.963 331.079 165.908C330.832 167.483 330.58 169.057 330.328 170.632C329.607 175.201 328.934 179.778 328.271 184.357C328.176 185.004 328.082 185.652 327.985 186.319C327.802 187.573 327.622 188.828 327.444 190.084C327.363 190.643 327.282 191.202 327.199 191.778C327.128 192.275 327.057 192.772 326.984 193.284C326.768 194.412 326.768 194.412 326.25 194.93C324.705 194.979 323.172 194.995 321.628 194.989C321.143 194.989 320.658 194.989 320.158 194.989C318.547 194.988 316.936 194.984 315.324 194.98C314.21 194.979 313.097 194.979 311.983 194.978C309.045 194.976 306.107 194.971 303.169 194.965C300.173 194.96 297.178 194.958 294.182 194.955C288.3 194.95 282.418 194.941 276.536 194.93C276.835 191.12 277.302 187.375 277.938 183.607C278.023 183.088 278.109 182.57 278.197 182.036C278.379 180.937 278.561 179.838 278.745 178.74C279.223 175.874 279.694 173.007 280.167 170.14C280.259 169.583 280.351 169.026 280.445 168.453C281.086 164.569 281.707 160.684 282.297 156.793C283.549 148.547 284.853 140.31 286.165 132.073C286.307 131.181 286.449 130.288 286.591 129.395C287.02 126.696 287.451 123.997 287.884 121.299C288.021 120.447 288.157 119.595 288.293 118.743C288.481 117.563 288.67 116.383 288.861 115.204C288.969 114.532 289.076 113.86 289.187 113.168C289.482 111.605 289.482 111.605 290 110.57C306.235 110.57 322.47 110.57 339.196 110.57C338.876 115.375 338.542 119.86 337.643 124.544C338.133 124.008 338.133 124.008 338.634 123.462C342.268 119.647 346.041 116.837 350.589 114.193C350.955 113.976 351.321 113.759 351.698 113.536C358.742 109.695 365.929 108.925 373.796 108.92Z" fill="#D594DC"/>
<path d="M101.5 79C105.984 78.9276 110.468 78.8727 114.952 78.8391C117.035 78.823 119.118 78.8012 121.2 78.7657C123.215 78.7317 125.229 78.7134 127.244 78.7054C128.008 78.6997 128.772 78.6886 129.536 78.6717C135.101 78.5534 139.78 79.3099 144.082 83.1296C147.506 86.6696 149.319 91.2668 149.256 96.1699C149.096 98.241 148.69 100.247 148.284 102.283C147.652 105.486 147.138 108.7 146.651 111.929C145.794 117.571 144.92 123.209 144.029 128.846C143.964 129.26 143.898 129.675 143.831 130.102C142.771 136.81 141.686 143.515 140.593 150.219C139.798 155.103 139.015 159.988 138.268 164.88C137.458 170.171 136.647 175.462 135.822 180.751C135.685 181.634 135.548 182.517 135.412 183.4C135.221 184.642 135.028 185.883 134.833 187.124C134.777 187.493 134.721 187.862 134.663 188.242C134.295 190.566 133.744 192.638 133.089 194.93C116.684 194.93 100.278 194.93 83.375 194.93C85.0176 182.344 85.0176 182.344 86.0675 177.012C86.5947 174.232 86.9846 171.432 87.3884 168.632C88.3073 162.28 89.3264 155.946 90.3661 149.612C91.8274 140.707 91.8274 140.707 93.2143 131.789C94.1163 125.83 95.0888 119.882 96.0625 113.934C97.9659 102.303 99.7523 90.6559 101.5 79Z" fill="#D594DC"/>
<path d="M414.286 110.57C430.862 110.57 447.439 110.57 464.518 110.57C462.73 124.269 462.73 124.269 461.734 130.269C461.625 130.939 461.516 131.608 461.403 132.298C460.524 137.671 459.619 143.039 458.718 148.407C457.967 152.907 457.259 157.411 456.577 161.922C456.008 165.66 455.41 169.393 454.798 173.124C454.717 173.621 454.635 174.117 454.552 174.629C454.142 177.125 453.731 179.621 453.319 182.116C453.166 183.045 453.013 183.975 452.86 184.904C452.79 185.324 452.72 185.744 452.648 186.177C452.248 188.618 451.934 191.05 451.708 193.513C451.572 194.412 451.572 194.412 451.054 194.93C449.509 194.979 447.976 194.995 446.431 194.989C445.946 194.989 445.461 194.989 444.962 194.989C443.35 194.988 441.739 194.984 440.128 194.98C439.014 194.979 437.9 194.979 436.786 194.978C433.848 194.976 430.91 194.971 427.972 194.965C424.977 194.96 421.981 194.958 418.986 194.955C413.104 194.95 407.222 194.941 401.339 194.93C401.419 194.112 401.499 193.293 401.579 192.475C401.624 192.02 401.668 191.564 401.714 191.095C401.913 189.228 402.195 187.381 402.496 185.529C402.588 184.953 402.588 184.953 402.682 184.366C402.88 183.121 403.081 181.877 403.281 180.633C403.494 179.303 403.706 177.973 403.918 176.643C404.062 175.745 404.205 174.847 404.349 173.95C404.883 170.609 405.406 167.266 405.924 163.922C407.047 156.677 408.215 149.44 409.399 142.205C410.412 136.008 411.422 129.812 412.376 123.606C412.452 123.111 412.528 122.615 412.607 122.105C413.192 118.263 413.736 114.417 414.286 110.57Z" fill="#D594DC"/>
<path d="M419.464 79C436.041 79 452.617 79 469.696 79C468.336 87.9739 466.97 96.947 465.553 105.912C448.977 105.912 432.4 105.912 415.321 105.912C416.606 96.9272 418.018 87.9605 419.464 79Z" fill="#D594DC"/>
</g>
<defs>
<clipPath id="clip0_14_391">
<rect width="725" height="118" fill="white" transform="translate(0 79)"/>
</clipPath>
</defs>
</svg>
