<svg width="605" height="452" viewBox="0 0 605 452" fill="none" xmlns="http://www.w3.org/2000/svg">
<path d="M446.734 39.383C454.942 48.374 456.789 65.478 455.78 77.256C462.521 76.6834 460.274 68.1314 467.549 63.7218C516.681 34.0189 603.977 128.74 549.341 171.061C621.249 159.626 624.467 303.96 553.245 304.075C601.653 354.91 505.236 448.332 455.78 397.86C459.855 470.19 322.685 469.903 323.104 397.86C272.867 447.893 181.42 357.067 225.639 304.075C155.597 299.093 156.72 164.57 229.543 171.061C176.583 119.157 270.543 24.4171 323.104 73.362C316.115 14.6243 418.474 8.36293 446.734 39.383Z" fill="white"/>
<path d="M446.734 39.383C454.942 48.374 456.789 65.478 455.78 77.256C462.521 76.6834 460.274 68.1314 467.549 63.7218C516.681 34.0189 603.977 128.74 549.341 171.061C621.249 159.626 624.467 303.96 553.245 304.075C601.653 354.91 505.236 448.332 455.78 397.86C459.855 470.19 322.685 469.903 323.104 397.86C272.867 447.893 181.42 357.067 225.639 304.075C155.597 299.093 156.72 164.57 229.543 171.061C176.583 119.157 270.543 24.4171 323.104 73.362C316.115 14.6243 418.474 8.36293 446.734 39.383Z" fill="url(#paint0_radial_367_166)"/>
<path d="M142.547 3.64504C150.706 10.902 160.545 42.8326 173.35 41.8141C186.256 40.7829 198.399 -3.58635 212.324 0.233092L225.766 55.1822C240.951 58.3141 263.289 26.689 281.427 34.2006C284.444 47.0975 262.831 79.5374 269.577 89.0606C288.568 97.4506 309.265 83.8024 328.408 91.5177C329.083 106.184 286.251 129.483 294.869 143.297C303.486 148.809 342.002 156.97 343.924 166.073C346.101 176.424 300.724 183.795 294.372 192.364C289.535 205.07 332.303 233.639 327.224 240.17C317.793 250.419 272.377 235.218 268.673 247.007L281.491 300.072C259.458 303.904 246.704 276.519 224.442 279.536C218.727 288.232 220.33 332.652 209.842 333.467C192.722 325.127 189.82 300.848 173.362 290.294C163.599 289.505 145.309 331.99 136.628 333.874C122.677 336.891 128.991 284.807 118.21 279.511C104.552 274.774 80.3296 306.629 62.5352 300.085L75.5691 242.729L18.329 242.602C10.2719 233.168 51.2832 206.878 51.8559 194.846C38.5928 178.894 12.6012 183.426 0 165.819C6.89885 153.864 49.3993 150.095 50.914 138.751C52.4287 127.408 11.5829 101.957 19.3601 91.3904C27.6209 84.6427 71.1269 96.0246 75.5564 91.5304C77.5548 71.3128 64.9536 53.8963 62.497 34.1752C84.9628 27.6313 97.7804 56.7735 119.61 54.7619C127.056 49.4529 122.69 -14.0135 142.559 3.68327L142.547 3.64504Z" fill="white"/>
<g clip-path="url(#paint1_diamond_367_166_clip_path)" data-figma-skip-parse="true"><g transform="matrix(0 0.167 -0.172 0 172 167)"><rect x="0" y="0" width="1005.99" height="1005.81" fill="url(#paint1_diamond_367_166)" opacity="1" shape-rendering="crispEdges"/><rect x="0" y="0" width="1005.99" height="1005.81" transform="scale(1 -1)" fill="url(#paint1_diamond_367_166)" opacity="1" shape-rendering="crispEdges"/><rect x="0" y="0" width="1005.99" height="1005.81" transform="scale(-1 1)" fill="url(#paint1_diamond_367_166)" opacity="1" shape-rendering="crispEdges"/><rect x="0" y="0" width="1005.99" height="1005.81" transform="scale(-1)" fill="url(#paint1_diamond_367_166)" opacity="1" shape-rendering="crispEdges"/></g></g><path d="M142.547 3.64504C150.706 10.902 160.545 42.8326 173.35 41.8141C186.256 40.7829 198.399 -3.58635 212.324 0.233092L225.766 55.1822C240.951 58.3141 263.289 26.689 281.427 34.2006C284.444 47.0975 262.831 79.5374 269.577 89.0606C288.568 97.4506 309.265 83.8024 328.408 91.5177C329.083 106.184 286.251 129.483 294.869 143.297C303.486 148.809 342.002 156.97 343.924 166.073C346.101 176.424 300.724 183.795 294.372 192.364C289.535 205.07 332.303 233.639 327.224 240.17C317.793 250.419 272.377 235.218 268.673 247.007L281.491 300.072C259.458 303.904 246.704 276.519 224.442 279.536C218.727 288.232 220.33 332.652 209.842 333.467C192.722 325.127 189.82 300.848 173.362 290.294C163.599 289.505 145.309 331.99 136.628 333.874C122.677 336.891 128.991 284.807 118.21 279.511C104.552 274.774 80.3296 306.629 62.5352 300.085L75.5691 242.729L18.329 242.602C10.2719 233.168 51.2832 206.878 51.8559 194.846C38.5928 178.894 12.6012 183.426 0 165.819C6.89885 153.864 49.3993 150.095 50.914 138.751C52.4287 127.408 11.5829 101.957 19.3601 91.3904C27.6209 84.6427 71.1269 96.0246 75.5564 91.5304C77.5548 71.3128 64.9536 53.8963 62.497 34.1752C84.9628 27.6313 97.7804 56.7735 119.61 54.7619C127.056 49.4529 122.69 -14.0135 142.559 3.68327L142.547 3.64504Z" data-figma-gradient-fill="{&#34;type&#34;:&#34;GRADIENT_DIAMOND&#34;,&#34;stops&#34;:[{&#34;color&#34;:{&#34;r&#34;:0.83529412746429443,&#34;g&#34;:0.58039218187332153,&#34;b&#34;:0.86274510622024536,&#34;a&#34;:1.0},&#34;position&#34;:0.0},{&#34;color&#34;:{&#34;r&#34;:0.41176471114158630,&#34;g&#34;:0.61568629741668701,&#34;b&#34;:0.90196079015731812,&#34;a&#34;:1.0},&#34;position&#34;:1.0}],&#34;stopsVar&#34;:[{&#34;color&#34;:{&#34;r&#34;:0.83529412746429443,&#34;g&#34;:0.58039218187332153,&#34;b&#34;:0.86274510622024536,&#34;a&#34;:1.0},&#34;position&#34;:0.0},{&#34;color&#34;:{&#34;r&#34;:0.41176471114158630,&#34;g&#34;:0.61568629741668701,&#34;b&#34;:0.90196079015731812,&#34;a&#34;:1.0},&#34;position&#34;:1.0}],&#34;transform&#34;:{&#34;m00&#34;:2.1063925546827532e-14,&#34;m01&#34;:-344.0,&#34;m02&#34;:344.0,&#34;m10&#34;:334.0,&#34;m11&#34;:2.0451602041125609e-14,&#34;m12&#34;:-2.0451602041125609e-14},&#34;opacity&#34;:1.0,&#34;blendMode&#34;:&#34;NORMAL&#34;,&#34;visible&#34;:true}"/>
<defs>
<clipPath id="paint1_diamond_367_166_clip_path"><path d="M142.547 3.64504C150.706 10.902 160.545 42.8326 173.35 41.8141C186.256 40.7829 198.399 -3.58635 212.324 0.233092L225.766 55.1822C240.951 58.3141 263.289 26.689 281.427 34.2006C284.444 47.0975 262.831 79.5374 269.577 89.0606C288.568 97.4506 309.265 83.8024 328.408 91.5177C329.083 106.184 286.251 129.483 294.869 143.297C303.486 148.809 342.002 156.97 343.924 166.073C346.101 176.424 300.724 183.795 294.372 192.364C289.535 205.07 332.303 233.639 327.224 240.17C317.793 250.419 272.377 235.218 268.673 247.007L281.491 300.072C259.458 303.904 246.704 276.519 224.442 279.536C218.727 288.232 220.33 332.652 209.842 333.467C192.722 325.127 189.82 300.848 173.362 290.294C163.599 289.505 145.309 331.99 136.628 333.874C122.677 336.891 128.991 284.807 118.21 279.511C104.552 274.774 80.3296 306.629 62.5352 300.085L75.5691 242.729L18.329 242.602C10.2719 233.168 51.2832 206.878 51.8559 194.846C38.5928 178.894 12.6012 183.426 0 165.819C6.89885 153.864 49.3993 150.095 50.914 138.751C52.4287 127.408 11.5829 101.957 19.3601 91.3904C27.6209 84.6427 71.1269 96.0246 75.5564 91.5304C77.5548 71.3128 64.9536 53.8963 62.497 34.1752C84.9628 27.6313 97.7804 56.7735 119.61 54.7619C127.056 49.4529 122.69 -14.0135 142.559 3.68327L142.547 3.64504Z"/></clipPath><radialGradient id="paint0_radial_367_166" cx="0" cy="0" r="1" gradientUnits="userSpaceOnUse" gradientTransform="translate(389.5 236.5) rotate(90) scale(215.5)">
<stop stop-color="#699DE6"/>
<stop offset="0.495192" stop-color="#D594DC"/>
<stop offset="1" stop-color="#F5DCC6"/>
</radialGradient>
<linearGradient id="paint1_diamond_367_166" x1="0" y1="0" x2="500" y2="500" gradientUnits="userSpaceOnUse">
<stop stop-color="#D594DC"/>
<stop offset="1" stop-color="#699DE6"/>
</linearGradient>
</defs>
</svg>
