<svg width="306" height="56" viewBox="0 0 306 56" fill="none" xmlns="http://www.w3.org/2000/svg">
<path d="M281.988 11.25C282.905 11.223 283.687 11.2356 284.325 11.4033C284.939 11.5647 285.395 11.8633 285.703 12.4141C286.025 12.9903 286.216 13.9003 286.148 15.3477C285.976 19.0179 285.119 23.0959 284.197 27.2373C283.286 31.3349 282.31 35.497 281.915 39.3047C281.193 41.1995 280.02 42.039 278.628 42.416C277.323 42.7694 275.829 42.7176 274.264 42.6523L279.509 11.3037C280.372 11.3205 281.226 11.2724 281.988 11.25Z" fill="#D594DC" stroke="#D594DC"/>
<path d="M129.262 29.8711C129.273 29.9139 129.287 29.9669 129.298 30.0322C129.338 30.2731 129.355 30.61 129.347 31.0273C129.331 31.8577 129.219 32.9307 129.057 34.0322C128.895 35.131 128.686 36.2438 128.479 37.1494C128.376 37.6025 128.275 38 128.182 38.3154C128.085 38.6414 128.007 38.8464 127.957 38.9395C127.566 39.6616 126.919 39.9434 126.081 40.0381C125.657 40.086 125.203 40.0828 124.732 40.0684C124.475 40.0604 124.207 40.0487 123.942 40.042L125.593 29.7324L129.262 29.8711Z" fill="#D594DC" stroke="#D594DC"/>
<path d="M131.03 13.4971C131.457 13.5279 131.832 13.6203 132.108 13.7676C132.377 13.9109 132.529 14.0901 132.587 14.3066V14.3076C132.584 14.2982 132.59 14.3237 132.593 14.4102C132.595 14.4878 132.593 14.5908 132.587 14.7188C132.574 14.9746 132.543 15.3081 132.498 15.6973C132.409 16.4742 132.266 17.4512 132.103 18.4326C131.939 19.4138 131.756 20.3939 131.588 21.1768C131.504 21.5685 131.424 21.9065 131.354 22.1689C131.279 22.4473 131.226 22.5969 131.201 22.6445C130.852 23.3169 130.173 23.6362 129.285 23.7686C128.594 23.8715 127.871 23.8506 127.201 23.832L129.039 13.8037C129.223 13.7166 129.472 13.6359 129.768 13.5771C130.163 13.4987 130.608 13.4666 131.03 13.4971Z" fill="#D594DC" stroke="#D594DC"/>
<path d="M97.3896 13.4873C98.035 13.4713 98.5593 13.5415 98.9648 13.7061C99.3567 13.8651 99.6477 14.1158 99.8428 14.499C100.044 14.8954 100.162 15.4699 100.126 16.2979C100.04 18.2686 99.2933 22.3977 98.3975 26.5889C97.6158 30.2459 96.7306 33.9021 96.0967 36.1318L95.8418 36.9961C95.7894 37.1645 95.5493 37.7105 95.2773 38.2686C95.1449 38.5404 95.0115 38.8012 94.8994 39.0029C94.8433 39.1039 94.7956 39.185 94.7578 39.2432C94.7378 39.274 94.7245 39.2911 94.7188 39.2988C94.5849 39.4094 94.3218 39.5395 93.9209 39.6592C93.5213 39.7784 93.0398 39.8737 92.5381 39.9434C91.6514 40.0664 90.7546 40.1015 90.1914 40.0625L89.9717 40.041C89.9125 40.0333 89.8571 40.0282 89.8057 40.0254L95.5342 13.6973C96.2121 13.5793 96.8343 13.5011 97.3896 13.4873Z" fill="#D594DC" stroke="#D594DC"/>
<path d="M50.6675 13.5234C51.5808 13.3715 52.5075 13.664 53.0366 14.4258L48.7896 38.2607L48.7778 38.3252L48.7837 38.3916C48.815 38.7485 48.6704 39.0457 48.3608 39.3086C48.0381 39.5827 47.5558 39.7959 47.0063 39.9287C46.4615 40.0603 45.8913 40.103 45.4253 40.0645C45.1923 40.0452 44.9984 40.0063 44.853 39.957C44.7113 39.9089 44.6509 39.8613 44.6323 39.8428L44.6274 39.8379C44.5211 39.7158 44.4294 39.4891 44.3755 39.1689C44.3237 38.8611 44.3164 38.5257 44.3315 38.2471C44.516 34.8237 45.3981 30.8977 46.3384 26.8965C47.2701 22.9317 48.2589 18.8924 48.6343 15.29C48.8649 14.3246 49.7012 13.6842 50.6675 13.5234Z" fill="#D594DC" stroke="#D594DC"/>
<mask id="path-6-inside-1_448_1416" fill="white">
<path d="M305.14 0V55.1848H0V0H305.14ZM36.4789 21.4625C37.1025 16.6599 40.4433 9.40406 33.2052 8.47541C26.6518 7.63445 21.0534 8.21037 19.1768 15.3187C17.5823 21.3549 14.9697 34.0451 14.4862 40.0953C13.9258 47.098 20.6489 46.9745 25.9867 46.3308C35.4548 45.1889 33.4814 32.4887 35.7192 25.6793H26.2196L25.4618 30.6593L28.5047 30.8566L26.5057 40.5297C25.7815 41.3229 22.1644 41.5919 21.379 40.9123L20.9311 39.6469C22.4407 32.8694 23.2517 25.8387 24.8106 19.0831C25.7243 15.1214 25.7125 12.4112 30.8924 13.7882C32.2974 14.6651 30.0735 19.9161 30.4011 21.4625H36.4809H36.4789ZM49.3075 8.53121C45.5168 9.04535 43.5533 11.084 42.5035 14.6989C41.6076 17.7858 41.061 21.9269 40.3901 25.213C39.5928 29.1129 37.3058 38.6266 37.6215 41.9645C38.1069 47.1239 45.3175 46.7911 49.1694 46.3288C55.8846 45.5237 56.1037 39.9538 57.2719 34.5712C58.4401 29.1886 60.9324 19.0134 61.1495 13.9257C61.4178 7.6205 53.783 7.9234 49.3095 8.52922L49.3075 8.53121ZM72.4882 8.53121C65.5914 9.52761 65.475 17.0584 64.3384 22.5387C63.3556 27.2795 60.9127 37.0124 60.9304 41.3627C60.9521 47.1299 68.9678 46.9286 73.0585 46.277C77.8182 45.5197 79.0219 42.0522 80.0026 37.951C81.0584 33.533 81.9247 28.3557 82.7298 23.838C83.2685 20.8089 85.1649 13.4076 83.9315 10.9684C82.3134 7.76796 75.5469 8.08482 72.4902 8.52722L72.4882 8.53121ZM83.2192 45.988H95.5682C96.0063 45.988 99.2051 44.4974 99.7477 44.0709C100.837 43.216 102.041 41.277 102.514 39.9638C104.01 35.8187 106.869 20.8169 107.171 16.3032C107.718 8.1446 102.355 8.52523 95.9471 8.64679C94.6802 8.6707 90.5994 8.55313 90.1317 9.46384L83.2192 45.99V45.988ZM115.519 45.988H128.249C128.795 45.988 131.479 44.5691 132.045 44.0689C132.906 43.3117 133.438 42.3591 133.867 41.3069C134.652 39.3779 136.136 32.4429 136.073 30.464C136.01 28.4852 135.086 27.6642 133.758 26.4465C135.276 26.2433 136.521 24.8722 137.136 23.5251C138.32 20.9364 140.144 12.2239 137.918 10.1733C135.181 7.65039 126.153 9.02144 122.372 8.82814L115.517 45.986L115.519 45.988ZM161.12 45.988H174.42L175.182 41.016C174.813 41.1096 174.369 40.6214 174.231 40.6214H168.341L174.424 9.38413C174.47 8.58502 174.43 8.8939 173.864 8.81219C173.26 8.72451 168.714 8.589 168.512 8.76636L161.122 45.988H161.12ZM224.938 8.83611L212.802 8.81817L205.958 45.986L209.591 45.6273L212.835 28.7821C213.224 28.4473 218.968 28.9834 220.21 28.7462C221.551 28.4892 221.129 26.7076 221.538 25.6793L213.559 25.6753L216.018 12.2538C218.947 10.7093 225.632 14.2326 224.936 8.83412L224.938 8.83611ZM269.04 45.988H279.109C279.255 45.988 281.531 45.0833 281.846 44.9159C283.751 43.9175 285.227 41.8669 285.939 39.8462C288.427 32.7857 288.504 22.8874 290.693 15.516C291.174 12.3753 289.359 9.5316 286.241 8.90586C284.579 8.57306 278.482 8.49135 276.828 8.81618C276.376 8.90586 276.074 8.93974 275.954 9.46384L269.04 45.988ZM151.24 8.81618H145.349L139.062 40.4141C138.581 45.0255 141.383 46.1175 145.332 46.3906C157.848 47.2515 157.043 40.6891 159.1 30.7311C160.595 23.4813 161.906 16.1099 163.019 8.81618H156.939L150.979 39.4038C150.638 41.6816 145.093 42.2296 145.525 39.3041L151.24 8.81419V8.81618ZM191.519 8.81618H185.629L178.219 45.99H191.519L192.311 41.2651C192.247 41.0219 191.401 40.6254 191.33 40.6254H185.439L191.519 8.81618ZM234.082 8.81618C233.024 8.97162 230.787 8.30004 230.352 9.46384L224.62 39.3221C222.285 48.497 236.787 48.3515 239.734 42.3013L246.532 9.37417C246.374 8.47541 243.625 8.8381 242.859 8.85803L236.829 40.5217C236.225 44.0949 227.998 44.4257 228.016 40.8725L234.082 8.81419V8.81618ZM257.642 8.81219H252.698L245.859 45.986L249.241 45.9462L254.79 16.8572L258.018 45.99L262.577 45.984L269.422 8.81419L266.018 8.83212L260.491 37.1778L257.644 8.81219H257.642Z"/>
</mask>
<path d="M305.14 0V55.1848H0V0H305.14ZM36.4789 21.4625C37.1025 16.6599 40.4433 9.40406 33.2052 8.47541C26.6518 7.63445 21.0534 8.21037 19.1768 15.3187C17.5823 21.3549 14.9697 34.0451 14.4862 40.0953C13.9258 47.098 20.6489 46.9745 25.9867 46.3308C35.4548 45.1889 33.4814 32.4887 35.7192 25.6793H26.2196L25.4618 30.6593L28.5047 30.8566L26.5057 40.5297C25.7815 41.3229 22.1644 41.5919 21.379 40.9123L20.9311 39.6469C22.4407 32.8694 23.2517 25.8387 24.8106 19.0831C25.7243 15.1214 25.7125 12.4112 30.8924 13.7882C32.2974 14.6651 30.0735 19.9161 30.4011 21.4625H36.4809H36.4789ZM49.3075 8.53121C45.5168 9.04535 43.5533 11.084 42.5035 14.6989C41.6076 17.7858 41.061 21.9269 40.3901 25.213C39.5928 29.1129 37.3058 38.6266 37.6215 41.9645C38.1069 47.1239 45.3175 46.7911 49.1694 46.3288C55.8846 45.5237 56.1037 39.9538 57.2719 34.5712C58.4401 29.1886 60.9324 19.0134 61.1495 13.9257C61.4178 7.6205 53.783 7.9234 49.3095 8.52922L49.3075 8.53121ZM72.4882 8.53121C65.5914 9.52761 65.475 17.0584 64.3384 22.5387C63.3556 27.2795 60.9127 37.0124 60.9304 41.3627C60.9521 47.1299 68.9678 46.9286 73.0585 46.277C77.8182 45.5197 79.0219 42.0522 80.0026 37.951C81.0584 33.533 81.9247 28.3557 82.7298 23.838C83.2685 20.8089 85.1649 13.4076 83.9315 10.9684C82.3134 7.76796 75.5469 8.08482 72.4902 8.52722L72.4882 8.53121ZM83.2192 45.988H95.5682C96.0063 45.988 99.2051 44.4974 99.7477 44.0709C100.837 43.216 102.041 41.277 102.514 39.9638C104.01 35.8187 106.869 20.8169 107.171 16.3032C107.718 8.1446 102.355 8.52523 95.9471 8.64679C94.6802 8.6707 90.5994 8.55313 90.1317 9.46384L83.2192 45.99V45.988ZM115.519 45.988H128.249C128.795 45.988 131.479 44.5691 132.045 44.0689C132.906 43.3117 133.438 42.3591 133.867 41.3069C134.652 39.3779 136.136 32.4429 136.073 30.464C136.01 28.4852 135.086 27.6642 133.758 26.4465C135.276 26.2433 136.521 24.8722 137.136 23.5251C138.32 20.9364 140.144 12.2239 137.918 10.1733C135.181 7.65039 126.153 9.02144 122.372 8.82814L115.517 45.986L115.519 45.988ZM161.12 45.988H174.42L175.182 41.016C174.813 41.1096 174.369 40.6214 174.231 40.6214H168.341L174.424 9.38413C174.47 8.58502 174.43 8.8939 173.864 8.81219C173.26 8.72451 168.714 8.589 168.512 8.76636L161.122 45.988H161.12ZM224.938 8.83611L212.802 8.81817L205.958 45.986L209.591 45.6273L212.835 28.7821C213.224 28.4473 218.968 28.9834 220.21 28.7462C221.551 28.4892 221.129 26.7076 221.538 25.6793L213.559 25.6753L216.018 12.2538C218.947 10.7093 225.632 14.2326 224.936 8.83412L224.938 8.83611ZM269.04 45.988H279.109C279.255 45.988 281.531 45.0833 281.846 44.9159C283.751 43.9175 285.227 41.8669 285.939 39.8462C288.427 32.7857 288.504 22.8874 290.693 15.516C291.174 12.3753 289.359 9.5316 286.241 8.90586C284.579 8.57306 278.482 8.49135 276.828 8.81618C276.376 8.90586 276.074 8.93974 275.954 9.46384L269.04 45.988ZM151.24 8.81618H145.349L139.062 40.4141C138.581 45.0255 141.383 46.1175 145.332 46.3906C157.848 47.2515 157.043 40.6891 159.1 30.7311C160.595 23.4813 161.906 16.1099 163.019 8.81618H156.939L150.979 39.4038C150.638 41.6816 145.093 42.2296 145.525 39.3041L151.24 8.81419V8.81618ZM191.519 8.81618H185.629L178.219 45.99H191.519L192.311 41.2651C192.247 41.0219 191.401 40.6254 191.33 40.6254H185.439L191.519 8.81618ZM234.082 8.81618C233.024 8.97162 230.787 8.30004 230.352 9.46384L224.62 39.3221C222.285 48.497 236.787 48.3515 239.734 42.3013L246.532 9.37417C246.374 8.47541 243.625 8.8381 242.859 8.85803L236.829 40.5217C236.225 44.0949 227.998 44.4257 228.016 40.8725L234.082 8.81419V8.81618ZM257.642 8.81219H252.698L245.859 45.986L249.241 45.9462L254.79 16.8572L258.018 45.99L262.577 45.984L269.422 8.81419L266.018 8.83212L260.491 37.1778L257.644 8.81219H257.642Z" fill="#D594DC" stroke="#D594DC" stroke-width="2" mask="url(#path-6-inside-1_448_1416)"/>
<path d="M74.4907 13.5176C75.1639 13.4559 75.972 13.4704 76.5796 13.6631C76.8804 13.7585 77.0938 13.8859 77.2251 14.0322C77.3376 14.1576 77.4117 14.3213 77.4087 14.5654C76.4256 18.2557 75.7792 22.2152 75.1138 26.124C74.443 30.0641 73.7528 33.9554 72.6841 37.5342C72.2897 38.8547 71.4998 39.6156 70.5386 39.9199C69.5901 40.2202 68.4011 40.0972 67.144 39.4951C67.0973 39.3886 67.0648 39.2353 67.0532 39.0254C67.0455 38.8851 67.0474 38.747 67.0522 38.6064L67.0698 38.1709C67.1246 36.2277 67.7366 33.1285 68.4731 29.9287C68.8396 28.3367 69.2336 26.7327 69.5981 25.251C69.7802 24.5112 69.9553 23.801 70.1157 23.1387L70.5464 21.3135C70.7291 20.5073 71.0394 18.7882 71.4575 17.1318C71.6647 16.3114 71.8909 15.5374 72.1284 14.9395C72.2474 14.6399 72.364 14.3987 72.4741 14.2227C72.5897 14.038 72.6678 13.9758 72.6909 13.9629C72.818 13.8955 73.1391 13.7929 73.5337 13.6973C73.9008 13.6083 74.2625 13.5418 74.4663 13.5205H74.4683L74.4907 13.5176Z" fill="#D594DC" stroke="#D594DC"/>
</svg>
