<svg width="721" height="420" viewBox="0 0 721 420" fill="none" xmlns="http://www.w3.org/2000/svg">
<g clip-path="url(#clip0_6_4)">
<path d="M705.914 -0.661133C710.249 -0.600119 713.112 -0.362081 716.556 2.41406C719.749 5.79241 720.124 7.20017 720.134 11.7061C720.138 12.7048 720.143 13.7035 720.147 14.7324C720.147 16.3905 720.148 16.3907 720.147 18.082C720.151 19.2501 720.154 20.4186 720.158 21.6221C720.167 24.8743 720.172 28.1267 720.175 31.3789C720.179 34.8827 720.189 38.3868 720.197 41.8906C720.217 50.3584 720.226 58.8262 720.235 67.2939C720.24 71.2807 720.246 75.2681 720.251 79.2549C720.268 92.5065 720.282 105.758 720.289 119.01C720.291 122.45 720.293 125.891 720.295 129.331C720.295 130.186 720.296 131.041 720.297 131.922C720.305 145.771 720.33 159.62 720.362 173.469C720.395 187.684 720.414 201.901 720.417 216.116C720.419 224.099 720.428 232.082 720.453 240.064C720.475 246.864 720.483 253.663 720.474 260.462C720.469 263.93 720.471 267.398 720.49 270.866C720.508 274.63 720.5 278.393 720.487 282.156C720.504 283.794 720.505 283.794 720.521 285.465C720.442 294.917 717.896 300.6 711.2 307.308C710.732 307.782 710.264 308.256 709.782 308.745C708.231 310.312 706.666 311.864 705.101 313.417C703.978 314.545 702.855 315.675 701.733 316.805C698.699 319.857 695.653 322.898 692.604 325.935C689.407 329.121 686.22 332.316 683.031 335.511C677.678 340.872 672.316 346.225 666.949 351.572C660.751 357.748 654.568 363.939 648.392 370.137C643.08 375.467 637.761 380.789 632.435 386.104C629.257 389.275 626.083 392.449 622.915 395.63C619.937 398.619 616.95 401.599 613.955 404.571C612.86 405.661 611.767 406.754 610.679 407.852C609.188 409.353 607.686 410.841 606.181 412.327C605.344 413.162 604.508 413.997 603.646 414.857C597.384 419.929 591.77 420.437 583.988 420.383C582.492 420.39 582.492 420.391 580.966 420.398C577.615 420.411 574.265 420.403 570.914 420.395C568.491 420.399 566.068 420.406 563.645 420.413C558.372 420.426 553.1 420.429 547.827 420.425C539.987 420.418 532.146 420.428 524.306 420.441C509.489 420.466 494.672 420.472 479.855 420.47C468.417 420.468 456.978 420.472 445.539 420.479C443.896 420.481 442.253 420.481 440.61 420.482C439.795 420.483 438.979 420.484 438.139 420.484C437.322 420.485 436.505 420.485 435.663 420.485C434.436 420.486 434.436 420.487 433.184 420.487C410.166 420.502 387.148 420.51 364.13 420.506C362.828 420.506 362.828 420.505 361.5 420.505C357.102 420.504 352.703 420.503 348.305 420.502C347.431 420.502 346.557 420.502 345.657 420.502C343.891 420.502 342.124 420.5 340.357 420.5C312.859 420.494 285.36 420.51 257.861 420.542C226.975 420.578 196.089 420.598 165.202 420.593C161.911 420.592 158.619 420.591 155.327 420.591C154.517 420.591 153.706 420.591 152.871 420.591C140.624 420.59 128.378 420.601 116.131 420.62C102.208 420.641 88.2849 420.645 74.3623 420.626C66.5673 420.616 58.7725 420.619 50.9775 420.643C45.1646 420.658 39.352 420.648 33.5391 420.628C31.1818 420.624 28.824 420.628 26.4668 420.642C23.2727 420.659 20.0798 420.645 16.8857 420.624C15.5001 420.642 15.4998 420.642 14.0859 420.661C9.75067 420.6 6.88776 420.362 3.44434 417.586C0.250742 414.208 -0.124491 412.8 -0.133789 408.294C-0.138247 407.295 -0.142868 406.297 -0.147461 405.268C-0.147277 404.162 -0.147651 403.057 -0.147461 401.918C-0.151138 400.75 -0.154415 399.581 -0.158203 398.378C-0.167341 395.126 -0.172155 391.873 -0.174805 388.621C-0.178704 385.117 -0.188531 381.613 -0.197266 378.109C-0.217043 369.642 -0.226457 361.174 -0.235352 352.706C-0.239733 348.719 -0.245736 344.732 -0.250977 340.745C-0.267991 327.493 -0.281823 314.242 -0.289062 300.99C-0.290972 297.55 -0.292966 294.109 -0.294922 290.669C-0.295406 289.814 -0.296377 288.959 -0.296875 288.078C-0.305174 274.229 -0.329822 260.38 -0.362305 246.531C-0.395376 232.316 -0.413797 218.099 -0.416992 203.884C-0.419157 195.901 -0.427579 187.918 -0.453125 179.936C-0.474832 173.136 -0.483356 166.337 -0.473633 159.538C-0.469089 156.07 -0.470826 152.602 -0.490234 149.134C-0.507882 145.37 -0.500484 141.607 -0.487305 137.844C-0.498272 136.752 -0.509208 135.66 -0.520508 134.535C-0.440554 125.083 2.10402 119.4 8.7998 112.692C9.50188 111.981 9.50163 111.981 10.2178 111.255C11.7689 109.688 13.3341 108.136 14.8994 106.583C16.0224 105.455 17.1452 104.325 18.2666 103.195C21.3008 100.143 24.3468 97.1024 27.3965 94.0654C30.593 90.8791 33.7805 87.6838 36.9688 84.4893C42.3223 79.1284 47.6841 73.7754 53.0508 68.4277C59.2487 62.2516 65.4324 56.0613 71.6084 49.8633C76.9201 44.5334 82.2394 39.211 87.5654 33.8955C90.7426 30.7245 93.9175 27.5508 97.085 24.3701C100.063 21.3807 103.05 18.4008 106.045 15.4287C107.14 14.3386 108.233 13.2456 109.321 12.1484C110.812 10.6472 112.314 9.15864 113.819 7.67285C114.656 6.83798 115.492 6.00275 116.354 5.14258C122.616 0.071036 128.23 -0.437274 136.012 -0.382812C137.009 -0.387772 138.007 -0.393328 139.034 -0.398438C142.385 -0.411418 145.735 -0.402824 149.086 -0.394531C151.509 -0.399419 153.932 -0.405705 156.355 -0.413086C161.628 -0.426088 166.9 -0.42941 172.173 -0.424805C180.013 -0.417973 187.854 -0.427873 195.694 -0.441406C210.511 -0.466323 225.328 -0.471621 240.145 -0.469727C251.583 -0.468354 263.022 -0.472009 274.461 -0.479492C276.104 -0.480542 277.747 -0.481377 279.39 -0.482422C280.205 -0.482941 281.021 -0.48384 281.861 -0.484375C282.678 -0.484895 283.495 -0.484816 284.337 -0.485352C285.564 -0.486137 285.564 -0.486503 286.816 -0.487305C309.834 -0.501889 332.852 -0.510475 355.87 -0.505859C357.172 -0.505601 357.172 -0.505146 358.5 -0.504883C362.898 -0.503994 367.297 -0.502917 371.695 -0.501953C372.569 -0.501762 373.443 -0.50215 374.343 -0.501953C376.109 -0.501566 377.876 -0.500394 379.643 -0.5C407.141 -0.494028 434.64 -0.509864 462.139 -0.541992C493.025 -0.578048 523.911 -0.597725 554.798 -0.592773C558.089 -0.592303 561.381 -0.591192 564.673 -0.59082C565.888 -0.590667 565.889 -0.590977 567.129 -0.59082C579.376 -0.589625 591.622 -0.60145 603.869 -0.620117C617.792 -0.641328 631.715 -0.645389 645.638 -0.625977C653.433 -0.615631 661.228 -0.619242 669.022 -0.642578C674.835 -0.65844 680.648 -0.64838 686.461 -0.62793C688.818 -0.623717 691.176 -0.628107 693.533 -0.641602C696.727 -0.658647 699.92 -0.645409 703.114 -0.624023C704.038 -0.636299 704.962 -0.648485 705.914 -0.661133ZM413.627 119.515C409.8 119.503 405.973 119.496 402.146 119.516C398.722 119.537 395.299 119.542 391.875 119.542C386.137 119.541 380.399 119.552 374.661 119.578C367.986 119.61 361.31 119.631 354.635 119.63C347.46 119.628 340.285 119.636 333.11 119.654C331.056 119.66 329 119.664 326.945 119.665C323.66 119.666 320.374 119.674 317.089 119.689C315.857 119.696 314.662 119.703 313.467 119.71C311.726 119.709 311.725 119.708 310.019 119.707C308.438 119.72 308.437 119.72 306.888 119.732C302.337 119.749 300.177 119.899 299.748 124.989C299.747 126.322 299.747 127.616 299.746 128.909C299.736 131.216 299.729 133.522 299.734 135.829C299.739 137.525 299.74 139.221 299.737 140.916C299.726 145.526 299.722 150.136 299.728 154.745C299.734 159.649 299.734 164.553 299.73 169.457C299.725 177.659 299.726 185.861 299.735 194.063C299.746 203.63 299.75 213.197 299.739 222.764C299.73 231.029 299.725 239.295 299.729 247.561C299.732 252.481 299.736 257.402 299.731 262.323C299.725 267.034 299.721 271.745 299.73 276.455C299.735 278.186 299.739 279.917 299.741 281.648C299.735 284.07 299.728 286.491 299.736 288.912C299.74 289.653 299.743 290.373 299.746 291.092C299.748 295.011 299.748 295.011 300 298C302.23 300.23 302.23 300.23 308.427 300.278C309.773 300.272 309.774 300.272 311.094 300.266C312.947 300.27 314.799 300.272 316.652 300.273C319.582 300.261 322.512 300.25 325.442 300.261C327.352 300.269 329.262 300.273 331.172 300.271C332.102 300.27 333.004 300.268 333.906 300.266C336.969 300.28 339.938 300.2 343 300C345 298 345 298 345.24 295.823C345.236 294.895 345.232 293.993 345.228 293.092C345.227 291.53 345.227 291.529 345.227 289.998C345.216 288.859 345.206 287.754 345.195 286.648C345.186 283.119 345.176 279.589 345.151 276.06C345.134 273.6 345.12 271.14 345.11 268.68C345.088 262.094 345.058 255.508 345.014 248.923C345.009 248.269 345.004 247.634 345 247C355.608 246.195 366.581 245.461 377 248C382.735 253.418 382.735 253.419 385.633 260.965C387.891 267.063 390.929 272.498 394.182 278.104C395.274 279.975 396.36 281.848 397.42 283.738C398.089 284.943 398.762 286.146 399.438 287.347C399.764 287.927 400.081 288.491 400.398 289.055C402.127 292.144 403.984 294.978 406.065 297.841C409.765 300.563 412.082 300.568 416.58 300.566C418.08 300.527 418.08 300.527 419.551 300.488C422.711 300.466 425.87 300.438 429.03 300.377C431.227 300.334 433.424 300.3 435.621 300.274C442.081 300.214 448.541 300.127 455 300C455.752 297.456 456.165 296.419 455.171 293.888C454.713 293.114 454.269 292.364 453.824 291.613C453.316 290.74 452.823 289.892 452.329 289.045C451.5 287.665 451.5 287.665 450.688 286.312C449.013 283.454 447.336 280.596 445.642 277.749C443.715 274.522 441.796 271.291 439.88 268.058C439.453 267.337 439.039 266.637 438.625 265.938C434.762 259.432 431.242 252.841 428 246C433.233 245.138 436.856 243.275 441 240C450.079 230.657 450.442 219.916 450.378 207.602C450.368 205.887 450.363 204.172 450.362 202.457C450.365 198.862 450.364 195.266 450.35 191.671C450.326 187.018 450.31 182.364 450.315 177.711C450.321 174.065 450.321 170.42 450.313 166.774C450.309 165.033 450.305 163.292 450.301 161.551C450.303 159.062 450.304 156.573 450.29 154.084C450.285 153.304 450.28 152.547 450.274 151.79C450.304 143.33 448.246 136.657 443 130C435.543 122.901 427.266 119.562 417.033 119.48C415.875 119.492 414.751 119.503 413.627 119.515ZM258.906 119.734C257.053 119.73 255.201 119.728 253.348 119.727C250.418 119.739 247.488 119.75 244.559 119.739C242.649 119.731 240.738 119.727 238.828 119.729C237.448 119.731 237.447 119.732 236.094 119.734C233.031 119.72 230.062 119.8 227 120C225 122 225 122 224.735 124.619C224.728 125.761 224.72 126.87 224.713 127.979C224.692 129.898 224.692 129.899 224.672 131.78C224.664 133.853 224.656 135.926 224.636 137.999C224.577 143.166 224.536 148.333 224.5 153.5C224.469 157.96 224.436 162.419 224.388 166.879C224.364 168.98 224.344 171.081 224.336 173.183C224.333 173.875 224.331 174.548 224.328 175.22C224.308 177.139 224.307 177.14 224.287 179.021C224.319 182.263 224.319 182.263 224 185C222.199 187.218 222.198 187.218 219.723 187.254C218.745 187.256 217.796 187.257 216.848 187.259C215.741 187.265 214.666 187.272 213.592 187.278C211.81 187.272 211.809 187.272 210.062 187.266C207.617 187.27 205.172 187.272 202.727 187.273C198.855 187.261 194.984 187.25 191.112 187.261C188.591 187.269 186.069 187.273 183.547 187.271C182.32 187.27 181.129 187.268 179.938 187.266C178.738 187.27 177.573 187.274 176.408 187.278C174.764 187.269 174.764 187.268 173.152 187.259C170.372 187.306 170.371 187.306 168 187C165.737 185.159 165.738 185.158 165.735 182.381C165.728 181.239 165.72 180.13 165.713 179.021C165.699 177.729 165.685 176.474 165.672 175.22C165.664 173.147 165.656 171.074 165.636 169.001C165.586 164.592 165.547 160.183 165.516 155.774C165.48 150.557 165.444 145.339 165.388 140.121C165.364 138.02 165.344 135.919 165.336 133.817C165.333 133.125 165.331 132.452 165.328 131.78C165.314 130.488 165.301 129.233 165.287 127.979C165.265 124.619 165.265 124.619 165 122C162.77 119.77 162.77 119.77 156.573 119.722C155.227 119.728 155.226 119.728 153.906 119.734C152.053 119.73 150.201 119.728 148.348 119.727C145.418 119.739 142.488 119.75 139.559 119.739C137.649 119.731 135.738 119.727 133.828 119.729C132.448 119.731 132.447 119.732 131.094 119.734C130.187 119.73 129.307 119.726 128.427 119.722C123.37 119.761 120.235 119.205 119.748 124.989C119.747 126.322 119.747 127.616 119.746 128.909C119.736 131.216 119.729 133.522 119.734 135.829C119.739 137.525 119.74 139.221 119.737 140.916C119.726 145.526 119.722 150.136 119.728 154.745C119.734 159.649 119.734 164.553 119.73 169.457C119.725 177.659 119.726 185.861 119.735 194.063C119.746 203.63 119.75 213.197 119.739 222.764C119.73 231.029 119.725 239.295 119.729 247.561C119.732 252.481 119.736 257.402 119.731 262.323C119.725 267.034 119.721 271.745 119.73 276.455C119.735 278.186 119.739 279.917 119.741 281.648C119.735 284.07 119.728 286.491 119.736 288.912C119.74 289.653 119.743 290.373 119.746 291.092C119.748 295.011 119.748 295.011 120 298C122.23 300.23 122.23 300.23 128.427 300.278C129.773 300.272 129.774 300.272 131.094 300.266C132.947 300.27 134.799 300.272 136.652 300.273C139.582 300.261 142.512 300.25 145.442 300.261C147.352 300.269 149.262 300.273 151.172 300.271C152.102 300.27 153.004 300.268 153.906 300.266C156.969 300.28 159.938 300.2 163 300C165 298 165 298 165.271 295.374C165.282 294.229 165.292 293.117 165.303 292.006C165.329 290.055 165.354 288.103 165.366 286.151C165.375 284.755 165.387 283.358 165.403 281.962C165.451 278.304 165.492 274.645 165.523 270.987C165.575 265.001 165.634 259.014 165.705 253.027C165.73 250.922 165.754 248.817 165.771 246.712C165.776 246.017 165.78 245.342 165.785 244.667C165.799 243.374 165.813 242.12 165.826 240.865C165.843 238.909 165.887 236.953 166 235C167.029 233.749 167.029 233.749 169.239 233.873C170.754 233.872 170.754 233.872 172.238 233.871C173.39 233.868 174.508 233.864 175.626 233.861C176.879 233.863 178.096 233.865 179.312 233.867C182.52 233.865 185.727 233.862 188.935 233.866C192.308 233.872 195.681 233.876 199.054 233.87C201.68 233.865 204.306 233.864 206.933 233.864C208.209 233.865 209.448 233.866 210.688 233.867C212.549 233.864 212.549 233.864 214.374 233.861C216.085 233.866 216.085 233.866 217.762 233.871C219.508 233.872 221.256 233.901 223 234C224.281 235.06 224.281 235.06 224.145 237.498C224.154 238.643 224.164 239.754 224.174 240.865C224.188 242.158 224.201 243.412 224.215 244.667C224.23 246.746 224.247 248.825 224.27 250.904C224.341 256.842 224.405 262.779 224.457 268.717C224.489 272.424 224.524 276.13 224.569 279.837C224.587 281.244 224.605 282.651 224.621 284.059C224.63 285.437 224.638 286.815 224.646 288.193C224.664 289.489 224.681 290.748 224.697 292.006C224.728 295.374 224.728 295.375 225 298C227.23 300.23 227.23 300.23 233.427 300.278C234.334 300.274 235.214 300.27 236.094 300.266C237.947 300.27 239.799 300.272 241.652 300.273C244.582 300.261 247.512 300.25 250.442 300.261C252.352 300.269 254.262 300.273 256.172 300.271C257.102 300.27 258.004 300.268 258.906 300.266C261.969 300.28 264.938 300.2 268 300C270 298 270 298 270.252 295.011C270.253 293.032 270.253 293.031 270.254 291.092C270.264 288.785 270.271 286.478 270.266 284.171C270.261 282.475 270.26 280.779 270.263 279.084C270.274 274.474 270.278 269.864 270.272 265.255C270.266 260.351 270.266 255.447 270.27 250.543C270.275 242.341 270.274 234.139 270.265 225.937C270.254 216.37 270.25 206.803 270.261 197.236C270.27 188.971 270.275 180.706 270.271 172.44C270.268 167.519 270.264 162.598 270.269 157.677C270.275 152.966 270.279 148.255 270.27 143.545C270.265 141.814 270.261 140.083 270.259 138.352C270.265 135.93 270.272 133.509 270.264 131.088C270.259 129.988 270.259 129.987 270.254 128.909C270.252 124.99 270.252 124.989 270 122C267.77 119.77 267.77 119.77 261.573 119.722C260.666 119.726 259.786 119.73 258.906 119.734ZM587.293 119.728C583.451 119.734 579.609 119.734 575.767 119.73C569.34 119.725 562.912 119.726 556.485 119.735C548.991 119.746 541.496 119.75 534.001 119.739C527.525 119.73 521.048 119.725 514.571 119.729C510.715 119.732 506.859 119.736 503.003 119.731C499.313 119.725 495.623 119.721 491.934 119.73C490.577 119.735 489.22 119.739 487.863 119.741C486.544 119.737 485.264 119.733 483.984 119.729C482.788 119.734 481.627 119.74 480.466 119.746C473.483 119.751 472.776 121.498 472.723 128.427C472.727 129.334 472.73 130.214 472.734 131.094C472.73 132.947 472.728 134.799 472.727 136.652C472.739 139.582 472.75 142.512 472.739 145.442C472.731 147.352 472.727 149.262 472.729 151.172C472.73 152.102 472.732 153.004 472.734 153.906C472.72 156.969 472.8 159.938 473 163C475 165 475 165 476.904 165.271C477.702 165.282 478.476 165.292 479.25 165.303C480.593 165.328 480.593 165.329 481.909 165.354C482.887 165.362 483.836 165.37 484.785 165.379C487.822 165.432 490.858 165.484 493.895 165.523C497.053 165.563 500.211 165.607 503.369 165.654C505.362 165.688 507.355 165.721 509.348 165.754C510.327 165.765 511.279 165.775 512.229 165.785C513.13 165.799 514.005 165.813 514.879 165.826C516.254 165.843 517.63 165.888 519 166C520.241 167.02 520.241 167.02 520.133 169.163C520.137 170.155 520.141 171.118 520.145 172.08C520.152 173.214 520.159 174.315 520.166 175.416C520.171 177.934 520.181 180.452 520.194 182.97C520.205 185.03 520.215 187.09 520.223 189.15C520.238 193.519 520.257 197.887 520.282 202.256C520.355 214.693 520.416 227.13 520.467 239.567C520.495 246.508 520.528 253.448 520.569 260.389C520.597 264.779 520.622 269.169 520.634 273.559C520.641 276.338 520.654 279.117 520.672 281.896C520.681 283.211 520.689 284.487 520.697 285.764C520.698 287.017 520.699 288.233 520.699 289.449C520.714 291.138 520.714 291.138 520.729 292.793C520.741 295.711 520.741 295.711 521 298C523.23 300.23 523.23 300.23 529.427 300.278C530.773 300.272 530.774 300.272 532.094 300.266C533.947 300.27 535.799 300.272 537.652 300.273C540.582 300.261 543.512 300.25 546.442 300.261C548.352 300.269 550.262 300.273 552.172 300.271C553.102 300.27 554.004 300.268 554.906 300.266C557.969 300.28 560.938 300.2 564 300C566 298 566 298 566.259 295.711C566.263 294.719 566.267 293.756 566.271 292.793C566.281 291.656 566.291 290.553 566.301 289.449C566.301 288.196 566.302 286.98 566.303 285.764C566.325 282.413 566.349 279.062 566.36 275.711C566.372 271.344 566.39 266.977 566.417 262.609C566.46 255.718 566.495 248.826 566.523 241.935C566.575 229.449 566.634 216.963 566.705 204.477C566.731 200.086 566.755 195.696 566.771 191.306C566.778 189.196 566.786 187.086 566.796 184.977C566.806 183.02 566.816 181.064 566.826 179.107C566.829 177.852 566.831 176.634 566.834 175.416C566.841 174.282 566.849 173.181 566.855 172.08C566.862 170.386 566.896 168.691 567 167C567.98 165.804 567.98 165.804 569.815 165.855C570.631 165.846 571.422 165.836 572.213 165.826C573.134 165.812 574.029 165.799 574.923 165.785C576.908 165.764 578.894 165.737 580.879 165.705C584.065 165.653 587.251 165.606 590.438 165.562C593.62 165.524 596.803 165.484 599.985 165.431C601.506 165.405 601.506 165.404 602.996 165.379C603.996 165.37 604.968 165.362 605.938 165.354C607.312 165.328 607.312 165.328 608.658 165.303C611.058 165.272 611.058 165.272 613 165C615.23 162.77 615.23 162.77 615.278 156.573C615.274 155.666 615.27 154.786 615.266 153.906C615.27 152.053 615.272 150.201 615.273 148.348C615.261 145.418 615.25 142.488 615.261 139.559C615.269 137.649 615.273 135.738 615.271 133.828C615.27 132.898 615.268 131.996 615.266 131.094C615.28 128.031 615.2 125.062 615 122C613 120 613 120 610.604 119.748C609.561 119.747 608.547 119.747 607.534 119.746C606.338 119.74 605.177 119.734 604.016 119.729C602.053 119.735 600.09 119.741 598.127 119.737C594.516 119.726 590.904 119.722 587.293 119.728Z" fill="#D594DC"/>
<path d="M345 161C364.8 161 384.6 161 405 161C405 175.85 405 190.7 405 206C385.2 206 365.4 206 345 206C345 191.15 345 176.3 345 161Z" fill="#D594DC"/>
<path d="M711 390C715.504 392.133 717.985 394.439 720 399C721.592 404.914 720.738 409.619 718 415C712.837 420.037 708.995 420.348 701.988 420.281C697.996 419.905 695.897 418.748 693 416C689.882 412.129 688.855 407.927 689 403C689.904 398.554 691.26 395.704 694.563 392.562C699.838 389.181 704.836 389.42 711 390ZM696 398C693.524 402.164 693.842 405.369 695 410C696.823 412.706 698.075 414.537 701 416C706.733 416.504 706.733 416.504 711.875 414.312C715.206 410.687 716.052 408.442 715.875 403.5C714.921 399.683 713.718 397.801 711 395C705.366 392.183 700.079 393.562 696 398Z" fill="#D594DC"/>
<path d="M699 397C700.588 396.938 702.176 396.876 703.812 396.812C705.152 396.76 705.152 396.76 706.52 396.707C709 397 709 397 710.848 398.234C712.375 400.575 712.111 401.719 711.625 404.438C711.07 407.652 711.016 409.871 712 413C710.35 413 708.7 413 707 413C706.711 412.361 706.423 411.721 706.125 411.062C705.172 408.848 705.172 408.848 703 408C703 409.65 703 411.3 703 413C701.68 413 700.36 413 699 413C699 407.72 699 402.44 699 397ZM703 401C703 401.99 703 402.98 703 404C704.32 404 705.64 404 707 404C707 403.01 707 402.02 707 401C705.68 401 704.36 401 703 401Z" fill="#D594DC"/>
</g>
<defs>
<clipPath id="clip0_6_4">
<rect width="721" height="420" fill="white"/>
</clipPath>
</defs>
</svg>
