<svg width="2120" height="1199" viewBox="0 0 2120 1199" fill="none" xmlns="http://www.w3.org/2000/svg">
<path d="M926.53 251.066C888.664 254.476 853.31 248.733 815.534 259.77C761.068 275.653 701.487 364.13 681.298 364.847C556.753 369.334 597.67 330.39 545.537 264.616C467.113 165.64 309.278 167.973 225.919 260.309C203.486 285.165 195.769 331.018 171.363 349.234C144.982 368.975 102.271 366.194 67.1865 388.627C-42.7326 458.888 -11.2376 658.902 114.115 691.565L2021.23 700C2092.75 695.693 2131.24 620.317 2100.11 555.53C2075.43 504.203 1985.88 511.83 1981.31 507.074C1976.73 502.318 1981.13 417.431 1961.03 375.795C1937.79 327.698 1862.59 266.141 1809.47 256.271C1773.22 249.541 1732.93 259.322 1704.67 252.861C1688.52 249.182 1653.34 128.581 1541.09 109.916C1501.43 103.366 1455.85 116.915 1417.62 105.789C1389.27 97.5331 1369.53 55.2689 1341.44 38.3991C1167.81 -66.05 946.54 55.0894 926.53 251.066Z" fill="white"/>
<path d="M1184.47 947.934C1222.34 944.524 1261.03 975.27 1318.5 958C1375.97 940.73 1394.31 882.218 1414.5 881.5C1539.04 877.013 1559 946.139 1628.5 976C1698 1005.86 1801.72 1031.03 1885.08 938.691C1907.52 913.835 1915.23 867.982 1939.64 849.766C1966.02 830.025 2008.73 832.806 2043.81 810.373C2153.73 740.112 2117.5 575.5 2099 555.5C2080.5 535.5 89.7655 499 89.7655 499C18.2507 503.307 -3.49824 594 39.5012 641C82.5007 688 103.501 688 118.501 694C133.501 700 129.875 781.569 149.974 823.205C173.214 871.302 248.408 932.859 301.528 942.729C337.779 949.459 378.068 939.678 406.333 946.139C422.484 949.818 457.658 1070.42 569.911 1089.08C609.571 1095.63 655.154 1082.08 693.379 1093.21C721.734 1101.47 741.474 1143.73 769.56 1160.6C943.187 1265.05 1164.46 1143.91 1184.47 947.934Z" fill="white"/>
</svg>
