<svg width="104" height="41" viewBox="0 0 104 41" fill="none" xmlns="http://www.w3.org/2000/svg">
<g clip-path="url(#clip0_449_1018)">
<path d="M62.2098 16.9338C63.0778 16.9338 63.7298 16.5698 64.1758 16.0698V14.0858C62.5778 14.1838 61.0198 14.5858 61.0198 15.8948C61.0198 16.5118 61.4998 16.9338 62.2098 16.9338ZM64.1758 12.5268V11.6248C64.1758 10.8518 63.7298 10.3908 62.7498 10.3908C61.7698 10.3908 60.7298 10.7968 59.4598 11.4108L58.4598 9.33184C59.8438 8.64084 61.4598 8.15984 62.8668 8.15984C65.8278 8.15984 66.9838 9.60184 66.9838 11.7188V16.0308C66.9838 16.5858 67.3128 16.8398 67.8318 16.8398V18.7808C65.8868 18.7808 65.0778 18.4918 64.4998 17.5108C63.6368 18.4338 62.6758 18.9528 61.2898 18.9528C59.4798 18.9528 58.2098 17.8588 58.2098 16.2228C58.2098 13.9688 60.3438 12.7968 64.1758 12.5268ZM69.5738 8.38984H72.2298L72.3628 9.58184C73.1168 8.79684 74.2108 8.14084 75.5028 8.14084C77.8128 8.14084 78.7928 9.56284 78.7928 11.8948V18.7228H75.9648V11.8158C75.9648 10.8908 75.5778 10.2578 74.6168 10.2578C73.7498 10.2578 72.9998 10.6988 72.3828 11.4678V18.7228H69.5738M53.3518 5.25384V14.2228C53.3518 15.6048 52.6758 16.3948 51.5038 16.3948C50.7138 16.3948 50.0978 16.0078 49.6138 15.3548L47.6838 17.1018C48.6798 18.3048 50.0268 18.9568 51.6558 18.9568C54.4648 18.9568 56.2578 17.3588 56.2578 14.2768V5.25384M53.0468 27.4688C51.5698 27.0938 50.2928 26.7688 50.2928 25.6718C50.2928 24.7578 51.1678 24.1408 52.4688 24.1408C53.6908 24.1408 54.9488 24.4408 56.1128 25.0038L57.1248 22.8518C55.5348 22.1088 53.9648 21.7458 52.3318 21.7458C49.4368 21.7458 47.4138 23.3788 47.4138 25.7108C47.4138 28.6758 49.8398 29.3048 51.9838 29.8628C53.4838 30.2528 54.7808 30.5898 54.7808 31.7148C54.7808 32.6988 53.9178 33.2848 52.4688 33.2848C51.2148 33.2848 49.8048 32.8628 48.4838 32.0898L47.1758 34.2378C48.6128 35.1178 50.6868 35.6798 52.4878 35.6798C55.6798 35.6798 57.6638 34.1448 57.6638 31.6758C57.6638 28.6328 55.1048 27.9878 53.0468 27.4688ZM59.9408 27.1128H58.3048V25.1128H59.9408V22.5348H62.7698V25.1128H65.0818V27.1128H62.7698V32.2528C62.7698 33.0198 63.0588 33.4058 63.7148 33.4058C64.2348 33.4058 64.7148 33.2338 65.1168 32.9458L66.1568 34.6358C65.2905 35.3024 64.23 35.6676 63.1368 35.6758C60.9798 35.6758 59.9408 34.6208 59.9408 32.3088M67.4408 25.1128H70.0388L70.2298 26.7108C71.0198 25.3238 71.9998 24.8238 73.1758 24.8238C73.6558 24.8238 74.0978 24.9018 74.4458 25.0348L74.0388 27.6128C73.5954 27.4539 73.1269 27.376 72.6558 27.3828C71.5978 27.3828 70.8858 28.0388 70.2498 29.2298V35.4448H67.4408M97.6288 27.1128H95.9918V25.1128H97.6288V22.5348H100.457V25.1128H102.77V27.1128H100.457V32.2528C100.457 33.0198 100.747 33.4058 101.398 33.4058C101.918 33.4058 102.398 33.2338 102.805 32.9458L103.844 34.6358C102.977 35.3024 101.917 35.6676 100.824 35.6758C98.6678 35.6758 97.6288 34.6208 97.6288 32.3088M85.7378 10.1558C87.0858 10.1558 87.5858 11.1558 87.5858 12.4648H83.4098C83.6798 10.9648 84.5818 10.1558 85.7378 10.1558ZM85.6598 8.11684C82.7928 8.11684 80.4838 10.1568 80.4838 13.4688C80.4838 16.9288 82.6408 18.9488 85.6798 18.9488C87.2027 18.9517 88.689 18.4822 89.9338 17.6048L88.7578 15.8128C87.8948 16.3518 86.9298 16.6988 85.8908 16.6988C84.4648 16.6988 83.6518 15.9688 83.4058 14.4998H90.0698C90.1448 14.0588 90.2578 13.5978 90.2578 12.8318C90.2578 10.0588 88.6248 8.11684 85.6598 8.11684ZM90.6598 26.8828C92.0038 26.8828 92.5038 27.8828 92.5038 29.1908H88.3278C88.5978 27.6908 89.5038 26.8828 90.6598 26.8828ZM90.5818 24.8428C87.7148 24.8428 85.4018 26.8828 85.4018 30.1948C85.4018 33.6558 87.5588 35.6798 90.6018 35.6798C92.1408 35.6798 93.5818 35.2148 94.8518 34.3318L93.6798 32.5388C92.8118 33.0788 91.8518 33.4258 90.8118 33.4258C89.3818 33.4258 88.5698 32.6958 88.3278 31.2258H94.9878C95.0658 30.7858 95.1798 30.3238 95.1798 29.5588C95.1798 26.7848 93.5428 24.8428 90.5818 24.8428ZM79.8548 26.8828C81.2028 26.8828 81.7028 27.8828 81.7028 29.1908H77.5268C77.7968 27.6908 78.7028 26.8828 79.8548 26.8828ZM79.7808 24.8428C76.9138 24.8428 74.6008 26.8828 74.6008 30.1948C74.6008 33.6558 76.7578 35.6798 79.7968 35.6798C81.3398 35.6798 82.7808 35.2148 84.0548 34.3318L82.8788 32.5388C82.0118 33.0788 81.0508 33.4258 80.0118 33.4258C78.5818 33.4258 77.7698 32.6958 77.5228 31.2258H84.1878C84.2658 30.7858 84.3778 30.3238 84.3778 29.5588C84.3778 26.7888 82.7418 24.8428 79.7808 24.8428ZM6.47984 28.2338C9.24984 32.9608 14.3898 36.1368 20.2538 36.1208C29.0238 36.0938 36.1408 28.9408 36.1168 20.1678C36.0938 11.3948 28.9368 4.27784 20.1638 4.30084C11.3938 4.32384 4.27684 11.4838 4.30084 20.2538C4.30578 21.3008 4.41296 22.3447 4.62084 23.3708C4.65184 23.4998 4.78484 23.5708 4.91084 23.5388L7.12484 22.9888C7.15602 22.982 7.18553 22.969 7.21168 22.9507C7.23783 22.9324 7.2601 22.9091 7.2772 22.8821C7.29431 22.8552 7.30591 22.8251 7.31134 22.7936C7.31677 22.7622 7.31592 22.73 7.30884 22.6988H7.31184C7.15516 21.8905 7.07547 21.0692 7.07384 20.2458C7.05384 13.0038 12.9298 7.09384 20.1718 7.07384C27.4178 7.05384 33.3278 12.9338 33.3438 20.1758C33.3668 27.4178 27.4878 33.3278 20.2458 33.3478C15.4488 33.3588 11.2378 30.7848 8.93784 26.9408C8.907 26.8844 8.85589 26.8417 8.79482 26.8215C8.73376 26.8013 8.66729 26.805 8.60884 26.8318L6.58184 27.9018C6.52437 27.9324 6.48136 27.9845 6.46224 28.0468C6.44313 28.109 6.44945 28.1763 6.47984 28.2338Z" fill="#D594DC"/>
<path d="M28.5819 23.6479L30.6019 24.7299C30.7219 24.7929 30.8819 24.7579 30.9299 24.6289C31.503 23.2602 31.803 21.7927 31.8129 20.3089C31.8669 13.9099 26.7029 8.66389 20.3049 8.60889H20.2069C13.8629 8.60889 8.65985 13.7689 8.60485 20.1129C8.55485 26.5119 13.7149 31.7619 20.1129 31.8129L20.2109 31.8159C23.2419 31.8159 26.0079 30.6359 28.0819 28.7149C28.1839 28.6249 28.2029 28.4689 28.1089 28.3669L26.3869 26.8129C26.2849 26.7229 26.1329 26.7429 26.0429 26.8279L26.0389 26.8239C24.4337 28.2526 22.3598 29.0422 20.2109 29.0429H20.1369C15.2659 28.9999 11.3399 25.0079 11.3789 20.1369C11.4179 15.3089 15.3789 11.3789 20.2069 11.3789H20.2849C25.1519 11.4219 29.0819 15.4179 29.0389 20.2849C29.0306 21.3207 28.8389 22.3469 28.4729 23.3159C28.4458 23.3748 28.442 23.4417 28.4622 23.5033C28.4825 23.5648 28.5252 23.6165 28.5819 23.6479Z" fill="#D594DC"/>
<path d="M31.895 3.72701C31.785 3.65201 31.637 3.67201 31.563 3.78501L30.265 5.66001C30.19 5.77001 30.202 5.92201 30.312 6.00001C34.752 9.16801 37.659 14.355 37.655 20.215C37.655 29.832 29.831 37.652 20.214 37.652C10.597 37.652 2.772 29.828 2.772 20.207C2.772 10.594 10.597 2.77001 20.218 2.77301C22.2509 2.77137 24.2683 3.12711 26.178 3.82401C26.2377 3.84535 26.3034 3.84268 26.3613 3.81657C26.4191 3.79046 26.4645 3.74294 26.488 3.68401L27.304 1.54301C27.3253 1.48482 27.3233 1.42067 27.2986 1.36387C27.2738 1.30708 27.2281 1.262 27.171 1.23801C24.9452 0.416981 22.5914 -0.00219536 20.219 8.64627e-06C9.07 -0.00399135 0.004 9.06301 0 20.21C0 31.355 9.07 40.426 20.215 40.426C31.359 40.426 40.43 31.359 40.43 20.215C40.43 13.415 37.055 7.39101 31.895 3.72701Z" fill="#D594DC"/>
</g>
<defs>
<clipPath id="clip0_449_1018">
<rect width="104" height="41" fill="white"/>
</clipPath>
</defs>
</svg>
