<svg width="149" height="194" viewBox="0 0 149 194" fill="none" xmlns="http://www.w3.org/2000/svg">
<path d="M65.4238 2.03644C69.2428 -0.0310795 73.2693 -0.345541 76.4561 0.301093C77.8149 0.576856 78.7908 1.45403 79.457 2.29133C80.1345 3.14289 80.6919 4.20154 81.1719 5.30891C82.1326 7.52573 82.9965 10.4571 83.8613 13.6136C85.6247 20.0499 84.7992 26.8139 83.7832 33.8968C83.1548 38.278 81.4289 43.3188 78.9355 49.68C77.7409 52.7278 76.3067 56.0855 74.9258 59.2298H75.8398C80.1295 59.2298 84.0833 59.8134 87.6738 61.0042C88.4987 58.3997 89.6196 55.5339 91.0557 52.428C93.1559 47.8858 96.6291 44.0206 99.1289 41.2943C101.81 38.3698 104.023 36.624 106.943 34.7298C109.818 32.8649 113.395 30.8521 117.539 29.1409C125.952 25.6669 132.702 24.6528 136.337 24.9691C140.155 25.3014 142.57 27.5252 144.099 29.1683C146.581 31.8377 147.657 35.7995 148.312 39.1165C149.141 43.3235 147.733 47.2975 145.79 50.845C143.092 55.7723 137.82 59.8814 131.911 63.9671C128.324 66.4477 123.626 68.737 118.423 70.9896C113.559 73.0951 108.169 75.0194 104.293 76.2728C105.419 79.3105 105.977 82.6752 105.977 86.3392V125.734H114.646L115.272 127.31C117.688 133.384 118.867 140.25 118.867 147.863C118.867 153.301 117.713 158.193 115.326 162.461L115.322 162.47L115.317 162.478C113.145 166.296 109.959 168.905 105.879 170.267V184.589L104.844 185.337C97.0638 190.964 87.7096 193.722 76.9141 193.722C66.2312 193.722 57.2647 191.182 50.2188 185.898L49.2188 185.148V171.261H35.5078C24.0129 171.261 14.876 167.642 8.50293 160.123V160.122C2.7461 153.432 4.12603e-05 144.532 0 133.702C2.63316e-05 128.167 0.466288 123.254 1.42871 118.992L1.61133 118.184L2.23926 117.645C11.7434 109.489 20.5824 100.201 28.7549 89.7767C33.1953 84.0664 39.7951 74.418 48.5791 60.7728C48.4716 60.2593 48.3588 59.714 48.2373 59.1361C47.4232 55.2638 46.533 49.2519 45.9775 44.7279C45.0351 37.0516 45.6165 31.6704 46.8906 26.8568C48.4283 21.0478 51.8783 15.3122 55.2197 10.4886C58.1781 6.21819 62.0402 3.86842 65.4238 2.03644ZM59.3076 91.4642C58.4275 107.103 51.9167 118.503 38.7607 126.872L30.3047 131.617C41.4806 129.54 52.0164 127.706 57.0469 140.062L59.8018 150.464C60.8719 135.634 67.6129 122.5 80.8486 115.057L89.3047 110.311V110.306C79.4389 112.552 66.4973 114.268 62.377 102.546L59.3076 91.4642Z" fill="url(#paint0_radial_244_167)"/>
<defs>
<radialGradient id="paint0_radial_244_167" cx="0" cy="0" r="1" gradientUnits="userSpaceOnUse" gradientTransform="translate(74.2772 96.861) rotate(90) scale(96.861 74.2772)">
<stop stop-color="#F5DCC6"/>
<stop offset="0.581731" stop-color="#D594DC"/>
<stop offset="1" stop-color="#699DE6"/>
</radialGradient>
</defs>
</svg>
