<svg width="1073" height="230" viewBox="0 0 1073 230" fill="none" xmlns="http://www.w3.org/2000/svg">
<path d="M47.5586 150.858C48.2096 151.509 48.9909 151.834 49.9023 151.834C51.3346 151.834 52.3112 150.825 52.832 148.807C53.3529 146.724 53.6133 142.557 53.6133 136.307V126.346C53.6133 124.588 53.3854 123.351 52.9297 122.635C52.474 121.919 51.7253 121.561 50.6836 121.561C49.6419 121.561 48.8932 121.789 48.4375 122.244V135.33C48.4375 139.237 48.1445 144.412 47.5586 150.858ZM51.4648 70.8772V79.5686C45.9961 79.8941 40.9831 80.7405 36.4258 82.1077C31.8685 83.4097 29.5898 84.9397 29.5898 86.6975C29.5898 87.7392 30.1107 88.5855 31.1523 89.2366C38.3138 85.7209 45.8984 83.9631 53.9062 83.9631C68.2292 83.9631 79.9479 88.9111 89.0625 98.8069C98.2422 108.638 102.832 121.463 102.832 137.283C102.832 156.424 97.2982 170.845 86.2305 180.545C76.1393 189.399 62.4023 193.826 45.0195 193.826C27.7018 193.826 14.9414 190.474 6.73828 183.768C2.24609 180.057 0 175.239 0 169.315V57.8889C3.125 56.066 6.86849 54.5686 11.2305 53.3967C15.6576 52.2249 20.1172 51.6389 24.6094 51.6389C32.0964 51.6389 38.2812 53.1038 43.1641 56.0334C48.6979 59.484 51.4648 64.4319 51.4648 70.8772Z" fill="white"/>
<path d="M161.23 148.221C162.012 148.221 162.858 147.895 163.77 147.244C163.118 145.096 162.793 141.743 162.793 137.186V88.9436C169.694 84.7769 177.995 82.6936 187.695 82.6936C193.164 82.6936 197.949 83.4423 202.051 84.9397C206.217 86.372 209.408 88.2926 211.621 90.7014V141.58C211.621 151.281 213.965 157.596 218.652 160.526C218.717 160.851 218.75 161.47 218.75 162.381V164.139C218.75 173.644 216.243 180.838 211.23 185.721C206.673 190.278 200.391 192.557 192.383 192.557C187.37 192.557 182.812 191.418 178.711 189.139C174.674 186.86 171.647 183.54 169.629 179.178C167.415 179.178 166.309 180.252 166.309 182.401C166.309 183.898 167.057 185.395 168.555 186.893C166.471 188.586 163.965 189.953 161.035 190.994C158.105 192.036 153.776 192.557 148.047 192.557C142.383 192.557 136.849 191.385 131.445 189.041C124.74 186.177 119.596 181.782 116.016 175.858C111.654 168.826 109.473 159.907 109.473 149.1V124.588C106.152 118.794 104.492 112.414 104.492 105.448C104.492 101.867 104.948 98.1558 105.859 94.3147C106.771 90.4736 108.236 87.0556 110.254 84.0608H131.738C139.811 84.0608 146.126 85.9814 150.684 89.8225C155.306 93.5986 157.617 99.3603 157.617 107.108V138.748C157.617 145.063 158.822 148.221 161.23 148.221Z" fill="white"/>
<path d="M273.34 102.908V141.58C273.34 151.281 275.684 157.596 280.371 160.526C280.436 160.851 280.469 161.47 280.469 162.381V164.139C280.469 173.709 277.865 180.903 272.656 185.721C267.839 190.278 261.393 192.557 253.32 192.557C245.312 192.557 238.704 190.278 233.496 185.721C226.921 179.927 223.633 171.463 223.633 160.33V96.8538C224.805 96.0074 226.074 95.3238 227.441 94.803C228.809 94.2821 230.241 93.6311 231.738 92.8499C228.939 91.4176 226.4 88.9436 224.121 85.428C221.842 81.8472 220.703 77.6806 220.703 72.928C220.703 64.7249 223.405 58.0191 228.809 52.8108C234.212 47.6025 240.82 44.9983 248.633 44.9983C256.51 44.9983 263.086 47.6676 268.359 53.0061C273.698 58.2795 276.367 64.9202 276.367 72.928C276.367 79.3733 274.349 85.0374 270.312 89.9202C266.276 94.7379 261.361 97.7652 255.566 99.0022C255.566 101.476 256.51 102.713 258.398 102.713C261.719 102.713 265.104 101.411 268.555 98.8069C271.159 100.825 272.754 102.192 273.34 102.908Z" fill="white"/>
<path d="M334.668 72.928V141.58C334.668 151.281 337.012 157.596 341.699 160.526C341.764 160.851 341.797 161.47 341.797 162.381V164.139C341.797 173.449 339.421 180.513 334.668 185.33C329.98 190.148 323.307 192.557 314.648 192.557C305.99 192.557 299.121 190.148 294.043 185.33C287.988 179.601 284.961 170.942 284.961 159.354V57.8889C291.797 53.7222 299.609 51.6389 308.398 51.6389C317.253 51.6389 323.828 53.5269 328.125 57.303C332.487 61.0139 334.668 66.2222 334.668 72.928Z" fill="white"/>
<path d="M399.902 121.561C399.251 120.91 398.47 120.584 397.559 120.584C396.126 120.584 395.15 121.626 394.629 123.709C394.108 125.727 393.848 129.862 393.848 136.112V146.073C393.848 147.83 394.076 149.067 394.531 149.783C394.987 150.5 395.736 150.858 396.777 150.858C397.819 150.858 398.568 150.63 399.023 150.174V137.088C399.023 130.708 399.316 125.532 399.902 121.561ZM392.871 63.8459C396.322 59.8095 400.13 56.7821 404.297 54.7639C408.464 52.6806 413.77 51.6389 420.215 51.6389C428.027 51.6389 434.375 53.8199 439.258 58.1819C444.271 62.8694 446.777 69.1845 446.777 77.1272V141.58C446.777 151.281 449.121 157.596 453.809 160.526C453.874 160.851 453.906 161.47 453.906 162.381V164.139C453.906 173.384 451.107 180.578 445.508 185.721C440.56 190.278 434.44 192.557 427.148 192.557C422.07 192.557 417.676 191.483 413.965 189.334C409.603 186.86 406.543 183.475 404.785 179.178C402.572 179.178 401.465 180.252 401.465 182.401C401.465 183.377 401.823 184.517 402.539 185.819C403.32 187.056 404.362 188.162 405.664 189.139C401.823 191.418 396.842 192.557 390.723 192.557C382.454 192.557 374.707 190.669 367.48 186.893C360.319 183.052 354.622 177.29 350.391 169.608C345.508 160.819 343.066 150.174 343.066 137.674C343.066 121.007 347.721 107.921 357.031 98.4163C366.406 88.9111 378.353 84.1584 392.871 84.1584C401.465 84.1584 408.952 85.7861 415.332 89.0413C416.048 88.3251 416.406 87.5764 416.406 86.7952C416.406 84.842 414.095 83.1819 409.473 81.8147C404.85 80.4475 400.195 79.7639 395.508 79.7639C395.508 73.1233 394.629 67.8173 392.871 63.8459Z" fill="white"/>
<path d="M682.641 122.14C682.641 119.796 681.762 118.624 680.004 118.624C678.376 118.624 677.562 119.601 677.562 121.554V131.613C678.083 132.068 678.865 132.296 679.906 132.296C680.948 132.296 681.664 131.906 682.055 131.124C682.445 130.343 682.641 128.911 682.641 126.827V122.14ZM686.254 161.691C682.087 161.691 678.539 161.398 675.609 160.812C675.414 161.398 675.316 161.951 675.316 162.472C675.316 163.904 676.326 164.881 678.344 165.402C680.427 165.857 683.064 166.085 686.254 166.085C696.41 166.085 705.069 164.588 712.23 161.593C719.262 163.416 724.73 167.387 728.637 173.507C731.827 178.52 733.422 184.412 733.422 191.183C733.422 203.227 728.311 212.602 718.09 219.308C707.868 226.014 694.685 229.366 678.539 229.366C662.458 229.366 650.023 226.502 641.234 220.773C633.096 215.564 629.027 208.794 629.027 200.46C629.027 197.27 629.776 194.21 631.273 191.281C632.771 188.286 634.496 186.235 636.449 185.128C639.704 187.863 644.49 190.076 650.805 191.769C657.185 193.462 663.728 194.308 670.434 194.308C677.139 194.308 681.436 194.047 683.324 193.527C685.277 193.006 686.254 192.094 686.254 190.792C686.254 190.141 686.059 189.49 685.668 188.839C682.413 189.555 678.344 189.913 673.461 189.913C660.896 189.913 651.033 188.123 643.871 184.542C635.147 180.245 630.785 173.767 630.785 165.109C630.785 161.723 631.469 158.598 632.836 155.734C634.203 152.804 636.221 150.623 638.891 149.191C635.31 146.977 632.25 143.624 629.711 139.132C627.237 134.64 626 129.106 626 122.531C626 110.031 630.688 100.167 640.062 92.9407C649.438 85.7141 661.612 82.1008 676.586 82.1008C683.812 82.1008 690.779 83.3053 697.484 85.7141V78.8782C701.326 77.3808 706.404 76.6321 712.719 76.6321C719.099 76.6321 723.949 77.7063 727.27 79.8547C731.306 82.4589 733.324 87.0487 733.324 93.6243C733.324 97.2701 732.934 100.2 732.152 102.413C731.436 104.627 730.362 106.938 728.93 109.347C730.622 113.644 731.469 118.982 731.469 125.363C731.469 136.886 727.367 145.838 719.164 152.218C711.026 158.533 700.056 161.691 686.254 161.691Z" fill="white"/>
<path d="M787.621 137.765V154.855C788.077 155.31 788.826 155.538 789.867 155.538C790.909 155.538 791.658 155.18 792.113 154.464C792.569 153.748 792.797 152.511 792.797 150.753V136.788C792.797 130.538 792.536 126.404 792.016 124.386C791.495 122.303 790.518 121.261 789.086 121.261C788.174 121.261 787.393 121.587 786.742 122.238C787.328 128.683 787.621 133.859 787.621 137.765ZM751.098 181.027C740.421 170.74 735.082 156.808 735.082 139.23C735.082 121.587 740.095 107.687 750.121 97.5305C760.212 87.3092 773.428 82.1985 789.77 82.1985C806.111 82.1985 819.327 87.5045 829.418 98.1165C839.444 108.728 844.457 122.563 844.457 139.62C844.457 156.613 839.607 170.122 829.906 180.148C820.271 190.174 807.152 195.187 790.551 195.187C773.949 195.187 760.798 190.467 751.098 181.027Z" fill="white"/>
<path d="M900.902 137.765V154.855C901.358 155.31 902.107 155.538 903.148 155.538C904.19 155.538 904.939 155.18 905.395 154.464C905.85 153.748 906.078 152.511 906.078 150.753V136.788C906.078 130.538 905.818 126.404 905.297 124.386C904.776 122.303 903.799 121.261 902.367 121.261C901.456 121.261 900.674 121.587 900.023 122.238C900.609 128.683 900.902 133.859 900.902 137.765ZM864.379 181.027C853.702 170.74 848.363 156.808 848.363 139.23C848.363 121.587 853.376 107.687 863.402 97.5305C873.493 87.3092 886.71 82.1985 903.051 82.1985C919.392 82.1985 932.608 87.5045 942.699 98.1165C952.725 108.728 957.738 122.563 957.738 139.62C957.738 156.613 952.888 170.122 943.188 180.148C933.552 190.174 920.434 195.187 903.832 195.187C887.23 195.187 874.079 190.467 864.379 181.027Z" fill="white"/>
<path d="M1018.48 122.921C1017.83 122.27 1017.05 121.945 1016.14 121.945C1014.7 121.945 1013.73 122.986 1013.21 125.07C1012.69 127.088 1012.43 131.222 1012.43 137.472V147.433C1012.43 149.191 1012.65 150.428 1013.11 151.144C1013.57 151.86 1014.31 152.218 1015.36 152.218C1016.4 152.218 1017.15 151.99 1017.6 151.534V138.448C1017.6 132.068 1017.89 126.892 1018.48 122.921ZM1011.45 65.2063C1014.9 61.1698 1018.71 58.1425 1022.88 56.1243C1027.04 54.0409 1032.35 52.9993 1038.79 52.9993C1046.61 52.9993 1052.95 55.1803 1057.84 59.5422C1062.85 64.2297 1065.36 70.5448 1065.36 78.4875V142.941C1065.36 152.641 1067.7 158.956 1072.39 161.886C1072.45 162.212 1072.48 162.83 1072.48 163.741V165.499C1072.48 174.744 1069.68 181.938 1064.09 187.081C1059.14 191.639 1053.02 193.917 1045.73 193.917C1040.65 193.917 1036.25 192.843 1032.54 190.695C1028.18 188.221 1025.12 184.835 1023.36 180.538C1021.15 180.538 1020.04 181.613 1020.04 183.761C1020.04 184.738 1020.4 185.877 1021.12 187.179C1021.9 188.416 1022.94 189.523 1024.24 190.499C1020.4 192.778 1015.42 193.917 1009.3 193.917C1001.03 193.917 993.285 192.029 986.059 188.253C978.897 184.412 973.201 178.65 968.969 170.968C964.086 162.179 961.645 151.534 961.645 139.034C961.645 122.368 966.299 109.282 975.609 99.7766C984.984 90.2714 996.931 85.5188 1011.45 85.5188C1020.04 85.5188 1027.53 87.1464 1033.91 90.4016C1034.63 89.6855 1034.98 88.9368 1034.98 88.1555C1034.98 86.2024 1032.67 84.5422 1028.05 83.175C1023.43 81.8079 1018.77 81.1243 1014.09 81.1243C1014.09 74.4836 1013.21 69.1777 1011.45 65.2063Z" fill="white"/>
<path d="M542.424 2.03648C546.243 -0.0311574 550.269 -0.345539 553.456 0.30113C554.815 0.576938 555.791 1.454 556.457 2.29136C557.135 3.14299 557.692 4.20152 558.172 5.30894C559.133 7.52583 559.997 10.4571 560.861 13.6136C562.625 20.05 561.799 26.8139 560.783 33.8968C560.155 38.2781 558.429 43.3187 555.936 49.68C554.741 52.7279 553.307 56.0855 551.926 59.2298H552.84C557.13 59.2298 561.083 59.8134 564.674 61.0043C565.499 58.3997 566.62 55.534 568.056 52.4281C570.156 47.8858 573.629 44.0207 576.129 41.2943C578.81 38.3697 581.023 36.624 583.943 34.7298C586.818 32.8649 590.395 30.8522 594.539 29.141C602.952 25.6669 609.702 24.6528 613.337 24.9691C617.156 25.3014 619.57 27.5252 621.099 29.1683C623.581 31.8378 624.657 35.7995 625.312 39.1166C626.141 43.3236 624.733 47.2975 622.79 50.8451C620.092 55.7723 614.82 59.8815 608.911 63.9671C605.324 66.4477 600.626 68.737 595.423 70.9896C590.559 73.0951 585.169 75.0194 581.293 76.2728C582.419 79.3106 582.977 82.6752 582.977 86.3392V125.734H591.646L592.272 127.31C594.688 133.384 595.867 140.25 595.867 147.863C595.867 153.301 594.713 158.193 592.326 162.461L592.322 162.47L592.317 162.478C590.145 166.296 586.959 168.905 582.879 170.267V184.589L581.844 185.337C574.064 190.964 564.71 193.722 553.914 193.722C543.231 193.722 534.265 191.182 527.219 185.898L526.219 185.148V171.261H512.508C501.013 171.261 491.876 167.642 485.503 160.123V160.122C479.746 153.432 477 144.532 477 133.702C477 128.167 477.466 123.254 478.429 118.992L478.611 118.184L479.239 117.645C488.743 109.489 497.582 100.201 505.755 89.7767C510.195 84.0666 516.795 74.4181 525.579 60.7728C525.472 60.2593 525.359 59.7141 525.237 59.1361C524.423 55.2639 523.533 49.252 522.978 44.7279C522.035 37.0516 522.617 31.6705 523.891 26.8568C525.428 21.0478 528.878 15.3123 532.22 10.4886C535.178 6.21809 539.04 3.8685 542.424 2.03648ZM536.308 91.4632C535.427 107.102 528.917 118.501 515.761 126.87L507.305 131.616C518.481 129.538 529.016 127.704 534.047 140.06L536.802 150.463C537.872 135.633 544.613 122.498 557.849 115.055L566.305 110.31V110.305C556.439 112.551 543.497 114.267 539.377 102.545L536.308 91.4632Z" fill="url(#paint0_radial_358_205)"/>
<defs>
<radialGradient id="paint0_radial_358_205" cx="0" cy="0" r="1" gradientUnits="userSpaceOnUse" gradientTransform="translate(551.277 96.861) rotate(90) scale(96.861 74.2772)">
<stop stop-color="#F5DCC6"/>
<stop offset="0.581731" stop-color="#D594DC"/>
<stop offset="1" stop-color="#699DE6"/>
</radialGradient>
</defs>
</svg>
