<svg width="214" height="73" viewBox="0 0 214 73" fill="none" xmlns="http://www.w3.org/2000/svg">
<path d="M35.3995 0.00307307C41.046 -0.0821253 46.5023 1.59888 51.9018 5.71261C51.93 5.73629 51.9582 5.75996 51.9872 5.78436C52.6245 6.32121 53.2332 6.8814 53.8237 7.4694C53.8633 7.50874 53.9029 7.54808 53.9437 7.58862C54.1897 7.83534 54.4226 8.0899 54.6493 8.3544C54.6995 8.41162 54.7497 8.46879 54.8 8.52591C55.8028 9.67556 56.6941 10.933 57.4562 12.2543C57.9849 13.165 58.63 13.8323 59.5044 14.4089C59.6894 14.5324 59.8704 14.6615 60.0518 14.7905C60.3812 15.0238 60.7115 15.2559 61.0424 15.4872C61.487 15.7982 61.9312 16.1095 62.3736 16.4236C62.4581 16.4834 62.543 16.5428 62.6279 16.6021C63.229 17.028 63.7753 17.5267 64.3182 18.0233C64.3452 18.0479 64.3721 18.0724 64.3998 18.0976C64.8706 18.5271 65.337 18.9577 65.752 19.4425C65.8657 19.5731 65.9836 19.6994 66.1015 19.8264C66.378 20.13 66.63 20.4489 66.8804 20.7742C66.9623 20.8794 67.0458 20.9832 67.1297 21.0868C69.9048 24.5393 71.5717 28.8933 72.1016 33.2698C72.1059 33.3052 72.1102 33.3406 72.1146 33.3772C72.5432 36.9632 72.1097 40.5998 70.9756 44.0185C70.9568 44.0751 70.9381 44.1317 70.9188 44.19C70.1844 46.3816 69.1014 48.4832 67.7526 50.3588C67.7237 50.3991 67.6948 50.4394 67.6651 50.481C67.3153 50.9675 66.9579 51.4427 66.5648 51.8952C66.4354 52.0453 66.3111 52.1986 66.1873 52.3534C66.0016 52.5819 65.8033 52.7893 65.5925 52.9946C65.4882 53.0987 65.3915 53.2057 65.2957 53.3176C64.999 53.6623 64.6745 53.9768 64.3292 54.2724C64.2154 54.3718 64.105 54.4743 63.9948 54.5776C63.6575 54.8924 63.3045 55.18 62.9382 55.4602C62.8371 55.5381 62.7369 55.6171 62.6368 55.6963C61.8172 56.3401 60.9467 56.9173 60.0485 57.4454C58.8734 58.1366 58.022 58.982 57.3721 60.1732C56.7013 61.3906 55.8195 62.5175 54.9135 63.5678C54.8798 63.6068 54.8461 63.6459 54.8113 63.6862C54.7227 63.7882 54.6332 63.8893 54.5436 63.9904C54.5115 64.0271 54.4793 64.0637 54.4461 64.1014C54.1345 64.4525 53.8091 64.7877 53.4772 65.1195C53.3881 65.2088 53.2993 65.2985 53.2106 65.3882C52.9028 65.6976 52.59 65.9879 52.2478 66.2596C52.1179 66.3642 51.994 66.4731 51.8705 66.5852C51.6358 66.7959 51.3891 66.9862 51.1357 67.1738C51.0895 67.2081 51.0432 67.2425 50.9956 67.2778C50.8576 67.38 50.7193 67.4816 50.581 67.5833C50.5439 67.6108 50.5069 67.6383 50.4687 67.6667C46.9919 70.245 42.7199 71.7588 37.0273 72.2436C36.9281 72.2441 36.9281 72.2441 36.8269 72.2447C36.6145 72.2456 36.4022 72.246 36.1898 72.246C36.1355 72.2461 36.1355 72.246 36.0801 72.2461C35.0061 72.2461 33.9455 72.2361 32.881 72.0743C32.8084 72.0637 32.7359 72.0531 32.6633 72.0425C28.3603 71.4059 24.2237 69.6819 20.3061 66.5266C20.2751 66.5008 20.244 66.475 20.2121 66.4484C19.4056 65.7767 18.6046 65.0601 17.9212 64.2621C17.8075 64.1314 17.6897 64.0051 17.5718 63.8782C17.2947 63.5739 17.0411 63.2546 16.7906 62.9283C16.7123 62.8268 16.633 62.7263 16.5535 62.6258C15.852 61.7328 15.2342 60.7816 14.6691 59.7972C14.0371 58.7137 13.1565 57.9959 12.0901 57.3761C10.6301 56.5272 9.2768 55.5019 8.0393 54.3539C7.90282 54.228 7.76455 54.1045 7.62549 53.9814C7.21106 53.609 6.81215 53.2165 6.45093 52.7919C6.33571 52.6584 6.21609 52.5293 6.09656 52.3996C5.85404 52.133 5.62702 51.8589 5.40639 51.574C5.38196 51.5429 5.35752 51.5117 5.33235 51.4796C3.67623 49.3658 2.36686 47.016 1.44371 44.4941C1.42275 44.4369 1.40179 44.3798 1.38019 44.3209C0.788449 42.684 0.409094 40.9861 0.175652 39.2633C0.16845 39.2106 0.16845 39.2106 0.161102 39.1567C0.0272677 38.1605 0.00262744 37.1697 0.000633671 36.1658C0.000434667 36.1107 0.000235661 36.0557 3.06266e-05 35.9989C-0.00221818 34.7734 0.119522 33.5856 0.316539 32.3766C0.347293 32.1871 0.376986 31.9975 0.406602 31.8078C0.587081 30.6738 0.847979 29.5747 1.21916 28.4881C1.23274 28.4479 1.24632 28.4078 1.26031 28.3664C1.6652 27.1695 2.14534 26.0217 2.71177 24.892C2.73409 24.8472 2.75641 24.8024 2.77941 24.7563C3.71474 22.8917 4.93913 21.1752 6.3434 19.6355C6.4097 19.562 6.47564 19.4881 6.54 19.4129C6.80725 19.1014 7.09369 18.8115 7.38443 18.522C7.45599 18.4501 7.45599 18.4501 7.52901 18.3768C7.7992 18.107 8.07459 17.8482 8.36519 17.6007C8.42242 17.5505 8.4796 17.5003 8.5367 17.45C9.76051 16.3825 11.1052 15.4688 12.5029 14.6452C12.7979 14.4705 13.0705 14.283 13.3318 14.0607C13.3732 14.0268 13.4147 13.993 13.4574 13.9581C14.046 13.458 14.4532 12.849 14.833 12.1842C15.2702 11.4201 15.7642 10.6972 16.2906 9.99231C16.3144 9.9603 16.3382 9.9283 16.3628 9.89533C16.7982 9.31327 17.2662 8.75987 17.7559 8.22293C17.8219 8.14975 17.8876 8.07623 17.9516 8.0013C18.2035 7.7074 18.4726 7.43229 18.7468 7.15934C18.8232 7.08316 18.8994 7.0067 18.9756 6.93021C19.2516 6.65397 19.5333 6.38853 19.8306 6.1353C19.8859 6.08641 19.9413 6.03743 19.9965 5.98835C20.4773 5.56591 20.983 5.18047 21.4991 4.80238C21.579 4.7439 21.6586 4.68522 21.7381 4.62623C25.4649 1.86228 30.0324 0.382093 35.3995 0.00307307ZM33.0428 3.86996C32.9871 3.87879 32.9871 3.87879 32.9304 3.8878C28.9676 4.52056 25.2786 6.23748 22.261 8.88276C22.214 8.92383 22.167 8.96489 22.1186 9.00721C21.7731 9.31679 21.4425 9.64172 21.1133 9.9684C21.0381 10.0429 20.9628 10.1172 20.8875 10.1914C20.5648 10.5137 20.2732 10.8511 19.9891 11.2075C19.9434 11.2618 19.8976 11.3159 19.8512 11.3695C18.919 12.3547 18.919 12.3547 18.3511 13.4795C23.6342 13.4795 28.9172 13.4795 34.3604 13.4795C34.3615 11.9244 34.3626 10.3694 34.3637 8.76718C34.3644 8.03016 34.3644 8.03016 34.3651 7.27824C34.3653 6.83851 34.3653 6.83851 34.3654 6.39878C34.3655 6.20264 34.3657 6.0065 34.366 5.81036C34.3663 5.56028 34.3664 5.3102 34.3664 5.06012C34.3664 4.96827 34.3665 4.87643 34.3667 4.78458C34.3669 4.66061 34.3669 4.53665 34.3667 4.41268C34.3668 4.34318 34.3668 4.27368 34.3669 4.20208C34.3613 4.04646 34.344 3.90859 34.3075 3.75769C33.8775 3.74167 33.4666 3.80193 33.0428 3.86996ZM37.9532 3.75769C37.9532 6.96587 37.9532 10.1741 37.9532 13.4795C43.2188 13.4795 48.4844 13.4795 53.9096 13.4795C53.2944 12.5127 52.6367 11.597 51.8593 10.7535C51.794 10.6819 51.7291 10.6098 51.666 10.5363C51.4068 10.2344 51.1303 9.95261 50.8484 9.67199C50.8032 9.6266 50.7581 9.5812 50.7115 9.53443C50.4476 9.27096 50.1787 9.01795 49.8941 8.77708C49.8605 8.74846 49.827 8.71983 49.7924 8.69034C47.8301 7.02647 45.5984 5.75204 43.1839 4.86724C43.1359 4.84942 43.0878 4.8316 43.0383 4.81324C41.6886 4.31859 40.2702 4.02241 38.8514 3.81052C38.8119 3.80445 38.7724 3.79838 38.7317 3.79213C38.4656 3.75448 38.2287 3.75769 37.9532 3.75769ZM14.7055 17.5478C14.5191 17.6686 14.3273 17.7783 14.1342 17.8879C12.9427 18.5795 11.7888 19.3814 10.7795 20.3225C10.6696 20.4238 10.5584 20.5216 10.445 20.6189C10.1904 20.841 9.95084 21.0774 9.71205 21.3162C9.63712 21.391 9.56177 21.4654 9.4864 21.5398C9.15967 21.8659 8.8645 22.2069 8.57654 22.5672C8.52714 22.6254 8.4774 22.6833 8.42711 22.7408C6.87977 24.5152 4.40251 27.9886 4.40251 30.4397C14.2886 30.4397 24.1747 30.4397 34.3604 30.4397C34.3604 28.8182 34.3604 27.1967 34.3604 25.526C33.8608 25.5252 33.3613 25.5245 32.8467 25.5237C31.2476 25.5211 29.6485 25.5178 28.0495 25.5139C27.801 25.5133 27.5526 25.5127 27.3041 25.5122C27.2546 25.512 27.2052 25.5119 27.1542 25.5118C26.3538 25.5099 25.5533 25.5086 24.7528 25.5075C23.9312 25.5064 23.1096 25.5046 22.288 25.5023C21.7812 25.5009 21.2744 25.5 20.7676 25.4996C20.4199 25.4994 20.0721 25.4985 19.7244 25.4972C19.5239 25.4964 19.3234 25.496 19.1229 25.4962C18.9052 25.4964 18.6874 25.4954 18.4697 25.4942C18.3754 25.4946 18.3754 25.4946 18.2792 25.495C17.6911 25.49 17.1687 25.3901 16.7132 24.9977C16.3474 24.6182 16.2308 24.2262 16.2146 23.7065C16.227 23.1911 16.3626 22.8244 16.7172 22.4485C17.0453 22.1497 17.411 21.9733 17.86 21.9722C17.9192 21.9718 17.9783 21.9714 18.0393 21.971C18.136 21.9712 18.136 21.9712 18.2346 21.9713C18.3379 21.9708 18.3379 21.9709 18.4433 21.9704C18.6342 21.9695 18.825 21.9694 19.0159 21.9693C19.2218 21.9691 19.4278 21.9683 19.6337 21.9676C19.9904 21.9664 20.3471 21.9656 20.7037 21.9651C21.2195 21.9643 21.7352 21.9629 22.2509 21.9615C23.0876 21.9591 23.9243 21.9571 24.761 21.9555C25.5738 21.9539 26.3865 21.9521 27.1993 21.95C27.2494 21.9498 27.2995 21.9497 27.3511 21.9496C27.6025 21.9489 27.8538 21.9482 28.1052 21.9476C30.1903 21.9421 32.2753 21.9375 34.3604 21.9332C34.3604 20.3291 34.3604 18.725 34.3604 17.0723C31.948 17.0618 29.5357 17.053 27.1233 17.048C26.8384 17.0474 26.5535 17.0468 26.2686 17.0462C26.1835 17.046 26.1835 17.046 26.0967 17.0458C25.1788 17.0437 24.2608 17.04 23.3429 17.0356C22.4007 17.0312 21.4586 17.0285 20.5164 17.0276C19.9352 17.0269 19.354 17.0248 18.7728 17.021C18.3741 17.0185 17.9754 17.0177 17.5766 17.0183C17.3467 17.0186 17.1168 17.0182 16.8868 17.0156C16.676 17.0133 16.4652 17.0132 16.2544 17.0148C16.1784 17.015 16.1024 17.0144 16.0265 17.0129C15.4362 17.0019 15.1454 17.1693 14.7055 17.5478ZM37.9532 17.0723C37.9532 18.6764 37.9532 20.2805 37.9532 21.9332C38.7177 21.9339 38.7177 21.9339 39.4977 21.9347C41.1287 21.9364 42.7597 21.9392 44.3907 21.9426C44.644 21.9431 44.8974 21.9436 45.1507 21.9442C45.2012 21.9443 45.2516 21.9444 45.3036 21.9445C46.1202 21.9461 46.9368 21.947 47.7534 21.9476C48.5913 21.9483 49.4293 21.9497 50.2673 21.9519C50.7843 21.9533 51.3013 21.954 51.8183 21.9539C52.1729 21.9539 52.5275 21.9546 52.8821 21.956C53.0867 21.9568 53.2912 21.9572 53.4957 21.9567C53.7177 21.9562 53.9396 21.9573 54.1616 21.9586C54.226 21.9582 54.2904 21.9578 54.3567 21.9574C54.7309 21.9611 55.0101 22.0111 55.3362 22.1974C55.3707 22.2168 55.4053 22.2362 55.4409 22.2563C55.8134 22.4769 56.0191 22.9008 56.1287 23.3069C56.1826 23.9064 56.1356 24.4152 55.7589 24.9052C55.4166 25.2696 54.9437 25.4568 54.4504 25.4801C54.3999 25.4802 54.3495 25.4804 54.2975 25.4805C54.2096 25.4809 54.2096 25.4809 54.1199 25.4814C54.0242 25.4815 54.0242 25.4815 53.9265 25.4815C53.8242 25.4819 53.8242 25.4819 53.7197 25.4823C53.5307 25.483 53.3417 25.4834 53.1526 25.4838C52.9486 25.4842 52.7446 25.4849 52.5406 25.4856C52.1873 25.4868 51.834 25.4877 51.4807 25.4886C50.9699 25.4898 50.459 25.4912 49.9482 25.4928C49.1194 25.4953 48.2906 25.4976 47.4618 25.4997C46.6567 25.5018 45.8516 25.504 45.0466 25.5063C44.9969 25.5065 44.9473 25.5066 44.8962 25.5068C44.6472 25.5075 44.3982 25.5082 44.1492 25.509C42.0839 25.515 40.0185 25.5206 37.9532 25.526C37.952 26.0809 37.951 26.6357 37.9505 27.1906C37.9502 27.4483 37.9498 27.706 37.9492 27.9636C37.9486 28.2127 37.9483 28.4618 37.9482 28.7108C37.9481 28.8055 37.9479 28.9001 37.9476 28.9947C37.9472 29.1281 37.9472 29.2615 37.9472 29.3949C37.947 29.4333 37.9468 29.4717 37.9466 29.5113C37.9473 29.8262 37.9772 30.1222 38.006 30.4397C47.8573 30.4397 57.7085 30.4397 67.8582 30.4397C67.2742 28.4929 66.5187 26.6644 65.4278 24.9448C65.3938 24.8909 65.3938 24.8909 65.359 24.8358C64.8502 24.0354 64.282 23.269 63.6578 22.5551C63.5969 22.4832 63.5376 22.41 63.479 22.3362C63.1827 21.9642 62.8639 21.6265 62.526 21.2925C62.4389 21.2063 62.3522 21.1198 62.2656 21.0331C61.9726 20.7411 61.6763 20.4559 61.3594 20.1896C61.3261 20.1611 61.2927 20.1327 61.2583 20.1033C60.224 19.2257 59.1165 18.4685 57.9457 17.7855C57.9048 17.7614 57.864 17.7373 57.8219 17.7125C57.7818 17.6889 57.7416 17.6652 57.7002 17.6409C57.5553 17.5478 57.5553 17.5478 57.4071 17.4297C56.9659 17.0853 56.6338 17.0038 56.0677 17.0151C55.9891 17.0149 55.9105 17.0145 55.8319 17.0139C55.6177 17.0128 55.4037 17.0147 55.1895 17.0171C54.9579 17.0192 54.7263 17.0185 54.4947 17.0181C54.094 17.0179 53.6934 17.0193 53.2928 17.022C52.7135 17.0259 52.1343 17.0271 51.555 17.0277C50.615 17.0288 49.6751 17.0319 48.7351 17.0364C47.8224 17.0408 46.9097 17.0442 45.9969 17.0462C45.9406 17.0463 45.8843 17.0464 45.8263 17.0466C45.5437 17.0472 45.2612 17.0478 44.9786 17.0484C42.6368 17.0533 40.295 17.0621 37.9532 17.0723ZM3.71565 34.0326C3.64857 34.7705 3.59012 35.4847 3.59346 36.222C3.59356 36.2669 3.59366 36.3119 3.59376 36.3583C3.60747 40.2093 4.76788 44.0466 6.83296 47.2943C6.85505 47.3292 6.87714 47.3641 6.8999 47.4C7.53281 48.3907 8.2529 49.3115 9.0436 50.1803C9.11867 50.263 9.19313 50.3462 9.26691 50.43C9.38735 50.5664 9.50969 50.7007 9.63325 50.8343C9.66255 50.8661 9.69184 50.8978 9.72202 50.9305C9.81918 51.0348 9.91757 51.1377 10.0163 51.2405C10.0475 51.2742 10.0787 51.3078 10.1109 51.3425C10.141 51.3734 10.1711 51.4042 10.2021 51.436C10.2286 51.4639 10.2552 51.4918 10.2826 51.5205C10.3741 51.5862 10.3741 51.5862 10.5024 51.5653C10.6432 51.5192 10.7336 51.4661 10.8509 51.3765C10.8908 51.3466 10.9306 51.3167 10.9716 51.2858C11.0138 51.2534 11.056 51.221 11.0994 51.1877C11.1899 51.1196 11.2803 51.0517 11.3708 50.9838C11.4162 50.9496 11.4616 50.9155 11.5084 50.8803C11.7009 50.7369 11.8968 50.5987 12.0934 50.4612C12.522 50.1605 12.9466 49.8545 13.3705 49.5473C13.6083 49.3751 13.8465 49.2033 14.0845 49.0315C14.2834 48.8878 14.4823 48.7441 14.6809 48.6002C15.103 48.2945 15.5266 47.9914 15.9528 47.6915C16.3449 47.4153 16.7335 47.1341 17.1219 46.8527C17.3201 46.7091 17.5186 46.5658 17.7171 46.4226C17.9574 46.2491 18.1977 46.0755 18.4378 45.9018C18.8251 45.6218 19.2127 45.3424 19.6019 45.0651C19.855 44.8846 20.107 44.7026 20.3589 44.5205C20.6694 44.2959 20.9805 44.0723 21.2926 43.8499C21.5457 43.6694 21.7977 43.4874 22.0497 43.3052C22.3602 43.0807 22.6713 42.8571 22.9834 42.6347C23.2364 42.4542 23.4885 42.2722 23.7404 42.09C24.0216 41.8867 24.3032 41.6838 24.5858 41.4824C24.8639 41.2842 25.1411 41.0847 25.4179 40.8847C25.4579 40.8558 25.4979 40.8269 25.5392 40.7971C25.7419 40.6506 25.9445 40.5039 26.1471 40.3572C26.5689 40.0518 26.9922 39.7488 27.4182 39.4491C27.8103 39.1729 28.1988 38.8917 28.5872 38.6103C28.7855 38.4667 28.984 38.3235 29.1825 38.1802C29.4228 38.0067 29.663 37.8331 29.9032 37.6595C30.2905 37.3795 30.6781 37.1001 31.0673 36.8227C31.3204 36.6422 31.5724 36.4602 31.8243 36.2781C32.6139 35.7075 32.6139 35.7075 32.9466 35.4723C33.0103 35.427 33.0738 35.3815 33.1371 35.3358C33.8396 34.8286 34.5937 34.369 35.4171 34.0854C35.4171 34.068 35.4171 34.0505 35.4171 34.0326C24.9556 34.0326 14.4941 34.0326 3.71565 34.0326ZM42.0216 34.0326C42.1533 34.1643 42.274 34.2018 42.4476 34.2703C43.4067 34.6674 44.23 35.2775 44.9804 35.9875C45.0454 36.0484 45.0454 36.0484 45.1118 36.1105C46.8036 37.7418 47.6403 40.0907 47.6882 42.407C47.6856 42.5216 47.6809 42.6361 47.675 42.7505C47.6731 42.7885 47.6712 42.8265 47.6693 42.8657C47.5544 44.9238 46.778 46.9304 45.3595 48.4394C45.2699 48.5352 45.1868 48.6312 45.1058 48.7341C44.8157 49.0701 44.452 49.3385 44.102 49.6092C44.0603 49.6415 44.0186 49.6739 43.9757 49.7072C43.7081 49.9137 43.4366 50.1132 43.1599 50.3075C42.8203 50.5474 42.4911 50.8009 42.1613 51.0541C41.9575 51.2105 41.7537 51.3666 41.5454 51.5171C41.5153 51.5389 41.4852 51.5608 41.4542 51.5833C41.3774 51.6388 41.3003 51.6936 41.223 51.7484C41.1901 51.7781 41.1572 51.8077 41.1234 51.8382C41.1234 51.8905 41.1234 51.9428 41.1234 51.9967C41.2268 52.0895 41.3291 52.1718 41.4404 52.2543C41.5086 52.3063 41.5768 52.3584 41.6449 52.4105C41.6986 52.4515 41.6986 52.4515 41.7534 52.4932C41.9349 52.6334 42.1118 52.7792 42.289 52.9247C42.5416 53.131 42.7958 53.3345 43.0552 53.5323C43.3363 53.7468 43.6131 53.9662 43.8889 54.1877C44.1119 54.3667 44.3359 54.5445 44.561 54.7211C44.5914 54.7449 44.6217 54.7688 44.653 54.7933C44.8047 54.9123 44.9566 55.0311 45.1085 55.1497C45.4395 55.4086 45.7677 55.6705 46.0932 55.9363C46.3458 56.1426 46.6 56.3461 46.8593 56.5439C47.1405 56.7584 47.4173 56.9778 47.693 57.1993C47.9161 57.3783 48.1401 57.5562 48.3652 57.7327C48.3955 57.7565 48.4258 57.7803 48.4571 57.8048C48.5486 57.8766 48.6402 57.9483 48.7317 58.02C49.1454 58.344 49.5577 58.6696 49.9676 58.9984C50.3424 59.2986 50.7202 59.5948 51.0984 59.8905C51.5112 60.2133 51.9206 60.5393 52.3245 60.8731C52.4896 60.8018 52.5805 60.73 52.6882 60.5867C52.7158 60.5503 52.7434 60.5139 52.7718 60.4765C52.8007 60.4374 52.8297 60.3983 52.8595 60.358C52.8899 60.3175 52.9203 60.2769 52.9516 60.2352C53.0425 60.1136 53.1327 59.9915 53.2227 59.8693C53.2469 59.8367 53.2711 59.8042 53.296 59.7708C53.7607 59.1446 54.1776 58.4848 54.5691 57.8108C54.9693 57.1248 55.4743 56.5312 56.023 55.9594C56.0511 55.9301 56.0792 55.9007 56.1081 55.8705C56.3266 55.6464 56.5566 55.4486 56.8057 55.2593C56.8443 55.2299 56.883 55.2004 56.9229 55.17C57.3078 54.8819 57.7134 54.6343 58.1269 54.3899C59.2579 53.7179 60.3106 52.9612 61.3066 52.1024C61.3445 52.0699 61.3823 52.0374 61.4214 52.004C62.1087 51.4089 62.7786 50.7887 63.3672 50.0946C63.4119 50.0441 63.4566 49.9936 63.5026 49.9415C66.9904 45.9807 68.7601 40.7682 68.6408 35.0977C68.6491 34.5304 68.6491 34.5304 68.4923 34.0326C68.3519 34.0273 68.2128 34.0256 68.0724 34.0261C68.0052 34.026 68.0052 34.026 67.9368 34.0259C67.7848 34.0257 67.6329 34.026 67.481 34.0262C67.3718 34.0262 67.2625 34.0261 67.1533 34.0261C66.8516 34.026 66.5499 34.0262 66.2482 34.0264C65.9235 34.0267 65.5987 34.0266 65.2739 34.0266C64.7108 34.0265 64.1476 34.0267 63.5844 34.027C62.9936 34.0273 62.4027 34.0275 61.8118 34.0276C61.7751 34.0276 61.7384 34.0276 61.7006 34.0276C61.5143 34.0276 61.328 34.0276 61.1416 34.0276C59.8207 34.0277 58.4997 34.0281 57.1788 34.0286C55.8952 34.0291 54.6117 34.0294 53.3282 34.0297C53.2886 34.0297 53.2491 34.0297 53.2083 34.0297C52.8113 34.0298 52.4142 34.0298 52.0171 34.0299C51.2081 34.03 50.3992 34.0302 49.5902 34.0303C49.5344 34.0303 49.5344 34.0303 49.4775 34.0304C46.9922 34.0308 44.5069 34.0317 42.0216 34.0326ZM34.9583 38.4328C34.756 38.5829 34.5515 38.7298 34.3472 38.877C34.2676 38.9344 34.1881 38.9918 34.1086 39.0493C33.8818 39.2128 33.6543 39.3754 33.4266 39.5376C33.1735 39.7182 32.9215 39.9001 32.6696 40.0823C32.3591 40.3068 32.048 40.5304 31.7359 40.7528C31.4828 40.9334 31.2308 41.1153 30.9789 41.2975C30.6684 41.522 30.3573 41.7457 30.0452 41.968C29.7921 42.1486 29.5401 42.3305 29.2881 42.5127C28.9776 42.7373 28.6665 42.9609 28.3544 43.1833C28.1014 43.3638 27.8493 43.5458 27.5974 43.7279C27.3162 43.9313 27.0346 44.1341 26.752 44.3355C26.4739 44.5338 26.1967 44.7332 25.9199 44.9332C25.8799 44.9622 25.8399 44.9911 25.7986 45.0208C25.5959 45.1674 25.3933 45.314 25.1907 45.4608C24.7689 45.7662 24.3456 46.0692 23.9196 46.3688C23.5275 46.6451 23.139 46.9262 22.7506 47.2076C22.5523 47.3512 22.3538 47.4945 22.1553 47.6378C21.915 47.8113 21.6748 47.9848 21.4346 48.1585C21.0473 48.4385 20.6597 48.7179 20.2705 48.9952C20.0174 49.1758 19.7654 49.3577 19.5135 49.5399C19.203 49.7644 18.8919 49.988 18.5798 50.2104C18.3267 50.391 18.0747 50.5729 17.8228 50.7551C17.5123 50.9796 17.2012 51.2033 16.8891 51.4256C16.636 51.6062 16.384 51.7881 16.132 51.9703C15.8217 52.1947 15.5109 52.4183 15.1989 52.6404C15.0242 52.765 14.8501 52.8903 14.6764 53.0163C14.6347 53.0465 14.5929 53.0768 14.55 53.1079C14.4693 53.1665 14.3886 53.2251 14.3081 53.2838C14.0695 53.4568 13.8274 53.6207 13.5781 53.7779C13.5491 53.8004 13.5201 53.8228 13.4903 53.846C13.4903 53.8809 13.4903 53.9157 13.4903 53.9517C13.603 54.0359 13.7156 54.1132 13.8337 54.1894C13.8692 54.2127 13.9046 54.2361 13.9412 54.2601C14.1622 54.4046 14.3861 54.544 14.6114 54.6817C15.0038 54.9222 15.3637 55.1781 15.7094 55.4839C15.7609 55.529 15.8123 55.5741 15.8654 55.6205C16.7887 56.4403 17.434 57.3762 18.0605 58.4337C18.7735 59.6339 19.6317 60.7268 20.5694 61.759C20.7138 61.919 20.8536 62.0825 20.9929 62.2469C21.1809 62.2144 21.2923 62.1392 21.4416 62.0225C21.4872 61.9873 21.5328 61.952 21.5797 61.9157C21.628 61.8779 21.6763 61.84 21.726 61.8011C21.8271 61.7229 21.9282 61.6448 22.0294 61.5668C22.0785 61.5289 22.1276 61.4911 22.1782 61.4521C22.3718 61.3044 22.57 61.1643 22.7693 61.0244C23.0499 60.8258 23.3223 60.6167 23.5951 60.4075C23.9393 60.1436 24.2857 59.8837 24.6386 59.6315C24.9857 59.3833 25.3268 59.1282 25.6656 58.8687C26.2219 58.4425 26.7854 58.0267 27.3509 57.6127C27.834 57.2587 28.3141 56.9015 28.7895 56.5373C29.166 56.2489 29.5465 55.9675 29.9323 55.6917C30.2416 55.4697 30.5447 55.2401 30.8468 55.0084C31.1866 54.7477 31.5287 54.4913 31.8771 54.2422C32.2242 53.994 32.5653 53.7389 32.9041 53.4794C33.4604 53.0533 34.0239 52.6375 34.5894 52.2234C35.1253 51.8308 35.6565 51.4328 36.184 51.0288C36.4641 50.8149 36.747 50.6067 37.0352 50.4041C37.3145 50.2065 37.5858 49.9988 37.8574 49.7908C38.4182 49.3614 38.9861 48.9422 39.5559 48.5249C40.1402 48.0969 40.7191 47.6624 41.2942 47.2221C41.4944 47.069 41.6964 46.9187 41.8994 46.7693C43.0289 45.9186 43.8224 44.7256 44.064 43.3154C44.2585 41.7923 43.9288 40.3356 42.992 39.1056C42.9507 39.0531 42.9095 39.0005 42.8669 38.9463C42.8355 38.9057 42.804 38.8651 42.7716 38.8233C41.8998 37.7638 40.5355 37.1527 39.193 37.0062C37.5665 36.8742 36.2337 37.4818 34.9583 38.4328ZM37.7631 54.3007C37.7256 54.3305 37.6882 54.3603 37.6495 54.391C37.6092 54.4237 37.5688 54.4563 37.5272 54.4899C37.2023 54.7479 36.8745 54.9989 36.5366 55.2395C36.186 55.4898 35.8415 55.747 35.4996 56.0089C34.9433 56.4351 34.3798 56.8509 33.8144 57.2649C33.3313 57.6189 32.8512 57.9761 32.3757 58.3403C31.9992 58.6287 31.6188 58.9101 31.2329 59.1859C30.9236 59.4079 30.6205 59.6375 30.3184 59.8693C29.9786 60.1299 29.6366 60.3863 29.2881 60.6354C28.941 60.8836 28.5999 61.1387 28.2612 61.3982C27.7048 61.8244 27.1413 62.2402 26.5759 62.6542C26.4518 62.7451 26.3278 62.8361 26.2039 62.9271C26.1629 62.9572 26.122 62.9872 26.0799 63.0182C25.7573 63.256 25.4388 63.4989 25.1207 63.7428C24.7212 64.049 24.3175 64.3449 23.8989 64.6245C24.0827 64.8185 24.2727 64.9764 24.4966 65.1231C24.5472 65.1564 24.5472 65.1564 24.5989 65.1904C27.2398 66.9031 30.1439 67.9993 33.2508 68.4815C33.3051 68.4903 33.3594 68.4991 33.4154 68.5082C35.2185 68.7896 37.2095 68.7711 39.0099 68.4815C39.0682 68.4727 39.1265 68.4639 39.1865 68.4549C43.1452 67.8506 46.8023 66.1089 49.8413 63.5149C49.6353 63.3007 49.4157 63.113 49.1841 62.9271C49.147 62.8971 49.1098 62.8671 49.0715 62.8362C48.7143 62.5484 48.3536 62.265 47.992 61.9827C47.6004 61.677 47.2111 61.369 46.8263 61.0548C46.5737 60.8485 46.3195 60.6449 46.0602 60.4471C45.779 60.2326 45.5022 60.0132 45.2265 59.7918C45.0034 59.6127 44.7794 59.4349 44.5544 59.2583C44.524 59.2345 44.4936 59.2107 44.4623 59.1861C44.3106 59.0671 44.1588 58.9483 44.0068 58.8297C43.6758 58.5708 43.3476 58.3089 43.0221 58.0431C42.7695 57.8368 42.5154 57.6333 42.256 57.4355C41.9748 57.221 41.6981 57.0016 41.4223 56.7801C41.1992 56.6011 40.9753 56.4233 40.7502 56.2467C40.7046 56.2109 40.7046 56.2109 40.6581 56.1745C40.5064 56.0555 40.3546 55.9367 40.2027 55.818C39.8716 55.5592 39.5435 55.2972 39.218 55.0315C38.9508 54.814 38.6833 54.5969 38.4122 54.3842C38.3579 54.3414 38.3037 54.2986 38.2477 54.2544C38.0375 54.1131 37.9465 54.1525 37.7631 54.3007Z" fill="#D594DC"/>
<path d="M91.3732 14.1531C91.4071 14.1749 91.441 14.1968 91.4759 14.2193C91.512 14.2417 91.5481 14.2641 91.5853 14.2872C92.0749 14.6214 92.3574 15.0687 92.4798 15.6459C92.5342 16.0852 92.5347 16.5258 92.5335 16.9678C92.5334 17.0087 92.5334 17.0495 92.5333 17.0916C92.5331 17.1909 92.5329 17.2902 92.5327 17.3895C92.5616 17.3894 92.5906 17.3894 92.6205 17.3893C94.339 17.3857 96.0575 17.383 97.776 17.3814C97.9825 17.3812 98.1889 17.381 98.3954 17.3808C98.4365 17.3807 98.4776 17.3807 98.52 17.3806C99.185 17.3799 99.85 17.3787 100.515 17.3772C101.198 17.3758 101.88 17.3749 102.563 17.3746C102.984 17.3743 103.405 17.3737 103.826 17.3724C104.149 17.3714 104.473 17.3713 104.796 17.3715C104.928 17.3715 105.06 17.3712 105.193 17.3706C105.374 17.3698 105.555 17.37 105.736 17.3704C105.788 17.3699 105.84 17.3695 105.894 17.369C106.471 17.3727 106.946 17.5294 107.379 17.9178C107.748 18.3434 107.939 18.7719 107.931 19.3345C107.93 19.3761 107.93 19.4178 107.929 19.4607C107.912 20.023 107.747 20.4053 107.353 20.8116C106.834 21.2755 106.315 21.3689 105.638 21.3649C105.582 21.365 105.525 21.365 105.467 21.3651C105.279 21.3653 105.09 21.3647 104.902 21.3641C104.767 21.3641 104.631 21.3641 104.496 21.3642C104.205 21.3642 103.914 21.3639 103.623 21.3633C103.202 21.3625 102.781 21.3622 102.36 21.3621C101.678 21.3618 100.995 21.3611 100.312 21.3601C99.649 21.3592 98.9859 21.3584 98.3229 21.358C98.282 21.3579 98.2411 21.3579 98.1989 21.3579C97.9937 21.3577 97.7885 21.3576 97.5832 21.3575C95.8821 21.3564 94.181 21.3545 92.4798 21.3522C92.4624 21.6311 92.4449 21.9101 92.427 22.1975C92.4983 22.1973 92.5697 22.1971 92.6432 22.1969C94.3382 22.1924 96.0332 22.1889 97.7282 22.1867C97.937 22.1865 98.1458 22.1862 98.3546 22.1859C98.3961 22.1859 98.4377 22.1858 98.4805 22.1857C99.1528 22.1848 99.8252 22.1832 100.498 22.1812C101.188 22.1792 101.878 22.1781 102.568 22.1776C102.994 22.1773 103.42 22.1764 103.845 22.1747C104.172 22.1735 104.499 22.1733 104.826 22.1736C104.96 22.1736 105.093 22.1731 105.227 22.1723C105.41 22.1713 105.593 22.1715 105.776 22.1721C105.829 22.1715 105.881 22.1709 105.936 22.1702C106.551 22.1754 107.022 22.396 107.468 22.808C107.867 23.224 107.94 23.7265 107.932 24.2812C107.91 24.8258 107.73 25.1711 107.353 25.565C106.829 26.0407 106.298 26.1239 105.612 26.1201C105.553 26.1202 105.494 26.1203 105.433 26.1204C105.235 26.1205 105.037 26.1199 104.839 26.1194C104.697 26.1193 104.555 26.1193 104.412 26.1194C104.107 26.1195 103.801 26.1191 103.496 26.1185C103.054 26.1177 102.612 26.1174 102.17 26.1173C101.453 26.117 100.736 26.1163 100.019 26.1153C99.3222 26.1144 98.6259 26.1136 97.9295 26.1132C97.8865 26.1131 97.8436 26.1131 97.7993 26.1131C97.5838 26.113 97.3683 26.1128 97.1527 26.1127C95.3661 26.1116 93.5795 26.1097 91.793 26.1074C91.7755 26.2643 91.7581 26.4212 91.7401 26.5829C91.7915 26.5828 91.7915 26.5828 91.8439 26.5826C93.8744 26.5779 95.9048 26.5743 97.9352 26.5721C98.1791 26.5718 98.4229 26.5716 98.6667 26.5713C98.7153 26.5712 98.7638 26.5712 98.8138 26.5711C99.5997 26.5702 100.386 26.5685 101.171 26.5666C101.978 26.5646 102.784 26.5634 103.591 26.563C104.088 26.5627 104.586 26.5618 105.083 26.5601C105.425 26.559 105.766 26.5586 106.107 26.5589C106.304 26.559 106.501 26.5588 106.698 26.5577C106.911 26.5565 107.125 26.5569 107.339 26.5575C107.4 26.5569 107.462 26.5562 107.526 26.5556C108.082 26.5597 108.502 26.7353 108.912 27.1112C109.362 27.5896 109.467 28.0235 109.462 28.6647C109.452 28.9787 109.407 29.2241 109.229 29.4889C109.205 29.5254 109.181 29.562 109.157 29.5997C108.83 30.069 108.432 30.3616 107.863 30.4682C107.564 30.5088 107.262 30.5022 106.961 30.5036C106.893 30.5041 106.825 30.5046 106.755 30.5052C106.569 30.5066 106.384 30.5077 106.198 30.5088C106.003 30.5099 105.809 30.5114 105.614 30.5128C105.247 30.5154 104.879 30.5178 104.511 30.5201C104.092 30.5227 103.673 30.5256 103.254 30.5285C102.392 30.5345 101.531 30.5402 100.669 30.5456C100.727 30.5808 100.785 30.616 100.844 30.6523C100.921 30.6996 100.997 30.7468 101.074 30.7941C101.112 30.8172 101.149 30.8403 101.188 30.8641C101.509 31.0623 101.771 31.2887 102.043 31.5495C102.105 31.6005 102.168 31.6512 102.231 31.7014C103.545 32.8277 104.141 34.6111 104.277 36.2776C104.341 38.4029 103.242 40.4798 101.825 42.001C101.778 42.0504 101.731 42.0998 101.683 42.1507C101.562 42.2749 101.562 42.2749 101.462 42.4336C102.505 42.8058 103.55 43.1743 104.606 43.5101C104.647 43.5232 104.688 43.5363 104.73 43.5498C105.172 43.6895 105.614 43.8192 106.064 43.9277C106.103 43.937 106.141 43.9463 106.181 43.9559C106.362 43.9992 106.542 44.0405 106.724 44.0795C107.31 44.2132 107.797 44.4468 108.149 44.9507C108.468 45.4737 108.53 46.0202 108.399 46.6178C108.219 47.1623 107.857 47.5883 107.374 47.8928C105.857 48.6357 103.095 47.2489 101.623 46.7465C100.52 46.3681 99.4292 45.96 98.3427 45.5365C98.2663 45.5068 98.2663 45.5068 98.1883 45.4765C98.093 45.4394 97.9978 45.4021 97.9026 45.3647C97.5396 45.2062 97.5396 45.2062 97.1579 45.2175C97.112 45.2378 97.0661 45.258 97.0187 45.2789C96.9654 45.3018 96.912 45.3246 96.857 45.3481C96.7695 45.3864 96.7695 45.3864 96.6803 45.4254C96.5508 45.48 96.4212 45.5342 96.2914 45.5879C96.2398 45.6092 96.2398 45.6092 96.1872 45.631C93.5391 46.7157 90.6617 47.5683 87.8303 47.9814C87.7876 47.988 87.745 47.9946 87.7011 48.0015C86.803 48.1398 85.7982 48.2662 85.0135 47.7304C84.6089 47.3986 84.3468 46.9703 84.2757 46.4477C84.2165 45.8374 84.3038 45.3702 84.6601 44.8641C85.143 44.2826 85.8222 44.1463 86.5381 44.0686C88.6762 43.8327 90.7607 43.2722 92.7968 42.5921C92.8092 42.4658 92.8092 42.4658 92.6573 42.344C92.5938 42.2836 92.5302 42.2232 92.4666 42.1628C90.9919 40.7213 89.997 38.7066 89.9734 36.6316C89.9841 34.7823 90.7484 33.1447 92.0043 31.8136C92.0425 31.7714 92.0807 31.7292 92.1201 31.6857C92.551 31.2278 93.0792 30.8271 93.6422 30.5456C92.0991 30.5194 92.0991 30.5194 90.5249 30.4927C90.5075 30.5799 90.49 30.6671 90.4721 30.7569C90.4391 30.8451 90.4037 30.9324 90.3662 31.0188C90.3447 31.0685 90.3232 31.1181 90.3011 31.1692C90.2779 31.2217 90.2548 31.2742 90.231 31.3282C90.2071 31.3826 90.1833 31.4371 90.1587 31.4932C89.9761 31.906 89.7838 32.3118 89.5753 32.7121C89.518 32.8234 89.4625 32.9356 89.4071 33.0478C88.9317 33.9971 88.3325 34.8928 87.6718 35.7235C87.633 35.7723 87.5943 35.8211 87.5543 35.8715C87.3221 36.1595 87.0807 36.4375 86.8313 36.7108C86.7371 36.8149 86.6462 36.9207 86.5556 37.0279C86.1233 37.5239 85.6442 38.0005 85.1356 38.4181C85.1076 38.4416 85.0795 38.4651 85.0506 38.4893C84.31 39.1094 83.541 39.657 82.7151 40.1584C82.6609 40.1915 82.6068 40.2246 82.5509 40.2588C81.9057 40.6443 81.2716 40.9488 80.5026 40.8188C79.9524 40.6657 79.5304 40.2959 79.2407 39.8116C78.9708 39.2934 78.9203 38.7615 79.0893 38.1969C79.3608 37.4722 79.9191 37.1493 80.5687 36.7967C81.5374 36.2707 82.3809 35.5789 83.1807 34.8253C83.2221 34.7868 83.2634 34.7483 83.306 34.7087C83.6556 34.3727 83.9458 33.9958 84.2374 33.61C84.2613 33.5788 84.2851 33.5476 84.3097 33.5155C85.0168 32.5882 85.6181 31.5884 86.1395 30.5456C86.0745 30.5451 86.0095 30.5447 85.9425 30.5443C85.3284 30.5402 84.7143 30.5355 84.1002 30.5304C83.7846 30.5277 83.4689 30.5253 83.1532 30.5233C82.8483 30.5213 82.5434 30.5189 82.2385 30.5161C82.1224 30.5151 82.0064 30.5143 81.8903 30.5137C81.7272 30.5128 81.5641 30.5113 81.401 30.5096C81.3297 30.5094 81.3297 30.5094 81.257 30.5092C80.601 30.5007 80.0356 30.3591 79.545 29.9049C79.1341 29.4701 78.9883 28.9606 78.9953 28.3744C79.0362 27.8221 79.2971 27.3637 79.6917 26.9847C80.0081 26.7352 80.3737 26.5762 80.776 26.5765C80.8663 26.5764 80.8663 26.5764 80.9585 26.5763C81.0577 26.5766 81.0577 26.5766 81.1589 26.5769C81.2285 26.5769 81.2981 26.5769 81.3698 26.5769C81.5607 26.5769 81.7516 26.5772 81.9425 26.5775C82.142 26.5779 82.3415 26.5779 82.541 26.578C82.9188 26.5781 83.2966 26.5786 83.6744 26.5791C84.1044 26.5797 84.5345 26.58 84.9646 26.5802C85.8494 26.5808 86.7342 26.5817 87.6189 26.5829C87.6538 26.426 87.6887 26.269 87.7246 26.1074C87.6613 26.1078 87.5979 26.1083 87.5326 26.1088C86.9334 26.1131 86.3341 26.1163 85.7348 26.1183C85.4268 26.1194 85.1188 26.1209 84.8108 26.1233C84.513 26.1256 84.2154 26.1269 83.9176 26.1274C83.8045 26.1278 83.6914 26.1286 83.5782 26.1297C82.0847 26.1443 82.0847 26.1443 81.4863 25.6269C81.0632 25.209 80.8478 24.7486 80.8328 24.1491C80.8525 23.5673 81.0172 23.0887 81.4374 22.6743C81.9059 22.2803 82.4066 22.1651 83.0071 22.1735C83.0659 22.1735 83.1248 22.1735 83.1854 22.1734C83.3778 22.1736 83.5701 22.1752 83.7625 22.1769C83.8968 22.1773 84.031 22.1776 84.1652 22.1778C84.481 22.1785 84.7969 22.1802 85.1127 22.1823C85.4727 22.1847 85.8326 22.1858 86.1926 22.1869C86.9322 22.1891 87.6718 22.1928 88.4115 22.1975C88.4463 21.9186 88.4812 21.6396 88.5171 21.3522C88.4072 21.3529 88.4072 21.3529 88.2951 21.3536C87.6025 21.3579 86.91 21.361 86.2174 21.3631C85.8614 21.3642 85.5054 21.3657 85.1494 21.3681C84.8054 21.3704 84.4615 21.3717 84.1175 21.3722C83.9867 21.3726 83.8558 21.3734 83.725 21.3745C82.0809 21.3883 82.0809 21.3883 81.49 20.8789C81.0504 20.4299 80.8546 19.9721 80.8328 19.3477C80.8477 18.7533 81.0616 18.305 81.4702 17.8817C81.8109 17.5655 82.2359 17.3826 82.7011 17.3831C82.7796 17.383 82.7796 17.383 82.8596 17.3829C82.9167 17.3831 82.9737 17.3833 83.0325 17.3835C83.0928 17.3835 83.1531 17.3835 83.2153 17.3834C83.4148 17.3835 83.6144 17.3839 83.8139 17.3843C83.9522 17.3844 84.0905 17.3845 84.2288 17.3845C84.5557 17.3847 84.8826 17.3851 85.2095 17.3857C85.5817 17.3863 85.9539 17.3865 86.3261 17.3868C87.0917 17.3874 87.8573 17.3883 88.6228 17.3895C88.6197 17.3577 88.6166 17.3259 88.6134 17.2932C88.5992 17.1478 88.5851 17.0023 88.571 16.8568C88.5661 16.8068 88.5612 16.7569 88.5561 16.7054C88.4805 15.9207 88.4714 15.2795 88.9927 14.642C89.5618 14.0422 90.6154 13.7396 91.3732 14.1531ZM94.7338 34.6527C94.203 35.2819 93.9133 36.0461 93.9427 36.8735C94.0212 37.6864 94.4999 38.3927 95.0159 38.9993C95.0405 39.0284 95.0651 39.0575 95.0905 39.0875C95.5786 39.6577 96.1266 40.0918 96.7595 40.4919C96.7924 40.5134 96.8253 40.535 96.8593 40.5572C97.0047 40.6455 97.0925 40.6972 97.2631 40.664C98.6007 39.8471 99.8435 38.5664 100.24 37.0113C100.394 36.2414 100.232 35.6407 99.8225 34.9743C99.3426 34.2881 98.5821 33.8392 97.7733 33.6464C96.6213 33.4544 95.5178 33.7849 94.7338 34.6527Z" fill="#D594DC"/>
<path d="M185.098 25.9882C185.144 25.988 185.191 25.9878 185.239 25.9877C185.395 25.9872 185.551 25.9875 185.708 25.9878C185.821 25.9877 185.934 25.9875 186.047 25.9872C186.358 25.9867 186.668 25.9868 186.979 25.987C187.314 25.9872 187.649 25.9867 187.985 25.9863C188.641 25.9856 189.298 25.9855 189.954 25.9856C190.488 25.9857 191.022 25.9856 191.555 25.9854C191.632 25.9854 191.709 25.9854 191.785 25.9853C191.901 25.9853 192.016 25.9852 192.132 25.9852C193.206 25.9847 194.28 25.9845 195.355 25.9847C195.395 25.9847 195.436 25.9847 195.477 25.9848C195.683 25.9848 195.888 25.9848 196.093 25.9849C196.134 25.9849 196.175 25.9849 196.217 25.9849C196.299 25.9849 196.382 25.9849 196.464 25.985C197.747 25.9853 199.029 25.9848 200.312 25.9839C201.753 25.9828 203.194 25.9822 204.635 25.9824C204.789 25.9824 204.943 25.9824 205.096 25.9825C205.134 25.9825 205.172 25.9825 205.211 25.9825C205.782 25.9825 206.353 25.9822 206.924 25.9816C207.574 25.981 208.224 25.9809 208.873 25.9816C209.205 25.9819 209.536 25.9819 209.868 25.9813C210.171 25.9807 210.474 25.9809 210.778 25.9816C210.888 25.9818 210.997 25.9816 211.107 25.9812C211.928 25.9783 212.513 26.02 213.157 26.5828C213.284 26.7143 213.382 26.8474 213.474 27.0055C213.496 27.0414 213.517 27.0773 213.54 27.1143C213.775 27.583 213.757 28.1987 213.65 28.7033C213.46 29.2278 213.069 29.6565 212.576 29.9115C212.21 30.0493 211.877 30.0927 211.488 30.089C211.435 30.0892 211.381 30.0893 211.326 30.0894C211.147 30.0897 210.968 30.0888 210.789 30.088C210.661 30.0879 210.532 30.0879 210.403 30.088C210.127 30.0881 209.851 30.0876 209.575 30.0867C209.175 30.0854 208.776 30.085 208.376 30.0848C207.728 30.0845 207.08 30.0834 206.432 30.0819C205.802 30.0805 205.173 30.0794 204.544 30.0787C204.485 30.0786 204.485 30.0786 204.426 30.0786C204.231 30.0783 204.036 30.0781 203.841 30.0779C202.227 30.0763 200.612 30.0735 198.997 30.07C198.981 30.118 198.981 30.118 198.965 30.1669C198.944 30.2304 198.944 30.2304 198.923 30.2952C198.909 30.337 198.896 30.3788 198.882 30.4219C198.819 30.6018 198.74 30.7723 198.658 30.944C198.641 30.9801 198.625 31.0161 198.607 31.0533C198.552 31.1692 198.497 31.285 198.442 31.4008C198.404 31.4817 198.365 31.5625 198.327 31.6434C197.889 32.5659 197.434 33.476 196.941 34.3701C196.831 34.5698 196.722 34.7702 196.615 34.9715C196.182 35.7825 195.72 36.574 195.246 37.3613C195.213 37.4149 195.181 37.4686 195.148 37.5238C194.351 38.8482 193.505 40.1369 192.657 41.4297C198.698 41.4035 198.698 41.4035 204.862 41.3768C204.635 41.0978 204.408 40.8189 204.175 40.5314C203.904 40.1814 203.904 40.1814 203.777 40.0149C203.66 39.8619 203.541 39.711 203.422 39.5603C202.855 38.8455 202.411 38.2814 202.497 37.3202C202.59 36.7815 202.852 36.3305 203.294 36.0018C203.819 35.668 204.341 35.5401 204.958 35.6425C205.843 35.8498 206.322 36.5856 206.848 37.2659C206.967 37.4192 207.087 37.572 207.206 37.7246C207.23 37.7547 207.254 37.7849 207.278 37.816C207.466 38.0552 207.658 38.2913 207.85 38.527C208.1 38.8327 208.342 39.1427 208.582 39.4566C208.738 39.6596 208.9 39.8577 209.062 40.0559C209.313 40.3625 209.556 40.6731 209.796 40.9884C209.926 41.1571 210.061 41.3209 210.197 41.4848C210.717 42.1159 211.193 42.7 211.164 43.5577C211.1 44.1777 210.799 44.6949 210.323 45.0916C209.941 45.3646 209.562 45.4516 209.097 45.4523C209.061 45.4524 209.025 45.4525 208.988 45.4526C208.868 45.453 208.747 45.453 208.627 45.4529C208.539 45.4531 208.452 45.4533 208.365 45.4535C208.125 45.4541 207.886 45.4543 207.646 45.4544C207.387 45.4546 207.129 45.4551 206.87 45.4556C206.246 45.4566 205.622 45.4572 204.997 45.4576C204.703 45.4579 204.409 45.4581 204.115 45.4584C203.137 45.4593 202.16 45.4601 201.182 45.4605C200.929 45.4606 200.675 45.4607 200.421 45.4608C200.327 45.4608 200.327 45.4608 200.23 45.4608C199.209 45.4613 198.188 45.4626 197.166 45.4643C196.118 45.4661 195.069 45.467 194.02 45.4672C193.431 45.4673 192.843 45.4678 192.254 45.4691C191.753 45.4703 191.251 45.4707 190.75 45.4702C190.494 45.47 190.238 45.4701 189.983 45.4711C189.748 45.472 189.514 45.472 189.28 45.4711C189.195 45.471 189.11 45.4712 189.026 45.4719C188.372 45.4764 187.783 45.4077 187.266 44.9688C186.771 44.47 186.635 43.9137 186.633 43.2261C186.677 42.6204 187.072 42.1341 187.435 41.6748C187.604 41.4597 187.764 41.2388 187.925 41.0169C187.95 40.9813 187.976 40.9457 188.003 40.909C188.514 40.1999 188.999 39.4722 189.483 38.7449C189.511 38.7033 189.539 38.6616 189.567 38.6187C189.947 38.0486 190.324 37.4772 190.684 36.8943C190.76 36.7705 190.838 36.6473 190.915 36.524C192.007 34.7773 193.017 32.9849 193.978 31.163C194.012 31.0983 194.012 31.0983 194.047 31.0322C194.165 30.8059 194.277 30.5776 194.382 30.3446C194.405 30.293 194.429 30.2414 194.453 30.1881C194.47 30.1491 194.488 30.1102 194.506 30.07C194.43 30.0703 194.43 30.0703 194.353 30.0706C193.127 30.0753 191.9 30.0787 190.674 30.0809C190.081 30.082 189.488 30.0835 188.895 30.0859C188.378 30.088 187.861 30.0894 187.343 30.0899C187.07 30.0901 186.796 30.0908 186.522 30.0923C186.264 30.0938 186.007 30.0942 185.749 30.0939C185.654 30.0939 185.56 30.0943 185.466 30.0952C184.719 30.1013 184.078 30.0361 183.516 29.4888C183.105 29.0383 182.916 28.5291 182.927 27.9221C182.961 27.3714 183.182 26.8845 183.589 26.5069C184.045 26.1324 184.514 25.985 185.098 25.9882Z" fill="#D594DC"/>
<path d="M156.576 19.4633C156.986 19.8452 157.243 20.2876 157.276 20.8537C157.287 21.1569 157.285 21.46 157.283 21.7633C157.283 21.8799 157.284 21.9965 157.284 22.1132C157.285 22.4289 157.284 22.7447 157.283 23.0604C157.283 23.3923 157.283 23.7243 157.283 24.0562C157.283 24.6143 157.283 25.1724 157.281 25.7306C157.28 26.3018 157.28 26.8731 157.28 27.4444C157.281 28.1357 157.281 28.827 157.28 29.5184C157.28 29.7809 157.28 30.0435 157.28 30.3061C157.28 30.6169 157.28 30.9277 157.278 31.2384C157.278 31.3514 157.278 31.4643 157.278 31.5772C157.281 32.6151 157.205 33.6593 156.956 34.67C156.943 34.7263 156.929 34.7826 156.915 34.8406C156.357 37.0905 155.262 39.125 153.717 40.8485C153.691 40.8773 153.666 40.906 153.639 40.9356C153.38 41.2282 153.118 41.5122 152.818 41.7637C152.745 41.8252 152.674 41.889 152.605 41.9544C151.864 42.652 151.006 43.2011 150.124 43.7017C150.088 43.7219 150.053 43.7422 150.017 43.7631C147.355 45.278 143.991 45.8039 140.983 45.2339C140.933 45.2245 140.883 45.2152 140.831 45.2056C138.623 44.784 136.571 43.8781 134.801 42.4864C134.755 42.4504 134.709 42.4144 134.661 42.3772C131.771 40.0728 129.97 36.6797 129.518 33.0288C129.461 32.4759 129.457 31.9254 129.457 31.3702C129.456 31.2742 129.456 31.1781 129.456 31.082C129.455 30.8231 129.455 30.5642 129.455 30.3053C129.454 30.1432 129.454 29.9811 129.454 29.8191C129.453 29.311 129.453 28.803 129.452 28.295C129.452 27.7102 129.451 27.1254 129.45 26.5405C129.449 26.0871 129.448 25.6336 129.448 25.1802C129.448 24.9099 129.448 24.6397 129.447 24.3694C129.446 24.1154 129.446 23.8614 129.446 23.6074C129.446 23.5145 129.446 23.4216 129.445 23.3287C129.442 22.5893 129.504 21.9851 130.02 21.4182C130.063 21.3789 130.107 21.3397 130.152 21.2993C130.211 21.2454 130.211 21.2454 130.271 21.1903C130.815 20.8071 131.408 20.7709 132.054 20.8238C132.599 20.935 133.062 21.2637 133.375 21.722C133.566 22.0825 133.647 22.3869 133.647 22.7946C133.647 22.8335 133.647 22.8725 133.647 22.9126C133.648 23.0432 133.648 23.1739 133.648 23.3045C133.649 23.3981 133.649 23.4918 133.649 23.5855C133.65 23.7874 133.651 23.9893 133.651 24.1912C133.652 24.5113 133.653 24.8314 133.655 25.1515C133.658 26.0619 133.662 26.9723 133.664 27.8826C133.666 28.3853 133.668 28.888 133.67 29.3907C133.671 29.7079 133.672 30.0251 133.673 30.3424C133.673 30.5414 133.674 30.7403 133.675 30.9393C133.676 31.0305 133.676 31.1217 133.676 31.2128C133.676 32.0379 133.722 32.8647 133.916 33.6695C133.928 33.718 133.939 33.7666 133.951 33.8166C134.246 35.0208 134.773 36.1389 135.488 37.15C135.51 37.1805 135.531 37.2109 135.554 37.2423C137.031 39.3073 139.32 40.6857 141.815 41.115C143.698 41.4059 145.589 41.1631 147.324 40.373C147.361 40.356 147.399 40.3389 147.437 40.3214C148.332 39.908 149.111 39.374 149.86 38.7351C149.908 38.6946 149.956 38.654 150.005 38.6123C150.264 38.3896 150.488 38.1526 150.705 37.8897C150.738 37.8507 150.738 37.8507 150.772 37.8108C152.16 36.1864 153.038 34.0526 153.037 31.9015C153.038 31.8542 153.038 31.8069 153.038 31.7581C153.039 31.6008 153.039 31.4435 153.039 31.2862C153.039 31.1729 153.04 31.0596 153.04 30.9463C153.041 30.7029 153.041 30.4595 153.042 30.2162C153.043 29.8311 153.044 29.4461 153.045 29.0611C153.049 27.9665 153.052 26.8718 153.055 25.7772C153.057 25.1722 153.058 24.5672 153.061 23.9622C153.062 23.5796 153.063 23.197 153.064 22.8145C153.064 22.5763 153.065 22.3382 153.066 22.1C153.066 21.9898 153.067 21.8796 153.067 21.7694C153.067 21.6186 153.067 21.4678 153.068 21.317C153.068 21.2737 153.068 21.2304 153.068 21.1858C153.074 20.5139 153.277 20.0117 153.737 19.5206C154.535 18.8091 155.751 18.7962 156.576 19.4633Z" fill="#D594DC"/>
<path d="M144.399 13.8074C144.819 14.1271 145.106 14.5445 145.21 15.0645C145.215 15.19 145.217 15.3157 145.217 15.4413C145.217 15.4794 145.217 15.5176 145.217 15.5569C145.218 15.6855 145.218 15.814 145.218 15.9426C145.218 16.0354 145.218 16.1282 145.218 16.221C145.219 16.4767 145.219 16.7323 145.219 16.9879C145.219 17.2634 145.22 17.5389 145.22 17.8144C145.221 18.48 145.222 19.1456 145.222 19.8112C145.223 20.1246 145.223 20.438 145.223 20.7514C145.224 21.7931 145.225 22.8348 145.225 23.8765C145.225 24.1469 145.225 24.4172 145.225 24.6876C145.226 24.7548 145.226 24.822 145.226 24.8912C145.226 25.9799 145.227 27.0685 145.229 28.1572C145.231 29.2747 145.232 30.3922 145.232 31.5097C145.232 32.1372 145.232 32.7647 145.234 33.3922C145.235 33.9267 145.235 34.4611 145.235 34.9955C145.235 35.2681 145.235 35.5407 145.236 35.8133C145.237 36.0631 145.237 36.3128 145.236 36.5626C145.236 36.6528 145.236 36.7429 145.237 36.8331C145.242 37.5908 145.125 38.1714 144.584 38.73C144.096 39.188 143.581 39.2864 142.927 39.2743C142.376 39.2442 141.946 39.0192 141.562 38.6237C141.168 38.1487 141.03 37.6414 141.029 37.0311C141.029 36.9748 141.029 36.9748 141.029 36.9173C141.028 36.7914 141.028 36.6656 141.028 36.5398C141.028 36.4486 141.028 36.3575 141.028 36.2663C141.028 36.0159 141.027 35.7654 141.027 35.5149C141.027 35.2448 141.027 34.9747 141.027 34.7045C141.026 34.1139 141.026 33.5232 141.025 32.9325C141.025 32.5636 141.025 32.1947 141.025 31.8258C141.024 30.8044 141.023 29.7829 141.023 28.7615C141.023 28.6961 141.023 28.6308 141.023 28.5634C141.023 28.4979 141.023 28.4324 141.023 28.3649C141.023 28.2321 141.023 28.0993 141.023 27.9665C141.023 27.9007 141.023 27.8348 141.023 27.767C141.023 26.6999 141.022 25.6328 141.021 24.5657C141.02 23.47 141.019 22.3743 141.019 21.2786C141.019 20.6634 141.018 20.0483 141.017 19.4331C141.017 18.9093 141.016 18.3855 141.017 17.8617C141.017 17.5945 141.017 17.3273 141.016 17.0602C141.016 16.8153 141.016 16.5705 141.016 16.3257C141.016 16.2373 141.016 16.149 141.016 16.0607C141.012 15.3143 141.077 14.6599 141.564 14.0607C142.336 13.2907 143.498 13.2276 144.399 13.8074Z" fill="#D594DC"/>
<path d="M188.455 16.6427C188.49 16.6425 188.524 16.6424 188.56 16.6423C188.676 16.642 188.792 16.6421 188.908 16.6422C188.992 16.642 189.076 16.6419 189.16 16.6417C189.391 16.6413 189.622 16.6412 189.853 16.6411C190.102 16.641 190.351 16.6406 190.6 16.6403C191.145 16.6396 191.69 16.6393 192.234 16.639C192.575 16.6389 192.915 16.6387 193.255 16.6384C194.196 16.6378 195.138 16.6372 196.08 16.637C196.14 16.637 196.2 16.637 196.262 16.637C196.323 16.637 196.383 16.637 196.445 16.637C196.568 16.637 196.69 16.6369 196.813 16.6369C196.873 16.6369 196.934 16.6369 196.997 16.6369C197.981 16.6367 198.965 16.6357 199.949 16.6345C200.959 16.6333 201.969 16.6326 202.979 16.6325C203.546 16.6325 204.113 16.6322 204.68 16.6312C205.163 16.6304 205.646 16.6301 206.129 16.6306C206.376 16.6308 206.622 16.6307 206.869 16.63C207.094 16.6293 207.32 16.6294 207.546 16.63C207.627 16.6301 207.709 16.63 207.79 16.6295C208.506 16.6257 209.082 16.7161 209.615 17.2248C210.009 17.6514 210.23 18.1628 210.211 18.7513C210.141 19.3838 209.909 19.9191 209.409 20.3235C208.857 20.7136 208.294 20.7336 207.64 20.7321C207.556 20.7323 207.473 20.7325 207.389 20.7328C207.161 20.7335 206.933 20.7334 206.704 20.7333C206.458 20.7333 206.211 20.7339 205.964 20.7344C205.481 20.7353 204.998 20.7355 204.515 20.7356C204.123 20.7357 203.73 20.7359 203.337 20.7362C202.224 20.7371 201.11 20.7376 199.996 20.7375C199.936 20.7375 199.876 20.7375 199.814 20.7375C199.754 20.7375 199.694 20.7375 199.632 20.7375C198.658 20.7375 197.684 20.7385 196.711 20.74C195.71 20.7415 194.71 20.7422 193.709 20.7421C193.148 20.7421 192.587 20.7424 192.025 20.7435C191.547 20.7445 191.069 20.7447 190.591 20.744C190.347 20.7437 190.104 20.7437 189.86 20.7446C189.636 20.7454 189.413 20.7452 189.189 20.7443C189.109 20.7442 189.028 20.7444 188.948 20.7449C188.224 20.7499 187.594 20.6517 187.055 20.1368C187.025 20.1079 186.995 20.079 186.963 20.0493C186.562 19.6259 186.457 19.0827 186.463 18.5191C186.499 17.9414 186.762 17.5009 187.178 17.1086C187.56 16.7844 187.958 16.6432 188.455 16.6427Z" fill="#D594DC"/>
<path d="M81.3712 51.8219C81.4362 51.8189 81.4362 51.8189 81.5024 51.8159C81.7449 51.8532 81.9387 51.9592 82.0999 52.1424C82.1816 52.2558 82.2578 52.3715 82.3328 52.4896C82.3612 52.5329 82.3897 52.5762 82.419 52.6208C82.5097 52.7591 82.5993 52.8981 82.6888 53.0371C82.8065 53.218 82.9246 53.3987 83.0427 53.5793C83.072 53.6242 83.1012 53.6691 83.1313 53.7153C83.3448 54.0418 83.5666 54.3613 83.7932 54.6788C84.0854 55.0893 84.3628 55.5095 84.6404 55.9299C84.7422 56.084 84.8442 56.238 84.9463 56.392C84.9692 56.4268 84.992 56.4615 85.0156 56.4974C85.102 56.6276 85.1834 56.747 85.2942 56.8578C85.3112 56.8329 85.3281 56.8081 85.3456 56.7824C85.7048 56.255 86.0668 55.7296 86.4334 55.2072C86.6687 54.8719 86.903 54.5359 87.1369 54.1995C87.1718 54.1494 87.2067 54.0992 87.2427 54.0475C87.4275 53.7821 87.6115 53.5163 87.7946 53.2497C87.8322 53.1953 87.8697 53.1409 87.9083 53.0849C87.9796 52.9815 88.0506 52.8779 88.1214 52.7742C88.6778 51.9685 88.6778 51.9685 88.9927 51.8384C89.3046 51.7988 89.5738 51.8144 89.8381 51.9969C90.0826 52.2612 90.1101 52.4677 90.1097 52.8156C90.1099 52.8563 90.11 52.897 90.1102 52.9389C90.1106 53.0757 90.1107 53.2125 90.1108 53.3493C90.111 53.4471 90.1113 53.545 90.1116 53.6429C90.1123 53.9092 90.1126 54.1754 90.1129 54.4417C90.113 54.608 90.1132 54.7743 90.1135 54.9406C90.1142 55.4607 90.1147 55.9809 90.1149 56.501C90.1151 57.1018 90.1161 57.7025 90.1176 58.3032C90.1187 58.7673 90.1193 59.2315 90.1194 59.6956C90.1194 59.9729 90.1197 60.2502 90.1207 60.5275C90.1215 60.7884 90.1216 61.0492 90.1212 61.3101C90.1211 61.4058 90.1214 61.5015 90.1219 61.5972C90.1226 61.728 90.1223 61.8587 90.1217 61.9894C90.1223 62.0461 90.1223 62.0461 90.123 62.104C90.1198 62.4296 90.0256 62.6328 89.8084 62.8712C89.5955 63.0348 89.3605 63.0533 89.0984 63.0396C88.7873 62.9529 88.6431 62.8216 88.4644 62.5641C88.4084 62.3976 88.4044 62.2415 88.4032 62.0666C88.4024 61.9794 88.4024 61.9794 88.4016 61.8905C88.4013 61.8271 88.401 61.7636 88.4007 61.6982C88.4002 61.6312 88.3997 61.5642 88.3991 61.4951C88.3977 61.3115 88.3966 61.1279 88.3955 60.9443C88.3944 60.7524 88.3929 60.5604 88.3915 60.3685C88.3889 60.0051 88.3865 59.6417 88.3842 59.2783C88.3816 58.8646 88.3787 58.4509 88.3758 58.0371C88.3698 57.1861 88.3641 56.3351 88.3587 55.4841C88.3303 55.5268 88.3019 55.5695 88.2727 55.6135C88.2351 55.67 88.1975 55.7265 88.1588 55.7846C88.1217 55.8404 88.0846 55.8962 88.0463 55.9537C87.8928 56.1825 87.7349 56.4081 87.5761 56.6333C87.3487 56.9568 87.1225 57.2811 86.8991 57.6074C86.829 57.7093 86.7588 57.8112 86.6887 57.9131C86.6371 57.9882 86.5858 58.0634 86.5346 58.1386C86.4518 58.2602 86.3684 58.3813 86.2849 58.5023C86.26 58.5393 86.2351 58.5762 86.2094 58.6142C86.0161 58.8925 85.8012 59.1661 85.4744 59.2854C85.1536 59.3099 84.9135 59.2875 84.6602 59.0769C84.5009 58.8953 84.3706 58.6967 84.2375 58.4957C83.8155 57.8609 83.3896 57.2286 82.9629 56.5969C82.8965 56.4987 82.8302 56.4005 82.7639 56.3023C82.6035 56.0648 82.4431 55.8273 82.2826 55.5898C82.2825 55.6246 82.2823 55.6594 82.2822 55.6953C82.2791 56.5433 82.2751 57.3913 82.2701 58.2393C82.2678 58.6494 82.2657 59.0595 82.2643 59.4696C82.2631 59.8271 82.2613 60.1846 82.2589 60.5421C82.2576 60.7313 82.2566 60.9205 82.2563 61.1098C82.2559 61.3212 82.2543 61.5325 82.2526 61.7439C82.2527 61.8065 82.2528 61.8691 82.2528 61.9336C82.2467 62.4668 82.2467 62.4668 82.0713 62.7226C81.8664 62.9219 81.6661 63.0309 81.3772 63.0452C81.091 63.032 80.9286 62.9505 80.7192 62.7579C80.5327 62.5372 80.5238 62.3348 80.5252 62.054C80.525 62.0131 80.5248 61.9721 80.5246 61.9299C80.5241 61.7926 80.5243 61.6552 80.5245 61.5179C80.5243 61.4195 80.524 61.3211 80.5237 61.2226C80.523 60.9552 80.523 60.6877 80.5231 60.4203C80.5231 60.1971 80.5229 59.9739 80.5226 59.7506C80.522 59.224 80.522 58.6974 80.5223 58.1708C80.5227 57.6275 80.522 57.0841 80.5209 56.5408C80.52 56.0744 80.5196 55.608 80.5198 55.1416C80.5199 54.863 80.5198 54.5844 80.519 54.3058C80.5184 54.0438 80.5185 53.7818 80.5192 53.5197C80.5193 53.4236 80.5191 53.3275 80.5187 53.2313C80.5182 53.1 80.5186 52.9687 80.5192 52.8374C80.5189 52.7994 80.5185 52.7614 80.5181 52.7223C80.5207 52.4772 80.5691 52.311 80.6975 52.1026C80.9128 51.9034 81.0802 51.8305 81.3712 51.8219Z" fill="#D594DC"/>
<path d="M159.585 51.9079C159.983 52.2726 160.286 52.724 160.596 53.1635C160.762 53.398 160.933 53.6287 161.104 53.8595C161.347 54.1883 161.588 54.5183 161.827 54.8502C162.184 55.3462 162.547 55.838 162.91 56.3296C163.302 56.8595 163.692 57.3902 164.077 57.9251C164.328 58.274 164.583 58.6202 164.839 58.9659C164.868 59.0058 164.898 59.0456 164.928 59.0867C164.954 59.1219 164.98 59.1571 165.007 59.1933C165.067 59.2764 165.125 59.3615 165.182 59.4469C165.182 59.3944 165.182 59.3944 165.182 59.3408C165.185 58.4879 165.189 57.635 165.194 56.7821C165.197 56.3696 165.199 55.9572 165.2 55.5447C165.201 55.1851 165.203 54.8255 165.206 54.4659C165.207 54.2756 165.208 54.0853 165.208 53.895C165.208 53.6822 165.21 53.4695 165.212 53.2567C165.212 53.194 165.212 53.1313 165.212 53.0667C165.22 52.3454 165.22 52.3454 165.468 52.0736C165.712 51.8604 165.912 51.8226 166.224 51.8272C166.473 51.8506 166.619 51.9504 166.783 52.1324C166.932 52.3478 166.933 52.5052 166.933 52.7606C166.933 52.8016 166.934 52.8427 166.934 52.885C166.934 53.0234 166.935 53.1618 166.935 53.3002C166.935 53.3992 166.935 53.4981 166.936 53.597C166.937 53.8663 166.937 54.1356 166.938 54.4049C166.938 54.5731 166.938 54.7413 166.939 54.9095C166.94 55.4355 166.94 55.9614 166.941 56.4874C166.941 57.0949 166.943 57.7025 166.945 58.3101C166.946 58.7794 166.947 59.2487 166.947 59.718C166.948 59.9984 166.948 60.2789 166.949 60.5593C166.951 60.8231 166.951 61.087 166.95 61.3508C166.95 61.4476 166.951 61.5445 166.951 61.6413C166.952 61.7735 166.952 61.9057 166.951 62.038C166.952 62.0763 166.952 62.1145 166.953 62.154C166.95 62.4205 166.88 62.5697 166.714 62.7755C166.504 62.9559 166.322 63.0163 166.056 63.0562C165.741 63.0175 165.515 62.8706 165.322 62.6234C165.263 62.5416 165.206 62.459 165.149 62.376C165.084 62.2851 165.02 62.1943 164.955 62.1035C164.923 62.0571 164.89 62.0108 164.857 61.963C164.704 61.7457 164.545 61.5327 164.386 61.3192C164.119 60.957 163.854 60.5926 163.591 60.2272C163.384 59.9392 163.174 59.6531 162.963 59.3676C162.694 59.0043 162.429 58.639 162.165 58.2723C161.957 57.9843 161.747 57.6982 161.536 57.4127C161.236 57.0069 160.94 56.5987 160.645 56.1892C160.516 56.0107 160.387 55.8327 160.258 55.6548C160.22 55.6029 160.182 55.551 160.143 55.4976C160.115 55.4583 160.086 55.419 160.057 55.3785C160.057 55.4144 160.056 55.4504 160.056 55.4874C160.053 56.3618 160.049 57.2363 160.044 58.1108C160.042 58.5337 160.04 58.9565 160.038 59.3794C160.037 59.7481 160.035 60.1167 160.033 60.4853C160.032 60.6805 160.031 60.8756 160.03 61.0708C160.03 61.2887 160.028 61.5067 160.027 61.7246C160.027 61.7892 160.027 61.8538 160.027 61.9203C160.021 62.4694 160.021 62.4694 159.845 62.7227C159.647 62.9157 159.444 63.0365 159.161 63.0416C158.852 63.0174 158.636 62.9027 158.429 62.6665C158.298 62.4535 158.305 62.2513 158.305 62.01C158.305 61.9693 158.305 61.9287 158.305 61.8868C158.304 61.7502 158.304 61.6135 158.304 61.4769C158.303 61.3791 158.303 61.2813 158.303 61.1835C158.302 60.9174 158.301 60.6514 158.301 60.3853C158.301 60.2191 158.3 60.0529 158.3 59.8868C158.299 59.3669 158.298 58.847 158.298 58.3271C158.297 57.7268 158.296 57.1265 158.294 56.5263C158.292 56.0624 158.291 55.5985 158.291 55.1346C158.291 54.8575 158.291 54.5804 158.289 54.3033C158.288 54.0426 158.288 53.7819 158.288 53.5212C158.288 53.4256 158.288 53.3299 158.287 53.2343C158.286 53.1036 158.287 52.973 158.287 52.8422C158.287 52.8046 158.286 52.7669 158.286 52.7281C158.289 52.4406 158.366 52.2813 158.525 52.0499C158.848 51.7972 159.201 51.7436 159.585 51.9079Z" fill="#D594DC"/>
<path d="M205.901 51.8219C205.967 51.8189 205.967 51.8189 206.034 51.8159C206.337 51.8619 206.531 52.0058 206.712 52.2431C206.766 52.3202 206.82 52.3978 206.872 52.4757C206.932 52.5618 206.992 52.6478 207.053 52.7337C207.083 52.778 207.114 52.8222 207.145 52.8677C207.295 53.0811 207.45 53.2902 207.605 53.4994C207.667 53.5835 207.729 53.6676 207.791 53.7516C207.854 53.836 207.916 53.9203 207.978 54.0047C208.371 54.5352 208.761 55.0667 209.147 55.6021C209.445 56.0161 209.748 56.4267 210.051 56.8371C210.237 57.0879 210.421 57.3389 210.606 57.5898C210.765 57.8051 210.923 58.0201 211.082 58.235C211.115 58.2793 211.148 58.3235 211.181 58.369C211.243 58.4523 211.305 58.5357 211.366 58.6189C211.52 58.8275 211.671 59.0376 211.82 59.2502C211.853 59.2971 211.885 59.344 211.919 59.3923C211.944 59.4277 211.968 59.4631 211.994 59.4996C211.994 59.4631 211.994 59.4267 211.994 59.3891C211.996 58.5014 211.999 57.6137 212.004 56.726C212.006 56.2967 212.007 55.8674 212.008 55.4382C212.009 55.064 212.01 54.6898 212.013 54.3156C212.014 54.1175 212.015 53.9194 212.015 53.7213C212.015 53.5 212.016 53.2788 212.018 53.0575C212.018 52.9592 212.018 52.9592 212.017 52.8589C212.021 52.5221 212.027 52.3035 212.258 52.0498C212.485 51.8501 212.69 51.8228 212.983 51.8271C213.232 51.8505 213.378 51.9503 213.543 52.1323C213.692 52.3478 213.693 52.5063 213.694 52.7618C213.694 52.803 213.694 52.8442 213.694 52.8867C213.695 53.0255 213.696 53.1644 213.697 53.3033C213.697 53.4026 213.698 53.5018 213.698 53.6011C213.7 53.9279 213.702 54.2546 213.703 54.5813C213.703 54.6369 213.703 54.6925 213.703 54.7497C213.705 55.2737 213.707 55.7976 213.708 56.3216C213.71 56.992 213.712 57.6624 213.717 58.3328C213.72 58.8041 213.721 59.2753 213.722 59.7466C213.722 60.0281 213.723 60.3096 213.725 60.5911C213.728 60.856 213.728 61.121 213.727 61.386C213.728 61.4831 213.728 61.5802 213.729 61.6773C213.74 62.5023 213.74 62.5023 213.507 62.7785C213.279 62.987 213.073 63.0513 212.767 63.0429C212.395 62.985 212.15 62.696 211.932 62.4062C211.879 62.3304 211.825 62.2542 211.773 62.1777C211.713 62.0931 211.653 62.0085 211.594 61.9239C211.564 61.881 211.534 61.8381 211.503 61.7939C211.361 61.5924 211.217 61.393 211.073 61.1936C211.044 61.1546 211.016 61.1155 210.987 61.0753C210.748 60.744 210.505 60.4151 210.263 60.0864C210.025 59.7651 209.791 59.4417 209.558 59.1176C209.35 58.8296 209.14 58.5434 208.929 58.258C208.69 57.9335 208.452 57.6079 208.216 57.2805C207.973 56.9422 207.727 56.6055 207.48 56.27C207.45 56.2294 207.42 56.1887 207.389 56.1468C207.25 55.958 207.11 55.7697 206.969 55.5819C206.94 55.5438 206.912 55.5057 206.882 55.4665C206.86 55.4374 206.839 55.4084 206.816 55.3784C206.816 55.4146 206.816 55.4508 206.816 55.4881C206.814 56.3692 206.811 57.2503 206.806 58.1313C206.804 58.5574 206.803 58.9835 206.802 59.4096C206.801 59.781 206.8 60.1524 206.797 60.5238C206.796 60.7205 206.795 60.9171 206.795 61.1137C206.795 61.3333 206.794 61.5529 206.792 61.7725C206.792 61.8701 206.792 61.8701 206.793 61.9697C206.788 62.402 206.733 62.5843 206.436 62.8976C206.2 63.0396 205.968 63.0686 205.697 63.0181C205.423 62.9311 205.287 62.7991 205.125 62.5641C205.063 62.3765 205.065 62.2067 205.065 62.0115C205.065 61.9711 205.065 61.9306 205.065 61.8889C205.064 61.7528 205.064 61.6168 205.064 61.4808C205.064 61.3834 205.063 61.286 205.063 61.1887C205.062 60.9238 205.062 60.659 205.062 60.3941C205.062 60.2287 205.062 60.0633 205.061 59.8979C205.061 59.3805 205.06 58.8631 205.06 58.3458C205.06 57.7482 205.059 57.1507 205.057 56.5532C205.056 56.0915 205.055 55.6298 205.055 55.1682C205.055 54.8923 205.055 54.6165 205.054 54.3407C205.053 54.0812 205.053 53.8218 205.054 53.5623C205.054 53.4671 205.053 53.3719 205.053 53.2767C205.052 53.1466 205.052 53.0166 205.053 52.8866C205.053 52.849 205.052 52.8114 205.052 52.7726C205.055 52.493 205.119 52.2754 205.312 52.0685C205.522 51.9077 205.638 51.8296 205.901 51.8219Z" fill="#D594DC"/>
<path d="M133.922 51.9275C134.124 52.1054 134.277 52.2558 134.325 52.5252C134.33 52.6447 134.331 52.7643 134.331 52.8839C134.331 52.9194 134.331 52.955 134.331 52.9917C134.331 53.1089 134.331 53.2261 134.33 53.3433C134.33 53.4248 134.33 53.5062 134.33 53.5876C134.33 53.8017 134.329 54.0157 134.329 54.2297C134.328 54.4482 134.328 54.6667 134.328 54.8853C134.327 55.3138 134.326 55.7423 134.325 56.1709C134.394 56.1708 134.462 56.1706 134.533 56.1705C135.178 56.1694 135.824 56.1687 136.469 56.1681C136.801 56.1679 137.133 56.1675 137.464 56.1669C137.784 56.1663 138.104 56.166 138.424 56.1659C138.547 56.1658 138.669 56.1656 138.791 56.1653C138.962 56.1649 139.133 56.1648 139.304 56.1649C139.355 56.1647 139.406 56.1645 139.458 56.1643C139.505 56.1644 139.551 56.1644 139.599 56.1645C139.639 56.1645 139.68 56.1644 139.721 56.1644C139.82 56.1709 139.82 56.1709 139.926 56.2237C139.925 56.1776 139.925 56.1316 139.924 56.0841C139.92 55.6488 139.917 55.2136 139.915 54.7783C139.914 54.5545 139.912 54.3308 139.91 54.107C139.908 53.8908 139.906 53.6747 139.906 53.4585C139.905 53.3763 139.905 53.294 139.903 53.2118C139.893 52.403 139.893 52.403 140.137 52.0497C140.37 51.8454 140.601 51.8039 140.907 51.8183C141.122 51.8518 141.232 51.9145 141.405 52.0497C141.588 52.3165 141.647 52.5158 141.643 52.841C141.643 52.9023 141.643 52.9023 141.644 52.9648C141.645 53.101 141.644 53.237 141.643 53.3732C141.643 53.4711 141.644 53.569 141.644 53.6669C141.645 53.9323 141.644 54.1977 141.643 54.463C141.642 54.7409 141.643 55.0188 141.643 55.2967C141.643 55.7633 141.642 56.2299 141.641 56.6965C141.64 57.2358 141.64 57.7751 141.64 58.3144C141.641 58.8334 141.641 59.3525 141.64 59.8715C141.64 60.0923 141.64 60.3131 141.64 60.5339C141.64 60.7939 141.639 61.0539 141.638 61.3139C141.638 61.4093 141.638 61.5046 141.638 61.6C141.639 61.7303 141.638 61.8605 141.637 61.9907C141.637 62.0473 141.637 62.0473 141.638 62.1049C141.635 62.349 141.585 62.5147 141.458 62.7225C141.261 62.9088 141.084 63.0324 140.809 63.0451C140.507 63.0328 140.327 62.9666 140.104 62.763C139.911 62.5148 139.911 62.2565 139.914 61.9535C139.914 61.9087 139.914 61.8638 139.914 61.8176C139.914 61.6698 139.915 61.522 139.915 61.3742C139.916 61.2715 139.916 61.1688 139.916 61.0661C139.916 60.7962 139.917 60.5264 139.919 60.2565C139.92 59.9809 139.92 59.7054 139.921 59.4299C139.922 58.8895 139.924 58.3491 139.926 57.8088C139.896 57.8174 139.866 57.826 139.834 57.8348C139.713 57.8619 139.608 57.8681 139.484 57.868C139.439 57.868 139.393 57.8681 139.346 57.8682C139.297 57.868 139.247 57.8678 139.196 57.8676C139.143 57.8676 139.091 57.8676 139.036 57.8676C138.863 57.8676 138.689 57.8672 138.515 57.8668C138.394 57.8667 138.274 57.8666 138.153 57.8665C137.836 57.8663 137.519 57.8658 137.202 57.8652C136.878 57.8647 136.554 57.8645 136.231 57.8642C135.595 57.8636 134.96 57.8627 134.325 57.8616C134.326 57.9169 134.326 57.9723 134.327 58.0293C134.331 58.5516 134.334 59.074 134.336 59.5964C134.337 59.8649 134.339 60.1335 134.341 60.402C134.343 60.6613 134.345 60.9206 134.345 61.18C134.346 61.2787 134.346 61.3775 134.348 61.4762C134.349 61.615 134.349 61.7537 134.349 61.8924C134.35 61.9329 134.351 61.9734 134.351 62.0151C134.349 62.3071 134.277 62.5313 134.114 62.7753C133.877 62.9906 133.636 63.0527 133.321 63.0395C133.01 62.9514 132.868 62.8197 132.687 62.564C132.625 62.3766 132.627 62.2071 132.627 62.0122C132.626 61.9718 132.626 61.9314 132.626 61.8897C132.626 61.754 132.625 61.6182 132.625 61.4824C132.625 61.3852 132.624 61.288 132.624 61.1908C132.623 60.8712 132.622 60.5516 132.622 60.232C132.622 60.122 132.621 60.012 132.621 59.902C132.62 59.3851 132.619 58.8682 132.619 58.3513C132.619 57.7547 132.617 57.1581 132.615 56.5615C132.613 56.1003 132.613 55.6392 132.612 55.178C132.612 54.9026 132.612 54.6272 132.611 54.3518C132.609 54.0926 132.609 53.8334 132.61 53.5742C132.61 53.4792 132.609 53.3842 132.609 53.2892C132.608 53.1592 132.608 53.0292 132.609 52.8992C132.608 52.8619 132.608 52.8246 132.607 52.7862C132.611 52.5037 132.688 52.2811 132.846 52.0497C133.153 51.7741 133.559 51.746 133.922 51.9275Z" fill="#D594DC"/>
<path d="M124.37 52.0402C124.407 52.0399 124.445 52.0395 124.483 52.0392C124.606 52.0382 124.728 52.0375 124.851 52.037C124.893 52.0368 124.935 52.0366 124.979 52.0363C125.202 52.0352 125.425 52.0345 125.648 52.034C125.878 52.0334 126.108 52.0316 126.337 52.0295C126.515 52.0281 126.692 52.0277 126.87 52.0275C126.954 52.0272 127.039 52.0266 127.123 52.0256C127.951 52.0166 127.951 52.0166 128.302 52.2609C128.515 52.5219 128.547 52.741 128.534 53.0751C128.497 53.3225 128.376 53.4641 128.193 53.6248C127.983 53.7536 127.801 53.7472 127.56 53.7478C127.503 53.7481 127.503 53.7481 127.445 53.7484C127.363 53.7488 127.281 53.7491 127.199 53.7492C127.069 53.7496 126.939 53.7505 126.808 53.7514C126.438 53.7542 126.068 53.7567 125.698 53.7576C125.471 53.7581 125.244 53.7596 125.018 53.7618C124.932 53.7625 124.846 53.7628 124.76 53.7627C124.112 53.762 123.544 53.8072 123.053 54.2757C122.752 54.6156 122.684 54.9489 122.69 55.3917C122.718 55.7513 122.911 56.0434 123.177 56.2764C123.612 56.5472 123.983 56.6004 124.486 56.6027C124.589 56.604 124.693 56.6053 124.796 56.6066C124.958 56.6084 125.12 56.61 125.282 56.6107C126.429 56.6168 127.429 56.7544 128.294 57.5843C128.946 58.2657 129.128 59.0305 129.111 59.95C129.078 60.7597 128.682 61.4902 128.091 62.0355C127.459 62.5223 126.724 62.7915 125.929 62.7906C125.884 62.7909 125.84 62.7913 125.794 62.7917C125.649 62.7927 125.504 62.7929 125.359 62.793C125.257 62.7933 125.156 62.7937 125.054 62.7941C124.842 62.7947 124.63 62.7949 124.417 62.7948C124.146 62.7948 123.874 62.7963 123.602 62.7981C123.393 62.7993 123.183 62.7995 122.974 62.7994C122.874 62.7995 122.774 62.8 122.673 62.8008C122.533 62.8019 122.393 62.8016 122.253 62.8009C122.212 62.8015 122.171 62.8021 122.129 62.8027C121.853 62.7995 121.699 62.7372 121.486 62.5639C121.303 62.3663 121.26 62.2155 121.252 61.953C121.265 61.6228 121.347 61.4843 121.585 61.2562C121.852 61.0642 122.107 61.0771 122.427 61.0787C122.512 61.0787 122.596 61.0786 122.681 61.0786C122.747 61.0787 122.747 61.0787 122.816 61.0788C123.053 61.079 123.291 61.0776 123.528 61.0766C123.829 61.0753 124.131 61.0744 124.432 61.0753C124.677 61.0759 124.921 61.0749 125.165 61.073C125.258 61.0726 125.35 61.0727 125.443 61.0734C126.035 61.0775 126.548 61.047 127.019 60.6349C127.303 60.3193 127.413 59.9694 127.404 59.5523C127.346 59.1809 127.16 58.8958 126.875 58.6541C126.473 58.4158 126.088 58.3827 125.631 58.3806C125.53 58.3794 125.429 58.3781 125.327 58.3768C125.169 58.3749 125.011 58.3734 124.853 58.3727C123.702 58.3664 122.639 58.2127 121.775 57.3718C121.146 56.6765 120.904 55.8889 120.948 54.9598C121.019 54.1218 121.407 53.4179 122.014 52.8421C122.684 52.278 123.506 52.0469 124.37 52.0402Z" fill="#D594DC"/>
<path d="M194.023 51.9174C194.227 52.0623 194.321 52.2368 194.399 52.4722C194.428 52.6854 194.427 52.8958 194.425 53.1107C194.425 53.1736 194.425 53.2364 194.426 53.3012C194.426 53.4726 194.425 53.644 194.425 53.8154C194.424 53.9957 194.425 54.1761 194.425 54.3564C194.427 54.8536 194.426 55.3508 194.426 55.8479C194.425 56.3032 194.425 56.7585 194.427 57.2138C194.427 57.3928 194.428 57.5718 194.427 57.7508C194.426 57.9509 194.426 58.151 194.427 58.3511C194.426 58.4093 194.426 58.4674 194.425 58.5273C194.431 59.2448 194.682 60.0312 195.192 60.5561C195.732 61.0241 196.443 61.345 197.17 61.3141C197.727 61.2387 198.219 61.0998 198.679 60.7674C198.726 60.7369 198.773 60.7064 198.821 60.6749C199.348 60.1619 199.678 59.4417 199.703 58.7073C199.704 58.592 199.704 58.4767 199.703 58.3615C199.704 58.298 199.704 58.2345 199.704 58.1691C199.705 57.9968 199.705 57.8246 199.705 57.6524C199.704 57.4713 199.705 57.2902 199.706 57.1091C199.708 56.6109 199.709 56.1126 199.71 55.6143C199.71 55.1565 199.711 54.6988 199.713 54.241C199.714 54.0611 199.714 53.8812 199.714 53.7013C199.714 53.501 199.715 53.3007 199.716 53.1004C199.715 53.0116 199.715 53.0116 199.715 52.921C199.717 52.5848 199.735 52.3259 199.975 52.0683C200.28 51.8356 200.466 51.8061 200.845 51.8382C201.129 51.938 201.292 52.0981 201.427 52.3665C201.432 52.4547 201.434 52.5432 201.434 52.6316C201.435 52.7158 201.435 52.7158 201.436 52.8016C201.436 52.8635 201.436 52.9254 201.436 52.9891C201.436 53.0541 201.437 53.119 201.437 53.186C201.438 53.4021 201.439 53.6182 201.439 53.8344C201.439 53.909 201.44 53.9837 201.44 54.0583C201.441 54.4098 201.442 54.7614 201.442 55.1129C201.443 55.5167 201.444 55.9204 201.446 56.3242C201.448 56.6373 201.448 56.9504 201.449 57.2635C201.449 57.4499 201.449 57.6363 201.451 57.8227C201.457 58.7815 201.463 59.738 201.014 60.6122C200.996 60.6492 200.977 60.6862 200.959 60.7244C200.811 61.014 200.639 61.2646 200.423 61.5071C200.392 61.5458 200.361 61.5845 200.33 61.6243C199.675 62.4239 198.653 62.8908 197.642 63.0261C197.565 63.0319 197.488 63.0362 197.411 63.0393C197.362 63.0421 197.312 63.0448 197.261 63.0476C196.521 63.0695 195.812 62.9245 195.139 62.6167C195.09 62.5945 195.041 62.5724 194.99 62.5496C194.069 62.0937 193.345 61.197 192.986 60.249C192.705 59.3795 192.684 58.5738 192.686 57.6642C192.686 57.5181 192.686 57.3721 192.685 57.2261C192.684 56.8817 192.685 56.5373 192.685 56.1929C192.686 55.8386 192.685 55.4844 192.684 55.1301C192.682 54.8244 192.682 54.5187 192.682 54.213C192.683 54.031 192.682 53.8491 192.682 53.6671C192.681 53.4647 192.681 53.2623 192.682 53.0599C192.682 53.0002 192.681 52.9405 192.681 52.879C192.684 52.5381 192.714 52.3253 192.92 52.0495C193.247 51.7942 193.639 51.7327 194.023 51.9174Z" fill="#D594DC"/>
<path d="M98.6086 51.8383C99.1546 52.0809 99.3356 52.797 99.5464 53.3144C99.5811 53.3986 99.6158 53.4829 99.6506 53.5672C99.724 53.7452 99.7972 53.9233 99.8702 54.1014C99.9803 54.3696 100.091 54.6375 100.202 54.9052C100.221 54.9491 100.239 54.9931 100.258 55.0383C100.295 55.1275 100.332 55.2168 100.369 55.306C100.464 55.5342 100.558 55.7625 100.653 55.9908C100.802 56.3519 100.952 56.713 101.102 57.074C101.485 57.9984 101.868 58.9231 102.251 59.848C102.294 59.953 102.338 60.0579 102.381 60.1629C102.498 60.4455 102.615 60.7283 102.731 61.0112C102.78 61.1321 102.831 61.2528 102.881 61.3734C102.91 61.4442 102.939 61.515 102.968 61.5858C102.993 61.6458 103.018 61.7058 103.043 61.7675C103.125 62.0022 103.153 62.2147 103.1 62.4583C102.984 62.6889 102.847 62.8558 102.624 62.9866C102.361 63.0572 102.122 63.0718 101.868 62.9635C101.498 62.7371 101.35 62.2947 101.195 61.9086C101.176 61.8612 101.156 61.8138 101.136 61.7649C101.073 61.6098 101.01 61.4545 100.947 61.2992C100.902 61.1895 100.857 61.0799 100.812 60.9704C100.72 60.7464 100.629 60.5223 100.537 60.2982C100.346 59.8309 100.153 59.3646 99.9592 58.8984C99.9232 58.8118 99.8873 58.7251 99.8513 58.6384C99.7365 58.3618 99.6217 58.0852 99.5068 57.8087C99.4729 57.7271 99.4729 57.7271 99.4383 57.6438C99.2925 57.2927 99.1466 56.9417 99.0006 56.5907C98.9531 56.4766 98.9056 56.3625 98.8582 56.2484C98.7922 56.0895 98.7261 55.9307 98.66 55.7718C98.6403 55.7243 98.6206 55.6768 98.6002 55.6279C98.582 55.5841 98.5637 55.5402 98.5448 55.495C98.529 55.457 98.5132 55.4189 98.4969 55.3797C98.4496 55.2715 98.3981 55.1664 98.3444 55.0612C97.8838 56.2378 97.4233 57.4143 96.9641 58.5913C96.9471 58.6349 96.9301 58.6785 96.9126 58.7233C96.7338 59.1816 96.5551 59.6398 96.3764 60.0981C96.3001 60.294 96.2237 60.4898 96.1474 60.6857C96.1114 60.778 96.0754 60.8704 96.0394 60.9627C96.0224 61.0062 96.0055 61.0498 95.988 61.0946C95.9715 61.1371 95.9549 61.1796 95.9379 61.2234C95.8899 61.3463 95.8417 61.469 95.7934 61.5917C95.7332 61.7449 95.6746 61.8987 95.6172 62.0531C95.6035 62.0891 95.5898 62.1252 95.5757 62.1623C95.5391 62.2589 95.503 62.3558 95.4671 62.4527C95.3439 62.7009 95.1879 62.8426 94.9497 62.98C94.6323 63.0752 94.3931 63.0451 94.0977 62.8974C93.9091 62.7313 93.825 62.5993 93.7816 62.3493C93.7479 61.8132 93.9788 61.3439 94.1737 60.8567C94.2126 60.7574 94.2513 60.6581 94.29 60.5588C94.3888 60.3058 94.4887 60.0534 94.5891 59.8011C94.6743 59.5865 94.7587 59.3717 94.8432 59.1568C94.9383 58.9153 95.0335 58.6739 95.1292 58.4327C95.3781 57.8052 95.6231 57.1762 95.8668 56.5467C96.0368 56.1075 96.207 55.6684 96.3772 55.2293C96.421 55.1162 96.4649 55.003 96.5087 54.8899C96.6395 54.5521 96.7705 54.2145 96.9019 53.877C96.9429 53.7718 96.9837 53.6666 97.0244 53.5613C97.7246 51.7519 97.7246 51.7519 98.6086 51.8383Z" fill="#D594DC"/>
<path d="M150.123 51.8383C150.552 52.0289 150.729 52.4979 150.895 52.9113C150.912 52.9528 150.929 52.9944 150.947 53.0372C151.003 53.1735 151.059 53.31 151.114 53.4465C151.154 53.5433 151.193 53.6401 151.233 53.7368C151.316 53.9377 151.398 54.1387 151.48 54.3397C151.651 54.7564 151.824 55.1722 151.996 55.5881C152.09 55.8131 152.183 56.0382 152.276 56.2633C152.314 56.3535 152.351 56.4438 152.389 56.534C152.613 57.0756 152.613 57.0756 152.669 57.211C152.707 57.3013 152.744 57.3916 152.782 57.482C152.875 57.7066 152.968 57.9311 153.061 58.1557C153.235 58.5747 153.408 58.9936 153.582 59.4124C153.664 59.608 153.745 59.8035 153.826 59.9991C153.864 60.0913 153.903 60.1836 153.941 60.2758C154.044 60.5244 154.147 60.7731 154.25 61.0221C154.281 61.0989 154.313 61.1758 154.345 61.2525C154.39 61.3607 154.435 61.4691 154.48 61.5776C154.505 61.6387 154.53 61.6999 154.556 61.7629C154.639 61.9996 154.668 62.2125 154.614 62.4583C154.499 62.6889 154.362 62.8558 154.139 62.9866C153.875 63.0572 153.637 63.0718 153.383 62.9635C153.017 62.7396 152.869 62.304 152.715 61.9216C152.696 61.8752 152.677 61.8288 152.658 61.781C152.617 61.6807 152.576 61.5803 152.535 61.4799C152.447 61.2632 152.359 61.0468 152.27 60.8304C152.223 60.7168 152.177 60.6032 152.131 60.4897C151.885 59.8887 151.635 59.2895 151.385 58.6904C151.297 58.4807 151.21 58.2709 151.122 58.0611C151.101 58.0098 151.079 57.9584 151.057 57.9056C150.905 57.5389 150.752 57.1721 150.6 56.805C150.58 56.7544 150.559 56.7038 150.537 56.6517C150.438 56.412 150.339 56.1722 150.24 55.9324C150.205 55.8475 150.17 55.7627 150.134 55.6779C150.119 55.6397 150.103 55.6015 150.087 55.5621C150.016 55.3919 149.943 55.2254 149.859 55.0612C149.819 55.1641 149.779 55.2669 149.738 55.3698C149.702 55.4635 149.665 55.5571 149.628 55.6508C149.523 55.9193 149.418 56.1878 149.313 56.4563C149.116 56.9592 148.92 57.4622 148.723 57.9652C148.624 58.2179 148.525 58.4707 148.426 58.7234C148.407 58.7731 148.387 58.8228 148.367 58.874C148.15 59.4285 147.933 59.9831 147.717 60.5378C147.697 60.5875 147.678 60.6372 147.658 60.6885C147.566 60.9241 147.474 61.1597 147.382 61.3954C147.305 61.5933 147.228 61.7911 147.151 61.9888C147.115 62.0791 147.081 62.1695 147.046 62.2599C147.027 62.3072 147.009 62.3545 146.99 62.4031C146.968 62.461 146.968 62.461 146.945 62.5199C146.839 62.7485 146.677 62.8575 146.464 62.98C146.147 63.0752 145.908 63.0451 145.612 62.8974C145.418 62.726 145.335 62.5932 145.297 62.3334C145.271 61.8063 145.459 61.3917 145.659 60.9161C145.695 60.8275 145.731 60.7389 145.767 60.6502C145.842 60.4648 145.918 60.2796 145.994 60.0945C146.156 59.699 146.311 59.3006 146.466 58.9021C146.518 58.768 146.57 58.6341 146.622 58.5001C146.878 57.8457 147.131 57.1908 147.385 56.5358C147.533 56.1549 147.68 55.7741 147.828 55.3932C147.916 55.1682 148.003 54.9432 148.09 54.7181C148.199 54.4377 148.308 54.1574 148.417 53.8772C148.458 53.7719 148.498 53.6666 148.539 53.5612C149.239 51.7519 149.239 51.7519 150.123 51.8383Z" fill="#D594DC"/>
<path d="M180.343 51.9007C180.526 52.0098 180.644 52.1285 180.785 52.2875C180.81 52.3155 180.835 52.3435 180.861 52.3723C181.062 52.5988 181.253 52.8329 181.442 53.0687C181.566 53.2178 181.694 53.3604 181.825 53.5027C182.042 53.7377 182.244 53.9808 182.444 54.2292C182.569 54.3788 182.698 54.5221 182.829 54.6651C183.047 54.9021 183.252 55.1466 183.454 55.3976C183.566 55.5335 183.683 55.6622 183.803 55.7912C183.957 55.9611 184.05 56.0999 184.097 56.3295C184.719 55.8088 185.295 55.2298 185.788 54.5859C185.842 54.5167 185.896 54.4476 185.951 54.3785C186.38 53.8278 186.782 53.264 187.142 52.6652C187.165 52.627 187.188 52.5887 187.212 52.5493C187.256 52.4761 187.3 52.4026 187.343 52.3286C187.479 52.1021 187.608 51.963 187.849 51.8384C188.114 51.7871 188.392 51.7989 188.638 51.9177C188.893 52.1258 188.994 52.3356 189.034 52.6607C188.984 53.0528 188.766 53.3654 188.555 53.691C188.513 53.7573 188.513 53.7573 188.469 53.825C188.412 53.9142 188.355 54.0033 188.297 54.0924C188.229 54.199 188.163 54.3063 188.097 54.4144C187.802 54.8934 187.458 55.3189 187.094 55.7468C187.011 55.8445 186.93 55.943 186.848 56.042C186.544 56.4092 186.22 56.7537 185.884 57.0923C185.845 57.1317 185.806 57.1711 185.766 57.2117C185.728 57.2496 185.69 57.2875 185.65 57.3265C185.617 57.3597 185.584 57.3929 185.549 57.4271C185.418 57.5447 185.418 57.5447 185.3 57.6048C185.143 57.6948 185.05 57.7681 184.943 57.9145C184.873 58.2532 184.885 58.5873 184.892 58.9316C184.892 59.0321 184.892 59.1325 184.892 59.233C184.892 59.4969 184.894 59.7608 184.898 60.0247C184.903 60.4471 184.904 60.8694 184.905 61.2918C184.905 61.439 184.907 61.5861 184.91 61.7332C184.91 61.8239 184.911 61.9145 184.911 62.0052C184.912 62.0457 184.913 62.0863 184.914 62.1281C184.914 62.4199 184.843 62.587 184.678 62.8283C184.456 63.0241 184.174 63.0536 183.886 63.0396C183.639 62.972 183.496 62.868 183.334 62.6697C183.231 62.4704 183.192 62.3114 183.193 62.0879C183.193 62.0255 183.193 62.0255 183.192 61.9618C183.193 61.894 183.193 61.894 183.193 61.8248C183.193 61.7769 183.193 61.7289 183.193 61.6795C183.193 61.5211 183.193 61.3628 183.194 61.2044C183.194 61.0945 183.194 60.9846 183.194 60.8748C183.194 60.5857 183.195 60.2966 183.195 60.0076C183.196 59.7126 183.196 59.4175 183.196 59.1225C183.197 58.5437 183.198 57.965 183.199 57.3862C183.151 57.3661 183.151 57.3661 183.102 57.3456C183.038 57.3184 183.038 57.3184 182.973 57.2906C182.931 57.2729 182.889 57.2551 182.846 57.2369C182.487 57.0546 182.247 56.6793 182.001 56.373C181.884 56.2313 181.764 56.0951 181.64 55.9596C181.477 55.7802 181.321 55.5971 181.168 55.4081C180.964 55.1559 180.749 54.9169 180.529 54.6783C180.36 54.4904 180.203 54.2945 180.045 54.0978C179.917 53.9439 179.782 53.7977 179.646 53.6513C179.121 53.0747 179.121 53.0747 179.098 52.6838C179.113 52.404 179.207 52.2037 179.395 51.9969C179.683 51.7871 180.017 51.7703 180.343 51.9007Z" fill="#D594DC"/>
<path d="M108.113 51.9207C108.364 52.1168 108.475 52.3101 108.516 52.6208C108.517 52.6948 108.517 52.7688 108.516 52.8428C108.516 52.8839 108.517 52.925 108.517 52.9673C108.518 53.1042 108.517 53.241 108.517 53.3779C108.517 53.4763 108.517 53.5748 108.518 53.6732C108.519 53.94 108.518 54.2068 108.518 54.4736C108.517 54.7529 108.518 55.0323 108.518 55.3117C108.518 55.7808 108.518 56.2498 108.517 56.7189C108.516 57.2611 108.516 57.8033 108.517 58.3454C108.518 58.8112 108.518 59.2769 108.518 59.7426C108.517 60.0207 108.517 60.2987 108.518 60.5768C108.519 60.8382 108.518 61.0996 108.517 61.3609C108.517 61.4568 108.517 61.5527 108.517 61.6486C108.518 61.7796 108.517 61.9105 108.516 62.0414C108.517 62.0793 108.517 62.1172 108.518 62.1562C108.512 62.483 108.38 62.6637 108.166 62.8974C107.945 63.0271 107.74 63.0489 107.485 63.0394C107.174 62.9525 107.032 62.8195 106.851 62.5638C106.789 62.376 106.791 62.2055 106.79 62.01C106.79 61.9694 106.79 61.9288 106.79 61.8869C106.789 61.7504 106.789 61.6139 106.788 61.4774C106.788 61.3796 106.787 61.2819 106.787 61.1842C106.786 60.8629 106.785 60.5416 106.784 60.2203C106.784 60.1097 106.784 59.9991 106.783 59.8885C106.782 59.4284 106.781 58.9683 106.781 58.5082C106.78 57.8488 106.778 57.1895 106.775 56.5301C106.773 56.0665 106.772 55.6029 106.772 55.1393C106.771 54.8624 106.771 54.5855 106.769 54.3086C106.767 54.048 106.767 53.7874 106.768 53.5268C106.768 53.4313 106.767 53.3358 106.766 53.2403C106.758 52.3425 106.758 52.3425 107.063 51.9967C107.362 51.7741 107.779 51.7542 108.113 51.9207Z" fill="#D594DC"/>
</svg>
