<svg width="250" height="172" viewBox="0 0 250 172" fill="none" xmlns="http://www.w3.org/2000/svg">
<path d="M172 85C172.093 92.5025 172.164 100.005 172.207 107.508C172.228 110.993 172.256 114.478 172.302 117.963C172.354 121.982 172.373 126 172.391 130.02C172.411 131.253 172.432 132.487 172.453 133.758C172.456 143.541 171.03 151.949 164.375 159.438C160.11 163.335 155.487 165.348 150 167C149.397 167.192 148.793 167.384 148.172 167.582C138.132 169.514 127.62 168.061 118 165C116.81 160.848 117.21 158.613 118.937 154.688C119.318 153.804 119.698 152.921 120.09 152.012C120.39 151.348 120.691 150.684 121 150C122.176 150.33 123.351 150.66 124.562 151C133.449 152.961 142.981 153.694 151 149C152.917 147.917 152.917 147.917 154 146C154.542 143.32 154.776 140.736 155 138C153.753 138.483 153.753 138.483 152.48 138.977C143.534 141.607 132.907 141.001 124.336 137.32C116.586 132.94 112.956 126.403 110.414 118.082C108.641 109.166 109.723 99.7175 114.254 91.8125C119.228 84.6567 125.613 79.6488 134.109 77.4727C148.122 75.1815 159.92 77.995 172 85ZM132.168 94.5156C128.066 98.9468 126.096 103.286 125.937 109.418C126.188 114.584 127.106 118.547 130.418 122.594C134.218 125.971 138.499 126.836 143.437 127.375C148.006 127.023 148.006 127.023 156 124C156 113.77 156 103.54 156 93C147.624 89.6495 139.583 88.3809 132.168 94.5156Z" fill="#D594DC"/>
<path d="M53 81C58.3743 86.0293 60.631 92.0537 61.1743 99.3361C61.2296 101.883 61.2253 104.422 61.1953 106.969C61.1925 107.89 61.1897 108.811 61.1867 109.759C61.1756 112.673 61.1505 115.586 61.125 118.5C61.115 120.487 61.1058 122.474 61.0977 124.461C61.0757 129.307 61.0413 134.154 61 139C55.72 139 50.44 139 45 139C44.9854 137.85 44.9708 136.7 44.9558 135.515C44.8977 131.232 44.8204 126.95 44.7375 122.667C44.7044 120.816 44.6763 118.966 44.6536 117.115C44.6199 114.449 44.5676 111.783 44.5117 109.117C44.5053 108.295 44.4989 107.473 44.4924 106.626C44.3676 101.706 43.6963 98.2739 41 94C37.4419 91.4294 34.4301 91.8778 30.2578 92.4492C26.8035 93.2919 24.7366 94.7423 22 97C20.3097 100.381 20.7556 104.223 20.6836 107.945C20.6628 108.83 20.642 109.715 20.6206 110.627C20.5551 113.46 20.4962 116.292 20.4375 119.125C20.3943 121.043 20.3507 122.961 20.3066 124.879C20.1995 129.586 20.0982 134.293 20 139C14.72 139 9.44 139 4 139C4 118.87 4 98.74 4 78C8.95 78 13.9 78 19 78C19.33 79.65 19.66 81.3 20 83C20.5311 82.6507 21.0622 82.3013 21.6094 81.9414C22.3158 81.4864 23.0222 81.0313 23.75 80.5625C24.4461 80.11 25.1422 79.6576 25.8594 79.1914C34.0783 74.617 45.2608 76.1749 53 81Z" fill="#D594DC"/>
<path d="M114 79C113.714 80.397 113.421 81.7925 113.125 83.1875C112.963 83.9648 112.8 84.7421 112.633 85.543C111.964 88.1406 111.043 90.5316 110 93C109.299 92.9536 108.598 92.9072 107.875 92.8594C101.402 92.6131 96.3072 93.023 91 97C88.3963 100.906 88.6485 104.287 88.5859 108.824C88.5666 109.686 88.5472 110.547 88.5273 111.435C88.4675 114.185 88.4211 116.936 88.375 119.688C88.3368 121.553 88.2978 123.418 88.2578 125.283C88.1618 129.855 88.0777 134.428 88 139C82.72 139 77.44 139 72 139C72 118.87 72 98.74 72 78C76.95 78 81.9 78 87 78C87.33 79.98 87.66 81.96 88 84C88.7425 83.3813 89.485 82.7625 90.25 82.125C96.9314 76.9621 106.125 75.0625 114 79Z" fill="#D594DC"/>
<path d="M218 62C221.63 62 225.26 62 229 62C229 67.61 229 73.22 229 79C225.37 79 221.74 79 218 79C218 73.39 218 67.78 218 62Z" fill="#D594DC"/>
<path d="M189 62C192.63 62 196.26 62 200 62C200 67.61 200 73.22 200 79C196.37 79 192.74 79 189 79C189 73.39 189 67.78 189 62Z" fill="#D594DC"/>
<path d="M229 51C234.61 51 240.22 51 246 51C246 54.63 246 58.26 246 62C240.39 62 234.78 62 229 62C229 58.37 229 54.74 229 51Z" fill="#D594DC"/>
<path d="M200 51C205.61 51 211.22 51 217 51C217 54.63 217 58.26 217 62C211.39 62 205.78 62 200 62C200 58.37 200 54.74 200 51Z" fill="#D594DC"/>
<path d="M171 51C176.61 51 182.22 51 188 51C188 54.63 188 58.26 188 62C182.39 62 176.78 62 171 62C171 58.37 171 54.74 171 51Z" fill="#D594DC"/>
<path d="M218 33C221.63 33 225.26 33 229 33C229 38.61 229 44.22 229 50C225.37 50 221.74 50 218 50C218 44.39 218 38.78 218 33Z" fill="#D594DC"/>
<path d="M189 33C192.63 33 196.26 33 200 33C200 38.61 200 44.22 200 50C196.37 50 192.74 50 189 50C189 44.39 189 38.78 189 33Z" fill="#D594DC"/>
<path d="M200 22C205.61 22 211.22 22 217 22C217 25.63 217 29.26 217 33C211.39 33 205.78 33 200 33C200 29.37 200 25.74 200 22Z" fill="#D594DC"/>
<path d="M171 22C176.61 22 182.22 22 188 22C188 25.63 188 29.26 188 33C182.39 33 176.78 33 171 33C171 29.37 171 25.74 171 22Z" fill="#D594DC"/>
<path d="M189 4C192.63 4 196.26 4 200 4C200 9.61 200 15.22 200 21C196.37 21 192.74 21 189 21C189 15.39 189 9.78 189 4Z" fill="#D594DC"/>
<path d="M187.304 127.135C189.003 127.971 189.939 128.874 190.699 130.661C191.3 132.977 190.977 134.82 189.945 136.928C187.997 138.902 186.548 139.024 183.905 138.997C182.398 138.85 181.607 138.397 180.514 137.32C179.338 135.804 178.95 134.158 179.005 132.228C179.346 130.486 179.857 129.37 181.103 128.139C183.093 126.814 184.979 126.908 187.304 127.135ZM181.646 130.269C180.712 131.9 180.832 133.156 181.268 134.97C181.956 136.03 182.428 136.747 183.532 137.32C185.694 137.517 185.694 137.517 187.634 136.659C188.891 135.239 189.21 134.359 189.143 132.424C188.783 130.928 188.329 130.191 187.304 129.094C185.179 127.99 183.184 128.53 181.646 130.269Z" fill="#D594DC"/>
<path d="M182 130.108C182.733 130.085 183.466 130.062 184.22 130.039C184.839 130.02 184.839 130.02 185.469 130C186.614 130.108 186.614 130.108 187.466 130.562C188.171 131.424 188.049 131.846 187.825 132.847C187.569 134.03 187.544 134.848 187.998 136C187.237 136 186.476 136 185.691 136C185.558 135.765 185.425 135.529 185.287 135.287C184.848 134.471 184.848 134.471 183.846 134.159C183.846 134.766 183.846 135.374 183.846 136C183.237 136 182.627 136 182 136C182 134.056 182 132.111 182 130.108ZM183.846 131.581C183.846 131.945 183.846 132.31 183.846 132.686C184.455 132.686 185.064 132.686 185.691 132.686C185.691 132.321 185.691 131.957 185.691 131.581C185.082 131.581 184.473 131.581 183.846 131.581Z" fill="#D594DC"/>
</svg>
