<svg width="389" height="306" viewBox="0 0 389 306" fill="none" xmlns="http://www.w3.org/2000/svg">
<path d="M382 70C382 108.66 350.66 140 312 140C273.34 140 242 108.66 242 70C242 31.3401 273.34 0 312 0C350.66 0 382 31.3401 382 70Z" fill="url(#paint0_linear_389_770)"/>
<path d="M382 70C382 108.66 350.66 140 312 140C273.34 140 242 108.66 242 70C242 31.3401 273.34 0 312 0C350.66 0 382 31.3401 382 70Z" fill="#0F1119" fill-opacity="0.42"/>
<path d="M77.7779 188.858C77.7779 253.42 130.116 305.758 194.678 305.758C259.24 305.758 311.578 253.42 311.578 188.858C311.578 124.296 259.24 71.9582 194.678 71.9582C130.116 71.9582 77.7779 124.296 77.7779 188.858Z" fill="url(#paint1_linear_389_770)"/>
<path d="M77.7779 188.858C77.7779 253.42 130.116 305.758 194.678 305.758C259.24 305.758 311.578 253.42 311.578 188.858C311.578 124.296 259.24 71.9582 194.678 71.9582C130.116 71.9582 77.7779 124.296 77.7779 188.858Z" fill="#0F1119" fill-opacity="0.42"/>
<path d="M2.45267 151.367C4.73151 151.633 3.37154 149.126 3.1265 147.983C2.31788 144.199 0.786398 141.969 1.28872 137.62C3.32253 119.989 28.6349 112.988 45.0524 110.624C128.831 98.5856 290.188 145.32 354.645 195.794C373.598 210.639 400.026 237.946 368.195 254.611C334.27 272.364 260.587 263.332 222.741 256.453C208.86 253.923 195.383 249.762 181.636 247.066C180.399 246.822 177.336 245.945 177.642 247.909C212.339 256.508 247.576 265.119 283.621 267.881C321.699 270.799 422.397 267.826 377.837 210.295C328.597 146.696 151.374 102.036 69.1518 105.831C40.8867 107.14 -11.9923 114.63 2.45267 151.367Z" fill="white"/>
<path d="M2.45267 151.367C4.73151 151.633 3.37154 149.126 3.1265 147.983C2.31788 144.199 0.786398 141.969 1.28872 137.62C3.32253 119.989 28.6349 112.988 45.0524 110.624C128.831 98.5856 290.188 145.32 354.645 195.794C373.598 210.639 400.026 237.946 368.195 254.611C334.27 272.364 260.587 263.332 222.741 256.453C208.86 253.923 195.383 249.762 181.636 247.066C180.399 246.822 177.336 245.945 177.642 247.909C212.339 256.508 247.576 265.119 283.621 267.881C321.699 270.799 422.397 267.826 377.837 210.295C328.597 146.696 151.374 102.036 69.1518 105.831C40.8867 107.14 -11.9923 114.63 2.45267 151.367Z" fill="url(#paint2_linear_389_770)"/>
<path d="M20.8304 197.991L35.9124 205.957C53.4571 214.9 55.9687 234.706 56.373 251.238C58.1495 251.46 58.2475 248.22 58.4681 247.055C61.4943 230.689 60.5632 215.799 85.7652 221.28C64.0304 208.975 59.0684 192.532 57.5737 170.252L52.7342 191.932C48.201 205.325 32.1021 199.411 20.8304 198.002V197.991Z" fill="white"/>
<path d="M20.8304 197.991L35.9124 205.957C53.4571 214.9 55.9687 234.706 56.373 251.238C58.1495 251.46 58.2475 248.22 58.4681 247.055C61.4943 230.689 60.5632 215.799 85.7652 221.28C64.0304 208.975 59.0684 192.532 57.5737 170.252L52.7342 191.932C48.201 205.325 32.1021 199.411 20.8304 198.002V197.991Z" fill="url(#paint3_radial_389_770)"/>
<path d="M94.3416 207.977L108.345 216.92C110.575 221.524 112.107 226.162 111.506 231.266C114.459 230.145 113.565 225.308 114.888 222.689C117.828 216.864 123.158 219.538 128.647 220.159L116.566 211.705L112.719 196.881L107.855 208.531L94.3661 207.977H94.3416Z" fill="white"/>
<path d="M94.3416 207.977L108.345 216.92C110.575 221.524 112.107 226.162 111.506 231.266C114.459 230.145 113.565 225.308 114.888 222.689C117.828 216.864 123.158 219.538 128.647 220.159L116.566 211.705L112.719 196.881L107.855 208.531L94.3661 207.977H94.3416Z" fill="url(#paint4_radial_389_770)"/>
<path d="M194.652 71C130.075 71 77.7246 123.325 77.7245 187.872C77.7245 189.723 77.7702 191.564 77.8554 193.395C97.3383 155.944 136.51 130.363 181.661 130.363C244.386 130.363 295.574 179.73 298.459 241.712C306.841 225.599 311.58 207.289 311.58 187.872C311.58 123.325 259.23 71 194.652 71Z" fill="url(#paint5_linear_389_770)"/>
<path d="M194.652 71C130.075 71 77.7246 123.325 77.7245 187.872C77.7245 189.723 77.7702 191.564 77.8554 193.395C97.3383 155.944 136.51 130.363 181.661 130.363C244.386 130.363 295.574 179.73 298.459 241.712C306.841 225.599 311.58 207.289 311.58 187.872C311.58 123.325 259.23 71 194.652 71Z" fill="#0F1119" fill-opacity="0.42"/>
<defs>
<linearGradient id="paint0_linear_389_770" x1="194.5" y1="0" x2="194.5" y2="305.758" gradientUnits="userSpaceOnUse">
<stop stop-color="#D594DC"/>
<stop offset="1" stop-color="#F5DCC6"/>
</linearGradient>
<linearGradient id="paint1_linear_389_770" x1="194.5" y1="0" x2="194.5" y2="305.758" gradientUnits="userSpaceOnUse">
<stop stop-color="#699DE6"/>
<stop offset="1" stop-color="#D594DC"/>
</linearGradient>
<linearGradient id="paint2_linear_389_770" x1="194.5" y1="0" x2="194.5" y2="305.758" gradientUnits="userSpaceOnUse">
<stop stop-color="#D594DC"/>
<stop offset="1" stop-color="#F5DCC6"/>
</linearGradient>
<radialGradient id="paint3_radial_389_770" cx="0" cy="0" r="1" gradientUnits="userSpaceOnUse" gradientTransform="translate(194.5 152.879) rotate(90) scale(152.879 194.5)">
<stop stop-color="#F5DCC6"/>
<stop offset="0.581731" stop-color="#D594DC"/>
<stop offset="1" stop-color="#699DE6"/>
</radialGradient>
<radialGradient id="paint4_radial_389_770" cx="0" cy="0" r="1" gradientUnits="userSpaceOnUse" gradientTransform="translate(194.5 152.879) rotate(90) scale(152.879 194.5)">
<stop stop-color="#F5DCC6"/>
<stop offset="0.581731" stop-color="#D594DC"/>
<stop offset="1" stop-color="#699DE6"/>
</radialGradient>
<linearGradient id="paint5_linear_389_770" x1="194.652" y1="71" x2="194.652" y2="304.743" gradientUnits="userSpaceOnUse">
<stop stop-color="#699DE6"/>
<stop offset="1" stop-color="#D594DC"/>
</linearGradient>
</defs>
</svg>
