<svg width="374" height="229" viewBox="0 0 374 229" fill="none" xmlns="http://www.w3.org/2000/svg">
<path d="M47.5586 151.523C48.2096 152.174 48.9909 152.5 49.9023 152.5C51.3346 152.5 52.3112 151.491 52.832 149.472C53.3529 147.389 53.6133 143.222 53.6133 136.972V127.011C53.6133 125.254 53.3854 124.017 52.9297 123.301C52.474 122.584 51.7253 122.226 50.6836 122.226C49.6419 122.226 48.8932 122.454 48.4375 122.91V135.996C48.4375 139.902 48.1445 145.078 47.5586 151.523ZM51.4648 71.5427V80.2341C45.9961 80.5597 40.9831 81.406 36.4258 82.7732C31.8685 84.0753 29.5898 85.6052 29.5898 87.363C29.5898 88.4047 30.1107 89.2511 31.1523 89.9021C38.3138 86.3865 45.8984 84.6287 53.9062 84.6287C68.2292 84.6287 79.9479 89.5766 89.0625 99.4724C98.2422 109.303 102.832 122.129 102.832 137.949C102.832 157.09 97.2982 171.51 86.2305 181.211C76.1393 190.065 62.4023 194.492 45.0195 194.492C27.7018 194.492 14.9414 191.139 6.73828 184.433C2.24609 180.722 0 175.905 0 169.98V58.5544C3.125 56.7315 6.86849 55.2341 11.2305 54.0623C15.6576 52.8904 20.1172 52.3044 24.6094 52.3044C32.0964 52.3044 38.2812 53.7693 43.1641 56.699C48.6979 60.1495 51.4648 65.0974 51.4648 71.5427Z" fill="white"/>
<path d="M322.688 121.445C322.688 119.101 321.809 117.929 320.051 117.929C318.423 117.929 317.609 118.906 317.609 120.859V130.918C318.13 131.373 318.911 131.601 319.953 131.601C320.995 131.601 321.711 131.211 322.102 130.429C322.492 129.648 322.688 128.216 322.688 126.133V121.445ZM326.301 160.996C322.134 160.996 318.586 160.703 315.656 160.117C315.461 160.703 315.363 161.256 315.363 161.777C315.363 163.209 316.372 164.186 318.391 164.707C320.474 165.163 323.111 165.39 326.301 165.39C336.457 165.39 345.116 163.893 352.277 160.898C359.309 162.721 364.777 166.692 368.684 172.812C371.874 177.825 373.469 183.717 373.469 190.488C373.469 202.532 368.358 211.907 358.137 218.613C347.915 225.319 334.732 228.672 318.586 228.672C302.505 228.672 290.07 225.807 281.281 220.078C273.143 214.87 269.074 208.099 269.074 199.765C269.074 196.575 269.823 193.515 271.32 190.586C272.818 187.591 274.543 185.54 276.496 184.433C279.751 187.168 284.536 189.381 290.852 191.074C297.232 192.767 303.775 193.613 310.48 193.613C317.186 193.613 321.483 193.353 323.371 192.832C325.324 192.311 326.301 191.399 326.301 190.097C326.301 189.446 326.105 188.795 325.715 188.144C322.46 188.86 318.391 189.219 313.508 189.219C300.943 189.219 291.079 187.428 283.918 183.847C275.194 179.551 270.832 173.073 270.832 164.414C270.832 161.028 271.516 157.903 272.883 155.039C274.25 152.109 276.268 149.928 278.938 148.496C275.357 146.282 272.297 142.929 269.758 138.437C267.284 133.945 266.047 128.411 266.047 121.836C266.047 109.336 270.734 99.4724 280.109 92.2458C289.484 85.0193 301.659 81.406 316.633 81.406C323.859 81.406 330.826 82.6104 337.531 85.0193V78.1833C341.372 76.686 346.451 75.9373 352.766 75.9373C359.146 75.9373 363.996 77.0115 367.316 79.1599C371.353 81.7641 373.371 86.3539 373.371 92.9294C373.371 96.5753 372.98 99.505 372.199 101.719C371.483 103.932 370.409 106.243 368.977 108.652C370.669 112.949 371.516 118.288 371.516 124.668C371.516 136.191 367.414 145.143 359.211 151.523C351.073 157.838 340.103 160.996 326.301 160.996Z" fill="white"/>
<path fill-rule="evenodd" clip-rule="evenodd" d="M189.424 2.03644C193.243 -0.0310795 197.269 -0.345541 200.456 0.301093C201.815 0.576856 202.791 1.45404 203.457 2.29133C204.135 3.14289 204.692 4.20155 205.172 5.30891C206.133 7.52573 206.997 10.4571 207.861 13.6136C209.625 20.0499 208.799 26.8139 207.783 33.8968C207.155 38.278 205.429 43.3188 202.936 49.68C201.741 52.7278 200.307 56.0855 198.926 59.2298H199.84C204.129 59.2298 208.083 59.8134 211.674 61.0042C212.499 58.3997 213.62 55.5339 215.056 52.428C217.156 47.8858 220.629 44.0206 223.129 41.2943C225.81 38.3698 228.023 36.624 230.943 34.7298C233.818 32.8649 237.395 30.8521 241.539 29.1409C249.952 25.6669 256.702 24.6528 260.337 24.9691C264.155 25.3014 266.57 27.5252 268.099 29.1683C270.581 31.8377 271.657 35.7995 272.312 39.1165C273.141 43.3235 271.733 47.2975 269.79 50.845C267.092 55.7723 261.82 59.8814 255.911 63.9671C252.324 66.4477 247.626 68.737 242.423 70.9896C237.559 73.0951 232.169 75.0194 228.293 76.2728C229.419 79.3105 229.977 82.6752 229.977 86.3392V125.734H238.646L239.272 127.31C241.688 133.384 242.867 140.25 242.867 147.863C242.867 153.301 241.713 158.193 239.326 162.461L239.322 162.47L239.317 162.478C237.145 166.296 233.959 168.905 229.879 170.267V184.589L228.844 185.337C221.064 190.964 211.71 193.722 200.914 193.722C190.231 193.722 181.265 191.182 174.219 185.898L173.219 185.148V171.261H159.508C148.013 171.261 138.876 167.642 132.503 160.123V160.122C126.746 153.432 124 144.532 124 133.702C124 128.167 124.466 123.254 125.429 118.992L125.611 118.184L126.239 117.645C135.743 109.489 144.582 100.201 152.755 89.7767C157.195 84.0665 163.795 74.418 172.579 60.7728C172.472 60.2593 172.359 59.714 172.237 59.1361C171.423 55.2638 170.533 49.2519 169.978 44.7279C169.035 37.0516 169.617 31.6704 170.891 26.8568C172.428 21.0478 175.878 15.3122 179.22 10.4886C182.178 6.21819 186.04 3.86842 189.424 2.03644ZM183.308 91.4642C182.428 107.103 175.917 118.503 162.761 126.872L154.305 131.617C165.481 129.54 176.016 127.706 181.047 140.062L183.802 150.464C184.872 135.634 191.613 122.5 204.849 115.057L213.305 110.311V110.306C203.439 112.552 190.497 114.268 186.377 102.546L183.308 91.4642Z" fill="url(#paint0_radial_287_128)"/>
<defs>
<radialGradient id="paint0_radial_287_128" cx="0" cy="0" r="1" gradientUnits="userSpaceOnUse" gradientTransform="translate(198.277 96.861) rotate(90) scale(96.861 74.2772)">
<stop stop-color="#F5DCC6"/>
<stop offset="0.581731" stop-color="#D594DC"/>
<stop offset="1" stop-color="#699DE6"/>
</radialGradient>
</defs>
</svg>
