<svg width="200" height="224" viewBox="0 0 200 224" fill="none" xmlns="http://www.w3.org/2000/svg">
<g filter="url(#filter0_n_532_1514)">
<path d="M117.118 5.96057C136.018 22.8506 126.558 58.8906 117.868 78.9606C134.138 61.2706 161.838 31.0806 187.978 46.7206C203.778 56.1806 202.878 78.4405 190.898 90.5605C177.088 104.531 159.878 104.621 143.368 109.621C140.408 110.521 139.788 108.451 140.368 113.761C168.188 114.191 213.978 135.841 194.968 169.431C177.268 200.711 130.268 163.031 117.868 142.441C123.738 161.491 131.088 177.091 127.158 197.831C121.678 226.731 86.2985 233.021 74.7685 204.981C66.2885 184.361 75.3485 164.531 80.9685 144.491C66.0685 161.581 38.7785 190.531 14.0185 177.661C-5.79154 167.361 -2.99154 143.041 12.3585 130.221C27.5285 117.551 38.8785 118.851 55.4685 113.831C58.4285 112.931 59.0485 115.001 58.4685 109.691C40.3485 108.691 13.0585 100.481 4.05846 83.1805C-4.26154 67.1705 0.498459 49.4906 18.3885 44.0206C44.2185 36.1106 65.4285 62.1306 80.9685 78.9606C74.9885 57.5706 64.5585 35.5706 76.4785 14.0306C84.2685 -0.0594196 104.908 -4.95943 117.128 5.96057H117.118Z" fill="white"/>
<path d="M117.118 5.96057C136.018 22.8506 126.558 58.8906 117.868 78.9606C134.138 61.2706 161.838 31.0806 187.978 46.7206C203.778 56.1806 202.878 78.4405 190.898 90.5605C177.088 104.531 159.878 104.621 143.368 109.621C140.408 110.521 139.788 108.451 140.368 113.761C168.188 114.191 213.978 135.841 194.968 169.431C177.268 200.711 130.268 163.031 117.868 142.441C123.738 161.491 131.088 177.091 127.158 197.831C121.678 226.731 86.2985 233.021 74.7685 204.981C66.2885 184.361 75.3485 164.531 80.9685 144.491C66.0685 161.581 38.7785 190.531 14.0185 177.661C-5.79154 167.361 -2.99154 143.041 12.3585 130.221C27.5285 117.551 38.8785 118.851 55.4685 113.831C58.4285 112.931 59.0485 115.001 58.4685 109.691C40.3485 108.691 13.0585 100.481 4.05846 83.1805C-4.26154 67.1705 0.498459 49.4906 18.3885 44.0206C44.2185 36.1106 65.4285 62.1306 80.9685 78.9606C74.9885 57.5706 64.5585 35.5706 76.4785 14.0306C84.2685 -0.0594196 104.908 -4.95943 117.128 5.96057H117.118Z" fill="url(#paint0_radial_532_1514)"/>
</g>
<defs>
<filter id="filter0_n_532_1514" x="0" y="0" width="199.87" height="223.053" filterUnits="userSpaceOnUse" color-interpolation-filters="sRGB">
<feFlood flood-opacity="0" result="BackgroundImageFix"/>
<feBlend mode="normal" in="SourceGraphic" in2="BackgroundImageFix" result="shape"/>
<feTurbulence type="fractalNoise" baseFrequency="0.5 0.5" stitchTiles="stitch" numOctaves="3" result="noise" seed="6385" />
<feColorMatrix in="noise" type="luminanceToAlpha" result="alphaNoise" />
<feComponentTransfer in="alphaNoise" result="coloredNoise1">
<feFuncA type="discrete" tableValues="1 1 1 1 1 1 1 1 1 1 1 1 1 1 1 1 1 1 1 1 1 1 1 1 1 1 1 1 1 1 1 1 1 1 1 1 1 1 1 1 1 1 1 1 1 1 1 1 1 1 1 0 0 0 0 0 0 0 0 0 0 0 0 0 0 0 0 0 0 0 0 0 0 0 0 0 0 0 0 0 0 0 0 0 0 0 0 0 0 0 0 0 0 0 0 0 0 0 0 0 "/>
</feComponentTransfer>
<feComposite operator="in" in2="shape" in="coloredNoise1" result="noise1Clipped" />
<feFlood flood-color="rgba(213, 148, 220, 0.25)" result="color1Flood" />
<feComposite operator="in" in2="noise1Clipped" in="color1Flood" result="color1" />
<feMerge result="effect1_noise_532_1514">
<feMergeNode in="shape" />
<feMergeNode in="color1" />
</feMerge>
</filter>
<radialGradient id="paint0_radial_532_1514" cx="0" cy="0" r="1" gradientUnits="userSpaceOnUse" gradientTransform="translate(99.9349 111.527) rotate(90) scale(111.527 99.9349)">
<stop stop-color="#D594DC"/>
<stop offset="1" stop-color="#F5DCC6"/>
</radialGradient>
</defs>
</svg>
