<svg width="2053" height="1066" viewBox="0 0 2053 1066" fill="none" xmlns="http://www.w3.org/2000/svg">
<path d="M1008.8 786.117C1067.64 849.507 1091.49 931.642 984.618 955.951C1087.38 856.661 896.297 724.516 818.379 675.036C666.451 578.593 490.935 519.244 320.455 464.068L63.642 393.06C250.554 427.57 443.893 483.608 619.938 555.476C737.81 603.565 922.469 693.185 1008.74 786.117H1008.8Z" fill="white"/>
<path d="M1008.8 786.117C1067.64 849.507 1091.49 931.642 984.618 955.951C1087.38 856.661 896.297 724.516 818.379 675.036C666.451 578.593 490.935 519.244 320.455 464.068L63.642 393.06C250.554 427.57 443.893 483.608 619.938 555.476C737.81 603.565 922.469 693.185 1008.74 786.117H1008.8Z" fill="url(#paint0_linear_391_995)"/>
<path d="M2052.15 91.3366L813.291 650.279C783.741 653.402 791.849 630.07 823.335 609.78L1623.46 158.87L1586.42 173.034L794.988 588.254C750.478 608.23 733.454 596.884 695.666 602.528C642.535 610.476 583.249 640.909 604.532 597.647L926.318 214.176L374.988 762.437C254.192 874.223 407.256 911.363 586.164 822.173L2052.15 91.3366Z" fill="white"/>
<path d="M2052.15 91.3366L813.291 650.279C783.741 653.402 791.849 630.07 823.335 609.78L1623.46 158.87L1586.42 173.034L794.988 588.254C750.478 608.23 733.454 596.884 695.666 602.528C642.535 610.476 583.249 640.909 604.532 597.647L926.318 214.176L374.988 762.437C254.192 874.223 407.256 911.363 586.164 822.173L2052.15 91.3366Z" fill="url(#paint1_linear_391_995)"/>
<path d="M48.5438 1041.79L257.545 884.992C301.008 842.855 351.004 808.126 337.324 744.369C323.644 680.612 281.356 644.28 244.786 594.42C312.697 636.957 414.244 692.528 498.788 692.191C658.423 691.521 996.456 478.017 1147.18 394.267C1381.55 264.004 1610.75 125.811 1847.32 0C1755.46 60.8726 1656.73 111.468 1562 167.864C1549.21 175.451 1540.28 187.564 1527.44 195.182C1402.82 269.106 1277.58 343.593 1153.97 417.618C1025.76 494.372 707.384 648.322 638.182 766.068C592.339 844.146 675.255 918.722 713.712 978.402C636.764 930.037 532.593 875.845 434.986 887.951C308.14 903.711 163.442 985.685 48.5187 1041.88L48.5438 1041.79Z" fill="white"/>
<path d="M48.5438 1041.79L257.545 884.992C301.008 842.855 351.004 808.126 337.324 744.369C323.644 680.612 281.356 644.28 244.786 594.42C312.697 636.957 414.244 692.528 498.788 692.191C658.423 691.521 996.456 478.017 1147.18 394.267C1381.55 264.004 1610.75 125.811 1847.32 0C1755.46 60.8726 1656.73 111.468 1562 167.864C1549.21 175.451 1540.28 187.564 1527.44 195.182C1402.82 269.106 1277.58 343.593 1153.97 417.618C1025.76 494.372 707.384 648.322 638.182 766.068C592.339 844.146 675.255 918.722 713.712 978.402C636.764 930.037 532.593 875.845 434.986 887.951C308.14 903.711 163.442 985.685 48.5187 1041.88L48.5438 1041.79Z" fill="url(#paint2_radial_391_995)"/>
<path d="M163.237 472.114L82.2873 510.847C-21.8269 576.854 61.8478 676.823 123.592 730.334C316.236 897.347 777.362 1065.55 1006.41 987.983C1045.08 974.864 1099.88 944.272 1104.1 888.791C1106.06 863.436 1092.6 847.673 1093.62 824.651C1171.89 949.924 1100.61 1022.52 997.982 1050.36C750.535 1117.51 208.46 956.405 39.6198 713.275C-60.4065 569.232 46.8587 484.973 163.194 472.062L163.237 472.114Z" fill="white"/>
<path d="M163.237 472.114L82.2873 510.847C-21.8269 576.854 61.8478 676.823 123.592 730.334C316.236 897.347 777.362 1065.55 1006.41 987.983C1045.08 974.864 1099.88 944.272 1104.1 888.791C1106.06 863.436 1092.6 847.673 1093.62 824.651C1171.89 949.924 1100.61 1022.52 997.982 1050.36C750.535 1117.51 208.46 956.405 39.6198 713.275C-60.4065 569.232 46.8587 484.973 163.194 472.062L163.237 472.114Z" fill="url(#paint3_linear_391_995)"/>
<defs>
<linearGradient id="paint0_linear_391_995" x1="1026.08" y1="0" x2="1026.08" y2="1065.68" gradientUnits="userSpaceOnUse">
<stop stop-color="#699DE6"/>
<stop offset="0.495192" stop-color="#D594DC"/>
<stop offset="1" stop-color="#F5DCC6"/>
</linearGradient>
<linearGradient id="paint1_linear_391_995" x1="1026.08" y1="0" x2="1026.08" y2="1065.68" gradientUnits="userSpaceOnUse">
<stop stop-color="#699DE6"/>
<stop offset="0.495192" stop-color="#D594DC"/>
<stop offset="1" stop-color="#F5DCC6"/>
</linearGradient>
<radialGradient id="paint2_radial_391_995" cx="0" cy="0" r="1" gradientUnits="userSpaceOnUse" gradientTransform="translate(1026.08 532.838) rotate(90) scale(532.838 1026.08)">
<stop stop-color="#D594DC"/>
<stop offset="1" stop-color="#699DE6"/>
</radialGradient>
<linearGradient id="paint3_linear_391_995" x1="563.44" y1="472.063" x2="563.44" y2="1065.68" gradientUnits="userSpaceOnUse">
<stop stop-color="#D594DC"/>
<stop offset="1" stop-color="#F5DCC6"/>
</linearGradient>
</defs>
</svg>
