<svg width="153" height="71" viewBox="0 0 153 71" fill="none" xmlns="http://www.w3.org/2000/svg">
<mask id="path-1-outside-1_448_1364" maskUnits="userSpaceOnUse" x="-0.926758" y="-0.926758" width="96" height="13" fill="black">
<rect fill="white" x="-0.926758" y="-0.926758" width="96" height="13"/>
<path d="M5.76156 11.6728H3.71241V1.83976H0.0732422V0.245204H9.39223V1.83976H5.76156V11.6728Z"/>
<path d="M18.3371 11.6728H11.2968V0.245204H18.3371V1.82412H13.3375V4.92725H18.0225V6.49835H13.3375V10.0861H18.3371V11.6728Z"/>
<path d="M30.1984 11.6728H27.8771L24.7481 6.99079L21.6021 11.6728H19.4169L23.5493 5.74797L19.6975 0.245204H21.9507L24.8417 4.57551L27.7156 0.245204H29.9008L26.0321 5.80269L30.1984 11.6728Z"/>
<path d="M39.5769 11.6728L38.361 8.49936H33.608L32.3921 11.6728H30.2409L34.8664 0.198305H37.1281L41.7451 11.6728H39.5769ZM37.8338 6.88917L36.652 3.7626C36.6066 3.62711 36.5414 3.43691 36.4564 3.192C36.3714 2.94187 36.2863 2.68914 36.2013 2.43381C36.1163 2.17326 36.0454 1.9544 35.9887 1.77723C35.9321 1.99087 35.8612 2.23058 35.7762 2.49634C35.6968 2.75688 35.6175 3.0018 35.5381 3.23108C35.4644 3.46036 35.4077 3.63754 35.368 3.7626L34.1777 6.88917H37.8338Z"/>
<path d="M50.5624 8.56189C50.5624 9.23931 50.381 9.82294 50.0182 10.3128C49.6611 10.8026 49.1453 11.1778 48.4707 11.4383C47.8019 11.6989 47.0026 11.8292 46.073 11.8292C45.6195 11.8292 45.1859 11.8057 44.7721 11.7588C44.3583 11.7119 43.9671 11.6442 43.5987 11.5556C43.2359 11.4618 42.9043 11.3498 42.6039 11.2195V9.45296C43.1084 9.65619 43.6724 9.84118 44.2959 10.0079C44.9194 10.1695 45.5543 10.2502 46.2005 10.2502C46.7277 10.2502 47.1642 10.1877 47.5099 10.0626C47.8614 9.93237 48.1221 9.74999 48.2922 9.5155C48.4622 9.27579 48.5473 8.99701 48.5473 8.67914C48.5473 8.34043 48.4481 8.05382 48.2497 7.81933C48.0513 7.58484 47.7508 7.37119 47.3484 7.17838C46.9516 6.98036 46.4528 6.76932 45.8519 6.54525C45.4438 6.39413 45.0527 6.22217 44.6785 6.02937C44.3101 5.83656 43.9813 5.60988 43.6922 5.34934C43.4031 5.08879 43.1735 4.78134 43.0035 4.427C42.8391 4.06744 42.7569 3.64535 42.7569 3.16073C42.7569 2.51458 42.9241 1.96221 43.2586 1.50365C43.5987 1.04509 44.0748 0.693346 44.687 0.448431C45.3049 0.203516 46.0248 0.0810586 46.8467 0.0810586C47.4986 0.0810586 48.1108 0.14359 48.6833 0.268653C49.2615 0.393716 49.8283 0.570889 50.3839 0.800171L49.7376 2.30874C49.2275 2.11594 48.7315 1.96221 48.2497 1.84757C47.7735 1.73293 47.286 1.67561 46.7872 1.67561C46.3564 1.67561 45.9908 1.73554 45.6904 1.85539C45.3899 1.97524 45.1603 2.1446 45.0016 2.36346C44.8486 2.57711 44.7721 2.83244 44.7721 3.12947C44.7721 3.46297 44.8599 3.74436 45.0356 3.97364C45.217 4.19771 45.4948 4.40355 45.8689 4.59114C46.2487 4.77874 46.7362 4.98717 47.3314 5.21646C48.0173 5.477 48.5983 5.75058 49.0744 6.03718C49.5563 6.32378 49.9247 6.66771 50.1798 7.06895C50.4349 7.46498 50.5624 7.96263 50.5624 8.56189Z"/>
<path d="M65.1871 11.6728L63.9712 8.49936H59.2182L58.0023 11.6728H55.8511L60.4766 0.198305H62.7383L67.3553 11.6728H65.1871ZM63.444 6.88917L62.2622 3.7626C62.2168 3.62711 62.1516 3.43691 62.0666 3.192C61.9816 2.94187 61.8965 2.68914 61.8115 2.43381C61.7265 2.17326 61.6556 1.9544 61.5989 1.77723C61.5423 1.99087 61.4714 2.23058 61.3864 2.49634C61.307 2.75688 61.2277 3.0018 61.1483 3.23108C61.0746 3.46036 61.0179 3.63754 60.9782 3.7626L59.7879 6.88917H63.444Z"/>
<path d="M72.712 0.0732422C73.3525 0.0732422 73.9137 0.169645 74.3955 0.36245C74.883 0.555256 75.2628 0.836647 75.5349 1.20663C75.807 1.57139 75.943 2.01693 75.943 2.54324C75.943 3.24671 75.705 3.84076 75.2288 4.32538C74.7527 4.81 74.1518 5.24251 73.4262 5.62291L76.3597 8.24923C76.6374 7.9001 76.867 7.51709 77.0484 7.10022C77.2298 6.67813 77.3857 6.2352 77.516 5.77142H79.5822C79.4065 6.41758 79.1627 7.05592 78.851 7.68645C78.5392 8.31176 78.1452 8.88497 77.6691 9.40606L80.1944 11.6728H77.6351L76.3767 10.5394C76.0252 10.8 75.6483 11.0267 75.2458 11.2195C74.849 11.4123 74.4154 11.5634 73.9449 11.6728C73.4744 11.7771 72.9557 11.8292 72.3889 11.8292C71.5216 11.8292 70.7734 11.7015 70.1442 11.4462C69.515 11.1908 69.0303 10.8261 68.6902 10.3519C68.3558 9.87245 68.1886 9.30445 68.1886 8.64787C68.1886 8.10072 68.2878 7.63173 68.4861 7.24091C68.6902 6.84488 68.9793 6.49835 69.3534 6.20133C69.7275 5.89909 70.1754 5.61249 70.6969 5.34152C70.4134 5.04449 70.1669 4.75529 69.9571 4.4739C69.7474 4.1925 69.5858 3.9033 69.4725 3.60627C69.3648 3.30404 69.3109 2.98096 69.3109 2.63703C69.3109 2.10552 69.4526 1.64956 69.736 1.26916C70.0195 0.883546 70.4163 0.589127 70.9264 0.3859C71.4366 0.177461 72.0318 0.0732422 72.712 0.0732422ZM71.8787 6.45927C71.55 6.65207 71.2665 6.84749 71.0285 7.0455C70.7904 7.23831 70.6062 7.45196 70.4758 7.68645C70.3511 7.92094 70.2887 8.19452 70.2887 8.50718C70.2887 9.0439 70.4928 9.4686 70.9009 9.78125C71.3147 10.0939 71.8476 10.2502 72.4994 10.2502C73.0719 10.2502 73.5736 10.1721 74.0044 10.0157C74.4409 9.85421 74.8207 9.65359 75.1438 9.41388L71.8787 6.45927ZM72.678 1.5271C72.2755 1.5271 71.9269 1.6235 71.6322 1.81631C71.3431 2.00911 71.1985 2.30874 71.1985 2.7152C71.1985 3.04349 71.2921 3.35354 71.4791 3.64535C71.6718 3.93196 71.9383 4.24201 72.2784 4.57551C72.8736 4.27327 73.3157 3.97625 73.6048 3.68444C73.8996 3.39262 74.0469 3.05391 74.0469 2.6683C74.0469 2.30353 73.9137 2.02214 73.6473 1.82412C73.3809 1.62611 73.0578 1.5271 72.678 1.5271Z"/>
<path d="M87.2347 11.6728L83.655 2.12896H83.5785C83.5955 2.34261 83.6153 2.63443 83.638 3.00441C83.6607 3.37438 83.6805 3.77042 83.6975 4.1925C83.7145 4.61459 83.723 5.01844 83.723 5.40405V11.6728H81.8694V0.245204H84.7349L88.1785 9.36698H88.2295L91.7921 0.245204H94.649V11.6728H92.7019V5.31025C92.7019 4.96112 92.7076 4.58332 92.7189 4.17687C92.7359 3.77042 92.7529 3.3848 92.7699 3.02004C92.7926 2.65527 92.8096 2.36346 92.8209 2.1446H92.7529L89.0372 11.6728H87.2347Z"/>
</mask>
<path d="M5.76156 11.6728H3.71241V1.83976H0.0732422V0.245204H9.39223V1.83976H5.76156V11.6728Z" fill="#D594DC"/>
<path d="M18.3371 11.6728H11.2968V0.245204H18.3371V1.82412H13.3375V4.92725H18.0225V6.49835H13.3375V10.0861H18.3371V11.6728Z" fill="#D594DC"/>
<path d="M30.1984 11.6728H27.8771L24.7481 6.99079L21.6021 11.6728H19.4169L23.5493 5.74797L19.6975 0.245204H21.9507L24.8417 4.57551L27.7156 0.245204H29.9008L26.0321 5.80269L30.1984 11.6728Z" fill="#D594DC"/>
<path d="M39.5769 11.6728L38.361 8.49936H33.608L32.3921 11.6728H30.2409L34.8664 0.198305H37.1281L41.7451 11.6728H39.5769ZM37.8338 6.88917L36.652 3.7626C36.6066 3.62711 36.5414 3.43691 36.4564 3.192C36.3714 2.94187 36.2863 2.68914 36.2013 2.43381C36.1163 2.17326 36.0454 1.9544 35.9887 1.77723C35.9321 1.99087 35.8612 2.23058 35.7762 2.49634C35.6968 2.75688 35.6175 3.0018 35.5381 3.23108C35.4644 3.46036 35.4077 3.63754 35.368 3.7626L34.1777 6.88917H37.8338Z" fill="#D594DC"/>
<path d="M50.5624 8.56189C50.5624 9.23931 50.381 9.82294 50.0182 10.3128C49.6611 10.8026 49.1453 11.1778 48.4707 11.4383C47.8019 11.6989 47.0026 11.8292 46.073 11.8292C45.6195 11.8292 45.1859 11.8057 44.7721 11.7588C44.3583 11.7119 43.9671 11.6442 43.5987 11.5556C43.2359 11.4618 42.9043 11.3498 42.6039 11.2195V9.45296C43.1084 9.65619 43.6724 9.84118 44.2959 10.0079C44.9194 10.1695 45.5543 10.2502 46.2005 10.2502C46.7277 10.2502 47.1642 10.1877 47.5099 10.0626C47.8614 9.93237 48.1221 9.74999 48.2922 9.5155C48.4622 9.27579 48.5473 8.99701 48.5473 8.67914C48.5473 8.34043 48.4481 8.05382 48.2497 7.81933C48.0513 7.58484 47.7508 7.37119 47.3484 7.17838C46.9516 6.98036 46.4528 6.76932 45.8519 6.54525C45.4438 6.39413 45.0527 6.22217 44.6785 6.02937C44.3101 5.83656 43.9813 5.60988 43.6922 5.34934C43.4031 5.08879 43.1735 4.78134 43.0035 4.427C42.8391 4.06744 42.7569 3.64535 42.7569 3.16073C42.7569 2.51458 42.9241 1.96221 43.2586 1.50365C43.5987 1.04509 44.0748 0.693346 44.687 0.448431C45.3049 0.203516 46.0248 0.0810586 46.8467 0.0810586C47.4986 0.0810586 48.1108 0.14359 48.6833 0.268653C49.2615 0.393716 49.8283 0.570889 50.3839 0.800171L49.7376 2.30874C49.2275 2.11594 48.7315 1.96221 48.2497 1.84757C47.7735 1.73293 47.286 1.67561 46.7872 1.67561C46.3564 1.67561 45.9908 1.73554 45.6904 1.85539C45.3899 1.97524 45.1603 2.1446 45.0016 2.36346C44.8486 2.57711 44.7721 2.83244 44.7721 3.12947C44.7721 3.46297 44.8599 3.74436 45.0356 3.97364C45.217 4.19771 45.4948 4.40355 45.8689 4.59114C46.2487 4.77874 46.7362 4.98717 47.3314 5.21646C48.0173 5.477 48.5983 5.75058 49.0744 6.03718C49.5563 6.32378 49.9247 6.66771 50.1798 7.06895C50.4349 7.46498 50.5624 7.96263 50.5624 8.56189Z" fill="#D594DC"/>
<path d="M65.1871 11.6728L63.9712 8.49936H59.2182L58.0023 11.6728H55.8511L60.4766 0.198305H62.7383L67.3553 11.6728H65.1871ZM63.444 6.88917L62.2622 3.7626C62.2168 3.62711 62.1516 3.43691 62.0666 3.192C61.9816 2.94187 61.8965 2.68914 61.8115 2.43381C61.7265 2.17326 61.6556 1.9544 61.5989 1.77723C61.5423 1.99087 61.4714 2.23058 61.3864 2.49634C61.307 2.75688 61.2277 3.0018 61.1483 3.23108C61.0746 3.46036 61.0179 3.63754 60.9782 3.7626L59.7879 6.88917H63.444Z" fill="#D594DC"/>
<path d="M72.712 0.0732422C73.3525 0.0732422 73.9137 0.169645 74.3955 0.36245C74.883 0.555256 75.2628 0.836647 75.5349 1.20663C75.807 1.57139 75.943 2.01693 75.943 2.54324C75.943 3.24671 75.705 3.84076 75.2288 4.32538C74.7527 4.81 74.1518 5.24251 73.4262 5.62291L76.3597 8.24923C76.6374 7.9001 76.867 7.51709 77.0484 7.10022C77.2298 6.67813 77.3857 6.2352 77.516 5.77142H79.5822C79.4065 6.41758 79.1627 7.05592 78.851 7.68645C78.5392 8.31176 78.1452 8.88497 77.6691 9.40606L80.1944 11.6728H77.6351L76.3767 10.5394C76.0252 10.8 75.6483 11.0267 75.2458 11.2195C74.849 11.4123 74.4154 11.5634 73.9449 11.6728C73.4744 11.7771 72.9557 11.8292 72.3889 11.8292C71.5216 11.8292 70.7734 11.7015 70.1442 11.4462C69.515 11.1908 69.0303 10.8261 68.6902 10.3519C68.3558 9.87245 68.1886 9.30445 68.1886 8.64787C68.1886 8.10072 68.2878 7.63173 68.4861 7.24091C68.6902 6.84488 68.9793 6.49835 69.3534 6.20133C69.7275 5.89909 70.1754 5.61249 70.6969 5.34152C70.4134 5.04449 70.1669 4.75529 69.9571 4.4739C69.7474 4.1925 69.5858 3.9033 69.4725 3.60627C69.3648 3.30404 69.3109 2.98096 69.3109 2.63703C69.3109 2.10552 69.4526 1.64956 69.736 1.26916C70.0195 0.883546 70.4163 0.589127 70.9264 0.3859C71.4366 0.177461 72.0318 0.0732422 72.712 0.0732422ZM71.8787 6.45927C71.55 6.65207 71.2665 6.84749 71.0285 7.0455C70.7904 7.23831 70.6062 7.45196 70.4758 7.68645C70.3511 7.92094 70.2887 8.19452 70.2887 8.50718C70.2887 9.0439 70.4928 9.4686 70.9009 9.78125C71.3147 10.0939 71.8476 10.2502 72.4994 10.2502C73.0719 10.2502 73.5736 10.1721 74.0044 10.0157C74.4409 9.85421 74.8207 9.65359 75.1438 9.41388L71.8787 6.45927ZM72.678 1.5271C72.2755 1.5271 71.9269 1.6235 71.6322 1.81631C71.3431 2.00911 71.1985 2.30874 71.1985 2.7152C71.1985 3.04349 71.2921 3.35354 71.4791 3.64535C71.6718 3.93196 71.9383 4.24201 72.2784 4.57551C72.8736 4.27327 73.3157 3.97625 73.6048 3.68444C73.8996 3.39262 74.0469 3.05391 74.0469 2.6683C74.0469 2.30353 73.9137 2.02214 73.6473 1.82412C73.3809 1.62611 73.0578 1.5271 72.678 1.5271Z" fill="#D594DC"/>
<path d="M87.2347 11.6728L83.655 2.12896H83.5785C83.5955 2.34261 83.6153 2.63443 83.638 3.00441C83.6607 3.37438 83.6805 3.77042 83.6975 4.1925C83.7145 4.61459 83.723 5.01844 83.723 5.40405V11.6728H81.8694V0.245204H84.7349L88.1785 9.36698H88.2295L91.7921 0.245204H94.649V11.6728H92.7019V5.31025C92.7019 4.96112 92.7076 4.58332 92.7189 4.17687C92.7359 3.77042 92.7529 3.3848 92.7699 3.02004C92.7926 2.65527 92.8096 2.36346 92.8209 2.1446H92.7529L89.0372 11.6728H87.2347Z" fill="#D594DC"/>
<path d="M5.76156 11.6728H3.71241V1.83976H0.0732422V0.245204H9.39223V1.83976H5.76156V11.6728Z" stroke="#D594DC" stroke-width="0.146332" mask="url(#path-1-outside-1_448_1364)"/>
<path d="M18.3371 11.6728H11.2968V0.245204H18.3371V1.82412H13.3375V4.92725H18.0225V6.49835H13.3375V10.0861H18.3371V11.6728Z" stroke="#D594DC" stroke-width="0.146332" mask="url(#path-1-outside-1_448_1364)"/>
<path d="M30.1984 11.6728H27.8771L24.7481 6.99079L21.6021 11.6728H19.4169L23.5493 5.74797L19.6975 0.245204H21.9507L24.8417 4.57551L27.7156 0.245204H29.9008L26.0321 5.80269L30.1984 11.6728Z" stroke="#D594DC" stroke-width="0.146332" mask="url(#path-1-outside-1_448_1364)"/>
<path d="M39.5769 11.6728L38.361 8.49936H33.608L32.3921 11.6728H30.2409L34.8664 0.198305H37.1281L41.7451 11.6728H39.5769ZM37.8338 6.88917L36.652 3.7626C36.6066 3.62711 36.5414 3.43691 36.4564 3.192C36.3714 2.94187 36.2863 2.68914 36.2013 2.43381C36.1163 2.17326 36.0454 1.9544 35.9887 1.77723C35.9321 1.99087 35.8612 2.23058 35.7762 2.49634C35.6968 2.75688 35.6175 3.0018 35.5381 3.23108C35.4644 3.46036 35.4077 3.63754 35.368 3.7626L34.1777 6.88917H37.8338Z" stroke="#D594DC" stroke-width="0.146332" mask="url(#path-1-outside-1_448_1364)"/>
<path d="M50.5624 8.56189C50.5624 9.23931 50.381 9.82294 50.0182 10.3128C49.6611 10.8026 49.1453 11.1778 48.4707 11.4383C47.8019 11.6989 47.0026 11.8292 46.073 11.8292C45.6195 11.8292 45.1859 11.8057 44.7721 11.7588C44.3583 11.7119 43.9671 11.6442 43.5987 11.5556C43.2359 11.4618 42.9043 11.3498 42.6039 11.2195V9.45296C43.1084 9.65619 43.6724 9.84118 44.2959 10.0079C44.9194 10.1695 45.5543 10.2502 46.2005 10.2502C46.7277 10.2502 47.1642 10.1877 47.5099 10.0626C47.8614 9.93237 48.1221 9.74999 48.2922 9.5155C48.4622 9.27579 48.5473 8.99701 48.5473 8.67914C48.5473 8.34043 48.4481 8.05382 48.2497 7.81933C48.0513 7.58484 47.7508 7.37119 47.3484 7.17838C46.9516 6.98036 46.4528 6.76932 45.8519 6.54525C45.4438 6.39413 45.0527 6.22217 44.6785 6.02937C44.3101 5.83656 43.9813 5.60988 43.6922 5.34934C43.4031 5.08879 43.1735 4.78134 43.0035 4.427C42.8391 4.06744 42.7569 3.64535 42.7569 3.16073C42.7569 2.51458 42.9241 1.96221 43.2586 1.50365C43.5987 1.04509 44.0748 0.693346 44.687 0.448431C45.3049 0.203516 46.0248 0.0810586 46.8467 0.0810586C47.4986 0.0810586 48.1108 0.14359 48.6833 0.268653C49.2615 0.393716 49.8283 0.570889 50.3839 0.800171L49.7376 2.30874C49.2275 2.11594 48.7315 1.96221 48.2497 1.84757C47.7735 1.73293 47.286 1.67561 46.7872 1.67561C46.3564 1.67561 45.9908 1.73554 45.6904 1.85539C45.3899 1.97524 45.1603 2.1446 45.0016 2.36346C44.8486 2.57711 44.7721 2.83244 44.7721 3.12947C44.7721 3.46297 44.8599 3.74436 45.0356 3.97364C45.217 4.19771 45.4948 4.40355 45.8689 4.59114C46.2487 4.77874 46.7362 4.98717 47.3314 5.21646C48.0173 5.477 48.5983 5.75058 49.0744 6.03718C49.5563 6.32378 49.9247 6.66771 50.1798 7.06895C50.4349 7.46498 50.5624 7.96263 50.5624 8.56189Z" stroke="#D594DC" stroke-width="0.146332" mask="url(#path-1-outside-1_448_1364)"/>
<path d="M65.1871 11.6728L63.9712 8.49936H59.2182L58.0023 11.6728H55.8511L60.4766 0.198305H62.7383L67.3553 11.6728H65.1871ZM63.444 6.88917L62.2622 3.7626C62.2168 3.62711 62.1516 3.43691 62.0666 3.192C61.9816 2.94187 61.8965 2.68914 61.8115 2.43381C61.7265 2.17326 61.6556 1.9544 61.5989 1.77723C61.5423 1.99087 61.4714 2.23058 61.3864 2.49634C61.307 2.75688 61.2277 3.0018 61.1483 3.23108C61.0746 3.46036 61.0179 3.63754 60.9782 3.7626L59.7879 6.88917H63.444Z" stroke="#D594DC" stroke-width="0.146332" mask="url(#path-1-outside-1_448_1364)"/>
<path d="M72.712 0.0732422C73.3525 0.0732422 73.9137 0.169645 74.3955 0.36245C74.883 0.555256 75.2628 0.836647 75.5349 1.20663C75.807 1.57139 75.943 2.01693 75.943 2.54324C75.943 3.24671 75.705 3.84076 75.2288 4.32538C74.7527 4.81 74.1518 5.24251 73.4262 5.62291L76.3597 8.24923C76.6374 7.9001 76.867 7.51709 77.0484 7.10022C77.2298 6.67813 77.3857 6.2352 77.516 5.77142H79.5822C79.4065 6.41758 79.1627 7.05592 78.851 7.68645C78.5392 8.31176 78.1452 8.88497 77.6691 9.40606L80.1944 11.6728H77.6351L76.3767 10.5394C76.0252 10.8 75.6483 11.0267 75.2458 11.2195C74.849 11.4123 74.4154 11.5634 73.9449 11.6728C73.4744 11.7771 72.9557 11.8292 72.3889 11.8292C71.5216 11.8292 70.7734 11.7015 70.1442 11.4462C69.515 11.1908 69.0303 10.8261 68.6902 10.3519C68.3558 9.87245 68.1886 9.30445 68.1886 8.64787C68.1886 8.10072 68.2878 7.63173 68.4861 7.24091C68.6902 6.84488 68.9793 6.49835 69.3534 6.20133C69.7275 5.89909 70.1754 5.61249 70.6969 5.34152C70.4134 5.04449 70.1669 4.75529 69.9571 4.4739C69.7474 4.1925 69.5858 3.9033 69.4725 3.60627C69.3648 3.30404 69.3109 2.98096 69.3109 2.63703C69.3109 2.10552 69.4526 1.64956 69.736 1.26916C70.0195 0.883546 70.4163 0.589127 70.9264 0.3859C71.4366 0.177461 72.0318 0.0732422 72.712 0.0732422ZM71.8787 6.45927C71.55 6.65207 71.2665 6.84749 71.0285 7.0455C70.7904 7.23831 70.6062 7.45196 70.4758 7.68645C70.3511 7.92094 70.2887 8.19452 70.2887 8.50718C70.2887 9.0439 70.4928 9.4686 70.9009 9.78125C71.3147 10.0939 71.8476 10.2502 72.4994 10.2502C73.0719 10.2502 73.5736 10.1721 74.0044 10.0157C74.4409 9.85421 74.8207 9.65359 75.1438 9.41388L71.8787 6.45927ZM72.678 1.5271C72.2755 1.5271 71.9269 1.6235 71.6322 1.81631C71.3431 2.00911 71.1985 2.30874 71.1985 2.7152C71.1985 3.04349 71.2921 3.35354 71.4791 3.64535C71.6718 3.93196 71.9383 4.24201 72.2784 4.57551C72.8736 4.27327 73.3157 3.97625 73.6048 3.68444C73.8996 3.39262 74.0469 3.05391 74.0469 2.6683C74.0469 2.30353 73.9137 2.02214 73.6473 1.82412C73.3809 1.62611 73.0578 1.5271 72.678 1.5271Z" stroke="#D594DC" stroke-width="0.146332" mask="url(#path-1-outside-1_448_1364)"/>
<path d="M87.2347 11.6728L83.655 2.12896H83.5785C83.5955 2.34261 83.6153 2.63443 83.638 3.00441C83.6607 3.37438 83.6805 3.77042 83.6975 4.1925C83.7145 4.61459 83.723 5.01844 83.723 5.40405V11.6728H81.8694V0.245204H84.7349L88.1785 9.36698H88.2295L91.7921 0.245204H94.649V11.6728H92.7019V5.31025C92.7019 4.96112 92.7076 4.58332 92.7189 4.17687C92.7359 3.77042 92.7529 3.3848 92.7699 3.02004C92.7926 2.65527 92.8096 2.36346 92.8209 2.1446H92.7529L89.0372 11.6728H87.2347Z" stroke="#D594DC" stroke-width="0.146332" mask="url(#path-1-outside-1_448_1364)"/>
<mask id="path-2-outside-2_448_1364" maskUnits="userSpaceOnUse" x="2.36816" y="21.1738" width="132" height="21" fill="black">
<rect fill="white" x="2.36816" y="21.1738" width="132" height="21"/>
<path d="M3.36816 41.6749V23.4805H5.53468V41.6749H3.36816Z"/>
<path d="M16.9535 27.7864C18.6102 27.7864 19.8634 28.1847 20.713 28.9812C21.5626 29.7693 21.9874 31.0387 21.9874 32.7893V41.6749H19.8974V32.9262C19.8974 31.7895 19.6297 30.9391 19.0945 30.375C18.5677 29.8108 17.7563 29.5287 16.6603 29.5287C15.1141 29.5287 14.0265 29.956 13.3978 30.8105C12.7691 31.6651 12.4548 32.9054 12.4548 34.5315V41.6749H10.3392V28.0353H12.047L12.3656 30.0016H12.4803C12.7776 29.5204 13.1557 29.118 13.6145 28.7945C14.0733 28.4626 14.5873 28.2137 15.1565 28.0478C15.7258 27.8736 16.3248 27.7864 16.9535 27.7864Z"/>
<path d="M35.3816 37.9414C35.3816 38.8126 35.1564 39.5468 34.7061 40.1442C34.2643 40.7332 33.6271 41.1771 32.7945 41.4758C31.9704 41.7744 30.9848 41.9238 29.8378 41.9238C28.8608 41.9238 28.0154 41.8491 27.3017 41.6998C26.5881 41.5504 25.9636 41.3389 25.4283 41.0651V39.161C25.9976 39.4348 26.6773 39.6837 27.4674 39.9077C28.2576 40.1317 29.0647 40.2437 29.8888 40.2437C31.0953 40.2437 31.9704 40.0529 32.5141 39.6713C33.0579 39.2896 33.3297 38.7711 33.3297 38.1157C33.3297 37.7423 33.2193 37.4146 32.9984 37.1325C32.786 36.8421 32.4249 36.5642 31.9151 36.2987C31.4054 36.0249 30.7002 35.7262 29.7996 35.4027C28.9075 35.0708 28.1344 34.7431 27.4802 34.4195C26.8345 34.0877 26.3332 33.6853 25.9763 33.2124C25.628 32.7395 25.4538 32.1255 25.4538 31.3706C25.4538 30.2173 25.9296 29.3338 26.8812 28.7198C27.8412 28.0976 29.0987 27.7864 30.6535 27.7864C31.4946 27.7864 32.2805 27.8694 33.0111 28.0353C33.7503 28.193 34.4385 28.4087 35.0757 28.6825L34.362 30.3376C33.7843 30.097 33.1683 29.8938 32.5141 29.7278C31.8599 29.5619 31.193 29.4789 30.5133 29.4789C29.5362 29.4789 28.7843 29.6366 28.2576 29.9518C27.7393 30.2671 27.4802 30.6985 27.4802 31.2461C27.4802 31.6692 27.5991 32.0177 27.837 32.2915C28.0834 32.5653 28.4742 32.8225 29.0095 33.0631C29.5447 33.3037 30.2499 33.5857 31.125 33.9093C32.0001 34.2246 32.7562 34.5523 33.3935 34.8924C34.0307 35.2243 34.5192 35.6308 34.859 36.112C35.2074 36.5849 35.3816 37.1947 35.3816 37.9414Z"/>
<path d="M43.2957 40.2313C43.644 40.2313 44.0009 40.2022 44.3662 40.1442C44.7315 40.0861 45.0289 40.0156 45.2583 39.9326V41.538C45.0119 41.6458 44.6678 41.7371 44.226 41.8118C43.7927 41.8864 43.3679 41.9238 42.9516 41.9238C42.2124 41.9238 41.5412 41.7993 40.938 41.5504C40.3348 41.2932 39.8505 40.8618 39.4852 40.2562C39.1283 39.6505 38.9499 38.8126 38.9499 37.7423V29.6532H36.9618V28.6451L38.9627 27.8362L39.8038 24.8744H41.0782V28.0353H45.1691V29.6532H41.0782V37.6801C41.0782 38.5346 41.2779 39.1735 41.6772 39.5966C42.085 40.0197 42.6245 40.2313 43.2957 40.2313Z"/>
<path d="M50.203 28.0353V41.6749H48.0875V28.0353H50.203ZM49.1708 22.933C49.5191 22.933 49.8165 23.045 50.0629 23.269C50.3177 23.4847 50.4452 23.8248 50.4452 24.2894C50.4452 24.7458 50.3177 25.0859 50.0629 25.3099C49.8165 25.5339 49.5191 25.6459 49.1708 25.6459C48.8054 25.6459 48.4996 25.5339 48.2532 25.3099C48.0153 25.0859 47.8963 24.7458 47.8963 24.2894C47.8963 23.8248 48.0153 23.4847 48.2532 23.269C48.4996 23.045 48.8054 22.933 49.1708 22.933Z"/>
<path d="M59.2004 40.2313C59.5488 40.2313 59.9056 40.2022 60.2709 40.1442C60.6363 40.0861 60.9336 40.0156 61.163 39.9326V41.538C60.9167 41.6458 60.5726 41.7371 60.1308 41.8118C59.6975 41.8864 59.2726 41.9238 58.8563 41.9238C58.1172 41.9238 57.446 41.7993 56.8428 41.5504C56.2395 41.2932 55.7553 40.8618 55.3899 40.2562C55.0331 39.6505 54.8547 38.8126 54.8547 37.7423V29.6532H52.8666V28.6451L54.8674 27.8362L55.7085 24.8744H56.9829V28.0353H61.0738V29.6532H56.9829V37.6801C56.9829 38.5346 57.1826 39.1735 57.5819 39.5966C57.9897 40.0197 58.5292 40.2313 59.2004 40.2313Z"/>
<path d="M75.5257 28.0353V41.6749H73.7925L73.4867 39.7584H73.372C73.0831 40.2313 72.7093 40.6295 72.2505 40.9531C71.7917 41.2766 71.2734 41.5172 70.6957 41.6749C70.1264 41.8408 69.519 41.9238 68.8733 41.9238C67.7688 41.9238 66.8427 41.7495 66.095 41.4011C65.3474 41.0526 64.7824 40.5134 64.4001 39.7833C64.0262 39.0532 63.8393 38.1157 63.8393 36.9707V28.0353H65.9803V36.8214C65.9803 37.958 66.2437 38.8084 66.7705 39.3726C67.2972 39.9285 68.1001 40.2064 69.1791 40.2064C70.2157 40.2064 71.0398 40.0156 71.6515 39.6339C72.2717 39.2523 72.7178 38.6923 72.9896 37.9539C73.2615 37.2072 73.3975 36.2946 73.3975 35.216V28.0353H75.5257Z"/>
<path d="M84.5104 40.2313C84.8587 40.2313 85.2156 40.2022 85.5809 40.1442C85.9462 40.0861 86.2436 40.0156 86.473 39.9326V41.538C86.2266 41.6458 85.8825 41.7371 85.4407 41.8118C85.0074 41.8864 84.5826 41.9238 84.1663 41.9238C83.4271 41.9238 82.7559 41.7993 82.1527 41.5504C81.5495 41.2932 81.0652 40.8618 80.6999 40.2562C80.343 39.6505 80.1646 38.8126 80.1646 37.7423V29.6532H78.1765V28.6451L80.1774 27.8362L81.0185 24.8744H82.2929V28.0353H86.3838V29.6532H82.2929V37.6801C82.2929 38.5346 82.4926 39.1735 82.8919 39.5966C83.2997 40.0197 83.8392 40.2313 84.5104 40.2313Z"/>
<path d="M94.6802 27.7864C95.8697 27.7864 96.8892 28.0436 97.7388 28.558C98.5885 29.0724 99.2384 29.7942 99.6887 30.7234C100.139 31.6443 100.364 32.7229 100.364 33.9591V35.2409H90.7168C90.7423 36.8421 91.1501 38.0617 91.9402 38.8997C92.7304 39.7376 93.8434 40.1566 95.2792 40.1566C96.1628 40.1566 96.9445 40.0778 97.6241 39.9202C98.3038 39.7625 99.009 39.5302 99.7397 39.2232V41.0402C99.0345 41.3472 98.3336 41.5712 97.6369 41.7122C96.9487 41.8533 96.1331 41.9238 95.19 41.9238C93.8476 41.9238 92.6752 41.6583 91.6726 41.1273C90.6786 40.588 89.9054 39.7999 89.3532 38.7628C88.8009 37.7257 88.5248 36.4563 88.5248 34.9547C88.5248 33.4862 88.7754 32.2168 89.2767 31.1466C89.7865 30.068 90.5002 29.2383 91.4177 28.6576C92.3438 28.0768 93.4313 27.7864 94.6802 27.7864ZM94.6547 29.4789C93.5248 29.4789 92.6242 29.8398 91.953 30.5616C91.2818 31.2834 90.8825 32.2915 90.755 33.5857H98.1467C98.1382 32.7727 98.0065 32.0592 97.7516 31.4452C97.5052 30.823 97.1271 30.3418 96.6174 30.0016C96.1076 29.6532 95.4534 29.4789 94.6547 29.4789Z"/>
<path d="M122.781 34.8302C122.781 35.9503 122.632 36.95 122.335 37.8294C122.038 38.7089 121.609 39.4514 121.048 40.0571C120.487 40.6627 119.808 41.1273 119.009 41.4509C118.219 41.7661 117.322 41.9238 116.32 41.9238C115.385 41.9238 114.527 41.7661 113.746 41.4509C112.972 41.1273 112.301 40.6627 111.732 40.0571C111.171 39.4514 110.734 38.7089 110.419 37.8294C110.113 36.95 109.961 35.9503 109.961 34.8302C109.961 33.3368 110.22 32.0675 110.738 31.0221C111.256 29.9684 111.995 29.1678 112.955 28.6203C113.924 28.0644 115.075 27.7864 116.409 27.7864C117.683 27.7864 118.796 28.0644 119.748 28.6203C120.708 29.1761 121.452 29.9809 121.978 31.0345C122.514 32.0799 122.781 33.3451 122.781 34.8302ZM112.153 34.8302C112.153 35.9254 112.301 36.8753 112.599 37.6801C112.896 38.4849 113.355 39.1071 113.975 39.5468C114.595 39.9865 115.394 40.2064 116.371 40.2064C117.339 40.2064 118.134 39.9865 118.754 39.5468C119.383 39.1071 119.846 38.4849 120.143 37.6801C120.44 36.8753 120.589 35.9254 120.589 34.8302C120.589 33.7434 120.44 32.8059 120.143 32.0177C119.846 31.2212 119.387 30.6073 118.767 30.1759C118.147 29.7444 117.344 29.5287 116.358 29.5287C114.905 29.5287 113.839 29.9975 113.159 30.935C112.488 31.8725 112.153 33.1709 112.153 34.8302Z"/>
<path d="M132.658 29.6532H129.179V41.6749H127.063V29.6532H124.591V28.6576L127.063 27.9731V27.0646C127.063 25.9197 127.237 24.9905 127.586 24.277C127.934 23.5552 128.44 23.0242 129.102 22.6841C129.765 22.3439 130.572 22.1738 131.524 22.1738C132.059 22.1738 132.547 22.2195 132.989 22.3107C133.44 22.402 133.835 22.5057 134.174 22.6218L133.626 24.2521C133.338 24.1609 133.01 24.0779 132.645 24.0032C132.288 23.9203 131.923 23.8788 131.549 23.8788C130.742 23.8788 130.143 24.136 129.752 24.6503C129.37 25.1564 129.179 25.9529 129.179 27.0398V28.0353H132.658V29.6532Z"/>
</mask>
<path d="M3.36816 41.6749V23.4805H5.53468V41.6749H3.36816Z" fill="#D594DC"/>
<path d="M16.9535 27.7864C18.6102 27.7864 19.8634 28.1847 20.713 28.9812C21.5626 29.7693 21.9874 31.0387 21.9874 32.7893V41.6749H19.8974V32.9262C19.8974 31.7895 19.6297 30.9391 19.0945 30.375C18.5677 29.8108 17.7563 29.5287 16.6603 29.5287C15.1141 29.5287 14.0265 29.956 13.3978 30.8105C12.7691 31.6651 12.4548 32.9054 12.4548 34.5315V41.6749H10.3392V28.0353H12.047L12.3656 30.0016H12.4803C12.7776 29.5204 13.1557 29.118 13.6145 28.7945C14.0733 28.4626 14.5873 28.2137 15.1565 28.0478C15.7258 27.8736 16.3248 27.7864 16.9535 27.7864Z" fill="#D594DC"/>
<path d="M35.3816 37.9414C35.3816 38.8126 35.1564 39.5468 34.7061 40.1442C34.2643 40.7332 33.6271 41.1771 32.7945 41.4758C31.9704 41.7744 30.9848 41.9238 29.8378 41.9238C28.8608 41.9238 28.0154 41.8491 27.3017 41.6998C26.5881 41.5504 25.9636 41.3389 25.4283 41.0651V39.161C25.9976 39.4348 26.6773 39.6837 27.4674 39.9077C28.2576 40.1317 29.0647 40.2437 29.8888 40.2437C31.0953 40.2437 31.9704 40.0529 32.5141 39.6713C33.0579 39.2896 33.3297 38.7711 33.3297 38.1157C33.3297 37.7423 33.2193 37.4146 32.9984 37.1325C32.786 36.8421 32.4249 36.5642 31.9151 36.2987C31.4054 36.0249 30.7002 35.7262 29.7996 35.4027C28.9075 35.0708 28.1344 34.7431 27.4802 34.4195C26.8345 34.0877 26.3332 33.6853 25.9763 33.2124C25.628 32.7395 25.4538 32.1255 25.4538 31.3706C25.4538 30.2173 25.9296 29.3338 26.8812 28.7198C27.8412 28.0976 29.0987 27.7864 30.6535 27.7864C31.4946 27.7864 32.2805 27.8694 33.0111 28.0353C33.7503 28.193 34.4385 28.4087 35.0757 28.6825L34.362 30.3376C33.7843 30.097 33.1683 29.8938 32.5141 29.7278C31.8599 29.5619 31.193 29.4789 30.5133 29.4789C29.5362 29.4789 28.7843 29.6366 28.2576 29.9518C27.7393 30.2671 27.4802 30.6985 27.4802 31.2461C27.4802 31.6692 27.5991 32.0177 27.837 32.2915C28.0834 32.5653 28.4742 32.8225 29.0095 33.0631C29.5447 33.3037 30.2499 33.5857 31.125 33.9093C32.0001 34.2246 32.7562 34.5523 33.3935 34.8924C34.0307 35.2243 34.5192 35.6308 34.859 36.112C35.2074 36.5849 35.3816 37.1947 35.3816 37.9414Z" fill="#D594DC"/>
<path d="M43.2957 40.2313C43.644 40.2313 44.0009 40.2022 44.3662 40.1442C44.7315 40.0861 45.0289 40.0156 45.2583 39.9326V41.538C45.0119 41.6458 44.6678 41.7371 44.226 41.8118C43.7927 41.8864 43.3679 41.9238 42.9516 41.9238C42.2124 41.9238 41.5412 41.7993 40.938 41.5504C40.3348 41.2932 39.8505 40.8618 39.4852 40.2562C39.1283 39.6505 38.9499 38.8126 38.9499 37.7423V29.6532H36.9618V28.6451L38.9627 27.8362L39.8038 24.8744H41.0782V28.0353H45.1691V29.6532H41.0782V37.6801C41.0782 38.5346 41.2779 39.1735 41.6772 39.5966C42.085 40.0197 42.6245 40.2313 43.2957 40.2313Z" fill="#D594DC"/>
<path d="M50.203 28.0353V41.6749H48.0875V28.0353H50.203ZM49.1708 22.933C49.5191 22.933 49.8165 23.045 50.0629 23.269C50.3177 23.4847 50.4452 23.8248 50.4452 24.2894C50.4452 24.7458 50.3177 25.0859 50.0629 25.3099C49.8165 25.5339 49.5191 25.6459 49.1708 25.6459C48.8054 25.6459 48.4996 25.5339 48.2532 25.3099C48.0153 25.0859 47.8963 24.7458 47.8963 24.2894C47.8963 23.8248 48.0153 23.4847 48.2532 23.269C48.4996 23.045 48.8054 22.933 49.1708 22.933Z" fill="#D594DC"/>
<path d="M59.2004 40.2313C59.5488 40.2313 59.9056 40.2022 60.2709 40.1442C60.6363 40.0861 60.9336 40.0156 61.163 39.9326V41.538C60.9167 41.6458 60.5726 41.7371 60.1308 41.8118C59.6975 41.8864 59.2726 41.9238 58.8563 41.9238C58.1172 41.9238 57.446 41.7993 56.8428 41.5504C56.2395 41.2932 55.7553 40.8618 55.3899 40.2562C55.0331 39.6505 54.8547 38.8126 54.8547 37.7423V29.6532H52.8666V28.6451L54.8674 27.8362L55.7085 24.8744H56.9829V28.0353H61.0738V29.6532H56.9829V37.6801C56.9829 38.5346 57.1826 39.1735 57.5819 39.5966C57.9897 40.0197 58.5292 40.2313 59.2004 40.2313Z" fill="#D594DC"/>
<path d="M75.5257 28.0353V41.6749H73.7925L73.4867 39.7584H73.372C73.0831 40.2313 72.7093 40.6295 72.2505 40.9531C71.7917 41.2766 71.2734 41.5172 70.6957 41.6749C70.1264 41.8408 69.519 41.9238 68.8733 41.9238C67.7688 41.9238 66.8427 41.7495 66.095 41.4011C65.3474 41.0526 64.7824 40.5134 64.4001 39.7833C64.0262 39.0532 63.8393 38.1157 63.8393 36.9707V28.0353H65.9803V36.8214C65.9803 37.958 66.2437 38.8084 66.7705 39.3726C67.2972 39.9285 68.1001 40.2064 69.1791 40.2064C70.2157 40.2064 71.0398 40.0156 71.6515 39.6339C72.2717 39.2523 72.7178 38.6923 72.9896 37.9539C73.2615 37.2072 73.3975 36.2946 73.3975 35.216V28.0353H75.5257Z" fill="#D594DC"/>
<path d="M84.5104 40.2313C84.8587 40.2313 85.2156 40.2022 85.5809 40.1442C85.9462 40.0861 86.2436 40.0156 86.473 39.9326V41.538C86.2266 41.6458 85.8825 41.7371 85.4407 41.8118C85.0074 41.8864 84.5826 41.9238 84.1663 41.9238C83.4271 41.9238 82.7559 41.7993 82.1527 41.5504C81.5495 41.2932 81.0652 40.8618 80.6999 40.2562C80.343 39.6505 80.1646 38.8126 80.1646 37.7423V29.6532H78.1765V28.6451L80.1774 27.8362L81.0185 24.8744H82.2929V28.0353H86.3838V29.6532H82.2929V37.6801C82.2929 38.5346 82.4926 39.1735 82.8919 39.5966C83.2997 40.0197 83.8392 40.2313 84.5104 40.2313Z" fill="#D594DC"/>
<path d="M94.6802 27.7864C95.8697 27.7864 96.8892 28.0436 97.7388 28.558C98.5885 29.0724 99.2384 29.7942 99.6887 30.7234C100.139 31.6443 100.364 32.7229 100.364 33.9591V35.2409H90.7168C90.7423 36.8421 91.1501 38.0617 91.9402 38.8997C92.7304 39.7376 93.8434 40.1566 95.2792 40.1566C96.1628 40.1566 96.9445 40.0778 97.6241 39.9202C98.3038 39.7625 99.009 39.5302 99.7397 39.2232V41.0402C99.0345 41.3472 98.3336 41.5712 97.6369 41.7122C96.9487 41.8533 96.1331 41.9238 95.19 41.9238C93.8476 41.9238 92.6752 41.6583 91.6726 41.1273C90.6786 40.588 89.9054 39.7999 89.3532 38.7628C88.8009 37.7257 88.5248 36.4563 88.5248 34.9547C88.5248 33.4862 88.7754 32.2168 89.2767 31.1466C89.7865 30.068 90.5002 29.2383 91.4177 28.6576C92.3438 28.0768 93.4313 27.7864 94.6802 27.7864ZM94.6547 29.4789C93.5248 29.4789 92.6242 29.8398 91.953 30.5616C91.2818 31.2834 90.8825 32.2915 90.755 33.5857H98.1467C98.1382 32.7727 98.0065 32.0592 97.7516 31.4452C97.5052 30.823 97.1271 30.3418 96.6174 30.0016C96.1076 29.6532 95.4534 29.4789 94.6547 29.4789Z" fill="#D594DC"/>
<path d="M122.781 34.8302C122.781 35.9503 122.632 36.95 122.335 37.8294C122.038 38.7089 121.609 39.4514 121.048 40.0571C120.487 40.6627 119.808 41.1273 119.009 41.4509C118.219 41.7661 117.322 41.9238 116.32 41.9238C115.385 41.9238 114.527 41.7661 113.746 41.4509C112.972 41.1273 112.301 40.6627 111.732 40.0571C111.171 39.4514 110.734 38.7089 110.419 37.8294C110.113 36.95 109.961 35.9503 109.961 34.8302C109.961 33.3368 110.22 32.0675 110.738 31.0221C111.256 29.9684 111.995 29.1678 112.955 28.6203C113.924 28.0644 115.075 27.7864 116.409 27.7864C117.683 27.7864 118.796 28.0644 119.748 28.6203C120.708 29.1761 121.452 29.9809 121.978 31.0345C122.514 32.0799 122.781 33.3451 122.781 34.8302ZM112.153 34.8302C112.153 35.9254 112.301 36.8753 112.599 37.6801C112.896 38.4849 113.355 39.1071 113.975 39.5468C114.595 39.9865 115.394 40.2064 116.371 40.2064C117.339 40.2064 118.134 39.9865 118.754 39.5468C119.383 39.1071 119.846 38.4849 120.143 37.6801C120.44 36.8753 120.589 35.9254 120.589 34.8302C120.589 33.7434 120.44 32.8059 120.143 32.0177C119.846 31.2212 119.387 30.6073 118.767 30.1759C118.147 29.7444 117.344 29.5287 116.358 29.5287C114.905 29.5287 113.839 29.9975 113.159 30.935C112.488 31.8725 112.153 33.1709 112.153 34.8302Z" fill="#D594DC"/>
<path d="M132.658 29.6532H129.179V41.6749H127.063V29.6532H124.591V28.6576L127.063 27.9731V27.0646C127.063 25.9197 127.237 24.9905 127.586 24.277C127.934 23.5552 128.44 23.0242 129.102 22.6841C129.765 22.3439 130.572 22.1738 131.524 22.1738C132.059 22.1738 132.547 22.2195 132.989 22.3107C133.44 22.402 133.835 22.5057 134.174 22.6218L133.626 24.2521C133.338 24.1609 133.01 24.0779 132.645 24.0032C132.288 23.9203 131.923 23.8788 131.549 23.8788C130.742 23.8788 130.143 24.136 129.752 24.6503C129.37 25.1564 129.179 25.9529 129.179 27.0398V28.0353H132.658V29.6532Z" fill="#D594DC"/>
<path d="M3.36816 41.6749V23.4805H5.53468V41.6749H3.36816Z" stroke="#D594DC" stroke-width="0.146332" mask="url(#path-2-outside-2_448_1364)"/>
<path d="M16.9535 27.7864C18.6102 27.7864 19.8634 28.1847 20.713 28.9812C21.5626 29.7693 21.9874 31.0387 21.9874 32.7893V41.6749H19.8974V32.9262C19.8974 31.7895 19.6297 30.9391 19.0945 30.375C18.5677 29.8108 17.7563 29.5287 16.6603 29.5287C15.1141 29.5287 14.0265 29.956 13.3978 30.8105C12.7691 31.6651 12.4548 32.9054 12.4548 34.5315V41.6749H10.3392V28.0353H12.047L12.3656 30.0016H12.4803C12.7776 29.5204 13.1557 29.118 13.6145 28.7945C14.0733 28.4626 14.5873 28.2137 15.1565 28.0478C15.7258 27.8736 16.3248 27.7864 16.9535 27.7864Z" stroke="#D594DC" stroke-width="0.146332" mask="url(#path-2-outside-2_448_1364)"/>
<path d="M35.3816 37.9414C35.3816 38.8126 35.1564 39.5468 34.7061 40.1442C34.2643 40.7332 33.6271 41.1771 32.7945 41.4758C31.9704 41.7744 30.9848 41.9238 29.8378 41.9238C28.8608 41.9238 28.0154 41.8491 27.3017 41.6998C26.5881 41.5504 25.9636 41.3389 25.4283 41.0651V39.161C25.9976 39.4348 26.6773 39.6837 27.4674 39.9077C28.2576 40.1317 29.0647 40.2437 29.8888 40.2437C31.0953 40.2437 31.9704 40.0529 32.5141 39.6713C33.0579 39.2896 33.3297 38.7711 33.3297 38.1157C33.3297 37.7423 33.2193 37.4146 32.9984 37.1325C32.786 36.8421 32.4249 36.5642 31.9151 36.2987C31.4054 36.0249 30.7002 35.7262 29.7996 35.4027C28.9075 35.0708 28.1344 34.7431 27.4802 34.4195C26.8345 34.0877 26.3332 33.6853 25.9763 33.2124C25.628 32.7395 25.4538 32.1255 25.4538 31.3706C25.4538 30.2173 25.9296 29.3338 26.8812 28.7198C27.8412 28.0976 29.0987 27.7864 30.6535 27.7864C31.4946 27.7864 32.2805 27.8694 33.0111 28.0353C33.7503 28.193 34.4385 28.4087 35.0757 28.6825L34.362 30.3376C33.7843 30.097 33.1683 29.8938 32.5141 29.7278C31.8599 29.5619 31.193 29.4789 30.5133 29.4789C29.5362 29.4789 28.7843 29.6366 28.2576 29.9518C27.7393 30.2671 27.4802 30.6985 27.4802 31.2461C27.4802 31.6692 27.5991 32.0177 27.837 32.2915C28.0834 32.5653 28.4742 32.8225 29.0095 33.0631C29.5447 33.3037 30.2499 33.5857 31.125 33.9093C32.0001 34.2246 32.7562 34.5523 33.3935 34.8924C34.0307 35.2243 34.5192 35.6308 34.859 36.112C35.2074 36.5849 35.3816 37.1947 35.3816 37.9414Z" stroke="#D594DC" stroke-width="0.146332" mask="url(#path-2-outside-2_448_1364)"/>
<path d="M43.2957 40.2313C43.644 40.2313 44.0009 40.2022 44.3662 40.1442C44.7315 40.0861 45.0289 40.0156 45.2583 39.9326V41.538C45.0119 41.6458 44.6678 41.7371 44.226 41.8118C43.7927 41.8864 43.3679 41.9238 42.9516 41.9238C42.2124 41.9238 41.5412 41.7993 40.938 41.5504C40.3348 41.2932 39.8505 40.8618 39.4852 40.2562C39.1283 39.6505 38.9499 38.8126 38.9499 37.7423V29.6532H36.9618V28.6451L38.9627 27.8362L39.8038 24.8744H41.0782V28.0353H45.1691V29.6532H41.0782V37.6801C41.0782 38.5346 41.2779 39.1735 41.6772 39.5966C42.085 40.0197 42.6245 40.2313 43.2957 40.2313Z" stroke="#D594DC" stroke-width="0.146332" mask="url(#path-2-outside-2_448_1364)"/>
<path d="M50.203 28.0353V41.6749H48.0875V28.0353H50.203ZM49.1708 22.933C49.5191 22.933 49.8165 23.045 50.0629 23.269C50.3177 23.4847 50.4452 23.8248 50.4452 24.2894C50.4452 24.7458 50.3177 25.0859 50.0629 25.3099C49.8165 25.5339 49.5191 25.6459 49.1708 25.6459C48.8054 25.6459 48.4996 25.5339 48.2532 25.3099C48.0153 25.0859 47.8963 24.7458 47.8963 24.2894C47.8963 23.8248 48.0153 23.4847 48.2532 23.269C48.4996 23.045 48.8054 22.933 49.1708 22.933Z" stroke="#D594DC" stroke-width="0.146332" mask="url(#path-2-outside-2_448_1364)"/>
<path d="M59.2004 40.2313C59.5488 40.2313 59.9056 40.2022 60.2709 40.1442C60.6363 40.0861 60.9336 40.0156 61.163 39.9326V41.538C60.9167 41.6458 60.5726 41.7371 60.1308 41.8118C59.6975 41.8864 59.2726 41.9238 58.8563 41.9238C58.1172 41.9238 57.446 41.7993 56.8428 41.5504C56.2395 41.2932 55.7553 40.8618 55.3899 40.2562C55.0331 39.6505 54.8547 38.8126 54.8547 37.7423V29.6532H52.8666V28.6451L54.8674 27.8362L55.7085 24.8744H56.9829V28.0353H61.0738V29.6532H56.9829V37.6801C56.9829 38.5346 57.1826 39.1735 57.5819 39.5966C57.9897 40.0197 58.5292 40.2313 59.2004 40.2313Z" stroke="#D594DC" stroke-width="0.146332" mask="url(#path-2-outside-2_448_1364)"/>
<path d="M75.5257 28.0353V41.6749H73.7925L73.4867 39.7584H73.372C73.0831 40.2313 72.7093 40.6295 72.2505 40.9531C71.7917 41.2766 71.2734 41.5172 70.6957 41.6749C70.1264 41.8408 69.519 41.9238 68.8733 41.9238C67.7688 41.9238 66.8427 41.7495 66.095 41.4011C65.3474 41.0526 64.7824 40.5134 64.4001 39.7833C64.0262 39.0532 63.8393 38.1157 63.8393 36.9707V28.0353H65.9803V36.8214C65.9803 37.958 66.2437 38.8084 66.7705 39.3726C67.2972 39.9285 68.1001 40.2064 69.1791 40.2064C70.2157 40.2064 71.0398 40.0156 71.6515 39.6339C72.2717 39.2523 72.7178 38.6923 72.9896 37.9539C73.2615 37.2072 73.3975 36.2946 73.3975 35.216V28.0353H75.5257Z" stroke="#D594DC" stroke-width="0.146332" mask="url(#path-2-outside-2_448_1364)"/>
<path d="M84.5104 40.2313C84.8587 40.2313 85.2156 40.2022 85.5809 40.1442C85.9462 40.0861 86.2436 40.0156 86.473 39.9326V41.538C86.2266 41.6458 85.8825 41.7371 85.4407 41.8118C85.0074 41.8864 84.5826 41.9238 84.1663 41.9238C83.4271 41.9238 82.7559 41.7993 82.1527 41.5504C81.5495 41.2932 81.0652 40.8618 80.6999 40.2562C80.343 39.6505 80.1646 38.8126 80.1646 37.7423V29.6532H78.1765V28.6451L80.1774 27.8362L81.0185 24.8744H82.2929V28.0353H86.3838V29.6532H82.2929V37.6801C82.2929 38.5346 82.4926 39.1735 82.8919 39.5966C83.2997 40.0197 83.8392 40.2313 84.5104 40.2313Z" stroke="#D594DC" stroke-width="0.146332" mask="url(#path-2-outside-2_448_1364)"/>
<path d="M94.6802 27.7864C95.8697 27.7864 96.8892 28.0436 97.7388 28.558C98.5885 29.0724 99.2384 29.7942 99.6887 30.7234C100.139 31.6443 100.364 32.7229 100.364 33.9591V35.2409H90.7168C90.7423 36.8421 91.1501 38.0617 91.9402 38.8997C92.7304 39.7376 93.8434 40.1566 95.2792 40.1566C96.1628 40.1566 96.9445 40.0778 97.6241 39.9202C98.3038 39.7625 99.009 39.5302 99.7397 39.2232V41.0402C99.0345 41.3472 98.3336 41.5712 97.6369 41.7122C96.9487 41.8533 96.1331 41.9238 95.19 41.9238C93.8476 41.9238 92.6752 41.6583 91.6726 41.1273C90.6786 40.588 89.9054 39.7999 89.3532 38.7628C88.8009 37.7257 88.5248 36.4563 88.5248 34.9547C88.5248 33.4862 88.7754 32.2168 89.2767 31.1466C89.7865 30.068 90.5002 29.2383 91.4177 28.6576C92.3438 28.0768 93.4313 27.7864 94.6802 27.7864ZM94.6547 29.4789C93.5248 29.4789 92.6242 29.8398 91.953 30.5616C91.2818 31.2834 90.8825 32.2915 90.755 33.5857H98.1467C98.1382 32.7727 98.0065 32.0592 97.7516 31.4452C97.5052 30.823 97.1271 30.3418 96.6174 30.0016C96.1076 29.6532 95.4534 29.4789 94.6547 29.4789Z" stroke="#D594DC" stroke-width="0.146332" mask="url(#path-2-outside-2_448_1364)"/>
<path d="M122.781 34.8302C122.781 35.9503 122.632 36.95 122.335 37.8294C122.038 38.7089 121.609 39.4514 121.048 40.0571C120.487 40.6627 119.808 41.1273 119.009 41.4509C118.219 41.7661 117.322 41.9238 116.32 41.9238C115.385 41.9238 114.527 41.7661 113.746 41.4509C112.972 41.1273 112.301 40.6627 111.732 40.0571C111.171 39.4514 110.734 38.7089 110.419 37.8294C110.113 36.95 109.961 35.9503 109.961 34.8302C109.961 33.3368 110.22 32.0675 110.738 31.0221C111.256 29.9684 111.995 29.1678 112.955 28.6203C113.924 28.0644 115.075 27.7864 116.409 27.7864C117.683 27.7864 118.796 28.0644 119.748 28.6203C120.708 29.1761 121.452 29.9809 121.978 31.0345C122.514 32.0799 122.781 33.3451 122.781 34.8302ZM112.153 34.8302C112.153 35.9254 112.301 36.8753 112.599 37.6801C112.896 38.4849 113.355 39.1071 113.975 39.5468C114.595 39.9865 115.394 40.2064 116.371 40.2064C117.339 40.2064 118.134 39.9865 118.754 39.5468C119.383 39.1071 119.846 38.4849 120.143 37.6801C120.44 36.8753 120.589 35.9254 120.589 34.8302C120.589 33.7434 120.44 32.8059 120.143 32.0177C119.846 31.2212 119.387 30.6073 118.767 30.1759C118.147 29.7444 117.344 29.5287 116.358 29.5287C114.905 29.5287 113.839 29.9975 113.159 30.935C112.488 31.8725 112.153 33.1709 112.153 34.8302Z" stroke="#D594DC" stroke-width="0.146332" mask="url(#path-2-outside-2_448_1364)"/>
<path d="M132.658 29.6532H129.179V41.6749H127.063V29.6532H124.591V28.6576L127.063 27.9731V27.0646C127.063 25.9197 127.237 24.9905 127.586 24.277C127.934 23.5552 128.44 23.0242 129.102 22.6841C129.765 22.3439 130.572 22.1738 131.524 22.1738C132.059 22.1738 132.547 22.2195 132.989 22.3107C133.44 22.402 133.835 22.5057 134.174 22.6218L133.626 24.2521C133.338 24.1609 133.01 24.0779 132.645 24.0032C132.288 23.9203 131.923 23.8788 131.549 23.8788C130.742 23.8788 130.143 24.136 129.752 24.6503C129.37 25.1564 129.179 25.9529 129.179 27.0398V28.0353H132.658V29.6532Z" stroke="#D594DC" stroke-width="0.146332" mask="url(#path-2-outside-2_448_1364)"/>
<mask id="path-3-outside-3_448_1364" maskUnits="userSpaceOnUse" x="2.36816" y="50.3267" width="150" height="21" fill="black">
<rect fill="white" x="2.36816" y="50.3267" width="150" height="21"/>
<path d="M17.9001 60.9412C17.9001 63.0217 17.5246 64.761 16.7736 66.1591C16.0226 67.5489 14.9336 68.5975 13.5067 69.305C12.0882 70.0041 10.365 70.3537 8.33731 70.3537H3.36816V51.8826H8.88805C10.7489 51.8826 12.351 52.2279 13.6945 52.9186C15.0379 53.6008 16.0727 54.6157 16.7986 55.9634C17.5329 57.3026 17.9001 58.9619 17.9001 60.9412ZM15.6596 61.017C15.6596 59.3578 15.3842 57.9891 14.8335 56.911C14.2911 55.8328 13.49 55.0327 12.4303 54.5105C11.3789 53.9798 10.0897 53.7145 8.56261 53.7145H5.49601V68.5091H8.08697C10.607 68.5091 12.497 67.8816 13.7571 66.6266C15.0254 65.3716 15.6596 63.5018 15.6596 61.017Z"/>
<path d="M26.787 56.2792C28.4225 56.2792 29.6366 56.6498 30.4294 57.391C31.2221 58.1323 31.6184 59.3157 31.6184 60.9412V70.3537H30.1039L29.7034 68.307H29.6033C29.2194 68.8123 28.8189 69.2377 28.4016 69.583C27.9844 69.9199 27.5004 70.1768 26.9497 70.3537C26.4073 70.5221 25.7397 70.6064 24.947 70.6064C24.1126 70.6064 23.3699 70.459 22.719 70.1642C22.0765 69.8694 21.5675 69.423 21.192 68.8249C20.8248 68.2269 20.6413 67.4689 20.6413 66.5508C20.6413 65.1695 21.1837 64.1082 22.2684 63.367C23.3532 62.6258 25.0054 62.2215 27.2251 62.1541L29.5907 62.053V61.2066C29.5907 60.0105 29.3362 59.1725 28.8272 58.6924C28.3182 58.2123 27.6006 57.9722 26.6743 57.9722C25.9567 57.9722 25.2725 58.0775 24.6216 58.2881C23.9707 58.4986 23.3532 58.7471 22.7691 59.0335L22.1308 57.4416C22.7482 57.1215 23.4575 56.8478 24.2586 56.6204C25.0597 56.393 25.9025 56.2792 26.787 56.2792ZM29.5657 63.5312L27.4754 63.6197C25.7648 63.6871 24.559 63.9692 23.8581 64.4662C23.1571 64.9631 22.8067 65.6664 22.8067 66.5761C22.8067 67.3678 23.0445 67.9532 23.5201 68.3322C23.9958 68.7112 24.6258 68.9008 25.4101 68.9008C26.6284 68.9008 27.6256 68.5596 28.4016 67.8774C29.1777 67.1951 29.5657 66.1718 29.5657 64.8073V63.5312Z"/>
<path d="M40.3301 68.8881C40.6722 68.8881 41.0227 68.8586 41.3815 68.7997C41.7403 68.7407 42.0324 68.6691 42.2577 68.5849V70.2147C42.0157 70.3242 41.6777 70.4169 41.2438 70.4927C40.8182 70.5685 40.401 70.6064 39.9921 70.6064C39.2662 70.6064 38.607 70.48 38.0145 70.2273C37.422 69.9662 36.9464 69.5283 36.5876 68.9134C36.2371 68.2985 36.0619 67.4478 36.0619 66.3613V58.1491H34.1093V57.1257L36.0744 56.3045L36.9005 53.2976H38.1522V56.5067H42.1701V58.1491H38.1522V66.2981C38.1522 67.1657 38.3483 67.8142 38.7405 68.2438C39.141 68.6733 39.6709 68.8881 40.3301 68.8881Z"/>
<path d="M50.1683 56.2792C51.8038 56.2792 53.0179 56.6498 53.8106 57.391C54.6034 58.1323 54.9997 59.3157 54.9997 60.9412V70.3537H53.4852L53.0847 68.307H52.9845C52.6007 68.8123 52.2001 69.2377 51.7829 69.583C51.3657 69.9199 50.8817 70.1768 50.331 70.3537C49.7886 70.5221 49.121 70.6064 48.3283 70.6064C47.4938 70.6064 46.7512 70.459 46.1003 70.1642C45.4578 69.8694 44.9488 69.423 44.5733 68.8249C44.2061 68.2269 44.0225 67.4689 44.0225 66.5508C44.0225 65.1695 44.5649 64.1082 45.6497 63.367C46.7345 62.6258 48.3867 62.2215 50.6063 62.1541L52.972 62.053V61.2066C52.972 60.0105 52.7175 59.1725 52.2085 58.6924C51.6995 58.2123 50.9818 57.9722 50.0556 57.9722C49.338 57.9722 48.6537 58.0775 48.0029 58.2881C47.352 58.4986 46.7345 58.7471 46.1504 59.0335L45.512 57.4416C46.1295 57.1215 46.8388 56.8478 47.6399 56.6204C48.4409 56.393 49.2837 56.2792 50.1683 56.2792ZM52.947 63.5312L50.8567 63.6197C49.1461 63.6871 47.9403 63.9692 47.2393 64.4662C46.5384 64.9631 46.1879 65.6664 46.1879 66.5761C46.1879 67.3678 46.4257 67.9532 46.9014 68.3322C47.377 68.7112 48.007 68.9008 48.7914 68.9008C50.0097 68.9008 51.0069 68.5596 51.7829 67.8774C52.5589 67.1951 52.947 66.1718 52.947 64.8073V63.5312Z"/>
<path d="M76.5786 65.439C76.5786 66.534 76.3074 67.4689 75.765 68.2438C75.2309 69.0103 74.4799 69.5956 73.512 69.9999C72.544 70.4042 71.405 70.6064 70.0949 70.6064C69.4023 70.6064 68.7473 70.5727 68.1298 70.5053C67.5123 70.4379 66.9449 70.341 66.4275 70.2147C65.9101 70.0884 65.4554 69.9325 65.0632 69.7472V67.6879C65.689 67.949 66.4525 68.1932 67.3537 68.4207C68.2549 68.6396 69.1979 68.7491 70.1825 68.7491C71.1004 68.7491 71.8764 68.627 72.5106 68.3828C73.1448 68.1301 73.6246 67.7721 73.9501 67.3089C74.2838 66.8372 74.4507 66.2729 74.4507 65.6159C74.4507 64.9842 74.313 64.4577 74.0377 64.0366C73.7623 63.607 73.3034 63.2196 72.6608 62.8743C72.0267 62.5205 71.1588 62.1457 70.0574 61.7498C69.2813 61.4719 68.5971 61.1687 68.0046 60.8402C67.4121 60.5033 66.9156 60.1242 66.5151 59.7031C66.1146 59.282 65.81 58.7934 65.6014 58.2375C65.4011 57.6816 65.301 57.0457 65.301 56.3298C65.301 55.3443 65.5471 54.502 66.0395 53.803C66.5401 53.0954 67.2286 52.5564 68.1047 52.1858C68.9893 51.8068 70.0031 51.6172 71.1463 51.6172C72.1226 51.6172 73.0238 51.7099 73.8499 51.8952C74.6844 52.0805 75.4479 52.329 76.1405 52.6406L75.4771 54.4852C74.8179 54.2072 74.117 53.9756 73.3743 53.7903C72.64 53.605 71.8806 53.5124 71.0962 53.5124C70.3119 53.5124 69.6485 53.6303 69.1061 53.8661C68.572 54.0935 68.1631 54.4178 67.8794 54.839C67.5957 55.2601 67.4539 55.7612 67.4539 56.3424C67.4539 56.991 67.5874 57.53 67.8544 57.9596C68.1298 58.3891 68.5637 58.7724 69.1561 59.1093C69.757 59.4378 70.5497 59.7831 71.5343 60.1453C72.6108 60.5412 73.5245 60.9623 74.2755 61.4087C75.0265 61.8467 75.5981 62.3857 75.9903 63.0259C76.3825 63.6576 76.5786 64.462 76.5786 65.439Z"/>
<path d="M85.503 70.6064C84.268 70.6064 83.1791 70.3495 82.2361 69.8357C81.2932 69.3219 80.5589 68.5386 80.0332 67.4857C79.5075 66.4329 79.2446 65.1063 79.2446 63.506C79.2446 61.8298 79.52 60.4611 80.0707 59.3999C80.6298 58.3302 81.3975 57.5384 82.3738 57.0247C83.3501 56.5109 84.4599 56.254 85.7033 56.254C86.3875 56.254 87.0467 56.3256 87.6809 56.4688C88.3234 56.6035 88.8491 56.7762 89.258 56.9868L88.6322 58.7429C88.215 58.5744 87.731 58.4228 87.1802 58.2881C86.6379 58.1533 86.1288 58.0859 85.6532 58.0859C84.7019 58.0859 83.9092 58.2923 83.275 58.705C82.6492 59.1177 82.1777 59.7242 81.8606 60.5243C81.5519 61.3245 81.3975 62.3099 81.3975 63.4807C81.3975 64.6009 81.5477 65.5569 81.8481 66.3487C82.1569 67.1404 82.6116 67.7468 83.2124 68.168C83.8216 68.5807 84.5809 68.787 85.4905 68.787C86.2165 68.787 86.8715 68.7112 87.4556 68.5596C88.0397 68.3996 88.5696 68.2143 89.0452 68.0037V69.8736C88.5863 70.1094 88.0731 70.2905 87.5057 70.4169C86.9466 70.5432 86.279 70.6064 85.503 70.6064Z"/>
<path d="M94.3774 56.5067V70.3537H92.2996V56.5067H94.3774ZM93.3635 51.3267C93.7056 51.3267 93.9977 51.4404 94.2397 51.6678C94.49 51.8868 94.6152 52.2321 94.6152 52.7038C94.6152 53.167 94.49 53.5124 94.2397 53.7398C93.9977 53.9672 93.7056 54.0809 93.3635 54.0809C93.0047 54.0809 92.7043 53.9672 92.4623 53.7398C92.2287 53.5124 92.1119 53.167 92.1119 52.7038C92.1119 52.2321 92.2287 51.8868 92.4623 51.6678C92.7043 51.4404 93.0047 51.3267 93.3635 51.3267Z"/>
<path d="M104.065 56.254C105.234 56.254 106.235 56.5151 107.069 57.0373C107.904 57.5595 108.542 58.2923 108.984 59.2356C109.427 60.1706 109.648 61.2655 109.648 62.5205V63.8218H100.173C100.198 65.4474 100.598 66.6856 101.374 67.5363C102.15 68.387 103.243 68.8123 104.654 68.8123C105.521 68.8123 106.289 68.7323 106.957 68.5723C107.624 68.4122 108.317 68.1764 109.034 67.8648V69.7093C108.342 70.021 107.653 70.2484 106.969 70.3916C106.293 70.5348 105.492 70.6064 104.566 70.6064C103.248 70.6064 102.096 70.3368 101.111 69.7978C100.135 69.2503 99.3757 68.4501 98.8333 67.3973C98.2909 66.3444 98.0197 65.0558 98.0197 63.5312C98.0197 62.0404 98.2659 60.7517 98.7582 59.6652C99.2589 58.5702 99.9598 57.728 100.861 57.1384C101.771 56.5488 102.839 56.254 104.065 56.254ZM104.04 57.9722C102.93 57.9722 102.046 58.3386 101.387 59.0714C100.728 59.8042 100.335 60.8275 100.21 62.1415H107.47C107.462 61.3161 107.332 60.5917 107.082 59.9684C106.84 59.3367 106.469 58.8482 105.968 58.5029C105.467 58.1491 104.825 57.9722 104.04 57.9722Z"/>
<path d="M119.674 56.254C121.301 56.254 122.532 56.6583 123.366 57.4669C124.201 58.267 124.618 59.5557 124.618 61.3329V70.3537H122.565V61.4719C122.565 60.318 122.302 59.4546 121.777 58.8819C121.259 58.3091 120.462 58.0228 119.386 58.0228C117.867 58.0228 116.799 58.4565 116.182 59.3241C115.564 60.1916 115.255 61.4508 115.255 63.1017V70.3537H113.178V56.5067H114.855L115.168 58.5029H115.28C115.572 58.0143 115.944 57.6058 116.394 57.2773C116.845 56.9404 117.35 56.6877 117.909 56.5193C118.468 56.3424 119.056 56.254 119.674 56.254Z"/>
<path d="M134.393 70.6064C133.158 70.6064 132.069 70.3495 131.127 69.8357C130.184 69.3219 129.449 68.5386 128.924 67.4857C128.398 66.4329 128.135 65.1063 128.135 63.506C128.135 61.8298 128.41 60.4611 128.961 59.3999C129.52 58.3302 130.288 57.5384 131.264 57.0247C132.241 56.5109 133.35 56.254 134.594 56.254C135.278 56.254 135.937 56.3256 136.571 56.4688C137.214 56.6035 137.74 56.7762 138.148 56.9868L137.523 58.7429C137.105 58.5744 136.621 58.4228 136.071 58.2881C135.528 58.1533 135.019 58.0859 134.544 58.0859C133.592 58.0859 132.8 58.2923 132.165 58.705C131.54 59.1177 131.068 59.7242 130.751 60.5243C130.442 61.3245 130.288 62.3099 130.288 63.4807C130.288 64.6009 130.438 65.5569 130.739 66.3487C131.047 67.1404 131.502 67.7468 132.103 68.168C132.712 68.5807 133.471 68.787 134.381 68.787C135.107 68.787 135.762 68.7112 136.346 68.5596C136.93 68.3996 137.46 68.2143 137.936 68.0037V69.8736C137.477 70.1094 136.964 70.2905 136.396 70.4169C135.837 70.5432 135.169 70.6064 134.393 70.6064Z"/>
<path d="M146.472 56.254C147.64 56.254 148.642 56.5151 149.476 57.0373C150.311 57.5595 150.949 58.2923 151.391 59.2356C151.833 60.1706 152.055 61.2655 152.055 62.5205V63.8218H142.579C142.604 65.4474 143.005 66.6856 143.781 67.5363C144.557 68.387 145.65 68.8123 147.06 68.8123C147.928 68.8123 148.696 68.7323 149.363 68.5723C150.031 68.4122 150.724 68.1764 151.441 67.8648V69.7093C150.749 70.021 150.06 70.2484 149.376 70.3916C148.7 70.5348 147.899 70.6064 146.973 70.6064C145.654 70.6064 144.503 70.3368 143.518 69.7978C142.542 69.2503 141.782 68.4501 141.24 67.3973C140.698 66.3444 140.426 65.0558 140.426 63.5312C140.426 62.0404 140.673 60.7517 141.165 59.6652C141.666 58.5702 142.367 57.728 143.268 57.1384C144.177 56.5488 145.245 56.254 146.472 56.254ZM146.447 57.9722C145.337 57.9722 144.453 58.3386 143.793 59.0714C143.134 59.8042 142.742 60.8275 142.617 62.1415H149.877C149.868 61.3161 149.739 60.5917 149.489 59.9684C149.247 59.3367 148.875 58.8482 148.375 58.5029C147.874 58.1491 147.231 57.9722 146.447 57.9722Z"/>
</mask>
<path d="M17.9001 60.9412C17.9001 63.0217 17.5246 64.761 16.7736 66.1591C16.0226 67.5489 14.9336 68.5975 13.5067 69.305C12.0882 70.0041 10.365 70.3537 8.33731 70.3537H3.36816V51.8826H8.88805C10.7489 51.8826 12.351 52.2279 13.6945 52.9186C15.0379 53.6008 16.0727 54.6157 16.7986 55.9634C17.5329 57.3026 17.9001 58.9619 17.9001 60.9412ZM15.6596 61.017C15.6596 59.3578 15.3842 57.9891 14.8335 56.911C14.2911 55.8328 13.49 55.0327 12.4303 54.5105C11.3789 53.9798 10.0897 53.7145 8.56261 53.7145H5.49601V68.5091H8.08697C10.607 68.5091 12.497 67.8816 13.7571 66.6266C15.0254 65.3716 15.6596 63.5018 15.6596 61.017Z" fill="#D594DC"/>
<path d="M26.787 56.2792C28.4225 56.2792 29.6366 56.6498 30.4294 57.391C31.2221 58.1323 31.6184 59.3157 31.6184 60.9412V70.3537H30.1039L29.7034 68.307H29.6033C29.2194 68.8123 28.8189 69.2377 28.4016 69.583C27.9844 69.9199 27.5004 70.1768 26.9497 70.3537C26.4073 70.5221 25.7397 70.6064 24.947 70.6064C24.1126 70.6064 23.3699 70.459 22.719 70.1642C22.0765 69.8694 21.5675 69.423 21.192 68.8249C20.8248 68.2269 20.6413 67.4689 20.6413 66.5508C20.6413 65.1695 21.1837 64.1082 22.2684 63.367C23.3532 62.6258 25.0054 62.2215 27.2251 62.1541L29.5907 62.053V61.2066C29.5907 60.0105 29.3362 59.1725 28.8272 58.6924C28.3182 58.2123 27.6006 57.9722 26.6743 57.9722C25.9567 57.9722 25.2725 58.0775 24.6216 58.2881C23.9707 58.4986 23.3532 58.7471 22.7691 59.0335L22.1308 57.4416C22.7482 57.1215 23.4575 56.8478 24.2586 56.6204C25.0597 56.393 25.9025 56.2792 26.787 56.2792ZM29.5657 63.5312L27.4754 63.6197C25.7648 63.6871 24.559 63.9692 23.8581 64.4662C23.1571 64.9631 22.8067 65.6664 22.8067 66.5761C22.8067 67.3678 23.0445 67.9532 23.5201 68.3322C23.9958 68.7112 24.6258 68.9008 25.4101 68.9008C26.6284 68.9008 27.6256 68.5596 28.4016 67.8774C29.1777 67.1951 29.5657 66.1718 29.5657 64.8073V63.5312Z" fill="#D594DC"/>
<path d="M40.3301 68.8881C40.6722 68.8881 41.0227 68.8586 41.3815 68.7997C41.7403 68.7407 42.0324 68.6691 42.2577 68.5849V70.2147C42.0157 70.3242 41.6777 70.4169 41.2438 70.4927C40.8182 70.5685 40.401 70.6064 39.9921 70.6064C39.2662 70.6064 38.607 70.48 38.0145 70.2273C37.422 69.9662 36.9464 69.5283 36.5876 68.9134C36.2371 68.2985 36.0619 67.4478 36.0619 66.3613V58.1491H34.1093V57.1257L36.0744 56.3045L36.9005 53.2976H38.1522V56.5067H42.1701V58.1491H38.1522V66.2981C38.1522 67.1657 38.3483 67.8142 38.7405 68.2438C39.141 68.6733 39.6709 68.8881 40.3301 68.8881Z" fill="#D594DC"/>
<path d="M50.1683 56.2792C51.8038 56.2792 53.0179 56.6498 53.8106 57.391C54.6034 58.1323 54.9997 59.3157 54.9997 60.9412V70.3537H53.4852L53.0847 68.307H52.9845C52.6007 68.8123 52.2001 69.2377 51.7829 69.583C51.3657 69.9199 50.8817 70.1768 50.331 70.3537C49.7886 70.5221 49.121 70.6064 48.3283 70.6064C47.4938 70.6064 46.7512 70.459 46.1003 70.1642C45.4578 69.8694 44.9488 69.423 44.5733 68.8249C44.2061 68.2269 44.0225 67.4689 44.0225 66.5508C44.0225 65.1695 44.5649 64.1082 45.6497 63.367C46.7345 62.6258 48.3867 62.2215 50.6063 62.1541L52.972 62.053V61.2066C52.972 60.0105 52.7175 59.1725 52.2085 58.6924C51.6995 58.2123 50.9818 57.9722 50.0556 57.9722C49.338 57.9722 48.6537 58.0775 48.0029 58.2881C47.352 58.4986 46.7345 58.7471 46.1504 59.0335L45.512 57.4416C46.1295 57.1215 46.8388 56.8478 47.6399 56.6204C48.4409 56.393 49.2837 56.2792 50.1683 56.2792ZM52.947 63.5312L50.8567 63.6197C49.1461 63.6871 47.9403 63.9692 47.2393 64.4662C46.5384 64.9631 46.1879 65.6664 46.1879 66.5761C46.1879 67.3678 46.4257 67.9532 46.9014 68.3322C47.377 68.7112 48.007 68.9008 48.7914 68.9008C50.0097 68.9008 51.0069 68.5596 51.7829 67.8774C52.5589 67.1951 52.947 66.1718 52.947 64.8073V63.5312Z" fill="#D594DC"/>
<path d="M76.5786 65.439C76.5786 66.534 76.3074 67.4689 75.765 68.2438C75.2309 69.0103 74.4799 69.5956 73.512 69.9999C72.544 70.4042 71.405 70.6064 70.0949 70.6064C69.4023 70.6064 68.7473 70.5727 68.1298 70.5053C67.5123 70.4379 66.9449 70.341 66.4275 70.2147C65.9101 70.0884 65.4554 69.9325 65.0632 69.7472V67.6879C65.689 67.949 66.4525 68.1932 67.3537 68.4207C68.2549 68.6396 69.1979 68.7491 70.1825 68.7491C71.1004 68.7491 71.8764 68.627 72.5106 68.3828C73.1448 68.1301 73.6246 67.7721 73.9501 67.3089C74.2838 66.8372 74.4507 66.2729 74.4507 65.6159C74.4507 64.9842 74.313 64.4577 74.0377 64.0366C73.7623 63.607 73.3034 63.2196 72.6608 62.8743C72.0267 62.5205 71.1588 62.1457 70.0574 61.7498C69.2813 61.4719 68.5971 61.1687 68.0046 60.8402C67.4121 60.5033 66.9156 60.1242 66.5151 59.7031C66.1146 59.282 65.81 58.7934 65.6014 58.2375C65.4011 57.6816 65.301 57.0457 65.301 56.3298C65.301 55.3443 65.5471 54.502 66.0395 53.803C66.5401 53.0954 67.2286 52.5564 68.1047 52.1858C68.9893 51.8068 70.0031 51.6172 71.1463 51.6172C72.1226 51.6172 73.0238 51.7099 73.8499 51.8952C74.6844 52.0805 75.4479 52.329 76.1405 52.6406L75.4771 54.4852C74.8179 54.2072 74.117 53.9756 73.3743 53.7903C72.64 53.605 71.8806 53.5124 71.0962 53.5124C70.3119 53.5124 69.6485 53.6303 69.1061 53.8661C68.572 54.0935 68.1631 54.4178 67.8794 54.839C67.5957 55.2601 67.4539 55.7612 67.4539 56.3424C67.4539 56.991 67.5874 57.53 67.8544 57.9596C68.1298 58.3891 68.5637 58.7724 69.1561 59.1093C69.757 59.4378 70.5497 59.7831 71.5343 60.1453C72.6108 60.5412 73.5245 60.9623 74.2755 61.4087C75.0265 61.8467 75.5981 62.3857 75.9903 63.0259C76.3825 63.6576 76.5786 64.462 76.5786 65.439Z" fill="#D594DC"/>
<path d="M85.503 70.6064C84.268 70.6064 83.1791 70.3495 82.2361 69.8357C81.2932 69.3219 80.5589 68.5386 80.0332 67.4857C79.5075 66.4329 79.2446 65.1063 79.2446 63.506C79.2446 61.8298 79.52 60.4611 80.0707 59.3999C80.6298 58.3302 81.3975 57.5384 82.3738 57.0247C83.3501 56.5109 84.4599 56.254 85.7033 56.254C86.3875 56.254 87.0467 56.3256 87.6809 56.4688C88.3234 56.6035 88.8491 56.7762 89.258 56.9868L88.6322 58.7429C88.215 58.5744 87.731 58.4228 87.1802 58.2881C86.6379 58.1533 86.1288 58.0859 85.6532 58.0859C84.7019 58.0859 83.9092 58.2923 83.275 58.705C82.6492 59.1177 82.1777 59.7242 81.8606 60.5243C81.5519 61.3245 81.3975 62.3099 81.3975 63.4807C81.3975 64.6009 81.5477 65.5569 81.8481 66.3487C82.1569 67.1404 82.6116 67.7468 83.2124 68.168C83.8216 68.5807 84.5809 68.787 85.4905 68.787C86.2165 68.787 86.8715 68.7112 87.4556 68.5596C88.0397 68.3996 88.5696 68.2143 89.0452 68.0037V69.8736C88.5863 70.1094 88.0731 70.2905 87.5057 70.4169C86.9466 70.5432 86.279 70.6064 85.503 70.6064Z" fill="#D594DC"/>
<path d="M94.3774 56.5067V70.3537H92.2996V56.5067H94.3774ZM93.3635 51.3267C93.7056 51.3267 93.9977 51.4404 94.2397 51.6678C94.49 51.8868 94.6152 52.2321 94.6152 52.7038C94.6152 53.167 94.49 53.5124 94.2397 53.7398C93.9977 53.9672 93.7056 54.0809 93.3635 54.0809C93.0047 54.0809 92.7043 53.9672 92.4623 53.7398C92.2287 53.5124 92.1119 53.167 92.1119 52.7038C92.1119 52.2321 92.2287 51.8868 92.4623 51.6678C92.7043 51.4404 93.0047 51.3267 93.3635 51.3267Z" fill="#D594DC"/>
<path d="M104.065 56.254C105.234 56.254 106.235 56.5151 107.069 57.0373C107.904 57.5595 108.542 58.2923 108.984 59.2356C109.427 60.1706 109.648 61.2655 109.648 62.5205V63.8218H100.173C100.198 65.4474 100.598 66.6856 101.374 67.5363C102.15 68.387 103.243 68.8123 104.654 68.8123C105.521 68.8123 106.289 68.7323 106.957 68.5723C107.624 68.4122 108.317 68.1764 109.034 67.8648V69.7093C108.342 70.021 107.653 70.2484 106.969 70.3916C106.293 70.5348 105.492 70.6064 104.566 70.6064C103.248 70.6064 102.096 70.3368 101.111 69.7978C100.135 69.2503 99.3757 68.4501 98.8333 67.3973C98.2909 66.3444 98.0197 65.0558 98.0197 63.5312C98.0197 62.0404 98.2659 60.7517 98.7582 59.6652C99.2589 58.5702 99.9598 57.728 100.861 57.1384C101.771 56.5488 102.839 56.254 104.065 56.254ZM104.04 57.9722C102.93 57.9722 102.046 58.3386 101.387 59.0714C100.728 59.8042 100.335 60.8275 100.21 62.1415H107.47C107.462 61.3161 107.332 60.5917 107.082 59.9684C106.84 59.3367 106.469 58.8482 105.968 58.5029C105.467 58.1491 104.825 57.9722 104.04 57.9722Z" fill="#D594DC"/>
<path d="M119.674 56.254C121.301 56.254 122.532 56.6583 123.366 57.4669C124.201 58.267 124.618 59.5557 124.618 61.3329V70.3537H122.565V61.4719C122.565 60.318 122.302 59.4546 121.777 58.8819C121.259 58.3091 120.462 58.0228 119.386 58.0228C117.867 58.0228 116.799 58.4565 116.182 59.3241C115.564 60.1916 115.255 61.4508 115.255 63.1017V70.3537H113.178V56.5067H114.855L115.168 58.5029H115.28C115.572 58.0143 115.944 57.6058 116.394 57.2773C116.845 56.9404 117.35 56.6877 117.909 56.5193C118.468 56.3424 119.056 56.254 119.674 56.254Z" fill="#D594DC"/>
<path d="M134.393 70.6064C133.158 70.6064 132.069 70.3495 131.127 69.8357C130.184 69.3219 129.449 68.5386 128.924 67.4857C128.398 66.4329 128.135 65.1063 128.135 63.506C128.135 61.8298 128.41 60.4611 128.961 59.3999C129.52 58.3302 130.288 57.5384 131.264 57.0247C132.241 56.5109 133.35 56.254 134.594 56.254C135.278 56.254 135.937 56.3256 136.571 56.4688C137.214 56.6035 137.74 56.7762 138.148 56.9868L137.523 58.7429C137.105 58.5744 136.621 58.4228 136.071 58.2881C135.528 58.1533 135.019 58.0859 134.544 58.0859C133.592 58.0859 132.8 58.2923 132.165 58.705C131.54 59.1177 131.068 59.7242 130.751 60.5243C130.442 61.3245 130.288 62.3099 130.288 63.4807C130.288 64.6009 130.438 65.5569 130.739 66.3487C131.047 67.1404 131.502 67.7468 132.103 68.168C132.712 68.5807 133.471 68.787 134.381 68.787C135.107 68.787 135.762 68.7112 136.346 68.5596C136.93 68.3996 137.46 68.2143 137.936 68.0037V69.8736C137.477 70.1094 136.964 70.2905 136.396 70.4169C135.837 70.5432 135.169 70.6064 134.393 70.6064Z" fill="#D594DC"/>
<path d="M146.472 56.254C147.64 56.254 148.642 56.5151 149.476 57.0373C150.311 57.5595 150.949 58.2923 151.391 59.2356C151.833 60.1706 152.055 61.2655 152.055 62.5205V63.8218H142.579C142.604 65.4474 143.005 66.6856 143.781 67.5363C144.557 68.387 145.65 68.8123 147.06 68.8123C147.928 68.8123 148.696 68.7323 149.363 68.5723C150.031 68.4122 150.724 68.1764 151.441 67.8648V69.7093C150.749 70.021 150.06 70.2484 149.376 70.3916C148.7 70.5348 147.899 70.6064 146.973 70.6064C145.654 70.6064 144.503 70.3368 143.518 69.7978C142.542 69.2503 141.782 68.4501 141.24 67.3973C140.698 66.3444 140.426 65.0558 140.426 63.5312C140.426 62.0404 140.673 60.7517 141.165 59.6652C141.666 58.5702 142.367 57.728 143.268 57.1384C144.177 56.5488 145.245 56.254 146.472 56.254ZM146.447 57.9722C145.337 57.9722 144.453 58.3386 143.793 59.0714C143.134 59.8042 142.742 60.8275 142.617 62.1415H149.877C149.868 61.3161 149.739 60.5917 149.489 59.9684C149.247 59.3367 148.875 58.8482 148.375 58.5029C147.874 58.1491 147.231 57.9722 146.447 57.9722Z" fill="#D594DC"/>
<path d="M17.9001 60.9412C17.9001 63.0217 17.5246 64.761 16.7736 66.1591C16.0226 67.5489 14.9336 68.5975 13.5067 69.305C12.0882 70.0041 10.365 70.3537 8.33731 70.3537H3.36816V51.8826H8.88805C10.7489 51.8826 12.351 52.2279 13.6945 52.9186C15.0379 53.6008 16.0727 54.6157 16.7986 55.9634C17.5329 57.3026 17.9001 58.9619 17.9001 60.9412ZM15.6596 61.017C15.6596 59.3578 15.3842 57.9891 14.8335 56.911C14.2911 55.8328 13.49 55.0327 12.4303 54.5105C11.3789 53.9798 10.0897 53.7145 8.56261 53.7145H5.49601V68.5091H8.08697C10.607 68.5091 12.497 67.8816 13.7571 66.6266C15.0254 65.3716 15.6596 63.5018 15.6596 61.017Z" stroke="#D594DC" stroke-width="0.146332" mask="url(#path-3-outside-3_448_1364)"/>
<path d="M26.787 56.2792C28.4225 56.2792 29.6366 56.6498 30.4294 57.391C31.2221 58.1323 31.6184 59.3157 31.6184 60.9412V70.3537H30.1039L29.7034 68.307H29.6033C29.2194 68.8123 28.8189 69.2377 28.4016 69.583C27.9844 69.9199 27.5004 70.1768 26.9497 70.3537C26.4073 70.5221 25.7397 70.6064 24.947 70.6064C24.1126 70.6064 23.3699 70.459 22.719 70.1642C22.0765 69.8694 21.5675 69.423 21.192 68.8249C20.8248 68.2269 20.6413 67.4689 20.6413 66.5508C20.6413 65.1695 21.1837 64.1082 22.2684 63.367C23.3532 62.6258 25.0054 62.2215 27.2251 62.1541L29.5907 62.053V61.2066C29.5907 60.0105 29.3362 59.1725 28.8272 58.6924C28.3182 58.2123 27.6006 57.9722 26.6743 57.9722C25.9567 57.9722 25.2725 58.0775 24.6216 58.2881C23.9707 58.4986 23.3532 58.7471 22.7691 59.0335L22.1308 57.4416C22.7482 57.1215 23.4575 56.8478 24.2586 56.6204C25.0597 56.393 25.9025 56.2792 26.787 56.2792ZM29.5657 63.5312L27.4754 63.6197C25.7648 63.6871 24.559 63.9692 23.8581 64.4662C23.1571 64.9631 22.8067 65.6664 22.8067 66.5761C22.8067 67.3678 23.0445 67.9532 23.5201 68.3322C23.9958 68.7112 24.6258 68.9008 25.4101 68.9008C26.6284 68.9008 27.6256 68.5596 28.4016 67.8774C29.1777 67.1951 29.5657 66.1718 29.5657 64.8073V63.5312Z" stroke="#D594DC" stroke-width="0.146332" mask="url(#path-3-outside-3_448_1364)"/>
<path d="M40.3301 68.8881C40.6722 68.8881 41.0227 68.8586 41.3815 68.7997C41.7403 68.7407 42.0324 68.6691 42.2577 68.5849V70.2147C42.0157 70.3242 41.6777 70.4169 41.2438 70.4927C40.8182 70.5685 40.401 70.6064 39.9921 70.6064C39.2662 70.6064 38.607 70.48 38.0145 70.2273C37.422 69.9662 36.9464 69.5283 36.5876 68.9134C36.2371 68.2985 36.0619 67.4478 36.0619 66.3613V58.1491H34.1093V57.1257L36.0744 56.3045L36.9005 53.2976H38.1522V56.5067H42.1701V58.1491H38.1522V66.2981C38.1522 67.1657 38.3483 67.8142 38.7405 68.2438C39.141 68.6733 39.6709 68.8881 40.3301 68.8881Z" stroke="#D594DC" stroke-width="0.146332" mask="url(#path-3-outside-3_448_1364)"/>
<path d="M50.1683 56.2792C51.8038 56.2792 53.0179 56.6498 53.8106 57.391C54.6034 58.1323 54.9997 59.3157 54.9997 60.9412V70.3537H53.4852L53.0847 68.307H52.9845C52.6007 68.8123 52.2001 69.2377 51.7829 69.583C51.3657 69.9199 50.8817 70.1768 50.331 70.3537C49.7886 70.5221 49.121 70.6064 48.3283 70.6064C47.4938 70.6064 46.7512 70.459 46.1003 70.1642C45.4578 69.8694 44.9488 69.423 44.5733 68.8249C44.2061 68.2269 44.0225 67.4689 44.0225 66.5508C44.0225 65.1695 44.5649 64.1082 45.6497 63.367C46.7345 62.6258 48.3867 62.2215 50.6063 62.1541L52.972 62.053V61.2066C52.972 60.0105 52.7175 59.1725 52.2085 58.6924C51.6995 58.2123 50.9818 57.9722 50.0556 57.9722C49.338 57.9722 48.6537 58.0775 48.0029 58.2881C47.352 58.4986 46.7345 58.7471 46.1504 59.0335L45.512 57.4416C46.1295 57.1215 46.8388 56.8478 47.6399 56.6204C48.4409 56.393 49.2837 56.2792 50.1683 56.2792ZM52.947 63.5312L50.8567 63.6197C49.1461 63.6871 47.9403 63.9692 47.2393 64.4662C46.5384 64.9631 46.1879 65.6664 46.1879 66.5761C46.1879 67.3678 46.4257 67.9532 46.9014 68.3322C47.377 68.7112 48.007 68.9008 48.7914 68.9008C50.0097 68.9008 51.0069 68.5596 51.7829 67.8774C52.5589 67.1951 52.947 66.1718 52.947 64.8073V63.5312Z" stroke="#D594DC" stroke-width="0.146332" mask="url(#path-3-outside-3_448_1364)"/>
<path d="M76.5786 65.439C76.5786 66.534 76.3074 67.4689 75.765 68.2438C75.2309 69.0103 74.4799 69.5956 73.512 69.9999C72.544 70.4042 71.405 70.6064 70.0949 70.6064C69.4023 70.6064 68.7473 70.5727 68.1298 70.5053C67.5123 70.4379 66.9449 70.341 66.4275 70.2147C65.9101 70.0884 65.4554 69.9325 65.0632 69.7472V67.6879C65.689 67.949 66.4525 68.1932 67.3537 68.4207C68.2549 68.6396 69.1979 68.7491 70.1825 68.7491C71.1004 68.7491 71.8764 68.627 72.5106 68.3828C73.1448 68.1301 73.6246 67.7721 73.9501 67.3089C74.2838 66.8372 74.4507 66.2729 74.4507 65.6159C74.4507 64.9842 74.313 64.4577 74.0377 64.0366C73.7623 63.607 73.3034 63.2196 72.6608 62.8743C72.0267 62.5205 71.1588 62.1457 70.0574 61.7498C69.2813 61.4719 68.5971 61.1687 68.0046 60.8402C67.4121 60.5033 66.9156 60.1242 66.5151 59.7031C66.1146 59.282 65.81 58.7934 65.6014 58.2375C65.4011 57.6816 65.301 57.0457 65.301 56.3298C65.301 55.3443 65.5471 54.502 66.0395 53.803C66.5401 53.0954 67.2286 52.5564 68.1047 52.1858C68.9893 51.8068 70.0031 51.6172 71.1463 51.6172C72.1226 51.6172 73.0238 51.7099 73.8499 51.8952C74.6844 52.0805 75.4479 52.329 76.1405 52.6406L75.4771 54.4852C74.8179 54.2072 74.117 53.9756 73.3743 53.7903C72.64 53.605 71.8806 53.5124 71.0962 53.5124C70.3119 53.5124 69.6485 53.6303 69.1061 53.8661C68.572 54.0935 68.1631 54.4178 67.8794 54.839C67.5957 55.2601 67.4539 55.7612 67.4539 56.3424C67.4539 56.991 67.5874 57.53 67.8544 57.9596C68.1298 58.3891 68.5637 58.7724 69.1561 59.1093C69.757 59.4378 70.5497 59.7831 71.5343 60.1453C72.6108 60.5412 73.5245 60.9623 74.2755 61.4087C75.0265 61.8467 75.5981 62.3857 75.9903 63.0259C76.3825 63.6576 76.5786 64.462 76.5786 65.439Z" stroke="#D594DC" stroke-width="0.146332" mask="url(#path-3-outside-3_448_1364)"/>
<path d="M85.503 70.6064C84.268 70.6064 83.1791 70.3495 82.2361 69.8357C81.2932 69.3219 80.5589 68.5386 80.0332 67.4857C79.5075 66.4329 79.2446 65.1063 79.2446 63.506C79.2446 61.8298 79.52 60.4611 80.0707 59.3999C80.6298 58.3302 81.3975 57.5384 82.3738 57.0247C83.3501 56.5109 84.4599 56.254 85.7033 56.254C86.3875 56.254 87.0467 56.3256 87.6809 56.4688C88.3234 56.6035 88.8491 56.7762 89.258 56.9868L88.6322 58.7429C88.215 58.5744 87.731 58.4228 87.1802 58.2881C86.6379 58.1533 86.1288 58.0859 85.6532 58.0859C84.7019 58.0859 83.9092 58.2923 83.275 58.705C82.6492 59.1177 82.1777 59.7242 81.8606 60.5243C81.5519 61.3245 81.3975 62.3099 81.3975 63.4807C81.3975 64.6009 81.5477 65.5569 81.8481 66.3487C82.1569 67.1404 82.6116 67.7468 83.2124 68.168C83.8216 68.5807 84.5809 68.787 85.4905 68.787C86.2165 68.787 86.8715 68.7112 87.4556 68.5596C88.0397 68.3996 88.5696 68.2143 89.0452 68.0037V69.8736C88.5863 70.1094 88.0731 70.2905 87.5057 70.4169C86.9466 70.5432 86.279 70.6064 85.503 70.6064Z" stroke="#D594DC" stroke-width="0.146332" mask="url(#path-3-outside-3_448_1364)"/>
<path d="M94.3774 56.5067V70.3537H92.2996V56.5067H94.3774ZM93.3635 51.3267C93.7056 51.3267 93.9977 51.4404 94.2397 51.6678C94.49 51.8868 94.6152 52.2321 94.6152 52.7038C94.6152 53.167 94.49 53.5124 94.2397 53.7398C93.9977 53.9672 93.7056 54.0809 93.3635 54.0809C93.0047 54.0809 92.7043 53.9672 92.4623 53.7398C92.2287 53.5124 92.1119 53.167 92.1119 52.7038C92.1119 52.2321 92.2287 51.8868 92.4623 51.6678C92.7043 51.4404 93.0047 51.3267 93.3635 51.3267Z" stroke="#D594DC" stroke-width="0.146332" mask="url(#path-3-outside-3_448_1364)"/>
<path d="M104.065 56.254C105.234 56.254 106.235 56.5151 107.069 57.0373C107.904 57.5595 108.542 58.2923 108.984 59.2356C109.427 60.1706 109.648 61.2655 109.648 62.5205V63.8218H100.173C100.198 65.4474 100.598 66.6856 101.374 67.5363C102.15 68.387 103.243 68.8123 104.654 68.8123C105.521 68.8123 106.289 68.7323 106.957 68.5723C107.624 68.4122 108.317 68.1764 109.034 67.8648V69.7093C108.342 70.021 107.653 70.2484 106.969 70.3916C106.293 70.5348 105.492 70.6064 104.566 70.6064C103.248 70.6064 102.096 70.3368 101.111 69.7978C100.135 69.2503 99.3757 68.4501 98.8333 67.3973C98.2909 66.3444 98.0197 65.0558 98.0197 63.5312C98.0197 62.0404 98.2659 60.7517 98.7582 59.6652C99.2589 58.5702 99.9598 57.728 100.861 57.1384C101.771 56.5488 102.839 56.254 104.065 56.254ZM104.04 57.9722C102.93 57.9722 102.046 58.3386 101.387 59.0714C100.728 59.8042 100.335 60.8275 100.21 62.1415H107.47C107.462 61.3161 107.332 60.5917 107.082 59.9684C106.84 59.3367 106.469 58.8482 105.968 58.5029C105.467 58.1491 104.825 57.9722 104.04 57.9722Z" stroke="#D594DC" stroke-width="0.146332" mask="url(#path-3-outside-3_448_1364)"/>
<path d="M119.674 56.254C121.301 56.254 122.532 56.6583 123.366 57.4669C124.201 58.267 124.618 59.5557 124.618 61.3329V70.3537H122.565V61.4719C122.565 60.318 122.302 59.4546 121.777 58.8819C121.259 58.3091 120.462 58.0228 119.386 58.0228C117.867 58.0228 116.799 58.4565 116.182 59.3241C115.564 60.1916 115.255 61.4508 115.255 63.1017V70.3537H113.178V56.5067H114.855L115.168 58.5029H115.28C115.572 58.0143 115.944 57.6058 116.394 57.2773C116.845 56.9404 117.35 56.6877 117.909 56.5193C118.468 56.3424 119.056 56.254 119.674 56.254Z" stroke="#D594DC" stroke-width="0.146332" mask="url(#path-3-outside-3_448_1364)"/>
<path d="M134.393 70.6064C133.158 70.6064 132.069 70.3495 131.127 69.8357C130.184 69.3219 129.449 68.5386 128.924 67.4857C128.398 66.4329 128.135 65.1063 128.135 63.506C128.135 61.8298 128.41 60.4611 128.961 59.3999C129.52 58.3302 130.288 57.5384 131.264 57.0247C132.241 56.5109 133.35 56.254 134.594 56.254C135.278 56.254 135.937 56.3256 136.571 56.4688C137.214 56.6035 137.74 56.7762 138.148 56.9868L137.523 58.7429C137.105 58.5744 136.621 58.4228 136.071 58.2881C135.528 58.1533 135.019 58.0859 134.544 58.0859C133.592 58.0859 132.8 58.2923 132.165 58.705C131.54 59.1177 131.068 59.7242 130.751 60.5243C130.442 61.3245 130.288 62.3099 130.288 63.4807C130.288 64.6009 130.438 65.5569 130.739 66.3487C131.047 67.1404 131.502 67.7468 132.103 68.168C132.712 68.5807 133.471 68.787 134.381 68.787C135.107 68.787 135.762 68.7112 136.346 68.5596C136.93 68.3996 137.46 68.2143 137.936 68.0037V69.8736C137.477 70.1094 136.964 70.2905 136.396 70.4169C135.837 70.5432 135.169 70.6064 134.393 70.6064Z" stroke="#D594DC" stroke-width="0.146332" mask="url(#path-3-outside-3_448_1364)"/>
<path d="M146.472 56.254C147.64 56.254 148.642 56.5151 149.476 57.0373C150.311 57.5595 150.949 58.2923 151.391 59.2356C151.833 60.1706 152.055 61.2655 152.055 62.5205V63.8218H142.579C142.604 65.4474 143.005 66.6856 143.781 67.5363C144.557 68.387 145.65 68.8123 147.06 68.8123C147.928 68.8123 148.696 68.7323 149.363 68.5723C150.031 68.4122 150.724 68.1764 151.441 67.8648V69.7093C150.749 70.021 150.06 70.2484 149.376 70.3916C148.7 70.5348 147.899 70.6064 146.973 70.6064C145.654 70.6064 144.503 70.3368 143.518 69.7978C142.542 69.2503 141.782 68.4501 141.24 67.3973C140.698 66.3444 140.426 65.0558 140.426 63.5312C140.426 62.0404 140.673 60.7517 141.165 59.6652C141.666 58.5702 142.367 57.728 143.268 57.1384C144.177 56.5488 145.245 56.254 146.472 56.254ZM146.447 57.9722C145.337 57.9722 144.453 58.3386 143.793 59.0714C143.134 59.8042 142.742 60.8275 142.617 62.1415H149.877C149.868 61.3161 149.739 60.5917 149.489 59.9684C149.247 59.3367 148.875 58.8482 148.375 58.5029C147.874 58.1491 147.231 57.9722 146.447 57.9722Z" stroke="#D594DC" stroke-width="0.146332" mask="url(#path-3-outside-3_448_1364)"/>
</svg>
